<svg width="364" height="364" viewBox="0 0 364 364" fill="none" xmlns="http://www.w3.org/2000/svg">
<g id="Colour=True">
<g id="Line" clip-path="url(#clip0_14134_209)">
<path id="Vector" d="M157.798 190.494L206.773 191.654L210.99 204.985L152.176 203.119L157.798 190.494Z" fill="#DDF1C4"/>
<path id="Vector_2" d="M129.22 305.532L227.858 301.091L228.09 312.314L129.453 316.29L129.22 305.532Z" fill="#DDF1C4"/>
<path id="Vector_3" d="M152.176 47.6216L160.609 48.5603L171.157 46.6829L181.461 41.0718L191.068 29.6175L193.879 41.0718L200.675 48.5603L209.585 53.6967L219.424 53.4647L221.527 45.7547L227.393 47.3895L235.826 45.9867L242.379 41.7784L246.363 32.6551L245.898 25.6412L244.725 20.9688L241.217 15.5898L234.178 11.3815L225.744 10.6748L218.018 14.187L214.499 17.9313L211.688 22.8357L210.758 27.044L210.282 29.6175L206.065 26.5799L197.166 25.8733L180.764 26.812L169.043 28.2148L162.491 31.727L155.219 38.4982L152.176 47.6216Z" fill="#212633"/>
<path id="Vector_4" opacity="0.12" d="M150.421 49.1408H159.563L170.1 47.39L182.053 40.7241L191.544 29.502L193.996 40.7241L202.44 50.1955L211.92 53.3491H219.656L224.93 54.4038L229.147 58.6122L229.496 66.6807L225.987 72.6399L220.713 74.7493L214.034 74.0427L207.355 97.5418L200.326 122.444L196.458 128.413L190.836 133.318L182.751 133.666L175.374 130.86L169.751 123.15L167.997 118.583L162.015 114.734L157.101 108.068L152.524 87.0262L150.77 71.9438L150.421 55.8066V49.1408Z" fill="#212633"/>
<path id="Vector_5" opacity="0.12" d="M143.742 98.417L139.525 162.955L151.647 182.773L146.553 189.091L141.11 191.897L133.902 191.19L127.572 186.454L125.289 180.147L126.874 137.705L119.318 132.97L121.421 122.802L126.166 114.375L129.157 111.928L133.374 115.43L134.6 109.818L139.345 101.223L143.742 98.417Z" fill="#212633"/>
<path id="Vector_6" opacity="0.12" d="M217.543 152.608C217.722 152.081 231.948 138.053 231.948 138.053L240.033 146.818L244.598 153.652L250.041 163.82L250.57 167.501L240.382 174.335L214.372 192.572L218.409 197.487L218.938 206.779L223.683 201.864L226.315 203.446L224.729 208.361L216.824 222.568L210.853 203.984L205.928 191.527L208.041 185.21L223.683 161.183L217.532 152.587L217.543 152.608Z" fill="#212633"/>
<path id="Vector_7" d="M216.887 191.97C217.828 191.369 218.843 190.852 219.688 190.135C220.555 189.397 221.538 188.87 222.489 188.289C223.62 187.593 224.719 186.855 225.807 186.106C227.921 184.651 230.003 183.142 232.149 181.719C234.284 180.295 236.482 178.966 238.638 177.584C239.092 177.289 239.504 176.93 239.959 176.656C240.984 176.044 242.03 175.475 243.055 174.863C243.447 174.631 243.795 174.336 244.176 174.082C245.486 173.207 246.786 172.31 248.118 171.477C248.847 171.024 249.619 170.581 250.432 170.307C251.965 169.8 252.62 167.838 252.356 166.531C252.071 165.096 251.405 163.799 250.823 162.491C250.327 161.373 249.682 160.308 249.122 159.221C248.16 157.344 247.167 155.488 246.247 153.589C246.099 153.294 245.888 153.041 245.687 152.767C245.159 152.028 244.461 151.353 244.133 150.531C243.848 149.782 243.394 149.254 242.886 148.695C242.548 148.326 242.168 147.968 241.967 147.525C241.301 146.027 240.202 144.846 239.135 143.654C237.972 142.356 236.714 141.154 235.52 139.888C234.59 138.897 233.692 137.863 232.772 136.851C232.413 136.461 232.064 136.06 231.652 135.722C231.007 135.195 230.31 134.741 229.665 134.235C228.978 133.687 228.397 132.927 227.625 132.59C226.737 132.21 226.061 131.725 225.564 130.923C225.438 130.712 225.226 130.533 225.025 130.385C222.595 128.582 220.153 126.789 217.374 125.523C217.078 125.386 216.782 125.196 216.56 124.954C216.074 124.405 215.471 124.057 214.827 123.751C213.844 123.287 212.882 122.813 212.079 122.043C211.878 121.853 211.571 121.642 211.318 121.642C210.599 121.642 210.081 121.157 209.458 120.956C207.608 120.345 205.959 119.258 204.068 118.762C203.053 118.499 202.704 117.813 202.99 116.853C203.497 115.155 204.004 113.468 204.522 111.77C204.892 110.546 204.987 109.249 205.685 108.131C205.706 108.099 205.685 108.047 205.695 108.004C206.076 106.528 206.456 105.051 206.858 103.575C207.777 100.199 208.728 96.8243 209.637 93.4387C209.806 92.8059 209.87 92.1308 210.028 91.498C210.134 91.0972 210.398 90.7492 210.504 90.3484C211.212 87.6378 211.889 84.9166 212.597 82.206C212.808 81.4149 213.072 80.6344 213.305 79.8434C213.579 78.8941 213.791 77.9238 214.097 76.9851C214.288 76.405 214.573 75.846 214.869 75.3081C215.038 75.0128 215.27 74.8862 215.714 75.0866C216.338 75.3819 217.046 75.6245 217.733 75.6562C218.79 75.7089 219.836 75.846 220.925 75.7405C223.842 75.4769 225.987 74.0108 227.805 71.8908C228.851 70.6779 229.411 69.1802 230.088 67.7669C230.426 67.0708 230.595 66.3008 230.828 65.552C230.849 65.4887 230.764 65.4043 230.764 65.3199C230.627 64.1281 230.437 62.9363 230.373 61.7339C230.341 60.9534 230.109 60.2678 229.802 59.5928C229.528 58.9916 229.158 58.4221 228.883 57.8209C228.249 56.4076 226.981 55.5111 226.072 54.3192C225.987 54.2032 225.786 54.1716 225.638 54.0872C224.455 53.4333 223.324 52.6844 221.971 52.3258C221.221 52.1254 221.126 51.6613 221.432 50.8703C221.569 50.5328 221.559 50.1215 221.728 49.805C221.96 49.3726 221.643 49.0245 221.686 48.6238C221.76 47.8011 222.235 47.453 223.028 47.6956C223.461 47.8222 223.905 47.9698 224.349 48.0437C225.49 48.2335 226.642 48.4445 227.794 48.5288C228.841 48.6027 229.919 48.6132 230.954 48.4866C231.927 48.3706 232.878 48.0437 233.84 47.7905C235.404 47.3792 236.968 46.9784 238.236 45.892C238.49 45.6811 238.775 45.4912 239.071 45.3436C240.36 44.7318 241.47 43.8248 242.495 42.8755C244.229 41.2513 245.201 39.1207 246.099 36.9691C247.082 34.6277 247.452 32.128 247.864 29.6388C247.907 29.3541 247.907 29.0377 247.843 28.7529C247.547 27.4134 247.42 26.0528 247.357 24.6711C247.315 23.7113 247.114 22.8043 246.554 21.971C246.142 21.3593 245.898 20.6421 245.581 19.9671C245.455 19.7034 245.402 19.387 245.222 19.1866C244.355 18.1952 243.563 17.0877 242.527 16.2967C241.671 15.6322 240.836 14.9888 240.181 14.1345C239.314 12.9954 237.951 12.5313 236.778 11.8458C235.974 11.3817 235.002 11.2024 234.114 10.8754C232.698 10.3481 231.271 9.93672 229.739 10.0105C229.02 10.0422 228.291 9.96836 227.583 10.0316C226.632 10.116 225.681 10.232 224.74 10.4113C222.933 10.7594 221.263 11.5293 219.688 12.4364C217.49 13.7021 215.376 15.0943 213.833 17.2037C211.804 19.9882 210.24 22.9414 209.743 26.4009C209.669 26.9177 209.32 27.1286 208.834 26.9282C208.105 26.6329 207.365 26.3376 206.678 25.9684C206.033 25.6204 205.389 25.4727 204.638 25.4833C203.719 25.4938 202.778 25.4411 201.88 25.2407C201.299 25.1141 200.749 24.9559 200.147 24.9664C199.132 24.9875 198.118 24.9664 197.092 24.9664C196.754 24.9664 196.427 25.0192 196.099 25.0508C195.56 25.1036 194.989 25.304 194.492 25.1774C193.615 24.9559 192.802 25.0614 191.924 25.1774C190.223 25.3989 188.489 25.3883 186.777 25.4727C186.608 25.4727 186.429 25.4305 186.27 25.4833C184.685 25.9895 183.025 25.6731 181.408 25.9579C179.802 26.2321 178.122 26.1583 176.473 26.1794C174.433 26.2005 172.425 26.422 170.417 26.7595C169.688 26.886 168.906 26.981 168.251 27.2974C166.993 27.9091 165.767 28.6052 164.604 29.3752C163.6 30.0502 162.67 30.8307 161.487 31.1893C161.286 31.2526 161.106 31.3791 160.937 31.5057C160.018 32.1807 159.056 32.8135 158.179 33.5413C156.752 34.7331 155.663 36.2203 154.606 37.7285C153.845 38.8149 153.296 40.0278 152.641 41.1774C151.288 43.54 150.03 45.9659 149.724 48.782C149.65 49.4781 149.66 50.2058 149.491 50.8808C149.163 52.1782 148.994 53.4965 149.016 54.836C149.016 55.1735 149.047 55.5216 148.994 55.8486C148.846 56.9138 148.54 57.9686 148.529 59.0338C148.477 62.6515 148.434 66.2692 148.762 69.8869C148.762 69.9712 148.762 70.0556 148.783 70.14C148.942 71.2896 149.121 72.4287 149.269 73.5784C149.459 75.0233 149.607 76.4683 149.798 77.9027C149.84 78.2719 149.977 78.6199 150.03 78.9891C150.22 80.2653 150.326 81.5415 150.58 82.8072C150.791 83.8619 151.055 84.906 151.055 85.9924C151.055 86.2455 151.076 86.4987 151.129 86.7412C151.52 88.6819 151.932 90.6226 152.313 92.5633C152.609 94.061 152.651 95.6536 153.18 97.0564C153.898 98.976 154.004 101.012 154.585 102.942C155.093 104.598 155.684 106.232 155.737 108.036C155.779 109.354 156.54 110.599 157.301 111.643C158.538 113.341 159.711 115.124 161.465 116.41C162.374 117.075 163.23 117.782 164.256 118.277C165.069 118.678 165.862 119.142 166.665 119.575C167.289 119.912 167.574 120.619 167.49 121.146C167.373 121.884 166.961 122.644 166.496 123.245C165.27 124.827 163.917 126.304 162.681 127.875C161.962 128.782 161.339 129.763 160.715 130.734C160.155 131.598 159.774 132.621 159.087 133.36C158.527 133.95 157.914 134.499 157.396 135.153C156.784 135.933 156.128 136.693 155.547 137.505C155.061 138.18 154.68 138.918 154.215 139.593C153.793 140.205 153.148 140.711 152.863 141.376C152.028 143.358 150.072 144.592 149.385 146.67C149.301 146.923 148.952 147.071 148.783 147.314C148.17 148.147 147.504 148.948 147.029 149.856C146.733 150.425 146.468 150.984 145.972 151.374C145.042 152.113 144.439 153.051 143.911 154.095C143.52 154.865 142.917 155.519 142.389 156.215C142.178 156.5 141.892 156.69 141.512 156.5C141.078 156.289 141.026 155.836 141.184 155.519C141.491 154.908 141.364 154.285 141.396 153.663C141.427 153.115 141.269 152.513 141.448 152.028C141.713 151.311 141.586 150.615 141.66 149.919C141.734 149.212 141.861 148.516 141.903 147.82C141.998 146.238 141.945 144.645 142.104 143.053C142.326 140.859 142.452 138.644 142.643 136.44C142.801 134.478 142.643 132.505 142.907 130.533C143.087 129.173 142.939 127.791 143.129 126.399C143.414 124.331 143.34 122.211 143.435 120.123C143.467 119.353 143.203 118.509 143.89 117.855C143.985 117.771 143.943 117.528 143.943 117.37C143.995 115.44 143.858 113.521 144.165 111.59C144.323 110.599 144.735 109.555 144.207 108.532C144.154 108.437 144.186 108.279 144.217 108.152C144.651 106.528 144.471 104.84 144.672 103.184C144.83 101.855 144.672 100.484 144.735 99.1342C144.767 98.6174 145.211 98.0373 144.841 97.5837C144.534 97.1935 143.964 97.0142 143.541 96.7083C143.097 96.3919 142.727 96.413 142.283 96.7294C141.617 97.2146 140.857 97.5837 140.212 98.1005C139.588 98.5963 138.764 99.1236 138.553 99.7986C138.172 100.98 136.936 101.76 137.041 103.142C137.041 103.269 136.819 103.395 136.756 103.543C136.249 104.882 135.287 105.969 134.949 107.456C134.536 109.249 133.754 110.958 133.48 112.814C133.427 113.172 133.279 113.531 133.184 113.879C132.824 113.742 132.465 113.615 132.106 113.478C131.947 113.415 131.799 113.331 131.641 113.299C131.271 113.215 130.911 113.172 130.721 112.751C130.563 112.392 130.531 112.128 130.679 111.717C130.911 111.042 130.584 110.778 129.844 110.683C128.66 110.536 127.773 111.01 126.927 111.801C126.166 112.508 125.743 113.394 125.236 114.259C124.01 116.368 122.668 118.414 121.505 120.555C120.818 121.821 120.353 123.203 119.846 124.553C119.603 125.207 119.318 125.903 119.328 126.567C119.349 127.886 118.99 129.12 118.768 130.385C118.631 131.134 118.324 131.862 117.584 132.21C117.098 132.432 116.929 132.727 117.024 133.191C117.109 133.634 117.415 133.898 117.87 134.024C118.345 134.161 118.831 134.298 119.254 134.53C121.104 135.543 122.953 136.577 124.771 137.642C125.342 137.969 125.617 138.538 125.659 139.224C125.691 139.678 125.838 140.12 125.87 140.563C125.912 141.07 126.018 141.629 125.87 142.072C125.574 142.905 125.701 143.738 125.659 144.561C125.638 144.941 125.764 145.373 125.617 145.689C125.278 146.385 125.469 147.103 125.405 147.799C125.331 148.537 125.215 149.286 125.162 150.024C125.078 151.269 125.162 152.513 124.951 153.779C124.676 155.467 124.729 157.196 124.655 158.916C124.56 160.846 124.486 162.765 124.401 164.695C124.401 164.78 124.401 164.864 124.391 164.949C124.042 166.457 123.862 167.986 123.894 169.537C123.894 170.001 123.947 170.475 123.883 170.929C123.566 172.912 123.429 174.905 123.408 176.909C123.397 178.491 123.598 180.084 123.63 181.676C123.661 183.438 124.433 184.872 125.49 186.191C126.599 187.583 128.153 188.458 129.59 189.46C130.404 190.03 130.996 190.863 132 191.222C133.12 191.622 134.114 192.413 135.393 192.371C136.301 193.004 137.432 192.698 138.405 193.078C138.732 193.204 139.197 193.215 139.535 193.078C140.275 192.804 141.026 192.909 141.776 192.846C142.474 192.783 143.192 192.709 143.869 192.519C144.534 192.318 145.232 192.065 145.782 191.654C146.69 190.979 147.525 190.209 148.318 189.407C149.396 188.311 150.358 187.119 150.907 185.653C151.14 185.03 151.457 185.041 151.996 185.505C152.651 186.075 153.137 186.76 153.359 187.562C153.528 188.152 153.824 188.606 154.247 189.038C154.839 189.65 155.314 190.325 155.177 191.253C155.082 191.823 155.283 192.308 155.779 192.529C156.361 192.783 156.255 193.183 156.097 193.552C155.832 194.154 155.494 194.734 155.145 195.303C154.691 196.042 154.036 196.706 153.771 197.508C153.032 199.765 151.732 201.769 150.865 203.952C150.453 204.986 150.02 206.019 149.565 207.032C148.846 208.656 148.413 210.396 147.546 211.968C147.314 212.39 147.208 212.885 147.029 213.35C146.616 214.468 146.194 215.586 145.771 216.693C145.179 218.222 144.63 219.773 143.964 221.281C143.33 222.726 143.435 224.392 142.516 225.742C142.452 225.837 142.495 225.996 142.463 226.112C142.304 226.66 142.167 227.23 141.977 227.768C141.67 228.622 141.226 229.434 141.004 230.309C140.529 232.187 140.074 234.064 139.24 235.826C139.208 235.899 139.187 235.984 139.176 236.068C139.018 237.555 138.806 239.032 137.992 240.34C137.95 240.414 137.929 240.498 137.908 240.572C137.559 242.186 137.242 243.81 136.851 245.402C136.238 247.881 135.572 250.349 135.065 252.859C134.642 254.916 134.304 256.994 133.606 258.987C133.564 259.103 133.585 259.24 133.575 259.367C133.511 260.527 133.427 261.687 132.867 262.752C132.793 262.89 132.803 263.079 132.814 263.248C132.835 263.923 132.814 264.577 132.423 265.178C132.285 265.4 132.317 265.748 132.306 266.033C132.285 266.412 132.328 266.803 132.275 267.172C132.137 268.195 131.937 269.207 131.799 270.23C131.683 271.137 131.704 272.076 131.503 272.962C131.028 275.072 130.584 277.17 130.51 279.343C130.478 280.134 130.383 280.925 130.224 281.695C129.971 282.961 129.707 284.227 129.77 285.524C129.833 286.958 129.749 288.382 129.442 289.774C129.284 290.502 129.273 291.314 128.703 291.989C128.037 292.77 129.368 293.466 128.998 294.32C128.956 294.426 128.998 294.573 128.998 294.7C128.914 298.064 128.829 301.429 128.745 304.794C128.745 304.878 128.745 304.962 128.745 305.047C128.745 305.131 128.745 305.226 128.713 305.3C128.333 306.154 128.417 307.008 128.449 307.926C128.576 311.333 128.396 314.74 128.724 318.146C128.819 319.201 128.491 320.224 128.671 321.342C128.935 323.019 128.734 324.759 128.977 326.478C129.125 327.586 129.347 327.818 130.499 327.734C132.676 327.565 134.854 327.417 137.031 327.312C138.426 327.248 139.821 327.301 141.226 327.301C143.002 327.301 144.788 327.301 146.564 327.301C147.441 327.301 147.737 327.839 147.293 328.588C146.775 329.463 146.5 330.476 145.644 331.161C145.211 331.509 144.999 332.111 144.661 332.575C143.9 333.608 143.129 334.642 142.347 335.655C141.818 336.351 141.174 336.973 140.709 337.701C138.901 340.538 136.418 342.679 133.691 344.588C133.353 344.831 132.898 344.999 132.698 345.326C132.063 346.402 131.007 346.877 130.013 347.457C129.696 347.647 129.347 347.837 129.115 348.111C128.132 349.303 126.895 350.136 125.49 350.684C124.422 351.106 123.503 351.855 122.287 351.95C121.558 352.003 120.755 352.161 120.163 352.541C119.635 352.878 119.159 352.899 118.62 352.889C117.775 352.878 116.929 352.783 116.073 352.794C114.667 352.794 113.251 352.836 111.846 352.868L111.063 355.673C111.137 355.673 111.201 355.673 111.275 355.673C111.729 355.673 112.173 355.504 112.628 355.483C113.293 355.452 114.012 355.336 114.636 355.515C115.523 355.768 116.443 355.8 117.257 355.61C118.187 355.399 119.106 355.378 120.005 355.452C120.808 355.525 121.59 355.652 122.414 355.599C123.482 355.525 124.56 355.663 125.627 355.673C128.164 355.684 130.711 355.652 133.247 355.694C133.86 355.694 134.473 356.032 135.075 356C135.646 355.958 136.196 355.61 136.766 355.441C136.999 355.378 137.274 355.452 137.527 355.42C138.806 355.251 140.074 355.789 141.353 355.431C141.47 355.399 141.639 355.388 141.723 355.452C142.315 355.821 142.96 355.673 143.583 355.673C146.077 355.684 148.582 355.715 151.076 355.663C152.017 355.641 152.947 356.19 153.888 355.705C153.941 355.684 154.036 355.779 154.12 355.779C154.659 355.831 155.24 356.032 155.727 355.905C157.027 355.547 158.327 355.757 159.616 355.684C161.328 355.578 163.072 355.926 164.773 355.441C164.964 355.388 165.238 355.367 165.397 355.462C165.999 355.831 166.644 355.694 167.257 355.663C168.324 355.599 169.381 355.188 170.459 355.663C170.554 355.705 170.734 355.663 170.819 355.599C171.104 355.367 171.347 355.599 171.622 355.599C172.626 355.652 173.651 355.673 174.645 355.557C175.057 355.515 175.427 355.346 175.839 355.557C176.008 355.641 176.283 355.705 176.441 355.631C177.466 355.198 178.523 355.462 179.57 355.409C181.208 355.314 182.856 355.599 184.473 355.167C184.79 355.082 185.15 355.125 185.488 355.167C186.027 355.22 186.587 355.473 187.073 355.367C187.665 355.241 188.204 355.431 188.764 355.431C192.622 355.399 196.469 355.42 200.326 355.409C200.665 355.409 201.024 355.441 201.32 355.325C201.743 355.156 202.091 355.135 202.525 355.314C202.821 355.43 203.191 355.43 203.518 355.409C204.564 355.346 205.6 355.177 206.636 355.177C210.747 355.146 214.858 355.177 218.959 355.156C219.413 355.156 219.868 355.04 220.312 354.988C220.47 354.966 220.682 354.882 220.798 354.945C221.432 355.336 222.119 355.135 222.785 355.156C223.62 355.188 224.444 355.125 225.279 354.945C226.526 354.682 227.826 355.314 229.094 354.924C229.612 355.336 230.119 354.819 230.627 354.914C231.155 355.009 231.694 355.093 232.223 355.167C232.793 355.251 233.375 355.346 233.945 355.399C234.231 355.431 234.537 355.399 234.823 355.367C235.277 355.314 235.721 355.177 236.175 355.188C236.968 355.198 237.739 355.188 238.543 355.367C239.779 355.663 241.079 355.156 242.358 355.409C242.982 355.009 243.679 355.23 244.334 355.177C245.571 355.061 246.786 355.388 248.033 355.22C249.175 355.061 250.105 354.639 250.887 353.859C251.405 353.342 251.341 352.825 250.792 352.351C250.158 351.802 249.354 351.718 248.646 351.939C247.515 352.287 246.385 352.066 245.264 352.129C245 352.14 244.715 351.96 244.451 351.971C243.531 352.003 242.612 352.066 241.703 352.14C240.783 352.214 239.874 352.361 238.965 352.382C237.232 352.425 235.488 352.425 233.755 352.382C232.962 352.361 232.18 352.224 231.398 352.119C231.282 352.108 231.176 352.013 231.081 351.929C230.035 350.958 228.682 350.421 227.604 349.545C226.146 348.364 224.603 347.288 223.218 346.043C222.489 345.39 221.865 344.641 220.999 344.113C220.587 343.871 220.312 343.386 219.984 343.006C219.847 342.848 219.762 342.637 219.604 342.51C218.684 341.782 218.008 340.865 217.405 339.873C217.025 339.241 216.623 338.587 216.127 338.038C214.584 336.351 213.823 334.199 212.734 332.258C211.962 330.877 211.508 329.295 211.159 327.713C210.906 326.573 211.117 326.278 212.301 326.257C212.343 326.257 212.385 326.257 212.428 326.257C214.023 326.173 215.63 326.468 217.205 326.025C217.5 325.941 217.86 326.12 218.187 326.12C219.614 326.141 221.03 326.152 222.457 326.152C222.785 326.152 223.134 325.962 223.44 326.025C224.55 326.236 225.67 326.057 226.759 325.962C228.154 325.835 228.883 325.139 229.158 323.979C229.401 322.935 229.781 321.943 229.158 320.899C229.041 320.709 229.158 320.393 229.126 320.15C228.883 318.747 229.802 317.355 229.147 315.952C229.115 315.889 229.179 315.794 229.2 315.71C229.263 315.341 229.369 314.982 229.38 314.613C229.401 313.347 229.432 312.071 229.38 310.805C229.316 309.529 230.024 308.264 229.401 306.987C229.369 306.924 229.39 306.819 229.401 306.734C229.697 305.711 229.971 304.688 229.644 303.602C229.58 303.37 229.602 303.085 229.676 302.853C230.014 301.661 229.982 300.469 229.707 299.267C229.665 299.066 229.612 298.845 229.665 298.645C229.866 297.78 229.612 296.883 229.887 296.018C229.961 295.786 229.908 295.512 229.876 295.259C229.813 294.721 229.686 294.194 229.654 293.666C229.538 291.747 229.697 289.817 229.443 287.886C229.147 285.608 229.221 283.277 229.137 280.978C229.115 280.472 229.137 279.965 229.137 279.459C229.137 279.206 229.105 278.953 229.073 278.71C228.925 277.603 228.693 276.495 228.65 275.388C228.566 273.627 228.703 271.855 228.386 270.093C228.185 268.986 227.53 267.952 227.858 266.76C227.879 266.687 227.847 266.581 227.794 266.528C227.203 265.748 227.403 264.851 227.35 263.976C227.287 263.069 227.276 262.12 227.023 261.255C226.833 260.611 226.663 260 226.558 259.335C226.431 258.544 226.294 257.806 226.59 257.025C226.642 256.878 226.632 256.677 226.59 256.519C226.304 255.57 226.082 254.589 225.67 253.703C225.364 253.049 225.205 252.385 225.374 251.762C225.607 250.919 225.564 250.244 224.941 249.6C224.803 249.452 224.867 249.115 224.835 248.872C224.782 248.503 224.687 248.145 224.655 247.775C224.613 247.269 224.444 246.7 224.624 246.278C225.015 245.381 224.539 244.77 224.19 244.084C224.064 243.831 223.831 243.567 223.842 243.325C223.916 242.006 223.271 240.835 223.229 239.507C223.186 238.273 222.626 237.038 222.225 235.826C221.886 234.802 221.495 233.8 221.527 232.693C221.527 232.493 221.432 232.292 221.358 232.102C221.083 231.322 220.745 230.562 220.523 229.771C220.143 228.421 219.868 227.05 219.477 225.7C219.255 224.93 219.308 224.129 219.012 223.369C218.811 222.863 219.033 222.304 219.329 221.819C219.646 221.292 219.963 220.754 220.259 220.205C220.978 218.908 221.538 217.526 222.341 216.261C223.408 214.584 224.444 212.875 225.311 211.092C226.389 208.867 227.372 206.599 227.837 204.142C228.175 202.338 227.16 200.988 225.3 200.957C224.032 200.936 222.943 201.378 221.971 202.159C221.717 202.37 221.432 202.56 221.126 202.686C220.724 202.855 220.354 202.634 220.269 202.201C220.153 201.589 220.1 200.967 219.995 200.355C219.878 199.701 219.804 199.037 219.593 198.415C219.223 197.339 217.279 194.111 216.465 193.278C216.074 192.877 216.296 192.593 216.465 192.297C216.56 192.139 216.782 192.065 216.961 191.949L216.887 191.97ZM222.066 54.8993C224.708 55.7747 226.336 57.5361 227.107 60.2362C227.414 61.312 227.572 62.3351 227.541 63.4214C227.52 64.0965 227.889 64.7082 227.583 65.4676C226.864 67.229 226.304 69.0536 224.846 70.4037C224.169 71.0365 223.482 71.6693 222.88 72.376C221.865 73.5573 220.544 73.8737 219.096 73.9264C218.05 74.0003 217.141 73.5678 216.232 73.1776C215.524 72.8717 215.461 72.6502 215.588 71.8592C215.619 71.6588 215.588 71.4267 215.672 71.2369C216.348 69.465 216.666 67.5876 217.141 65.7524C217.511 64.3601 218.071 63.0417 218.536 61.6812C218.917 60.5526 219.139 59.3713 219.413 58.2111C219.635 57.2935 219.995 56.4076 219.963 55.4161C219.942 54.7833 220.291 54.5935 220.978 54.6356C221.347 54.6567 221.707 54.7622 222.056 54.8782L222.066 54.8993ZM211.254 26.9915C211.867 26.6645 212.343 26.2637 212.322 25.4516C212.322 25.0614 212.512 24.65 212.649 24.2703C213.4 22.2558 214.235 20.273 215.366 18.4483C215.873 17.6256 216.422 16.7924 217.31 16.2334C218.05 15.7799 218.621 15.0626 219.329 14.5458C221.2 13.1852 223.334 12.4048 225.617 12.0567C226.241 11.9618 226.885 12.0462 227.52 12.0462C230.88 12.0145 234.019 12.8477 236.894 14.5775C237.602 14.9994 238.257 15.5373 238.849 16.1068C240.276 17.5201 241.861 18.8069 242.855 20.5999C243.616 21.9816 244.451 23.3527 244.947 24.8293C245.212 25.5993 245.581 26.5274 245.138 27.4872C244.947 27.888 245.085 28.4892 245.201 28.9638C245.381 29.7127 245.37 30.4193 245.169 31.1787C244.916 32.128 244.704 33.1089 244.609 34.0897C244.451 35.6718 243.69 37.0219 242.929 38.3297C242.199 39.5743 241.238 40.6923 240.287 41.7892C238.891 43.3818 237.074 44.426 235.118 45.1432C234.083 45.5123 232.931 45.5967 231.832 45.7655C231.176 45.8604 230.521 45.7866 229.845 45.9553C229.242 46.103 228.534 45.8604 227.879 45.776C226.272 45.5756 224.677 45.3436 223.165 44.7529C222.975 44.6791 222.785 44.5315 222.595 44.5315C221.939 44.5315 221.781 44.2256 221.686 43.6138C221.411 41.9474 221.115 40.2704 220.639 38.6567C220.354 37.6758 219.794 36.7582 219.244 35.8828C218.494 34.7015 217.659 33.5518 216.792 32.4549C216.412 31.9803 215.862 31.6217 215.376 31.242C214.013 30.1662 212.66 29.0482 211.202 28.099C210.589 27.6982 210.631 27.3501 211.254 27.0126V26.9915ZM192.537 28.8478C192.548 28.4787 193.087 27.9829 193.499 27.8036C194.397 27.4134 195.306 27.1181 196.384 27.3923C197.209 27.6032 198.128 27.445 199.005 27.4239C199.164 27.4239 199.322 27.2657 199.47 27.2763C200.506 27.3712 201.542 27.4556 202.567 27.6138C203.793 27.8036 205.008 28.0251 206.224 28.2888C206.784 28.4048 207.355 28.5736 207.862 28.8478C208.982 29.4595 210.071 30.1557 211.17 30.8201C212.089 31.3791 213.114 31.7905 213.801 32.687C215.049 34.3007 216.57 35.6929 217.543 37.4965C218.008 38.3614 218.325 39.3106 218.642 40.2493C218.874 40.9454 219.234 41.5888 219.202 42.4009C219.17 43.2552 219.403 44.1307 219.519 44.9955C219.487 46.3983 219.276 47.7378 218.938 49.0773C218.748 49.8367 218.748 50.6383 218.652 51.4188C218.557 52.136 218.05 52.5789 217.395 52.3364C216.56 52.0199 215.725 52.1043 214.901 52.1465C213.294 52.2309 211.751 51.9883 210.229 51.482C208.781 50.9969 207.259 50.691 205.886 50.0476C204.247 49.2671 202.747 48.2124 201.193 47.2632C201.087 47.1999 200.992 47.0944 200.929 46.9995C199.925 45.5862 198.477 44.6264 197.283 43.4029C196.448 42.5486 195.792 41.6204 195.243 40.5868C195.021 40.1544 194.915 39.6587 194.767 39.1946C194.598 38.6883 194.482 38.161 194.249 37.6758C193.827 36.8109 193.605 35.9144 193.467 34.9546C193.341 34.0687 193.023 33.2038 192.706 32.36C192.273 31.2104 192.495 30.0291 192.537 28.8689V28.8478ZM154.353 46.4405C154.395 46.2401 154.374 46.0081 154.458 45.8288C155.23 44.1412 155.705 42.3376 156.72 40.745C157.946 38.8254 159.415 37.1062 161.127 35.6191C162.628 34.3112 164.118 32.9717 165.947 32.0858C166.951 31.6006 167.87 30.9467 168.863 30.4404C169.445 30.1451 170.1 29.9974 170.734 29.797C171.4 29.5756 172.055 29.3119 172.732 29.1431C173.693 28.9005 174.676 28.7423 175.649 28.5314C177.181 28.2044 178.745 28.3521 180.299 28.2572C181.578 28.1833 182.846 27.8986 184.135 27.8036C185.234 27.7193 186.333 27.7825 187.433 27.7825C187.834 28.2783 188.363 27.5716 188.817 27.9302C188.923 28.0146 189.272 27.5927 189.483 28.0673C189.631 28.3943 189.705 28.6158 189.483 28.9744C188.711 30.2506 188.003 31.5584 187.274 32.8557C186.651 33.9632 185.794 34.8702 184.896 35.7562C184.241 36.3996 183.702 37.159 183.057 37.8129C181.641 39.2368 180.077 40.4708 178.322 41.4622C177.065 42.1794 175.871 43.0232 174.581 43.6771C173.112 44.426 171.558 45.0377 170.047 45.7022C169.741 45.8288 169.424 45.987 169.107 46.0081C167.31 46.1241 165.661 46.8835 163.928 47.2104C162.491 47.4741 161.022 47.5163 159.563 47.6534C158.559 47.6323 157.555 47.4741 156.54 47.7589C156.054 47.896 155.399 47.6112 154.881 47.3897C154.554 47.2526 154.279 46.9046 154.374 46.451L154.353 46.4405ZM163.209 114.027C161.782 112.867 160.44 111.548 159.87 109.681C159.722 109.207 159.415 108.785 159.161 108.342C158.231 106.749 157.692 105.019 157.396 103.216C157.375 103.089 157.354 102.963 157.291 102.857C156.403 101.518 156.604 99.8936 156.139 98.4486C156.033 98.1322 155.97 97.8158 155.875 97.4994C155.801 97.2673 155.642 97.0353 155.632 96.8033C155.558 94.8837 154.797 93.1012 154.501 91.2238C154.458 90.9812 154.353 90.7386 154.353 90.496C154.353 88.6503 153.888 86.8784 153.56 85.0853C153.296 83.6193 152.915 82.1849 152.81 80.6872C152.725 79.5375 152.503 78.3879 152.334 77.2488C152.324 77.1644 152.324 77.08 152.313 76.9957C152.228 75.2765 152.07 73.5678 152.08 71.8486C152.091 70.2876 151.816 68.79 151.415 67.3028C151.034 65.9 150.918 64.4867 151.172 63.0523C151.224 62.7675 151.32 62.43 151.224 62.1769C150.707 60.8585 150.854 59.519 151.034 58.1795C151.288 56.2177 151.531 54.2559 151.806 52.2836C151.859 51.9145 151.943 51.5348 152.08 51.1762C152.545 49.9316 153.729 49.3726 155.04 49.6257C156.139 49.8367 157.312 50.2058 158.358 50.0054C159.933 49.6996 161.539 50.0793 163.093 49.5941C163.759 49.3831 164.509 49.4675 165.186 49.2988C166.866 48.898 168.557 48.5077 170.206 47.9804C171.58 47.5374 172.858 46.8096 174.243 46.3983C175.131 46.1346 175.754 45.544 176.483 45.0905C177.678 44.3416 179.083 43.9935 180.151 43.0338C180.669 42.5697 181.324 42.2533 181.842 41.7786C183.512 40.2388 185.203 38.72 186.788 37.0851C187.707 36.1359 188.447 35.0179 189.071 33.8366C189.187 33.6151 189.293 33.362 189.472 33.2143C189.705 33.0245 190.011 32.9612 190.202 33.3409C190.276 33.4886 190.434 33.6468 190.424 33.7839C190.307 35.039 191.195 36.0515 191.237 37.275C191.248 37.5914 191.354 37.9395 191.502 38.2242C192.4 39.954 193.319 41.6732 194.249 43.3924C195.349 45.4174 196.966 47.0417 198.699 48.4761C200.538 50.0054 202.43 51.5242 204.67 52.484C205.886 53.0008 207.059 53.718 208.327 54.0134C209.965 54.4036 211.571 55.0575 213.336 54.9415C214.531 54.8571 215.757 55.0681 216.961 55.1735C217.522 55.2157 217.881 55.6482 217.617 56.1333C217.078 57.072 217.321 58.2955 216.454 59.1076C216.264 59.2869 216.158 59.635 216.148 59.9092C216.116 61.1116 215.662 62.1663 215.144 63.2105C214.964 63.5691 214.7 63.9172 215.017 64.3812C215.123 64.5394 215.038 64.8453 214.985 65.0773C214.615 66.554 214.129 67.9989 213.622 69.4333C213.442 69.929 213.432 70.488 213.347 71.0154C213.294 71.3424 213.273 71.6799 213.167 71.9857C212.512 73.726 212.089 75.5296 211.635 77.3332C211.17 79.1684 210.663 80.993 210.166 82.8177C209.87 83.9251 209.542 85.0326 209.267 86.1506C208.929 87.5112 208.602 88.8612 208.126 90.1796C208.094 90.2534 208.01 90.3589 208.031 90.4011C208.454 91.1289 207.925 91.7301 207.746 92.3734C207.566 93.0063 207.291 93.6075 207.111 94.2403C206.985 94.7149 206.995 95.2317 206.868 95.7063C206.509 97.0564 206.076 98.3853 205.716 99.7354C205.431 100.769 205.209 101.813 204.955 102.857C204.85 103.3 204.808 103.764 204.66 104.186C203.941 106.296 203.37 108.437 202.884 110.62C202.546 112.097 201.986 113.521 201.552 114.976C201.457 115.292 201.468 115.63 201.394 115.957C201.193 116.801 201.066 117.687 200.739 118.488C200.052 120.176 199.196 121.8 198.815 123.614C198.709 124.12 198.392 124.616 198.065 125.038C196.744 126.736 195.486 128.498 193.647 129.71C191.84 130.902 189.969 131.978 187.771 132.252C187.02 132.347 186.249 132.263 185.213 132.263C184.04 132.4 182.687 132.031 181.303 131.683C179.369 131.208 177.836 130.185 176.336 128.983C175.86 128.592 175.268 128.329 174.771 127.97C174.38 127.675 173.989 127.348 173.683 126.968C172.795 125.829 171.939 124.648 171.093 123.477C170.903 123.213 170.766 122.908 170.618 122.602C170.502 122.359 170.206 122.127 170.544 121.832C170.808 121.6 170.956 121.273 171.485 121.515C172.108 121.811 172.837 121.884 173.514 122.053C173.715 122.095 173.947 122.18 174.127 122.116C175.279 121.726 176.431 122.243 177.572 122.116C179.591 121.895 181.599 121.684 183.586 121.167C185.456 120.682 187.126 119.775 188.881 119.068C189.758 118.72 190.646 118.298 191.375 117.718C192.537 116.801 193.594 115.735 194.662 114.702C195.074 114.301 195.349 113.731 195.792 113.383C197.103 112.329 197.6 110.82 198.234 109.375C198.424 108.933 198.033 108.743 197.79 108.595C197.6 108.479 197.166 108.49 197.018 108.637C196.49 109.165 196.014 109.755 195.56 110.356C194.746 111.453 193.975 112.582 193.15 113.668C192.96 113.921 192.601 114.037 192.368 114.259C191.153 115.398 189.8 116.316 188.289 117.054C186.651 117.845 185.002 118.562 183.269 119.142C181.113 119.87 178.893 120.06 176.705 119.807C174 119.501 171.358 118.9 168.853 117.623C166.845 116.6 164.932 115.461 163.209 114.058V114.027ZM159.753 141.449C159.901 141.154 160.06 140.859 160.208 140.563C161.55 138.085 162.818 135.575 164.393 133.223C164.89 132.474 165.207 131.609 165.619 130.797C165.809 130.428 165.989 130.058 166.2 129.689C166.75 128.719 167.31 127.749 167.87 126.789C168.018 126.536 168.145 126.272 168.324 126.051C168.758 125.513 168.99 125.555 169.35 126.145C170.47 127.981 171.876 129.563 173.63 130.828C174.433 131.419 175.205 132.062 176.008 132.643C176.304 132.864 176.653 133.054 177.012 133.138C178.766 133.56 180.383 134.457 182.191 134.72C182.476 134.763 182.772 134.773 183.068 134.784C183.744 134.784 184.421 134.784 185.097 134.784C188.151 134.836 190.963 134.003 193.414 132.231C195.063 131.039 196.575 129.668 197.906 128.076C199.005 126.757 199.851 125.281 200.887 123.931C201.267 123.435 201.394 122.728 201.605 122.106C201.69 121.874 201.605 121.568 201.732 121.378C201.965 121.009 201.965 120.513 202.472 120.281C202.969 120.049 203.233 120.397 203.582 120.555C204.522 120.988 205.452 121.441 206.414 121.832C208.802 122.802 210.948 124.247 213.241 125.386C215.588 126.546 217.775 127.991 219.826 129.594C221.559 130.944 223.398 132.21 224.951 133.813C225.818 134.699 226.875 135.406 227.826 136.218C228.175 136.513 228.471 136.893 228.82 137.199C229.707 137.969 229.707 138.792 228.418 139.119C228.09 139.203 227.784 139.498 227.52 139.751C225.744 141.502 223.99 143.285 222.204 145.025C221.728 145.489 221.178 145.879 220.671 146.312C220.481 146.48 220.301 146.66 220.132 146.85C219.255 147.809 218.378 148.769 217.5 149.729C217.353 149.887 217.215 150.077 217.035 150.161C215.651 150.805 214.879 152.06 213.992 153.188C213.738 153.515 213.432 153.842 213.072 154.032C211.846 154.676 210.99 155.667 210.176 156.743C209.542 157.576 208.813 158.335 208.105 159.095C207.957 159.253 207.608 159.401 207.46 159.327C207.238 159.221 207.069 158.937 206.974 158.694C206.89 158.473 206.953 158.188 206.953 157.935C206.953 156.542 206.953 155.15 206.953 153.747C206.953 152.345 206.868 150.868 206.974 149.434C207.101 147.736 206.837 146.037 206.953 144.35C206.953 144.266 206.953 144.181 206.953 144.097C206.911 143.084 206.572 142.662 205.812 142.631C204.85 142.599 203.782 143.285 203.698 144.055C203.666 144.318 203.899 144.603 203.888 144.877C203.867 145.985 203.973 147.092 203.909 148.2C203.835 149.328 203.782 150.457 203.729 151.575C204.575 152.566 203.835 153.653 203.877 154.697C203.92 155.562 204.047 156.437 203.708 157.312C203.571 157.671 203.814 158.198 203.93 158.631C204.321 160.128 204.406 161.605 203.613 162.997C203.36 163.44 203.412 163.757 203.645 164.147C204.205 165.117 204.395 166.183 204.353 167.29C204.353 167.469 204.374 167.659 204.364 167.838C204.332 168.503 204.269 169.157 204.258 169.821C204.258 170.57 204.247 171.319 204.321 172.057C204.374 172.606 204.786 173.112 204.438 173.692C204.364 173.819 204.385 174.04 204.438 174.188C204.734 175 204.681 175.77 204.48 176.624C204.332 177.268 204.564 178.017 204.681 178.713C204.797 179.398 204.966 180.084 205.125 180.769C205.125 180.811 205.177 180.854 205.156 180.885C204.638 182.183 205.632 183.364 205.431 184.64C205.23 185.969 205.177 187.298 205.146 188.637C205.125 189.365 204.85 190.093 204.649 190.8C204.522 191.253 204.099 191.432 203.687 191.422C202.134 191.401 200.58 191.338 199.016 191.295C198.635 191.285 198.255 191.295 197.874 191.295C193.446 191.211 189.018 191.148 184.59 191.021C183.734 191 182.888 190.578 182.032 191.042C179.527 190.515 176.991 190.905 174.465 190.8C173.746 190.768 173.017 190.346 172.288 190.8C170.935 190.241 169.434 190.863 168.071 190.314C167.965 190.272 167.817 190.293 167.69 190.293C165.334 190.209 162.987 190.135 160.631 190.03C160.271 190.019 159.88 189.945 159.574 189.777C159.299 189.629 159.183 189.407 159.288 188.954C159.531 187.952 159.552 186.897 159.669 185.864C159.88 184.071 159.912 182.267 159.933 180.463C159.954 178.502 159.394 176.709 158.675 174.926C158.073 173.439 157.492 171.931 156.868 170.444C156.466 169.494 155.927 168.587 155.621 167.606C155.156 166.109 154.733 164.611 154.543 163.029C154.332 161.331 154.046 159.654 154.067 157.935C154.078 156.922 154.3 155.962 154.564 155.003C154.765 154.243 154.786 153.442 155.019 152.693C155.558 150.921 156.065 149.117 156.784 147.419C157.661 145.362 158.739 143.401 159.732 141.397L159.753 141.449ZM207.524 179.018C207.45 178.829 207.471 178.607 207.471 178.396C207.386 174.061 207.323 169.737 207.196 165.402C207.164 164.295 207.492 163.514 208.39 162.871C208.845 162.533 209.162 162.006 209.532 161.563C209.616 161.468 209.68 161.363 209.775 161.278C211.402 159.728 213.03 158.177 214.679 156.648C215.323 156.047 216 155.498 216.655 154.918C217.046 154.581 217.405 154.528 217.722 154.865C218.145 155.319 218.515 155.825 218.896 156.31C219.752 157.386 220.608 158.451 221.453 159.527C221.696 159.833 221.865 160.192 222.013 160.434C221.95 160.867 221.95 161.13 221.855 161.352C221.4 162.375 220.914 163.377 220.439 164.39C220.407 164.463 220.407 164.579 220.354 164.622C218.737 165.919 218.156 167.923 217.014 169.547C216.063 170.897 215.207 172.321 214.372 173.745C213.854 174.62 213.495 175.591 212.998 176.477C212.745 176.941 212.406 177.394 212.015 177.763C211.413 178.322 211.128 179.05 210.737 179.736C210.06 180.917 209.32 182.067 208.581 183.216C208.485 183.353 208.221 183.469 208.042 183.448C207.915 183.438 207.767 183.206 207.714 183.037C207.598 182.71 207.576 182.404 207.629 182.003C207.756 181.033 207.904 179.999 207.513 179.018H207.524ZM126.177 118.003C126.779 116.864 127.424 115.746 128.438 114.902C128.597 114.765 128.956 114.702 129.146 114.786C129.855 115.103 130.637 115.187 131.313 115.672C132.423 116.453 133.638 117.085 134.79 117.813C136.101 118.636 136.83 119.838 137.062 121.357C137.094 121.568 137.094 121.779 137.062 121.99C136.936 122.855 136.619 123.129 135.688 123.245C135.223 123.087 134.737 122.971 134.304 122.76C132.74 122 131.186 121.188 129.633 120.429C128.671 119.954 127.699 119.511 126.726 119.079C126.198 118.836 125.934 118.488 126.177 118.014V118.003ZM123.862 122.085C123.978 121.821 124.105 121.557 124.274 121.325C124.644 120.809 124.845 120.788 125.416 121.104C126.42 121.652 127.434 122.201 128.438 122.76C129.886 123.561 131.334 124.342 132.761 125.175C133.152 125.407 133.469 125.755 133.786 126.093C133.976 126.293 134.262 126.631 134.198 126.778C134.04 127.147 133.744 127.496 133.237 127.443C133.152 127.443 133.067 127.443 132.729 127.443C132.602 127.401 132.233 127.327 131.905 127.169C129.971 126.219 128.047 125.249 126.134 124.268C125.469 123.931 124.845 123.53 124.2 123.15C123.693 122.855 123.619 122.602 123.852 122.095L123.862 122.085ZM121.822 127.158C121.886 126.831 121.97 126.515 122.087 126.209C122.319 125.597 122.858 125.376 123.45 125.681C124.475 126.219 125.458 126.821 126.483 127.348C127.297 127.759 128.132 128.107 128.977 128.455C130.531 129.109 131.672 130.206 132.359 131.735C132.75 132.6 132.285 133.265 131.197 133.265C131.112 133.233 130.848 133.191 130.658 133.064C128.851 131.788 126.874 130.828 124.898 129.869C124.084 129.468 123.26 129.088 122.467 128.645C122.182 128.487 121.896 128.234 121.748 127.96C121.643 127.759 121.77 127.432 121.822 127.169V127.158ZM125.173 135.026C124.031 134.256 122.922 133.36 121.516 133.001C120.702 132.79 120.448 132.379 120.554 131.788C120.734 130.776 121.357 130.47 122.266 130.976C122.774 131.25 123.207 131.641 123.704 131.936C125.268 132.853 126.832 133.761 128.417 134.647C129.02 134.984 129.527 135.374 129.791 136.018C129.855 136.165 129.907 136.324 129.939 136.387C129.918 136.84 129.59 137.115 129.252 136.977C127.847 136.429 126.441 135.891 125.162 135.026H125.173ZM149.607 183.712C148.561 184.26 147.98 185.252 147.43 186.212C146.701 187.477 145.824 188.5 144.429 189.07C143.668 189.376 142.97 189.861 142.262 190.293C140.983 191.074 139.588 190.831 138.214 190.747C137.887 190.726 137.57 190.62 137.242 190.568C136.301 190.409 135.329 190.325 134.632 189.534C134.526 189.418 134.357 189.334 134.209 189.281C132.296 188.732 131.081 187.129 129.474 186.127C129.4 186.085 129.337 186.022 129.294 185.948C128.438 184.492 127.445 183.1 126.916 181.465C126.79 181.075 126.631 180.695 126.515 180.295C126.377 179.852 126.219 179.409 126.177 178.955C126.124 178.28 126.166 177.605 126.166 176.93C126.103 175.2 126.303 173.502 126.631 171.815C126.642 171.73 126.642 171.646 126.652 171.562C126.737 169.842 126.832 168.113 126.906 166.394C127.001 164.463 126.885 162.512 127.212 160.624C127.625 158.293 127.508 155.952 127.73 153.631C127.868 152.239 127.677 150.794 128.153 149.423C128.216 149.233 128.164 149.001 128.174 148.79C128.259 147.24 128.333 145.7 128.438 144.16C128.491 143.411 128.618 142.673 128.681 141.935C128.724 141.312 128.66 140.711 128.354 140.11C127.92 139.256 128.216 138.886 129.157 138.813C129.781 138.76 130.415 138.707 130.996 138.528C131.408 138.401 131.789 138.074 132.137 137.79C132.655 137.357 132.814 136.84 132.528 136.144C132.19 135.311 132.254 135.258 132.993 134.657C133.12 134.552 133.215 134.383 133.363 134.309C134.262 133.866 134.579 133.096 134.864 132.168C135.128 131.335 135.012 130.734 134.558 130.069C134.177 129.521 134.198 129.289 134.706 128.919C135.065 128.645 135.488 128.455 135.9 128.244C136.957 127.685 136.872 127.517 136.819 126.43C136.819 126.314 136.703 126.209 136.682 126.082C136.449 124.89 136.545 124.954 137.453 124.616C138.933 124.078 139.884 122.813 139.874 121.336C139.874 121.104 139.715 120.872 139.652 120.64C139.557 120.281 139.483 119.923 139.377 119.564C139.282 119.248 139.218 118.91 139.049 118.636C138.214 117.223 137.115 116.041 135.646 115.271C135.361 115.124 135.266 114.976 135.308 114.702C135.35 114.417 135.403 114.122 135.509 113.858C135.836 113.078 136.227 112.329 136.513 111.548C136.756 110.894 136.978 110.209 137.062 109.523C137.263 107.888 138.014 106.464 138.531 104.946C139.081 103.342 140.318 102.277 141.195 100.938C141.311 100.758 141.607 100.706 141.818 100.6C141.935 100.853 142.146 101.096 142.156 101.349C142.188 102.678 142.262 104.018 141.491 105.209C141.396 105.368 141.364 105.663 141.448 105.821C141.818 106.549 141.607 107.308 141.681 108.057C141.723 108.468 141.839 108.869 141.861 109.281C141.882 109.65 141.935 110.061 141.797 110.377C141.438 111.263 141.459 112.192 141.417 113.109C141.311 115.155 141.089 117.201 141.131 119.269C141.152 120.207 140.582 121.083 140.613 122.074C140.613 122.327 140.561 122.581 140.613 122.865C140.687 123.224 140.783 123.72 140.613 123.983C140 124.933 140.402 125.903 140.392 126.863C140.37 129.078 140.148 131.261 139.673 133.423C139.609 133.687 139.641 134.045 139.779 134.267C140.053 134.699 139.958 135.089 139.874 135.532C139.631 136.819 139.134 138.053 139.578 139.435C139.789 140.078 139.747 140.859 139.324 141.502C139.039 141.935 139.081 142.367 139.197 142.831C139.282 143.148 139.43 143.517 139.345 143.801C139.049 144.877 139.314 145.932 139.345 146.997C139.366 147.978 139.134 148.97 139.018 149.961C138.975 150.288 138.901 150.615 138.87 150.942C138.806 151.638 139.039 152.376 138.627 153.041C139.007 154.064 138.51 155.087 138.658 156.089C138.711 156.469 138.806 156.764 138.627 157.123C138.563 157.26 138.553 157.481 138.616 157.618C139.134 158.831 138.595 159.97 138.373 161.13C138.13 162.375 138.616 163.44 139.25 164.432C140.096 165.761 141.026 167.026 141.882 168.345C142.854 169.832 143.816 171.33 144.704 172.869C145.095 173.544 145.76 173.956 146.077 174.726C146.553 175.907 147.219 177.015 148.159 177.932C148.297 178.069 148.413 178.291 148.434 178.481C148.572 179.63 149.29 180.537 149.734 181.56C149.903 181.972 149.967 182.436 150.051 182.879C150.115 183.248 149.967 183.533 149.629 183.712H149.607ZM154.057 184.324C153.074 182.647 152.08 180.98 151.098 179.303C150.537 178.343 149.967 177.384 149.428 176.403C149.09 175.791 148.815 175.137 148.519 174.504C148.403 174.241 148.371 173.903 148.181 173.713C147.303 172.827 146.944 171.657 146.384 170.591C145.76 169.41 144.947 168.366 144.133 167.322C143.985 167.132 143.816 166.931 143.7 166.72C143.161 165.75 142.643 164.759 142.114 163.788C141.892 163.388 141.565 163.04 141.427 162.618C141.163 161.827 141.152 161.109 141.787 160.339C143.361 158.42 144.799 156.384 146.289 154.391C147.092 153.336 147.916 152.292 148.698 151.216C150.125 149.233 151.393 147.124 152.979 145.278C154.205 143.844 155.314 142.367 156.361 140.806C156.54 140.532 156.826 140.321 157.079 140.089C157.143 140.026 157.27 140.036 157.365 140.015C157.375 140.142 157.439 140.289 157.396 140.384C157.048 141.133 156.667 141.871 156.297 142.62C155.526 144.16 154.659 145.668 153.993 147.261C153.549 148.316 153.486 149.518 153.074 150.594C152.577 151.902 152.334 153.283 151.753 154.581C151.288 155.593 151.14 156.774 151.372 157.892C151.446 158.283 151.425 158.568 151.372 158.926C151.33 159.221 151.541 159.538 151.573 159.633C151.573 160.012 151.615 160.16 151.573 160.255C151.129 161.13 151.351 161.953 151.742 162.765C151.795 162.871 151.816 163.008 151.827 163.124C151.996 165.761 152.577 168.092 153.729 170.264C154.596 171.92 155.156 173.692 155.917 175.39C156.371 176.413 156.984 177.363 157.196 178.481C157.27 178.881 157.407 179.282 157.418 179.693C157.449 181.212 157.46 182.731 157.418 184.26C157.386 185.431 157.27 186.591 157.143 187.752C157.122 187.941 156.879 188.173 156.688 188.268C156.604 188.311 156.308 188.1 156.213 187.941C155.484 186.75 154.786 185.537 154.067 184.334L154.057 184.324ZM150.22 351.96C150.115 352.34 149.766 352.657 149.259 352.635C148.794 352.614 148.329 352.635 147.864 352.635C147.399 352.635 146.934 352.635 146.468 352.635C146.31 352.635 146.151 352.551 145.993 352.509C146.077 352.33 146.141 352.14 146.247 351.971C146.31 351.866 146.416 351.781 146.511 351.697C147.652 350.726 148.783 349.756 149.935 348.807C150.104 348.67 150.389 348.628 150.611 348.638C150.675 348.638 150.802 349.007 150.77 349.187C150.611 350.115 150.463 351.053 150.21 351.96H150.22ZM162.882 330.275C162.85 330.476 162.765 330.676 162.744 330.877C162.565 332.744 162.522 334.631 162.195 336.467C161.941 337.891 162.078 339.378 161.497 340.749C161.391 341.002 161.465 341.339 161.476 341.635C161.518 342.932 161.275 344.187 161.022 345.463C160.726 346.961 160.641 348.512 160.451 350.03C160.377 350.653 160.335 351.275 160.165 351.876C160.039 352.33 159.679 352.646 159.13 352.635C157.819 352.625 156.509 352.657 155.188 352.625C154.31 352.604 154.131 352.361 154.088 351.496C153.983 349.429 154.48 347.446 154.881 345.453C154.966 345.01 155.05 344.567 155.103 344.113C155.135 343.776 155.019 343.396 155.135 343.111C155.399 342.479 155.325 341.941 154.786 341.582C154.12 341.139 153.38 340.802 152.545 341.002C152.366 341.044 152.165 341.213 152.059 341.382C151.066 342.9 149.618 343.987 148.392 345.284C147.906 345.801 147.473 346.37 146.965 346.866C146.585 347.235 146.151 347.604 145.676 347.815C144.651 348.269 143.847 348.986 143.118 349.798C142.569 350.4 141.924 350.716 141.11 350.61C140.392 350.526 139.842 350.726 139.314 351.264C138.838 351.75 138.257 352.087 137.475 352.182C136.132 352.34 134.811 352.752 133.48 353.047C133.237 353.1 132.951 353.205 132.74 353.131C131.757 352.794 130.742 352.92 129.738 352.889C129.611 352.889 129.453 352.899 129.368 352.836C129.21 352.72 129.041 352.562 128.988 352.382C128.956 352.287 129.115 352.077 129.231 351.992C130.943 350.832 132.687 349.724 134.378 348.533C135.361 347.837 136.27 347.035 137.221 346.276C137.644 345.938 138.098 345.643 138.51 345.284C139.113 344.767 139.715 344.25 140.275 343.691C140.687 343.28 141.026 342.806 141.396 342.352C142.505 341.002 143.615 339.652 144.735 338.312C145.243 337.701 145.76 337.099 146.257 336.488C146.68 335.971 147.039 335.412 147.494 334.916C148.36 333.967 148.667 332.744 149.259 331.657C149.512 331.193 149.84 330.761 150.146 330.318C150.263 330.149 150.421 330.001 150.527 329.822C150.897 329.189 150.865 329.073 150.4 328.504C150.178 328.24 149.671 328.082 149.861 327.618C150.072 327.122 150.58 327.27 150.981 327.259C151.742 327.259 152.503 327.259 153.317 327.259C156.001 327.175 158.739 327.09 161.465 327.006C161.719 327.006 161.973 326.985 162.226 327.006C162.839 327.059 163.262 327.438 163.22 328.061C163.178 328.799 162.998 329.527 162.871 330.265L162.882 330.275ZM191.406 327.681C191.29 328.071 191.237 328.493 191.216 328.904C191.121 330.233 190.846 331.594 191.015 332.891C191.163 334.062 191.163 335.222 191.195 336.393C191.195 336.667 191.153 337.005 190.994 337.216C190.519 337.848 190.572 338.46 190.931 339.082C191.185 339.525 191.153 339.905 190.931 340.348C190.772 340.664 190.709 341.065 190.709 341.424C190.688 343.491 190.688 345.558 190.709 347.626C190.709 347.953 190.804 348.28 190.846 348.606C190.889 348.891 190.994 349.197 190.931 349.461C190.783 350.062 190.519 350.621 190.899 351.264C191.047 351.517 190.276 352.287 189.853 352.361C189.684 352.393 189.504 352.414 189.346 352.361C188.067 351.992 186.799 352.414 185.52 352.382C184.209 352.34 182.899 352.351 181.588 352.382C181.017 352.393 180.436 352.52 179.865 352.593C179.739 352.604 179.591 352.646 179.496 352.593C178.692 352.161 177.836 352.425 177.012 352.372C175.49 352.277 173.968 352.635 172.425 352.393C171.664 352.277 170.829 352.235 170.068 352.593C169.899 352.678 169.635 352.667 169.445 352.593C168.758 352.351 168.081 352.182 167.394 352.583C167.342 352.614 167.236 352.551 167.162 352.541C166.538 352.477 165.925 352.382 165.302 352.372C163.759 352.34 163.759 352.361 163.769 350.821C163.738 350.03 164.034 349.25 163.769 348.459C163.748 348.385 163.738 348.28 163.769 348.206C164.52 346.339 164.203 344.261 164.932 342.384C165.038 342.12 164.995 341.804 165.027 341.519C165.164 340.538 165.312 339.557 165.45 338.576C165.471 338.45 165.513 338.333 165.524 338.207C165.608 337.005 165.587 335.771 165.809 334.589C166.19 332.596 165.756 330.486 166.75 328.598C166.855 328.398 166.781 328.103 166.803 327.85C166.877 327.037 167.363 326.552 168.134 326.763C169.635 327.175 171.167 327.101 172.647 326.953C176.864 326.542 181.081 326.953 185.287 326.689C186.925 326.595 188.553 326.489 190.191 326.489C190.498 326.489 190.836 326.616 191.1 326.774C191.406 326.953 191.512 327.248 191.406 327.639V327.681ZM208.771 352.108C208.771 352.108 208.686 352.108 208.644 352.119C207.566 352.203 206.477 352.309 205.399 352.372C204.712 352.414 204.702 352.372 204.681 351.676C204.67 351.296 204.681 350.916 204.681 350.537C204.66 350.537 204.638 350.537 204.617 350.537C204.691 349.956 204.691 349.366 204.839 348.807C204.998 348.237 205.325 348.164 205.759 348.533C206.107 348.839 206.425 349.187 206.752 349.514C207.407 350.157 207.989 350.885 208.908 351.212C209.056 351.264 209.225 351.549 209.194 351.697C209.162 351.855 208.919 351.982 208.771 352.119V352.108ZM212.428 338.703C213.03 339.473 213.527 340.337 214.066 341.16C214.425 341.709 214.763 342.278 215.123 342.827C215.218 342.964 215.313 343.122 215.45 343.206C216.549 343.871 217.289 344.883 218.103 345.833C218.695 346.518 219.287 347.256 220.217 347.573C220.333 347.615 220.481 347.689 220.513 347.794C220.808 348.575 221.485 348.912 222.182 349.187C222.88 349.461 223.282 350.125 224.021 350.421C224.698 350.695 225.226 351.391 225.765 351.95C226.04 352.235 225.85 352.604 225.459 352.614C225.332 352.614 225.205 352.604 225.089 352.562C223.218 351.866 221.326 352.066 219.403 352.34C217.617 352.593 215.905 352.277 214.457 351.106C214.023 350.758 213.516 350.579 213.083 350.305C211.952 349.587 210.747 349.028 209.828 347.9C208.792 346.624 207.82 345.368 207.122 343.881C206.816 343.217 206.319 342.616 205.822 342.067C205.568 341.782 205.114 341.487 204.765 341.508C203.994 341.55 203.233 341.793 202.472 341.951C202.028 342.046 201.848 342.331 201.859 342.774C201.88 343.407 201.352 344.05 201.859 344.683C201.256 346.339 201.954 348.111 201.394 349.777C201.267 350.157 201.373 350.61 201.341 351.032C201.299 351.728 200.95 352.077 200.231 352.119C199.565 352.15 198.889 352.024 198.255 352.351C198.128 352.425 197.896 352.414 197.758 352.351C196.87 351.929 195.93 352.193 195.021 352.14C194.81 352.129 194.577 352.446 194.376 352.129C194.228 351.887 194.017 351.634 194.006 351.38C193.953 350.621 193.985 349.862 193.985 348.955C194.049 348.026 193.827 346.929 194.218 345.864C194.302 345.643 194.281 345.347 194.218 345.115C193.848 343.797 193.858 342.489 194.218 341.171C194.281 340.939 194.239 340.664 194.239 340.411C194.239 339.652 194.218 338.893 194.239 338.133C194.313 335.412 194.387 332.68 194.503 329.959C194.535 329.041 194.672 328.134 194.746 327.227C194.788 326.774 195.01 326.531 195.465 326.531C196.183 326.531 196.902 326.552 197.621 326.521C198.16 326.489 198.688 326.384 199.217 326.31C199.344 326.289 199.491 326.236 199.587 326.278C200.358 326.689 201.13 326.246 201.891 326.278C203.36 326.331 204.818 326.426 206.277 326.531C206.784 326.573 207.101 326.911 207.185 327.417C207.429 328.852 207.872 330.202 208.633 331.446C208.845 331.784 208.876 332.227 208.961 332.628C209.109 333.334 209.394 333.925 209.912 334.463C210.367 334.927 210.684 335.539 210.969 336.129C211.392 337.015 211.783 337.901 212.396 338.692L212.428 338.703ZM226.135 321.395C226.167 321.764 226.283 322.133 226.272 322.502C226.251 323.03 225.839 323.409 225.311 323.462C225.057 323.483 224.803 323.462 224.55 323.462H216.422C213.971 323.462 211.508 323.43 209.056 323.462C206.953 323.494 204.85 323.641 202.747 323.694C202.123 323.715 201.51 323.736 200.887 323.504C200.411 323.325 199.777 323.378 199.259 323.515C198.297 323.768 197.388 323.715 196.416 323.515C195.042 323.241 193.636 322.882 192.241 323.546C191.988 323.662 191.671 323.684 191.385 323.684C186.238 323.778 181.091 323.8 175.944 323.979C174.697 324.021 173.44 324.211 172.182 324.179C171.685 324.169 171.199 324.01 170.702 323.979C170.206 323.947 169.698 323.979 169.202 324.01C168.832 324.042 168.441 324.242 168.103 324.169C166.39 323.789 164.689 324.179 162.998 324.253C161.539 324.316 160.049 324.274 158.612 324.475C155.494 324.907 152.376 324.601 149.259 324.685C147.018 324.749 144.767 324.685 142.526 324.707C141.691 324.707 140.857 324.601 140.032 324.918C139.673 325.055 139.166 325.023 138.785 324.896C137.654 324.517 136.566 324.675 135.456 324.981C135.234 325.044 134.949 325.15 134.79 325.055C134.209 324.717 133.606 324.633 132.972 324.707C132.254 324.791 131.873 324.306 131.567 323.821C131.355 323.494 131.25 323.04 131.239 322.639C131.207 321.163 131.207 319.686 131.239 318.199C131.25 317.429 131.62 317.102 132.454 317.102C134.145 317.081 135.858 317.218 137.538 317.07C140.148 316.838 142.759 316.902 145.359 316.817C146.046 316.796 146.786 316.933 147.399 316.796C149.396 316.364 151.436 316.923 153.402 316.364C153.676 316.29 153.993 316.343 154.289 316.343C155.811 316.343 157.344 316.374 158.866 316.343C161.645 316.279 164.435 316.343 167.194 316.047C169.688 315.773 172.171 316.047 174.634 315.826C177.963 315.52 181.303 315.805 184.611 315.552C188.289 315.267 191.967 315.446 195.644 315.341C196.183 315.32 196.712 315.193 197.24 315.119C197.325 315.109 197.431 315.066 197.494 315.098C198.266 315.488 199.026 315.077 199.798 315.088C200.559 315.098 201.32 315.066 202.081 315.088C203.18 315.13 204.237 314.982 205.294 314.666C205.611 314.571 205.96 314.613 206.287 314.571C207.238 314.465 208.2 314.74 209.172 314.391C209.585 314.244 210.134 314.539 210.62 314.56C211.297 314.592 211.973 314.581 212.649 314.529C213.262 314.476 213.854 314.634 214.457 314.581C215.905 314.455 217.363 314.391 218.79 314.075C219.435 313.927 220.058 313.97 220.692 314.18C220.999 314.286 221.39 314.391 221.665 314.286C222.7 313.885 223.757 314.107 224.793 314.086C225.829 314.064 226.294 314.497 226.262 315.499C226.209 317.007 226.505 318.515 226.061 320.013C225.934 320.424 226.093 320.92 226.135 321.374V321.395ZM226.811 305.426C226.516 306.397 226.346 307.367 226.716 308.369C226.78 308.538 226.695 308.77 226.685 308.97C226.653 309.603 226.093 310.141 226.42 310.869C226.547 311.153 225.934 311.512 225.554 311.459C223.884 311.227 222.214 311.143 220.555 311.491C220.354 311.533 220.143 311.544 219.931 311.554C216.053 311.639 212.174 311.723 208.295 311.807C207.703 311.818 207.111 311.797 206.52 311.807C203.825 311.881 201.119 311.828 198.445 312.113C196.712 312.293 195 312.166 193.288 312.345C192.284 312.451 191.343 312.525 190.402 312.082C190.297 312.029 190.138 312.029 190.033 312.082C188.807 312.556 187.528 312.25 186.27 312.314C183.279 312.461 180.267 312.451 177.287 312.651C174.888 312.809 172.489 312.704 170.1 312.841C169.35 312.883 168.578 312.651 167.859 313.052C167.743 313.115 167.532 313.052 167.373 312.999C166.549 312.736 165.735 312.725 164.911 312.999C164.752 313.052 164.583 313.073 164.414 313.073C162.015 313.157 159.616 313.147 157.227 313.358C155.251 313.537 153.275 313.474 151.309 313.621C150.4 313.695 149.491 313.811 148.561 313.832C147.684 313.854 146.807 313.927 145.929 313.948C143.921 314.001 141.903 314.054 139.895 314.075C138.806 314.075 137.739 314.138 136.682 314.486C135.942 314.729 135.128 314.729 134.346 314.845C133.776 314.929 133.194 315.003 132.624 315.088C131.704 315.225 131.398 315.088 131.102 314.381C131.038 314.244 130.964 314.064 131.007 313.927C131.313 312.767 131.228 311.639 130.985 310.468C130.816 309.656 130.922 308.78 130.954 307.937C130.975 307.409 131.387 307.008 131.926 306.977C132.56 306.945 133.194 306.977 133.828 306.977C133.828 306.935 133.828 306.892 133.828 306.85C136.819 306.808 139.821 306.945 142.791 306.66C145.031 306.449 147.261 306.66 149.47 306.449C151.996 306.196 154.511 306.281 157.037 306.196C157.978 306.165 158.918 305.901 159.848 305.743C160.018 305.711 160.187 305.722 160.356 305.711C163.473 305.627 166.581 305.511 169.698 305.469C171.833 305.437 173.958 305.321 176.071 304.973C176.557 304.888 177.086 304.941 177.583 305.015C178.925 305.205 180.235 305.279 181.609 305.015C182.518 304.836 183.501 304.899 184.484 305.12C185.361 305.321 186.323 305.163 187.253 305.131C187.665 305.12 188.067 304.962 188.479 304.962C190.096 304.931 191.755 305.11 193.33 304.846C194.609 304.635 195.93 305.015 197.166 304.498C197.283 304.445 197.473 304.614 197.621 304.614C198.287 304.614 198.942 304.583 199.608 304.551C199.935 304.53 200.274 304.456 200.601 304.456C201.531 304.445 202.461 304.477 203.391 304.456C205.579 304.382 207.767 304.34 209.944 304.171C210.515 304.129 211.064 304.203 211.614 304.171C213.146 304.097 214.679 303.897 216.211 303.749C216.465 303.728 216.708 303.686 216.961 303.686C219.836 303.686 222.721 303.686 225.596 303.686C226.907 303.686 227.181 304.118 226.78 305.426H226.811ZM218.885 235.72C218.293 236.87 219.117 237.798 219.339 238.8C219.561 239.802 220.079 240.751 219.931 241.827C219.921 241.911 219.931 241.996 219.942 242.08C220.343 243.462 220.777 244.843 221.136 246.236C221.58 247.965 222.098 249.663 221.982 251.499C221.876 253.133 222.404 254.694 222.743 256.266C222.933 257.152 223.081 258.048 223.239 258.945C223.398 259.831 223.419 260.759 223.873 261.582C223.937 261.687 223.979 261.814 223.99 261.93C224.085 262.837 224.233 263.754 224.233 264.662C224.233 265.632 224.465 266.549 224.666 267.488C224.708 267.689 224.74 267.9 224.751 268.1C224.877 270.009 225.089 271.897 225.501 273.764C225.522 273.848 225.501 273.932 225.512 274.017C225.596 275.652 225.575 277.286 225.797 278.9C225.998 280.408 225.998 281.906 226.019 283.414C226.019 283.499 225.998 283.594 226.04 283.668C226.737 284.923 226.505 286.283 226.526 287.612C226.547 289.131 226.526 290.65 226.537 292.179C226.537 292.801 226.41 293.445 226.759 294.035C226.833 294.162 226.811 294.373 226.78 294.531C226.42 296.145 226.833 297.759 226.79 299.362C226.78 299.752 226.78 300.132 226.399 300.364C226.283 300.438 226.125 300.469 225.987 300.459C225.311 300.427 224.645 300.374 223.979 300.322V300.416C220.861 300.48 217.733 300.416 214.636 300.67C212.512 300.849 210.398 300.796 208.274 300.881C207.059 300.933 205.854 301.049 204.649 301.123C204.364 301.144 204.025 301.165 203.782 301.049C203.391 300.859 203.106 300.965 202.725 301.081C202.102 301.271 201.426 301.323 200.76 301.376C200.168 301.418 199.576 301.397 198.984 301.376C196.934 301.345 194.884 301.482 192.865 301.872C192.664 301.914 192.442 301.872 192.231 301.882C189.155 301.967 186.08 301.999 183.015 302.167C182.021 302.22 181.06 302.083 180.077 302.125C179.062 302.167 178.048 302.115 177.033 302.146C176.452 302.167 175.881 302.283 175.31 302.357C175.226 302.357 175.131 302.399 175.067 302.378C173.662 301.946 172.267 302.547 170.861 302.42C169.434 302.294 167.986 302.357 166.549 302.399C164.615 302.463 162.702 302.737 160.757 302.663C160.144 302.642 159.489 302.737 158.918 302.937C158.401 303.116 157.978 303.233 157.492 302.927C157.365 302.853 157.132 302.853 156.995 302.916C156.107 303.327 155.156 303.401 154.205 303.486C153.666 303.538 153.127 303.665 152.588 303.633C152.07 303.602 151.584 304.055 151.034 303.686C150.886 303.581 150.559 303.739 150.315 303.781C150.03 303.823 149.734 303.929 149.459 303.897C148.772 303.823 148.096 303.496 147.451 304.045C147.367 304.118 147.092 303.96 146.902 303.908C146.786 303.876 144.936 303.865 144.83 303.855C142.854 303.77 140.973 304.688 138.975 304.414C138.489 304.34 137.992 304.161 137.506 304.192C136.766 304.234 136.048 304.488 135.308 304.54C134.05 304.625 132.782 304.646 131.524 304.646C131.228 304.646 130.985 304.403 131.049 304.034C131.398 302.231 131.556 300.406 131.514 298.56C131.503 297.98 131.429 297.4 131.715 296.83C131.852 296.567 131.841 296.124 131.725 295.839C131.176 294.499 131.651 293.202 131.81 291.894C131.915 291.082 132.169 290.281 132.243 289.458C132.38 287.96 132.391 286.452 132.528 284.954C132.624 283.847 132.845 282.739 133.004 281.642C133.025 281.516 133.004 281.389 133.025 281.263C133.194 279.48 133.11 277.624 133.606 275.936C134.156 274.08 133.776 272.182 134.304 270.389C134.674 269.134 134.843 267.878 134.832 266.571C134.832 266.106 135.192 265.642 135.276 265.168C135.488 263.944 135.646 262.71 135.815 261.476C135.836 261.308 135.815 261.139 135.858 260.981C136.227 259.546 136.714 258.133 136.967 256.677C137.189 255.369 137.58 254.104 137.844 252.817C138.024 251.931 138.088 250.992 138.394 250.149C139.049 248.345 139.06 246.404 139.631 244.59C140.148 242.934 140.666 241.289 141.195 239.633C141.248 239.475 141.406 239.327 141.385 239.18C141.269 237.766 141.966 236.511 142.199 235.172C142.505 233.379 143.456 231.786 143.805 229.982C144.006 228.959 144.651 228.01 145.116 227.04C145.338 226.586 145.464 226.133 145.496 225.605C145.538 224.951 145.708 224.297 145.919 223.675C146.342 222.473 146.712 221.228 147.314 220.11C148.149 218.549 148.434 216.83 149.037 215.206C149.555 213.782 149.776 212.263 150.696 210.966C151.182 210.291 151.235 209.331 151.563 208.54C152.038 207.39 152.535 206.251 153.127 205.165C153.549 204.395 154.416 204.332 155.145 204.532C156.149 204.796 157.111 204.859 158.094 204.532C158.358 204.448 158.686 204.49 158.982 204.49C160.208 204.49 161.455 204.374 162.66 204.511C165.862 204.88 169.075 204.511 172.256 204.806C174.454 205.007 176.631 204.912 178.809 204.996C181.377 205.102 183.956 205.038 186.503 205.302C188.056 205.471 189.599 205.471 191.153 205.492C191.724 205.492 192.305 205.355 192.875 205.281C193.002 205.27 193.15 205.228 193.245 205.281C194.091 205.713 194.989 205.481 195.856 205.492C198.266 205.524 200.686 205.492 203.095 205.513C203.803 205.513 204.501 205.481 205.209 205.713C205.833 205.924 206.541 205.766 207.175 205.492C207.788 205.228 208.063 204.732 207.946 204.089C207.841 203.541 207.429 203.224 206.742 203.224C206.488 203.224 206.213 203.224 206.002 203.319C205.579 203.52 205.199 203.541 204.808 203.298C204.734 203.256 204.649 203.235 204.564 203.235C202.176 203.087 199.766 202.75 197.388 203.024C196.501 203.129 195.676 202.971 194.831 202.971C193.985 202.971 193.14 202.95 192.294 202.971C191.797 202.992 191.311 203.098 190.815 203.161C190.656 203.182 190.476 203.203 190.318 203.182C188.606 202.897 186.894 202.707 185.16 202.718C184.664 202.718 184.177 202.845 183.681 202.908C183.554 202.929 183.406 202.982 183.311 202.939C182.339 202.507 181.313 202.802 180.32 202.707C180.035 202.676 179.749 202.581 179.464 202.581C178.893 202.56 178.312 202.56 177.731 202.581C177.318 202.602 176.896 202.729 176.494 202.697C175.342 202.623 174.211 202.349 173.028 202.665C172.425 202.834 171.706 202.581 171.041 202.549C170.85 202.549 170.66 202.612 170.47 202.644C169.804 202.75 169.159 202.75 168.504 202.465C168.103 202.286 167.627 202.212 167.173 202.212C163.526 202.191 159.891 202.212 156.245 202.201C155.949 202.201 155.653 202.222 155.357 202.18C155.103 202.148 154.881 201.663 154.987 201.421C155.357 200.651 155.758 199.891 156.097 199.111C156.688 197.75 157.259 196.379 157.788 194.997C157.914 194.66 157.862 194.249 157.872 193.879C157.904 192.951 157.978 192.846 158.876 192.835C159.732 192.835 160.546 192.572 161.444 192.783C162.332 192.993 163.294 192.814 164.224 192.835C167.722 192.909 171.231 192.825 174.708 193.141C177.921 193.436 181.113 193.247 184.315 193.331C186.851 193.394 189.398 193.342 191.935 193.342C192.231 193.342 192.59 193.236 192.812 193.363C194.249 194.175 195.782 193.637 197.209 193.51C198.889 193.373 200.569 193.436 202.239 193.331C202.821 193.289 203.391 193.141 203.962 193.088C204.913 193.015 205.082 193.152 205.135 194.08C205.209 195.324 205.653 196.495 205.928 197.698C206.932 198.552 206.879 199.849 207.344 200.936C207.629 201.611 207.936 202.264 208.105 202.992C208.168 203.266 208.105 203.678 208.559 203.804C208.697 203.847 208.834 204.131 208.866 204.321C209.077 205.608 209.817 206.694 210.24 207.897C210.462 208.551 210.747 209.204 211.117 209.785C211.667 210.66 211.889 211.694 211.92 212.622C211.962 213.74 212.343 214.742 212.554 215.786C212.755 216.777 213.252 217.727 213.653 218.676C213.949 219.361 214.266 220.026 214.309 220.796C214.33 221.197 214.478 221.619 214.679 221.967C214.985 222.504 214.964 223.074 215.091 223.644C215.249 224.392 215.577 225.152 215.989 225.795C216.37 226.386 216.549 226.839 216.401 227.599C216.275 228.253 216.644 229.044 216.909 229.729C217.131 230.278 217.416 230.784 217.342 231.396C217.342 231.48 217.321 231.586 217.363 231.649C218.103 232.598 217.965 233.885 218.589 234.876C218.737 235.108 218.927 235.499 218.832 235.678L218.885 235.72ZM213.199 194.111C214.383 194.28 215.059 195.061 215.598 195.947C216.56 197.508 217.162 199.195 217.426 201.052C217.648 202.602 217.722 204.1 217.426 205.64C217.257 206.525 217.374 207.464 217.173 208.371C217.099 208.688 217.384 209.194 217.659 209.458C218.97 210.744 218.621 211.04 219.773 209.363C220.618 208.139 221.369 206.842 222.204 205.618C222.573 205.07 223.049 204.574 223.546 204.131C223.736 203.963 224.021 203.752 224.423 203.973C224.782 204.173 224.74 204.416 224.74 204.69C224.74 204.943 224.772 205.228 224.666 205.429C223.947 206.863 223.567 208.456 222.647 209.816C221.96 210.839 221.538 212.031 220.84 213.044C219.752 214.626 218.948 216.355 218.103 218.054C217.839 218.57 217.532 218.549 217.279 217.99C216.549 216.366 215.979 214.7 215.598 212.959C215.545 212.717 215.482 212.474 215.376 212.253C213.992 209.352 212.945 206.304 211.709 203.351C211.011 201.674 210.272 200.007 209.468 198.373C209.035 197.497 208.781 196.611 208.623 195.662C208.369 194.154 208.105 192.645 207.841 191.137C207.82 189.935 208.295 188.986 208.855 187.952C210.24 185.4 211.899 183.016 213.315 180.495C214.932 177.605 216.676 174.789 218.346 171.931C219.604 169.79 220.798 167.617 222.077 165.486C222.753 164.368 223.292 163.124 224.55 162.428C224.877 162.248 225.025 161.689 225.184 161.268C225.237 161.141 225.099 160.856 224.962 160.751C223.144 159.232 222.077 157.07 220.407 155.414C219.878 154.887 219.445 154.264 218.927 153.716C218.621 153.389 218.515 153.083 218.811 152.714C219.149 152.292 219.445 151.817 219.836 151.469C220.925 150.499 222.056 149.571 223.176 148.632C224.074 147.883 225.036 147.208 225.871 146.407C226.748 145.573 227.572 144.666 228.312 143.707C228.82 143.063 229.443 142.567 230.024 142.019C230.363 141.703 230.68 141.365 231.018 141.049C231.705 140.405 232.466 140.479 233.058 141.217C233.343 141.576 233.586 141.977 233.924 142.283C235.573 143.791 236.788 145.658 238.173 147.377C238.743 148.084 239.23 148.854 239.747 149.592C240.413 150.541 241.079 151.49 241.734 152.45C242.39 153.41 243.055 154.359 243.658 155.34C244.038 155.973 244.313 156.658 244.662 157.312C244.968 157.903 245.317 158.462 245.624 159.053C246.459 160.666 247.272 162.291 248.086 163.915C248.361 164.474 248.583 165.043 248.847 165.613C249.175 166.309 249.238 166.415 248.572 166.858C247.093 167.828 246.11 169.442 244.387 170.096C244.207 170.169 244.06 170.359 243.922 170.517C243.531 170.971 243.013 171.192 242.485 171.456C240.984 172.226 239.441 172.943 238.12 174.019C237.961 174.146 237.782 174.262 237.591 174.346C235.774 175.211 234.273 176.529 232.656 177.69C232.392 177.879 232.106 178.059 231.842 178.259C231.208 178.723 230.574 179.198 229.929 179.651C229.633 179.862 229.295 180.01 228.978 180.189C228.481 180.485 227.911 180.706 227.498 181.096C226.516 182.035 225.3 182.573 224.159 183.237C223.429 183.67 222.806 184.292 222.151 184.83C221.897 185.041 221.675 185.305 221.4 185.484C220.174 186.264 218.948 187.024 217.712 187.783C217.469 187.941 217.226 188.11 216.961 188.226C216.549 188.416 216.19 188.606 215.905 189.017C215.662 189.365 215.175 189.545 214.795 189.787C214.488 189.988 214.129 190.125 213.865 190.367C213.379 190.831 212.945 191.338 212.237 191.464C211.846 191.538 211.741 191.802 211.73 192.202C211.709 193.109 212.026 193.932 213.146 194.09L213.199 194.111Z" fill="#212633"/>
<path id="Vector_8" d="M185.625 90.897C184.589 91.0763 183.554 90.6227 182.56 90.0954C181.873 89.7262 181.271 89.5364 180.436 89.8106C179.707 90.0426 178.84 89.9266 178.047 89.8739C175.944 89.7579 173.989 89.1356 172.171 88.0809C171.886 87.9121 171.664 87.6379 171.421 87.4058C170.47 86.4707 169.371 85.7781 168.124 85.3281C168.124 85.3281 168.028 85.3281 167.997 85.3175C166.602 84.5581 165.386 83.5456 164.255 82.4592C163.822 82.0479 163.526 81.3623 163.6 80.624C163.632 80.3076 163.505 79.9806 163.431 79.6537C163.325 79.1685 163.642 78.6306 164.107 78.4829C165.397 78.0927 166.39 78.7677 166.39 80.0967C166.39 80.8244 166.654 81.3623 167.141 81.8791C168.039 82.8389 169.043 83.63 170.332 83.978C170.924 84.1362 171.579 84.1257 172.15 84.3366C172.488 84.4632 172.932 84.8429 172.964 85.1488C173.038 85.8976 173.503 86.2351 174.031 86.5937C175.226 87.3953 176.483 87.9965 177.974 87.8699C178.217 87.8488 178.513 87.8277 178.713 87.9332C179.58 88.3551 180.098 87.7855 180.637 87.3004C180.827 87.1316 180.954 86.9101 181.134 86.7308C181.588 86.2773 181.979 86.2773 182.381 86.773C182.603 87.0578 182.825 87.3953 182.899 87.7328C183.068 88.4184 183.628 88.7453 184.156 88.8297C185.72 89.0512 187.253 88.8825 188.584 87.9121C189.377 87.332 189.631 86.4461 189.789 85.5285C189.832 85.2859 189.832 85.0116 189.948 84.8112C190.275 84.2522 190.825 83.9569 191.163 84.1046C191.818 84.3788 192.273 85.2437 192.072 85.8976C191.692 87.1211 191.353 88.3129 190.339 89.2727C189.166 90.3696 187.834 90.8337 186.291 90.9075C186.122 90.9075 185.953 90.9075 185.636 90.9075L185.625 90.897Z" fill="#212633"/>
<path id="Vector_9" d="M178.016 106.813C176.113 106.665 174.211 106.581 172.446 105.716C171.897 105.452 171.231 105.431 170.681 105.167C169.624 104.661 168.515 104.218 167.69 103.322C166.961 102.531 166.168 101.792 165.481 100.959C165.006 100.379 164.964 99.6617 165.386 98.9762C165.682 98.4804 166.242 98.28 166.644 98.6597C167.331 99.3137 168.314 99.6512 168.705 100.622C168.758 100.769 168.916 100.885 169.054 100.98C170.671 102.088 172.404 102.889 174.327 103.343C174.993 103.501 175.596 103.912 176.304 103.944C177.265 103.997 178.227 104.039 179.189 104.028C179.633 104.028 180.087 103.891 180.531 103.828C180.817 103.786 181.144 103.817 181.387 103.691C181.884 103.438 182.381 103.3 182.941 103.311C183.216 103.311 183.533 103.206 183.755 103.047C184.103 102.805 184.315 102.826 184.621 103.121C185.276 103.754 185.245 104.113 184.399 104.608C183.11 105.357 181.778 105.969 180.267 106.19C179.495 106.306 178.766 106.612 178.016 106.823V106.813Z" fill="#212633"/>
<path id="Vector_10" d="M193.954 63.263C192.897 63.2419 191.502 61.7864 191.554 60.911C191.607 59.9617 193.372 58.8754 194.228 59.2656C194.662 59.4555 194.958 59.9617 194.841 60.5102C194.693 61.238 194.387 61.9341 194.81 62.6724C194.862 62.7567 194.662 63.0732 194.514 63.147C194.302 63.2525 194.027 63.2419 193.954 63.2525V63.263Z" fill="#212633"/>
<path id="Vector_11" d="M170.871 59.6875C170.639 59.5188 170.227 59.3395 170.005 59.0336C169.688 58.6117 169.497 58.0949 169.286 57.6097C169.106 57.1984 169.138 56.8292 169.497 56.4706C169.857 56.112 170.163 56.207 170.607 56.323C171.146 56.4601 171.537 56.7449 171.801 57.1457C172.034 57.5043 172.14 57.9683 172.203 58.4113C172.266 58.8543 171.484 59.6453 170.871 59.6875Z" fill="#212633"/>
</g>
</g>
<defs>
<clipPath id="clip0_14134_209">
<rect width="141.409" height="346" fill="white" transform="translate(111 10)"/>
</clipPath>
</defs>
</svg>
