<svg width="366" height="366" viewBox="0 0 366 366" fill="none" xmlns="http://www.w3.org/2000/svg">
<g id="Colour=True" clip-path="url(#clip0_13682_1036)">
<g id="Colour">
<path id="Vector" d="M92.9062 62.4776L97.2092 62.0279L105.815 66.3308L100.602 49.1089L92.9062 62.4776Z" fill="#212633"/>
<path id="Vector_2" d="M43.5095 295.632L71.3814 297.451L73.1904 304.023L76.8188 306.967L83.3907 309.001L84.515 311.045L84.0653 316.707L82.2562 321.01L75.6843 323.729L61.1811 316.707L61.406 325.323L43.9592 326.683L43.5095 295.632Z" fill="#212633"/>
<path id="Vector_3" d="M149.324 256.436L169.04 241.483L171.074 247.37L177.421 243.977L184.892 241.933L189.205 244.202L193.059 249.189L181.049 264.142L174.477 265.052L168.13 265.726L172.883 271.849L164.052 280.679L156.346 267.771L149.324 256.436Z" fill="#212633"/>
<path id="Vector_4" d="M68.2026 103.033L76.1339 96.4614L84.29 94.8772L92.2213 95.7868L101.512 100.55L107.859 107.796L123.497 123.434C123.497 123.434 129.619 122.074 130.293 121.85C130.968 121.625 145.706 117.996 145.706 117.996L138.225 126.377L132.562 135.668L130.753 139.971L146.841 152.655L141.403 161.036L131.888 172.82L124.866 179.392L116.26 182.336L103.117 183.92L104.251 188.223L103.566 205.22L101.297 224.026L50.991 212.241L67.7631 181.651L83.4008 154.239L99.2633 124.558L91.7818 130.445L86.7941 132.489L78.4131 131.355L70.9316 127.052L65.9438 119.121L65.4941 110.055L68.2128 103.033H68.2026Z" fill="#E4C1CF"/>
<path id="Vector_5" d="M155.437 115.952L170.849 108.706L193.059 94.6523L205.518 114.143L192.149 126.153L175.377 138.612L160.199 145.858L155.212 147.677V142.69L155.896 137.927L156.571 132.949L156.346 127.512L153.852 125.693L155.437 115.952Z" fill="#E4C1CF"/>
<path id="Vector_6" d="M83.6159 80.6091L119.869 15.5748L114.206 9.91252L105.815 6.96896L101.737 6.73389L99.4784 10.8119L90.6375 10.5871L80.6621 13.5307L71.3817 21.0122L65.7092 30.5277L63.9001 40.268L64.5747 49.1089L70.0223 59.534L73.1908 63.6121L70.6969 68.1399L83.6159 80.6091Z" fill="#E4C1CF"/>
</g>
<g id="Texture">
<path id="Vector_7" opacity="0.12" d="M83.8401 78.7898L117.599 19.2031L122.362 33.0215L127.574 44.1212L132.552 46.8399L140.258 48.884L142.752 52.5124L142.527 58.3995L139.124 62.7024L134.371 67.4653L132.327 71.3185L134.596 77.6553L141.393 83.7775L147.505 87.181L150.459 94.4275L150.683 104.393L146.381 112.099L137.989 117.761L123.496 123.199L83.8401 78.7898Z" fill="#212633"/>
<path id="Vector_8" opacity="0.12" d="M130.743 139.971L136.63 127.287L144.786 119.806L144.562 124.793L155.212 126.602L157.256 129.096L156.796 132.725L156.121 136.118L155.436 138.612L156.121 142.465L155.436 145.858L143.202 149.262L130.743 139.971Z" fill="#212633"/>
<path id="Vector_9" opacity="0.12" d="M192.823 95.1022L208.236 80.1493L217.527 71.3186L215.483 81.5086L224.773 81.2838L225.908 83.5528L226.357 90.3495L224.099 98.9554L220.92 103.943H208.686L201.664 107.347L192.823 95.1022Z" fill="#212633"/>
<path id="Vector_10" opacity="0.12" d="M1.13428 361.576H591.165V44.3562L575.303 81.0587L567.146 92.3833L552.194 111.874L536.331 131.815L515.941 116.862L489.653 115.952L467.903 133.174L443.885 103.268L415.338 104.628L360.954 162.18L343.282 166.708L324.701 231.507L293.886 244.202L267.148 331.21L209.596 266.861L179.23 265.052L151.133 297.676L133.012 282.263L112.611 282.723L89.5024 313.988L85.4244 318.976L80.4367 323.054L42.8245 326.683L1.13428 361.576Z" fill="#212633"/>
</g>
<g id="Line">
<g id="mtmlNf">
<g id="Group">
<path id="Vector_11" d="M16.3023 360.646C19.2357 360.595 22.169 360.493 25.1023 360.523C26.5332 360.534 27.9948 360.074 29.4053 360.718C29.5279 360.779 29.7221 360.697 29.8856 360.667C31.7356 360.35 33.606 360.462 35.4764 360.472C40.4538 360.503 45.4415 360.483 50.419 360.575C51.3082 360.595 52.1463 360.227 53.0662 360.452C53.8429 360.636 54.6913 360.605 55.4987 360.605C56.8785 360.605 58.2481 360.718 59.6381 360.38C60.4864 360.176 61.4472 360.247 62.3261 360.38C63.5117 360.564 64.7382 360.288 65.9136 360.718C66.3531 360.871 66.905 360.84 67.3752 360.748C68.8265 360.483 70.2676 360.227 71.6985 360.81C71.8416 360.871 72.0358 360.85 72.1789 360.81C74.0288 360.258 75.9094 360.615 77.7798 360.564C79.3845 360.523 80.9891 361.034 82.5938 360.534C84.1167 360.81 85.66 360.687 87.2135 360.932C89.043 361.229 90.9543 360.994 92.8247 360.963C93.3051 360.963 93.8263 360.707 94.2658 360.82C95.7989 361.208 97.3218 360.789 98.8447 360.85C100.398 360.912 101.952 360.922 103.505 360.922C105.059 360.922 106.612 360.84 108.156 360.871C110.353 360.912 112.561 360.973 114.748 361.096C116.69 361.208 118.663 360.718 120.584 361.362C121.954 361.218 123.323 361.086 124.703 360.942C125.265 360.881 125.878 360.605 126.389 360.738C128.004 361.178 129.589 361.065 131.203 360.84C132.43 361.351 133.748 360.789 134.995 361.137C135.282 361.218 135.619 361.045 135.936 361.024C136.508 360.973 137.091 360.83 137.632 360.942C138.92 361.198 140.198 360.994 141.475 360.994C142.773 360.994 144.071 360.942 145.38 360.942C146.361 360.942 147.362 361.157 148.313 360.994C149.764 360.738 151.185 360.994 152.616 360.963C152.861 360.963 153.106 360.994 153.341 360.963C154.21 360.82 155.202 360.84 155.917 360.431C156.755 359.951 156.377 358.786 156.612 357.948C157.082 356.323 157.604 354.667 157.46 352.909C157.42 352.367 157.665 351.795 157.808 351.243C158.564 348.32 158.983 345.335 159.556 342.382C160.087 339.591 160.69 336.801 161.232 334.011C161.477 332.733 161.671 331.446 161.876 330.168C162.428 326.713 163.409 323.341 163.828 319.865C164.002 318.424 164.421 316.993 164.809 315.583C164.901 315.246 165.269 314.816 165.586 314.735C166.669 314.438 167.742 314.091 168.826 314.939C169.776 315.685 170.89 316.186 171.841 316.983C173.384 318.291 175.122 319.385 176.778 320.571C177.105 320.806 177.595 320.724 177.861 320.356C178.474 319.498 179.047 318.608 179.67 317.75C180.201 317.024 180.764 316.329 181.326 315.634C181.775 315.072 182.399 314.919 183.073 314.898C183.871 314.878 184.576 315.144 184.852 315.931C185.506 317.78 186.876 319.303 187.295 321.255C187.346 321.491 187.458 321.736 187.611 321.91C188.705 323.167 189.206 324.731 189.942 326.182C190.678 327.633 191.434 329.074 192.201 330.495C193.366 332.652 194.051 335.023 195.359 337.098C195.747 337.711 196.115 338.344 196.473 338.978C196.708 339.407 196.984 339.837 197.107 340.297C197.199 340.665 197.127 341.094 197.055 341.482C196.974 341.881 196.422 342.136 196.084 341.983C195.318 341.646 194.684 341.196 194.306 340.399C193.539 338.774 192.712 337.19 191.904 335.585C189.962 331.721 188.02 327.848 186.058 323.995C185.169 322.247 184.228 320.53 183.298 318.813C182.971 318.199 182.358 318.159 181.939 318.731C181.224 319.722 180.539 320.734 179.834 321.736C179.547 322.134 179.282 322.554 178.965 322.921C178.464 323.494 177.943 323.616 177.237 323.249C176.164 322.676 175.112 322.063 174.079 321.409C172.291 320.274 170.522 319.089 168.744 317.934C168.54 317.801 168.305 317.729 168.07 317.668C167.712 317.576 167.405 317.699 167.252 318.016C167.078 318.383 166.955 318.782 166.874 319.181C166.434 321.337 166.015 323.494 165.596 325.65C165.341 326.928 165.095 328.195 164.84 329.473C164.543 330.986 164.257 332.498 163.961 334.011C163.848 334.563 163.715 335.115 163.603 335.677C163.256 337.435 162.959 339.193 162.571 340.941C161.804 344.344 161.283 347.809 160.445 351.202C159.893 353.41 159.627 355.679 159.239 357.927C159.096 358.725 158.953 359.522 158.85 360.329C158.799 360.748 159.147 361.167 159.566 361.147C161.579 361.045 163.593 361.617 165.637 360.922C166.669 360.564 167.906 360.799 169.04 360.81C169.94 360.81 170.829 360.942 171.729 360.942C172.771 360.942 173.783 361.188 174.856 360.942C175.786 360.738 176.798 360.942 177.779 360.963C180.559 361.014 183.329 361.075 186.109 361.116C187.172 361.126 188.235 361.024 189.288 361.086C190.167 361.137 190.964 360.687 191.925 360.983C192.712 361.229 193.672 360.84 194.562 360.799C195.461 360.748 196.36 360.759 197.26 360.779C198.159 360.799 199.059 360.82 199.958 360.881C200.684 360.932 201.409 361.045 202.135 361.126C202.452 361.157 202.81 361.259 203.086 361.167C204.128 360.799 205.191 360.932 206.244 360.973C208.441 361.045 210.618 360.871 212.836 361.178C214.737 361.433 216.73 361.126 218.672 360.912C219.337 360.84 219.909 360.779 220.563 360.963C221.084 361.106 221.708 361.055 222.26 360.942C223.721 360.636 225.162 360.656 226.614 361.014C227.074 361.126 227.626 361.229 228.055 361.086C228.954 360.789 229.803 360.973 230.692 360.994C231.877 361.024 233.104 361.382 234.279 360.891C237.305 360.891 240.33 360.85 243.345 360.891C245.634 360.922 247.914 361.075 250.203 361.106C254.21 361.147 258.216 361.147 262.212 361.137C262.938 361.137 263.694 360.779 264.369 360.912C265.033 361.045 265.606 361.096 266.26 360.912C266.628 360.81 267.077 360.912 267.456 361.004C267.864 361.116 268.222 361.167 268.641 361.045C269.019 360.922 269.469 360.83 269.847 360.912C272.28 361.464 274.692 360.81 277.114 360.871C277.768 360.891 278.422 360.932 279.066 360.953C280.375 360.983 281.673 360.994 282.981 361.004C283.798 361.004 284.616 360.932 285.424 361.024C286.824 361.178 288.193 361.188 289.553 360.789C289.635 360.769 289.706 360.738 289.788 360.738C290.115 360.718 290.473 360.615 290.759 360.718C292.425 361.31 294.121 360.431 295.808 360.932C296.625 361.178 297.586 361.147 298.455 361.024C301.061 360.667 303.668 360.891 306.264 361.024C306.58 361.045 306.897 361.208 307.204 361.198C313.111 360.871 319.724 360.891 325.049 361.147C327.001 361.239 328.954 361.126 330.916 361.147C333.451 361.167 335.975 361.229 338.51 361.239C339.154 361.239 339.828 361.239 340.442 361.045C341.31 360.769 342.016 361.433 342.833 361.31C343.63 361.188 344.499 360.881 345.225 361.065C346.462 361.372 347.627 361.443 348.823 361.065C348.894 361.045 348.986 361.055 349.068 361.055C350.192 361.075 351.276 361.719 352.441 361.331C353.483 360.973 354.516 361.198 355.578 361.27C357.193 361.372 358.829 361.229 360.444 361.208C362.897 361.188 365.349 361.126 367.792 361.198C368.998 361.229 370.163 360.902 371.41 361.157C372.668 361.413 374.017 361.259 375.325 361.27C376.551 361.29 377.778 361.3 379.004 361.321C383.737 361.392 388.479 361.464 393.211 361.505C393.937 361.505 394.662 361.362 395.388 361.29C395.715 361.259 396.032 361.208 396.359 361.208C399.221 361.208 402.083 361.075 404.934 361.229C408.685 361.433 412.426 361.259 416.177 361.27C417.199 361.27 418.17 360.84 419.294 361.27C420.224 361.637 421.39 361.423 422.453 361.423C423.505 361.423 424.568 361.566 425.611 361.198C426.05 361.045 426.582 361.137 427.072 361.137C431.815 361.198 436.547 361.28 441.289 361.331C443.579 361.351 445.868 361.249 448.147 361.31C449.997 361.362 451.837 361.096 453.707 361.331C455.486 361.556 457.295 361.433 459.094 361.443C460.146 361.443 461.199 361.546 462.252 361.218C462.773 361.055 463.386 361.157 463.959 361.157C467.066 361.198 470.173 361.259 473.28 361.28C476.06 361.3 478.83 361.249 481.61 361.28C483.736 361.3 485.852 361.433 487.977 361.464C491.739 361.505 495.49 361.505 499.251 361.515C500.661 360.963 502.133 361.74 503.544 361.28C504.862 361.842 506.272 361.147 507.591 361.586C507.663 361.607 507.765 361.637 507.836 361.617C510.064 360.994 512.344 362.21 514.582 361.423C515.093 361.239 515.716 361.392 516.289 361.402C520.459 361.464 524.619 361.535 528.789 361.566C532.059 361.597 535.33 361.627 538.59 361.546C539.878 361.515 541.146 361.505 542.433 361.597C543.639 361.678 544.876 361.842 546.082 361.413C546.378 361.31 546.736 361.31 547.053 361.351C549.24 361.586 551.438 361.351 553.625 361.413C555.741 361.484 557.877 361.382 559.992 361.392C562.2 361.392 564.408 361.454 566.615 361.484C568.741 361.515 570.867 361.546 572.993 361.576C573.484 361.576 574.026 361.699 574.455 361.525C575.967 360.912 577.347 361.586 578.758 361.862C578.972 361.903 579.228 362.087 579.34 362.281C579.483 362.537 579.586 362.864 579.555 363.15C579.534 363.314 579.238 363.477 579.044 363.59C578.911 363.661 578.727 363.661 578.564 363.661C574.894 363.62 571.225 363.579 567.556 363.539C567.474 363.539 567.392 363.518 567.31 363.528C565.951 363.641 564.622 363.835 563.232 363.6C561.975 363.385 560.647 363.6 559.349 363.498C559.022 363.477 558.674 363.426 558.367 363.498C556.272 364.019 554.146 363.723 552.031 363.733C548.852 363.753 545.663 363.763 542.484 363.733C536.924 363.671 531.375 363.579 525.825 363.508C524.935 363.508 524.036 363.61 523.147 363.641C522.83 363.651 522.523 363.6 522.207 363.569C521.154 363.457 520.111 363.355 519.059 363.63C518.517 363.774 517.924 363.763 517.362 363.733C515.093 363.6 512.793 363.927 510.535 363.395C510.105 363.293 509.594 363.579 509.104 363.61C507.877 363.692 506.651 363.242 505.486 363.334C504.269 363.436 503.073 363.569 501.847 363.447C501.54 363.416 501.213 363.385 500.907 363.447C499.271 363.733 497.667 363.763 496.062 363.242C495.684 363.119 495.234 363.058 494.866 363.14C493.016 363.569 491.146 363.375 489.275 363.365C485.105 363.344 480.935 363.355 476.776 363.314C472.278 363.263 467.781 363.171 463.284 363.109C461.077 363.079 458.869 363.007 456.671 363.079C455.547 363.109 454.443 363.539 453.329 363.027C453.196 362.966 452.982 362.966 452.849 363.027C451.684 363.6 450.457 363.099 449.251 363.263C448.045 363.416 446.808 363.263 445.582 363.263C444.355 363.263 443.129 363.252 441.902 363.201C441.34 363.181 440.778 363.058 440.216 362.997C439.654 362.935 439.061 362.762 438.53 362.864C435.688 363.416 432.837 363.017 429.985 363.089C426.888 363.171 423.761 362.854 420.684 363.109C417.495 363.375 414.337 363.263 411.159 363.263C406.334 363.263 401.521 363.222 396.696 363.211C396.001 363.211 395.868 363.344 396.032 364.06C396.134 364.53 396.114 364.867 395.644 365.031C395.112 365.215 394.57 365.031 394.356 364.632C394.284 364.489 394.264 364.315 394.243 364.152C394.172 363.569 393.732 363.324 393.252 363.211C392.864 363.119 392.414 363.058 392.036 363.16C390.421 363.641 388.786 363.416 387.171 363.395C383.328 363.365 379.495 363.303 375.652 363.232C374.926 363.222 374.17 363.191 373.485 362.976C372.024 362.506 370.593 362.792 369.152 362.925C368.998 362.935 368.845 363.099 368.702 363.079C367.905 362.987 367.097 362.895 366.3 362.752C365.574 362.629 364.93 363.201 364.143 362.915C363.561 362.7 362.815 362.608 362.222 362.782C361.077 363.109 359.953 363.007 358.818 363.007C354.485 363.007 350.151 362.823 345.838 363.027C343.15 363.15 340.472 363.252 337.784 363.201C336.977 363.181 336.169 363.058 335.362 362.976C335.127 362.956 334.851 362.854 334.657 362.925C333.532 363.344 332.388 363.109 331.253 363.109C323.577 363.068 315.902 362.997 308.226 362.946C307.582 362.946 306.938 363.058 306.284 363.099C305.967 363.119 305.65 363.089 305.344 363.079C303.228 362.997 301.112 362.905 298.986 362.823C297.913 363.334 296.789 362.803 295.665 363.017C294.561 363.232 293.385 363.099 292.241 363.068C291.352 363.038 290.462 362.915 289.573 362.844C289.338 362.823 289.093 362.833 288.858 362.844C287.969 362.884 287.069 362.987 286.18 362.987C278.177 362.936 270.174 362.864 262.172 362.792C261.763 362.792 261.323 362.711 260.955 362.823C259.504 363.263 258.032 363.109 256.581 363.048C254.547 362.976 252.492 363.283 250.499 362.66C250.275 362.588 249.988 362.598 249.774 362.68C248.66 363.119 247.505 362.915 246.37 362.915C241.72 362.915 237.059 362.915 232.409 362.854C225.213 362.772 218.028 362.649 210.833 362.568C209.698 362.557 208.554 362.404 207.429 362.803C207.061 362.935 206.622 362.844 206.213 362.854C204.936 362.874 203.689 362.506 202.36 362.752C201.174 362.966 199.917 362.772 198.691 362.752C197.382 362.731 196.074 362.711 194.766 362.7C193.539 362.68 192.323 362.66 191.097 362.66C185.373 362.619 179.66 362.578 173.936 362.557C173.211 362.557 172.475 362.619 171.749 362.67C171.023 362.721 170.298 362.792 169.572 362.844C168.366 362.925 167.191 362.568 165.964 362.752C164.768 362.936 163.521 362.823 162.295 362.792C161.651 362.782 161.007 362.649 160.353 362.608C159.218 362.547 158.084 362.476 156.939 362.476C156.122 362.476 155.314 362.629 154.496 362.629C148.936 362.608 143.387 362.568 137.826 362.547C136.692 362.547 135.537 362.332 134.423 362.772C134.208 362.854 133.932 362.833 133.697 362.772C131.439 362.261 129.19 362.261 126.911 362.69C126.614 362.752 126.277 362.619 125.96 362.557C125.643 362.506 125.265 362.292 125.02 362.394C123.845 362.864 122.659 362.271 121.443 362.568C120.206 362.864 118.847 362.619 117.538 362.598C116.312 362.588 115.085 362.568 113.859 362.547C112.632 362.527 111.406 362.516 110.179 362.496C107.246 362.455 104.303 362.394 101.369 362.373C96.6268 362.343 91.8844 362.21 87.1522 362.363C85.2512 362.424 83.3501 362.23 81.4491 362.476C80.5292 362.588 79.6093 362.138 78.5873 362.445C77.6878 362.711 76.6453 362.506 75.6641 362.496C74.683 362.496 73.7018 362.465 72.7206 362.455C66.6699 362.414 60.6295 362.384 54.5788 362.332C52.6165 362.322 50.6643 362.271 48.7122 362.261C48.15 362.261 47.5572 362.261 47.0155 362.404C46.4329 362.547 45.9219 362.506 45.3495 362.363C44.6443 362.2 43.8778 362.108 43.1725 362.2C41.7416 362.394 40.3005 362.281 38.8696 362.424C37.3365 362.578 35.7625 362.424 34.209 362.404C32.7372 362.384 31.2654 362.363 29.7936 362.343C28.3219 362.322 26.8501 362.292 25.3783 362.292C22.353 362.292 19.3174 362.067 16.3125 362.343C11.8154 362.772 7.33876 362.373 2.8621 362.455C2.12621 362.465 1.3801 362.486 0.736192 362.036C0.541999 361.903 0.337585 361.76 0.174054 361.586C0.0820673 361.484 -0.0201397 361.27 0.0207431 361.157C0.112729 360.953 0.26604 360.667 0.439792 360.615C0.817958 360.523 1.23701 360.575 1.63561 360.554C2.00356 360.534 2.31018 360.309 2.2693 359.951C2.17731 359.082 2.62702 358.612 3.28115 358.173C4.49741 357.355 5.81588 356.619 6.80729 355.577C7.80892 354.524 8.65724 353.267 9.81217 352.388C11.9483 350.752 13.7778 348.739 16.0877 347.318C16.7111 346.93 17.4062 346.552 17.8354 346C18.8575 344.692 20.0227 343.608 21.5047 342.862C21.7704 342.729 21.9237 342.382 22.1383 342.136C22.4654 341.768 22.7414 341.339 23.1297 341.053C24.6322 339.929 25.92 338.518 27.4633 337.486C29.7221 335.973 31.6129 334.082 33.606 332.294C33.7286 332.181 33.8513 332.079 33.9535 331.946C34.5565 331.241 35.4559 330.975 36.1611 330.454C36.8561 329.933 37.2956 329.085 37.8987 328.441C38.1644 328.154 38.563 327.97 38.931 327.807C39.6055 327.5 40.229 327.153 40.648 326.499C40.8218 326.233 41.0977 326.029 41.343 325.824C41.8336 325.426 42.7637 325.456 42.8659 324.73C42.9988 323.78 42.917 322.789 42.8659 321.818C42.8455 321.511 42.5797 321.225 42.5184 320.908C42.4469 320.509 42.3447 320.049 42.4878 319.702C42.917 318.578 43.1112 317.586 42.1913 316.534C41.895 316.196 42.0176 315.44 42.0278 314.878C42.0585 313.416 42.1403 311.944 42.2016 310.483C42.222 309.992 42.3242 309.471 42.1811 309.021C41.7927 307.795 41.8847 306.65 42.4366 305.505C42.5286 305.321 42.5184 304.994 42.406 304.841C41.5066 303.594 41.6088 302.265 41.9256 300.865C42.1198 300.017 42.3344 299.087 42.1913 298.259C41.9461 296.848 42.3447 295.53 42.4366 294.171C42.4571 293.844 42.4366 293.476 42.5797 293.21C43.3259 291.891 43.3054 290.379 43.6631 288.968C43.9902 287.64 44.4092 286.321 44.7159 284.982C45.4518 281.742 46.2592 278.502 46.8316 275.232C47.2404 272.912 47.6799 270.612 48.518 268.394C48.8246 267.566 48.9779 266.656 49.0494 265.778C49.1108 264.939 49.3254 264.204 49.6627 263.437C49.9591 262.783 50.1635 262.047 50.2044 261.332C50.3372 259.042 50.8074 256.834 51.4922 254.647C52.0952 252.715 52.4427 250.692 52.872 248.709C53.2501 246.961 53.5568 245.203 53.9349 243.456C54.0167 243.077 54.2722 242.73 54.4357 242.362C54.5686 242.065 54.8548 241.728 54.7833 241.483C54.3029 239.776 55.4885 238.366 55.5805 236.761C55.652 235.494 56.8172 234.574 56.6434 233.102C56.5003 231.855 56.9092 230.537 57.1442 229.259C57.2567 228.625 57.5326 228.012 57.737 227.399C57.8392 227.092 58.0743 226.786 58.0641 226.489C57.9619 224.782 58.8102 223.362 59.3826 221.849C59.495 221.553 59.6994 221.164 59.6074 220.939C59.1986 220.009 59.4235 219.232 59.9754 218.456C60.1491 218.21 60.1593 217.842 60.2411 217.526C60.4966 216.524 60.1696 215.931 59.2293 215.737C57.318 215.338 55.3965 214.96 53.4954 214.541C52.3814 214.296 51.2776 214.03 50.1839 213.723C49.3561 213.488 49.1721 212.967 49.6729 212.241C51.3491 209.819 52.7289 207.223 54.0678 204.607C55.4783 201.847 56.9092 199.098 58.6365 196.512C58.8613 196.175 58.9329 195.755 59.1271 195.398C60.1491 193.538 61.1814 191.688 62.2137 189.838C62.6941 188.989 63.2256 188.162 63.665 187.293C64.5031 185.627 65.147 183.838 66.1385 182.264C67.4467 180.189 68.5301 178.002 69.6237 175.815C69.6646 175.743 69.6953 175.662 69.7464 175.6C71.7394 173.28 72.3731 170.183 74.2435 167.792C75.0918 165.298 76.86 163.295 77.9638 160.934C79.0268 158.644 80.3452 156.467 81.541 154.249C81.6535 154.035 81.7352 153.789 81.8681 153.595C83.8203 150.764 85.2614 147.647 86.774 144.57C87.4895 143.119 88.7058 142.005 89.2372 140.4C89.738 138.877 90.5761 137.416 91.4756 136.067C92.7021 134.227 93.6015 132.224 94.6236 130.282C94.6644 130.21 94.5111 130.016 94.4294 129.893C94.3987 129.863 94.276 129.873 94.2045 129.893C94.0614 129.955 93.8979 130.016 93.7752 130.118C92.2319 131.539 90.3206 132.244 88.3787 132.878C88.1436 132.949 87.9085 133.052 87.6735 133.062C83.994 133.235 80.3554 133.287 76.8395 131.825C71.6474 129.668 68.0088 125.948 65.934 120.817C64.452 117.158 63.8184 113.295 65.0551 109.339C65.2697 108.644 65.2595 107.888 65.4639 107.193C66.026 105.21 67.0481 103.463 68.295 101.817C70.0428 99.5174 71.9949 97.463 74.5296 96.0424C77.4119 94.4275 80.4985 93.4667 83.8203 93.3747C84.4744 93.3543 85.1285 93.3032 85.7826 93.2828C86.8558 93.2521 87.8677 93.385 88.8897 93.804C91.0054 94.6523 93.2642 95.1123 95.2777 96.2161C95.4105 96.2877 95.5945 96.3388 95.7478 96.3183C95.9727 96.2877 96.1873 96.1957 96.4122 96.1343C96.3508 95.981 96.3406 95.7971 96.2384 95.6846C95.1857 94.4377 94.0716 93.2419 93.0598 91.9643C91.7413 90.3085 90.5557 88.5506 89.2168 86.9051C87.8779 85.2697 86.447 83.7162 85.0161 82.1524C84.7606 81.8765 84.3313 81.764 83.9838 81.5596C83.7078 81.3961 83.4012 81.2632 83.1968 81.0384C81.5922 79.2804 79.5685 78.013 77.7492 76.5208C75.286 74.5176 72.741 72.6063 70.237 70.6439C69.0411 69.7036 68.9083 69.0801 69.5317 67.7106C70.0019 66.6783 70.5129 65.6562 70.9626 64.6035C71.3101 63.8063 71.2692 63.7041 70.6151 63.1419C68.9083 61.6906 67.6818 59.9224 66.5984 57.9702C65.2799 55.5888 64.3601 53.0643 63.6855 50.4887C62.8576 47.3509 62.3977 44.1314 62.643 40.8301C62.8269 38.3669 63.3584 36.0162 63.9819 33.6552C64.3498 32.2345 64.7382 30.8445 65.3004 29.4954C65.7398 28.4426 66.2202 27.4308 66.7006 26.3985C67.4263 24.8245 68.3768 23.4345 69.3886 22.0649C70.6049 20.4194 71.9949 18.9374 73.4871 17.5269C75.3371 15.7792 77.463 14.379 79.5582 12.9889C80.8971 12.0997 82.512 11.6091 84.0349 11.0266C86.2426 10.1783 88.5116 9.52413 90.8521 9.17662C92.2115 8.97221 93.6219 9.03353 95.0017 9.01309C95.8194 9.00287 96.637 9.06419 97.4547 9.09486C98.9265 9.14596 99.4579 8.78824 100.03 7.36756C100.214 6.91785 100.327 6.42725 100.552 5.99798C100.971 5.20077 101.89 4.85327 102.821 5.0168C104.425 5.28254 106.03 5.50739 107.634 5.75269C109.413 6.02865 111.11 6.61123 112.755 7.30623C115.515 8.48161 117.651 10.5053 119.644 12.6925C120.799 13.9497 121.218 15.3295 120.369 16.9341C119.991 17.6496 119.674 18.4059 119.255 19.1009C118.734 19.9492 118.724 20.7567 119.112 21.6561C119.818 23.3016 120.461 24.9676 121.248 26.5927C123.333 30.9263 125.306 35.3212 127.33 39.6956C127.708 40.5133 128.096 41.3105 128.526 42.1077C128.72 42.4654 128.914 42.8743 129.231 43.0991C130.488 43.9781 131.531 45.1024 133.033 45.6952C134.28 46.1858 135.517 46.3289 136.784 46.4209C138.491 46.5435 139.952 47.1363 141.107 48.4037C141.935 49.3031 142.835 50.1719 143.458 51.2041C143.949 52.0116 144.214 53.0132 144.337 53.9637C144.541 55.4866 144.756 57.0708 143.662 58.4302C143.519 58.6142 143.438 58.8594 143.376 59.0945C142.794 61.1898 141.414 62.6718 139.584 63.6938C138.021 64.5626 136.968 65.9322 135.946 67.2711C134.382 69.305 134.004 71.7784 134.433 74.2518C134.678 75.6827 135.486 77.0012 136.528 78.0744C137.837 79.4133 139.196 80.65 140.862 81.6209C142.896 82.8065 144.736 84.3397 146.606 85.8012C148.037 86.9153 149.09 88.4279 150.01 89.9508C150.623 90.9627 150.909 92.2403 151.062 93.4361C151.471 96.5023 151.951 99.5787 151.492 102.686C151.41 103.238 151.318 103.81 151.103 104.331C150.551 105.68 150.285 107.101 149.59 108.43C148.037 111.384 145.778 113.704 143.438 115.983C143.019 116.392 142.559 116.637 141.966 116.79C141.189 116.995 140.392 117.281 139.728 117.71C136.201 120.01 132.287 121.379 128.311 122.637C128.004 122.739 127.677 122.8 127.371 122.892C126.379 123.178 125.674 123.71 125.327 124.773C124.662 126.776 123.947 128.779 123.129 130.731C121.811 133.89 120.952 137.201 119.848 140.431C119.163 142.434 118.744 144.55 117.855 146.451C116.639 149.057 116.087 151.878 114.891 154.474C114.82 154.617 114.717 154.771 114.707 154.924C114.697 155.067 114.738 155.292 114.84 155.353C115.034 155.455 115.32 155.578 115.484 155.496C116.148 155.19 116.792 154.842 117.416 154.443C118.939 153.483 120.308 152.399 121.228 150.754C121.974 149.415 123.088 148.28 124.039 147.054C124.488 146.471 124.938 145.919 125.173 145.183C125.337 144.662 125.684 144.151 126.062 143.742C127.003 142.7 127.657 141.484 128.423 140.318C129.773 138.274 130.907 136.138 131.919 133.91C132.992 131.539 134.556 129.413 135.68 127.052C135.987 126.408 136.549 125.877 137.019 125.325C138.133 124.027 139.452 122.913 140.423 121.492C140.78 120.981 141.373 120.623 141.884 120.225C142.906 119.427 143.969 118.702 144.603 117.475C145.216 116.29 146.402 115.871 147.669 115.758C148.231 115.707 148.824 115.707 149.376 115.819C150.572 116.065 151.604 115.697 152.667 115.206C154.149 114.532 155.682 113.99 157.205 113.387C157.358 113.326 157.522 113.315 157.675 113.244C160.486 111.956 163.327 110.719 166.107 109.36C168.376 108.256 170.594 107.04 172.791 105.793C174.774 104.679 176.706 103.463 178.658 102.287C179.844 101.572 181.029 100.856 182.184 100.1C182.93 99.6094 183.656 99.0779 184.31 98.4749C185.036 97.8003 185.802 97.2075 186.712 96.8089C188.368 96.0832 189.778 95.0714 191.015 93.7018C191.986 92.6286 193.294 91.8621 194.439 90.9525C196.156 89.5829 198.016 88.387 199.457 86.6904C199.774 86.3225 200.193 86.0465 200.551 85.7092C201.931 84.4521 203.494 83.3994 204.639 81.8662C205.12 81.2326 205.815 80.7522 206.458 80.2411C207.102 79.7301 207.675 79.2089 207.981 78.381C208.176 77.8802 208.656 77.4713 209.044 77.0727C210.465 75.601 211.916 74.1701 213.327 72.6983C213.776 72.2281 214.216 71.7273 214.553 71.1856C215.432 69.7752 216.802 69.397 218.304 69.305C218.948 69.2641 219.613 69.3561 220.256 69.4072C221.227 69.489 222.198 69.6627 223.169 69.673C224.202 69.673 225.06 69.9387 225.857 70.6439C226.389 71.1141 227.084 71.4309 227.718 71.7784C228.423 72.1668 229.138 72.5654 229.884 72.8925C232.276 73.9759 233.707 76.1529 235.526 77.8802C236.119 79.1271 236.763 80.3638 237.284 81.6414C237.713 82.6941 238.051 83.798 238.316 84.9018C238.96 87.6001 239.359 90.2677 238.879 93.0988C238.327 96.3183 237.141 99.1495 235.271 101.797C233.226 104.699 230.262 107.132 226.9 108.195C225.346 108.685 223.783 109.104 222.209 109.544C221.37 109.779 220.716 110.351 220.89 111.302C221.074 112.283 220.481 113.019 220.512 113.929C220.532 114.726 220.307 115.533 220.154 116.33C219.888 117.68 218.856 118.456 217.507 118.088C216.444 117.802 215.412 117.792 214.359 117.864C214.104 117.874 213.797 118.17 213.644 118.415C213.48 118.681 213.398 119.029 213.388 119.346C213.306 121.461 212.57 123.485 212.519 125.621C212.499 126.347 212.294 127.062 212.162 127.778C211.743 130.098 211.64 132.469 211.037 134.758C210.792 135.688 210.69 136.68 210.649 137.651C210.577 139.613 210.25 141.535 209.852 143.456C209.688 144.243 209.596 145.061 209.474 145.858C209.106 148.27 208.738 150.682 208.36 153.084C208.257 153.728 208.104 154.362 207.971 154.995C207.9 155.312 207.756 155.639 207.767 155.946C207.93 159.155 206.704 162.191 206.642 165.38C205.712 169.672 205.539 174.088 204.639 178.391C204.189 180.537 204.108 182.745 203.852 184.932C203.832 185.095 203.852 185.269 203.801 185.422C202.799 188.182 202.902 191.166 202.043 193.967C201.696 195.112 201.808 196.389 201.696 197.605C201.471 199.874 201.144 202.123 201.123 204.412C201.123 204.658 201.123 204.923 201.031 205.138C199.968 207.642 200.03 210.392 199.314 212.977C199.151 213.58 199.273 214.255 199.202 214.899C198.987 216.841 198.864 218.803 198.476 220.704C197.955 223.341 197.934 226.039 197.464 228.676C197.311 229.555 197.055 230.424 196.923 231.303C196.708 232.754 196.963 233.112 198.333 233.296C200.346 233.562 202.35 233.93 204.394 233.991C205.355 234.022 206.326 234.277 207.266 234.523C207.634 234.615 207.981 234.901 208.278 235.177C208.38 235.269 208.349 235.667 208.237 235.78C207.818 236.178 207.307 236.444 206.694 236.403C206.039 236.362 205.365 236.424 204.741 236.27C202.268 235.647 199.703 235.984 197.219 235.534C196.769 235.453 196.422 235.749 196.32 236.178C196.105 237.129 195.829 238.079 195.788 239.05C195.747 239.96 195.645 240.819 195.42 241.698C195.216 242.474 195.226 243.312 195.185 244.13C195.144 244.948 195.318 245.816 195.103 246.573C194.756 247.748 195.093 248.637 195.819 249.476C197.587 251.499 199.181 253.656 201.072 255.577C202.554 257.08 203.873 258.746 205.263 260.34C205.743 260.892 206.213 261.454 206.704 262.006C208.932 264.5 211.16 266.994 213.398 269.477C215.258 271.532 216.986 273.699 218.958 275.651C220.583 277.255 221.984 279.075 223.527 280.751C224.907 282.253 226.348 283.694 227.769 285.166C229.588 287.047 231.407 288.907 233.216 290.798C234.065 291.687 234.872 292.607 235.7 293.517C235.863 293.701 236.119 293.844 236.19 294.058C237.029 296.297 239.4 297.247 240.514 299.261C242.599 300.865 243.917 303.185 245.839 304.943C246.258 305.332 246.677 305.72 247.086 306.119C247.382 306.405 247.781 306.64 247.944 306.977C248.741 308.725 250.275 309.9 251.368 311.413C252.033 312.323 252.912 313.089 253.75 313.866C254.526 314.592 255.191 315.358 255.773 316.268C256.274 317.055 257.266 317.515 257.909 318.23C259.044 319.508 260.056 320.888 261.16 322.206C262.56 323.882 264.195 325.344 265.36 327.224C265.698 327.766 266.25 328.175 266.71 328.645C266.955 328.901 267.21 328.717 267.292 328.522C267.568 327.94 267.936 327.337 267.997 326.724C268.13 325.497 268.958 324.455 268.825 323.177C268.805 323.024 268.876 322.84 268.958 322.717C270.593 320.182 270.573 317.106 271.718 314.408C271.81 312.415 273.016 310.718 273.271 308.796C273.455 307.386 273.915 306.068 274.498 304.851C275.274 303.226 275.837 301.54 276.46 299.864C276.634 299.414 276.828 298.923 276.828 298.453C276.838 296.777 277.523 295.295 278.034 293.752C278.617 291.973 279.046 290.154 279.516 288.345C279.71 287.589 279.414 286.914 279.138 286.219C278.821 285.401 278.933 285.074 279.69 284.584C280.344 284.165 280.814 283.654 281.029 282.907C281.1 282.672 281.202 282.447 281.315 282.233C282.235 280.485 282.817 278.645 283.042 276.683C283.093 276.284 283.144 275.855 283.328 275.508C284.493 273.239 285.045 270.786 285.628 268.333C285.72 267.944 285.884 267.566 286.027 267.188C286.507 265.9 287.11 264.694 287.304 263.273C287.488 261.935 288.224 260.677 288.704 259.379C288.95 258.695 289.164 257.989 289.369 257.294C290.146 254.729 290.933 252.164 291.679 249.588C291.975 248.576 292.179 247.534 292.394 246.512C292.445 246.276 292.435 246.011 292.374 245.786C292.21 245.162 291.863 244.58 292.415 243.956C292.956 243.343 293.478 242.812 294.356 242.577C296.554 241.974 298.608 240.972 300.704 240.062C303.177 238.989 305.62 237.875 308.226 237.149C309.003 236.935 309.78 236.628 310.505 236.281C314.103 234.533 317.885 233.235 321.595 231.783C322.79 231.313 323.577 230.629 323.843 229.433C324.324 227.205 325.305 225.12 325.724 222.861C325.928 221.747 326.429 220.694 326.766 219.611C327.073 218.599 327.328 217.577 327.615 216.565C327.635 216.483 327.635 216.401 327.666 216.33C328.279 214.909 328.432 213.335 329.025 211.925C330.252 208.971 330.783 205.833 331.672 202.787C332.173 201.07 332.582 199.323 333.195 197.657C333.778 196.052 334.371 194.468 334.708 192.781C335.025 191.187 335.505 189.623 335.904 188.049C335.945 187.896 335.955 187.722 335.996 187.569C337.14 183.93 338.305 180.292 339.42 176.643C340.063 174.548 340.564 172.401 341.229 170.316C341.484 169.519 341.689 168.742 341.627 167.925C341.535 166.647 342.292 165.952 343.283 165.461C343.866 165.185 344.509 165.022 345.143 164.879C348.393 164.153 351.664 163.458 354.914 162.722C356.345 162.405 357.755 162.007 359.186 161.68C359.565 161.598 360.004 161.577 360.372 161.69C360.648 161.772 360.914 162.078 361.047 162.354C361.21 162.692 360.924 162.947 360.628 163.121C360.208 163.366 359.769 163.836 359.36 163.816C357.939 163.724 356.693 164.541 355.292 164.449C354.383 164.398 353.524 164.593 352.666 164.93C351.838 165.247 350.969 165.502 350.1 165.707C348.444 166.105 346.768 166.443 345.112 166.841C344.683 166.943 344.438 167.25 344.417 167.72C344.387 168.2 344.438 168.732 344.264 169.161C343.171 171.808 342.568 174.599 341.842 177.358C341.576 178.38 341.075 179.331 340.769 180.343C340.268 181.978 339.849 183.634 339.389 185.279C339.123 186.22 338.898 187.17 338.592 188.1C338.04 189.807 337.222 191.463 336.956 193.2C336.732 194.672 336.139 195.991 335.812 197.411C335.505 198.76 335.045 200.069 334.749 201.418C334.197 203.973 333.359 206.436 332.541 208.899C331.928 210.749 331.458 212.65 330.926 214.521C330.609 215.614 330.241 216.688 329.863 217.761C329.24 219.508 328.913 221.358 328.473 223.167C328.299 223.873 328.228 224.629 327.962 225.293C327.298 226.959 326.777 228.646 326.47 230.424C326.337 231.201 325.816 231.916 325.57 232.683C325.335 233.439 324.886 233.603 324.129 233.685C323.179 233.797 322.249 234.165 321.339 234.512C319.745 235.126 318.242 235.994 316.535 236.311C316.454 236.321 316.382 236.373 316.311 236.403C312.478 237.987 308.645 239.602 304.802 241.156C303.075 241.861 301.307 242.464 299.559 243.108C299.099 243.272 298.619 243.374 298.169 243.568C296.646 244.232 295.287 245.04 294.898 246.869C294.714 247.738 294.305 248.556 294.04 249.414C293.774 250.262 293.559 251.131 293.324 252C293.222 252.388 293.161 252.797 293.038 253.186C291.178 259.165 289.307 265.144 287.468 271.133C286.078 275.64 284.78 280.178 283.349 284.676C282.95 285.933 283.012 287.006 283.543 288.202C285.996 293.721 288.817 299.056 291.362 304.524C292.394 306.742 293.355 308.991 294.346 311.229C295.266 313.304 296.196 315.379 297.157 317.443C297.74 318.7 298.281 319.978 298.782 321.266C299.191 322.318 298.935 322.952 298.005 323.494C297.004 324.076 296.278 323.892 295.828 322.84C295.123 321.194 294.489 319.518 293.794 317.862C293.478 317.116 293.13 316.38 292.742 315.665C292.016 314.305 291.117 313.018 290.851 311.444C290.81 311.209 290.677 310.984 290.554 310.769C289.062 308.142 288.163 305.229 286.487 302.695C286.313 302.429 286.211 302.112 286.108 301.795C285.393 299.434 284.248 297.278 283.052 295.142C282.582 294.293 282.276 293.353 281.836 292.474C281.754 292.31 281.468 292.208 281.254 292.157C281.182 292.137 280.998 292.351 280.947 292.494C280.283 294.416 279.536 296.317 278.995 298.279C277.584 303.298 275.888 308.224 274.252 313.171C273.537 315.338 272.934 317.535 272.331 319.733C271.237 323.729 269.898 327.643 268.58 331.568C268.549 331.65 268.529 331.721 268.488 331.793C268.171 332.335 268.12 333.214 267.343 333.224C266.74 333.224 266.515 332.519 266.209 332.038C265.769 331.333 265.258 330.689 264.471 330.372C263.592 330.015 263.061 329.33 262.509 328.604C261.681 327.521 260.914 326.396 259.831 325.477C258.737 324.557 257.981 323.249 257.061 322.114C256.755 321.736 256.427 321.388 256.1 321.041C255.937 320.867 255.6 320.693 255.61 320.54C255.681 318.997 254.332 318.527 253.453 317.801C251.072 315.787 248.966 313.539 247.014 311.127C246.81 310.871 246.534 310.636 246.432 310.35C246.033 309.205 245.358 308.367 244.183 307.948C243.907 307.846 243.672 307.539 243.478 307.284C242.343 305.792 241.219 304.31 239.614 303.277C239.482 303.195 239.359 303.042 239.318 302.899C238.858 301.427 237.642 300.579 236.61 299.588C236.323 299.312 236.058 298.985 235.843 298.647C235.24 297.666 234.514 296.808 233.707 295.98C232.061 294.293 230.498 292.515 228.872 290.798C227.523 289.377 226.144 287.997 224.784 286.587C223.374 285.115 221.953 283.664 220.767 281.977C219.745 280.526 218.488 279.197 217.16 278.012C216.117 277.082 215.289 275.978 214.308 275.007C213.214 273.903 212.131 272.809 211.487 271.338C211.272 270.847 210.792 270.448 210.373 270.06C210.015 269.733 209.504 269.559 209.198 269.212C208.533 268.466 207.777 268.302 206.796 268.343C205.416 268.414 204.026 268.261 202.636 268.19C202.156 268.159 201.655 268.118 201.195 267.975C198.905 267.27 196.534 267.147 194.183 267.147C190.913 267.147 187.693 266.81 184.484 266.217C183.85 266.105 183.186 266.084 182.532 266.094C181.499 266.125 180.641 266.595 179.987 267.372C179.414 268.057 178.791 268.742 178.433 269.539C177.8 270.949 176.665 271.859 175.551 272.789C174.1 273.995 172.843 275.324 171.81 276.918C171.023 278.134 169.889 279.126 168.918 280.219C168.54 280.638 168.1 281.037 167.834 281.528C167.313 282.488 166.639 283.224 165.76 283.889C165.126 284.359 164.778 285.187 164.196 285.749C163.215 286.71 162.53 287.987 161.273 288.672C160.271 290.369 158.482 291.36 157.358 292.975C156.295 294.508 155.038 295.918 153.863 297.38C153.556 297.758 153.26 298.146 152.922 298.504C152.759 298.678 152.544 298.831 152.33 298.923C151.686 299.189 149.376 298.617 148.936 297.973C148.313 297.073 147.475 296.45 146.616 295.826C146.351 295.632 146.115 295.407 145.88 295.182C143.519 292.924 141.22 290.614 138.787 288.427C137.213 287.016 135.609 285.626 134.137 284.103C133.769 283.725 133.34 283.541 132.829 283.562C131.203 283.623 129.568 283.286 127.953 283.776C127.504 283.909 126.982 283.817 126.492 283.817C123.722 283.817 120.942 283.807 118.172 283.858C117.119 283.878 116.067 284.011 115.034 284.216C114.585 284.297 114.104 284.604 113.808 284.952C112.908 285.994 111.927 287.026 111.273 288.232C110.394 289.827 109.249 291.166 108.084 292.535C106.919 293.895 105.754 295.285 104.854 296.828C103.975 298.33 102.688 299.465 101.706 300.855C101.103 301.703 100.337 302.449 99.8668 303.41C99.693 303.768 99.4682 304.136 99.182 304.422C96.5348 307.008 94.7462 310.227 92.5896 313.181C91.7209 314.367 90.8112 315.501 89.9936 316.728C89.3803 317.648 88.3685 318.312 87.4895 319.027C86.4163 319.906 85.149 320.581 84.2189 321.583C82.1952 323.76 79.6298 324.608 76.8293 324.945C75.0509 325.16 73.2521 325.16 71.4839 325.415C67.9475 325.947 64.3703 326.049 60.8135 326.519C57.9926 326.897 55.1205 326.805 52.2894 327.112C50.4395 327.306 48.5384 327.194 46.7293 327.756C44.9816 327.429 43.7347 328.482 42.6206 329.493C40.2699 331.64 37.5409 333.326 35.323 335.626C34.536 336.443 33.5549 337.067 32.635 337.741C30.2536 339.469 27.9948 341.339 25.8689 343.373C24.6935 344.487 23.5488 345.663 22.1077 346.48C21.6273 346.756 21.2696 347.247 20.8301 347.625C18.1012 349.955 15.3825 352.296 12.6433 354.616C10.7729 356.19 8.87187 357.733 6.99126 359.287C6.80729 359.44 6.59265 359.583 6.43934 359.767C6.34736 359.879 6.27581 360.115 6.32692 360.207C6.43934 360.38 6.65398 360.605 6.82773 360.615C8.46304 360.677 10.0984 360.697 11.7337 360.728C13.2872 360.758 14.8408 360.769 16.3943 360.789C16.3943 360.82 16.3943 360.85 16.3943 360.871L16.3023 360.646ZM146.851 177.072C147.546 177.072 148.037 177.052 148.528 177.103C149.907 177.246 151.359 177.328 152.514 178.094C154.333 179.3 156.224 180.486 157.46 182.387C157.992 183.194 158.493 184.053 158.85 184.942C159.75 187.231 160.332 189.613 159.913 192.086C159.811 192.679 159.913 193.18 159.975 193.732C160.302 196.399 161.712 198.832 161.63 201.592C161.63 201.816 161.794 202.051 161.845 202.287C162.172 203.625 162.54 204.964 162.796 206.324C163.112 208 163.307 209.686 164.002 211.271C164.155 211.628 164.114 212.068 164.165 212.466C164.227 213.028 164.216 213.621 164.359 214.163C165.054 216.841 165.657 219.529 166.301 222.217C167.283 226.336 168.059 230.485 168.887 234.635C169.347 236.945 169.981 239.214 170.41 241.524C170.574 242.403 170.85 243.251 171.074 244.12C171.289 244.938 171.596 245.101 172.27 244.764C173.875 243.967 175.51 243.21 177.074 242.331C178.362 241.606 179.721 241.054 181.142 240.706C183.472 240.144 185.751 240.052 187.979 241.37C189.533 242.29 191.127 243.077 192.201 244.6C192.374 244.846 192.844 244.692 192.957 244.365C193.028 244.14 193.12 243.905 193.151 243.67C193.488 241.095 193.805 238.509 194.132 235.933C194.173 235.565 193.846 235.105 193.458 235.044C192.333 234.87 191.209 234.727 190.085 234.574C188.634 234.38 187.182 234.196 185.741 233.981C185.506 233.95 185.261 233.848 185.067 233.715C184.709 233.48 184.504 233.133 184.556 232.683C184.596 232.335 185.026 231.947 185.414 231.947C185.823 231.947 186.232 231.967 186.63 232.008C188.899 232.213 191.168 232.438 193.437 232.622C194.245 232.693 194.746 232.315 194.786 231.548C194.96 228.462 195.911 225.477 195.992 222.37C196.003 221.808 196.207 221.256 196.289 220.694C196.575 218.844 196.892 217.004 197.137 215.144C197.393 213.212 197.546 211.26 197.812 209.329C198.088 207.315 198.486 205.322 198.772 203.319C199.018 201.632 199.1 199.915 199.396 198.239C199.846 195.674 200.285 193.119 200.469 190.512C200.582 188.816 200.888 187.129 201.205 185.453C201.992 181.303 202.472 177.103 203.106 172.922C203.331 171.4 203.474 169.856 203.74 168.333C204.568 163.611 205.314 158.879 205.804 154.106C205.866 153.462 206.029 152.829 206.131 152.185C206.234 151.541 206.366 150.897 206.397 150.253C206.438 149.435 206.581 148.648 206.724 147.841C207.205 145.04 207.593 142.219 207.971 139.399C208.227 137.549 208.308 135.668 208.676 133.839C208.952 132.469 208.922 131.069 209.228 129.73C209.974 126.469 210.046 123.117 210.72 119.846C210.782 119.53 210.761 119.192 210.772 118.865C210.802 118.262 210.71 117.7 210.087 117.424C209.249 117.056 209.126 116.361 209.218 115.595C209.504 113.254 209.821 110.924 210.107 108.583C210.22 107.612 210.301 106.641 210.342 105.67C210.342 105.527 210.036 105.292 209.831 105.251C209.525 105.2 209.157 105.2 208.881 105.323C207.399 106.008 205.927 106.723 204.476 107.459C203.893 107.755 203.76 108.348 204.169 108.91C204.782 109.769 205.457 110.586 206.101 111.425C206.499 111.936 206.969 112.416 207.266 112.988C207.419 113.295 207.348 113.775 207.235 114.133C207.143 114.419 206.837 114.634 206.612 114.869C205.324 116.238 203.965 117.516 202.585 118.794C200.377 120.848 198.2 122.923 195.87 124.834C194.296 126.132 192.834 127.563 191.199 128.779C188.644 130.67 185.915 132.316 183.503 134.401C183.257 134.605 182.941 134.728 182.665 134.891C181.683 135.474 180.682 136.026 179.742 136.659C177.452 138.213 175.204 139.797 172.751 141.116C170.962 142.076 169.184 143.027 167.334 143.875C165.852 144.55 164.431 145.357 162.99 146.124C162.714 146.277 162.387 146.471 162.254 146.727C161.804 147.565 161.109 147.841 160.22 147.78C159.443 147.728 158.799 148.117 158.145 148.434C157.757 148.618 157.358 148.751 156.98 148.526C156.316 148.117 155.743 148.372 155.14 148.659C154.476 148.965 153.812 149.302 153.117 149.497C152.248 149.742 151.972 150.294 151.921 151.111C151.87 151.929 151.941 152.798 151.665 153.534C150.715 156.058 151.103 158.889 149.846 161.342C149.703 161.618 149.713 161.976 149.682 162.303C149.56 163.673 148.998 164.971 149.11 166.381C149.151 166.831 148.906 167.332 148.701 167.771C148.579 168.037 148.282 168.405 148.037 168.415C147.086 168.466 146.228 169.151 145.206 168.732C144.848 168.589 144.398 168.671 143.99 168.66C143.233 168.66 142.773 169.09 142.508 169.744C142.385 170.04 142.375 170.378 142.324 170.694C142.15 171.655 141.976 172.606 141.802 173.566C141.618 174.609 141.424 175.641 141.24 176.684C141.169 177.113 141.475 177.43 141.966 177.409C142.456 177.389 142.967 177.42 143.427 177.297C144.623 176.96 145.829 176.827 146.851 177.031V177.072ZM149.703 99.2721C149.795 97.0951 149.437 95.1021 148.732 93.1703C147.822 90.6663 146.361 88.5301 144.501 86.6598C143.857 86.0158 143.274 86.0056 142.528 86.4758C141.353 87.2219 140.208 87.9884 139.012 88.6937C138.46 89.0207 137.847 89.2967 137.223 89.4398C136.201 89.6851 135.149 89.8384 134.096 89.9815C132.859 90.145 131.653 90.0837 130.549 89.3785C130.11 89.1025 130.048 88.5097 130.416 88.1111C130.764 87.7329 131.173 87.4263 131.684 87.4672C133.524 87.6307 135.22 86.9562 136.968 86.6189C138.205 86.3838 139.247 85.7603 140.208 84.9836C140.423 84.8098 140.443 84.309 140.218 84.1046C139.922 83.8286 139.615 83.5527 139.288 83.3278C137.223 81.9787 135.465 80.3229 133.81 78.4832C132.011 76.4799 131.203 74.1598 131.03 71.6149C130.948 70.4497 131.111 69.1517 131.939 68.1501C133.912 65.7686 135.772 63.2646 138.429 61.5577C138.767 61.3431 139.073 61.0365 139.288 60.7094C140.658 58.6142 141.414 56.3145 141.485 53.8104C141.496 53.422 141.373 52.9928 141.189 52.6555C140.239 50.9691 139.022 49.5893 136.968 49.252C136.007 49.0885 135.057 48.8534 134.096 48.7103C131.428 48.3117 129.159 47.1976 127.217 45.3068C125.95 44.0701 125.194 42.5574 124.437 41.0243C123.466 39.0517 122.608 37.0178 121.668 35.035C120.134 31.7848 118.581 28.5551 117.027 25.3151C116.884 25.0187 116.731 24.7325 116.557 24.4566C116.332 24.0886 115.791 24.0988 115.556 24.5077C113.675 27.8498 111.815 31.192 109.955 34.5444C109.72 34.9737 109.576 35.4438 109.341 35.8731C108.524 37.3755 107.686 38.8678 106.858 40.36C105.948 41.9953 105.008 43.6204 104.108 45.2557C103.72 45.9711 103.362 46.707 103.025 47.4429C102.892 47.7291 102.759 48.1073 102.841 48.3832C103.158 49.5586 102.974 50.8158 103.546 51.9503C103.832 52.5124 103.904 53.187 104.078 53.8104C104.231 54.3521 104.292 54.9449 104.548 55.4355C105.335 56.9788 105.662 58.6448 105.999 60.3312C106.377 62.2425 106.704 64.1538 107.543 65.9731C107.921 66.8009 107.798 67.8741 107.839 68.8451C107.859 69.3357 107.205 69.6525 106.725 69.4379C106.122 69.1721 105.611 68.8349 105.222 68.2421C104.292 66.8418 102.902 65.922 101.441 65.1963C99.8668 64.4093 98.3643 63.2543 96.4326 63.469C94.8893 62.7535 94.0512 63.469 93.3868 64.8283C92.8145 65.9935 92.0173 67.0462 91.4347 68.2114C90.4535 70.1738 89.5541 72.177 88.2867 73.9861C87.6837 74.8549 87.2646 75.8463 86.8047 76.7968C86.4163 77.594 86.4776 78.3708 87.0602 79.0862C87.8779 80.0981 88.6955 81.1201 89.5132 82.132C91.2405 84.2988 92.8656 86.5575 94.7053 88.6119C97.2707 91.4635 99.8157 94.3253 102.187 97.3404C104.354 100.09 106.796 102.624 108.841 105.476C110.609 107.929 112.551 110.229 114.871 112.201C115.852 113.039 116.905 113.837 117.61 114.971C117.773 115.237 118.06 115.441 118.325 115.625C119.746 116.606 120.891 117.894 122.097 119.11C122.618 119.632 123.109 120.225 123.742 120.552C124.192 120.787 124.877 120.5 125.398 120.654C126.573 120.981 127.647 120.787 128.74 120.357C129.721 119.969 130.774 119.744 131.725 119.284C134.065 118.16 136.58 117.342 138.695 115.779C140.003 114.808 141.291 113.806 142.651 112.907C145.553 110.995 147.424 108.287 148.712 105.139C149.488 103.228 149.795 101.214 149.672 99.2619L149.703 99.2721ZM99.1207 225.212C98.8958 225.038 98.6198 224.68 98.2723 224.578C96.1669 223.954 94.0716 223.27 91.9253 222.84C88.2663 222.104 84.5766 221.481 80.938 220.643C76.1036 219.529 71.2795 218.384 66.4451 217.27C65.9647 217.158 65.4843 217.076 65.004 217.025C64.2885 216.963 63.7161 217.372 63.5731 218.067C63.3789 219.018 63.246 219.989 63.0211 220.939C62.5714 222.84 62.0502 224.721 61.6005 226.622C61.2632 228.043 61.1099 229.525 60.6397 230.894C59.8323 233.214 59.5665 235.637 58.9737 237.998C58.524 239.807 58.2276 241.677 57.5837 243.425C57.1545 244.6 56.9296 245.765 56.7661 246.971C56.715 247.37 56.715 247.789 56.623 248.177C55.8258 251.653 54.8344 255.087 54.1189 258.592C53.4035 262.088 52.4018 265.532 51.6966 269.028C50.5008 274.925 48.7735 280.7 47.6492 286.618C47.1893 289.009 46.5556 291.37 46.0139 293.741C45.9219 294.12 46.2285 294.61 46.6271 294.661C48.3953 294.896 50.1737 295.142 51.9521 295.305C53.4137 295.438 54.9161 295.254 56.3368 295.561C57.7166 295.857 59.076 295.877 60.466 295.929C63.0007 296.01 65.5252 296.082 68.0599 296.184C68.5403 296.205 69.0411 296.256 69.5011 296.399C70.053 296.572 70.472 296.429 70.7991 296.021C71.5043 295.131 72.2504 294.252 72.8739 293.302C74.5705 290.716 76.2672 288.13 77.8616 285.483C79.037 283.531 80.0488 281.487 81.1527 279.483C82.0521 277.838 83.0742 276.254 83.8612 274.557C84.781 272.564 85.6293 270.54 86.5696 268.568C86.7127 268.271 86.8763 267.985 86.9785 267.679C88.5422 263.314 90.1162 258.96 91.6698 254.586C92.1604 253.206 92.6918 251.836 93.0393 250.416C94.0512 246.307 94.9813 242.188 95.942 238.069C96.034 237.671 96.1362 237.272 96.1464 236.873C96.1771 235.678 96.5553 234.645 97.4649 233.817C98.0475 233.286 98.1906 232.591 98.2008 231.814C98.2212 230.598 98.2826 229.392 98.722 228.216C99.0184 227.409 98.5687 226.418 99.1411 225.61C99.182 225.559 99.1411 225.447 99.1513 225.212H99.1207ZM131.347 217.434C131.428 215.573 131.081 215.246 129.834 215.522C129.364 215.625 128.904 215.809 128.434 215.962C126.267 216.667 124.1 217.382 121.933 218.088C120.461 218.568 118.99 219.038 117.508 219.488C114.472 220.418 111.518 221.583 108.401 222.278C106.428 222.718 104.548 223.576 102.616 224.241C101.737 224.537 101.39 225.15 101.247 226.06C100.95 227.981 100.572 229.903 100.133 231.794C99.8974 232.836 99.7032 233.848 99.693 234.921C99.6828 236.884 99.509 238.815 98.8345 240.696C98.5074 241.606 98.2008 242.556 98.0986 243.517C97.8022 246.215 96.8006 248.719 96.0442 251.285C95.0733 254.555 93.8774 257.764 92.7532 260.994C92.2932 262.302 91.8129 263.601 91.2507 264.858C90.0651 267.535 88.8489 270.203 87.5815 272.85C86.5288 275.058 85.4454 277.255 84.2393 279.381C83.0435 281.507 81.6944 283.562 80.3861 285.626C79.2516 287.415 78.2091 289.244 76.8906 290.92C75.6335 292.525 74.5603 294.263 73.4258 295.949C73.3032 296.123 73.2214 296.46 73.3134 296.624C73.7529 297.472 73.5893 298.371 73.6507 299.261C73.8346 301.928 74.7545 304.156 77.3199 305.444C78.5668 306.068 79.8138 306.619 81.1527 307.018C82.5529 307.437 83.9634 307.897 85.149 308.807C85.8235 309.318 86.2426 309.911 86.2732 310.861C86.2937 311.74 86.6105 312.609 86.8251 313.467C86.9171 313.825 87.3873 313.927 87.5917 313.672C87.6939 313.549 87.8063 313.426 87.8881 313.283C89.0226 311.393 90.7397 309.921 91.7822 307.958C91.8946 307.744 92.0684 307.56 92.2319 307.386C94.5827 304.892 96.4531 302.01 98.6096 299.353C100.817 296.634 102.739 293.69 104.793 290.839C105.079 290.44 105.345 290.031 105.682 289.674C108.534 286.618 110.599 282.979 113.164 279.708C113.808 278.88 114.053 277.828 114.953 277.112C115.76 276.468 116.363 275.549 117.017 274.731C117.579 274.026 118.1 273.3 118.622 272.564C119.133 271.828 119.511 270.959 120.134 270.346C121.024 269.488 121.371 268.394 121.596 267.311C121.882 265.972 122.393 264.653 122.25 263.222C122.199 262.752 122.383 262.262 122.485 261.781C122.649 260.964 122.567 260.667 121.872 260.483C120.38 260.085 118.867 259.758 117.365 259.42C116.496 259.226 115.607 259.114 114.728 258.919C114.298 258.827 114.022 258.541 113.992 258.071C113.971 257.693 114.37 257.386 114.85 257.437C115.576 257.509 116.302 257.621 117.027 257.734C118.468 257.969 119.899 258.276 121.351 258.449C122.782 258.623 123.119 258.245 123.466 256.783C123.763 255.567 123.374 254.177 124.396 253.155C124.519 252.276 124.724 251.397 124.734 250.518C124.734 250.109 124.713 249.731 124.897 249.353C125.327 248.453 125.419 247.493 125.592 246.532C125.899 244.856 125.878 243.139 126.369 241.473C126.717 240.318 126.931 239.112 127.289 237.947C127.381 237.64 127.432 237.313 127.442 236.996C127.473 235.954 127.984 232.714 128.403 232.08C129.129 230.986 129.159 229.79 129.159 228.564C129.159 227.757 129.067 226.878 129.323 226.142C130.069 224.046 130.243 221.849 130.774 219.723C131.009 218.773 131.224 217.832 131.326 217.383L131.347 217.434ZM107.921 157.397C107.931 157.336 107.941 157.275 107.951 157.223C108.442 157.223 108.943 157.305 109.423 157.223C111.018 156.999 111.702 156.334 112.07 154.781C112.254 153.994 112.438 153.186 112.694 152.42C114.063 148.423 115.106 144.315 116.71 140.39C118.039 137.15 118.744 133.685 120.186 130.476C120.421 129.965 120.605 129.393 120.645 128.841C120.717 127.91 121.024 127.083 121.473 126.306C121.954 125.468 121.851 124.752 121.146 124.108C118.887 122.074 117.365 119.427 115.341 117.179C113.654 115.308 111.876 113.53 110.241 111.608C109.873 111.179 109.382 110.862 108.953 110.494C108.513 110.126 108.064 109.769 107.655 109.38C106.766 108.542 105.897 107.684 105.028 106.835C104.507 106.324 103.945 105.844 103.495 105.282C101.911 103.279 99.9383 101.705 97.9248 100.192C95.1959 98.158 92.0173 97.0849 88.7569 96.2877C86.9682 95.8482 85.0774 95.6744 83.2581 95.7971C79.4356 96.0628 76.0117 97.5652 72.9352 99.824C72.6082 100.069 72.3015 100.345 72.0256 100.642C70.0836 102.655 68.4892 104.883 67.5796 107.592C67.2116 108.696 67.2525 109.871 66.9152 110.934C66.1691 113.336 66.813 115.666 67.3036 117.915C67.8964 120.644 69.3989 123.015 71.5452 124.906C71.9745 125.284 72.3833 125.682 72.7717 126.112C74.6523 128.186 77.1257 129.26 79.732 129.965C82.8493 130.803 86.0484 130.803 89.1657 130.026C92.2523 129.26 94.9302 127.757 96.4122 124.691C96.8006 123.884 97.3423 123.158 97.8328 122.402C98.1599 121.901 98.579 121.86 99.0491 122.31C99.4579 122.698 99.7135 123.26 100.378 123.291C100.541 123.291 100.705 123.342 100.858 123.403C101.747 123.771 101.901 124.364 101.318 125.079C100.807 125.713 100.276 126.337 99.8361 127.011C99.2535 127.89 98.8345 128.881 98.1906 129.709C97.5262 130.568 97.0867 131.529 96.729 132.52C95.9625 134.666 95.247 136.833 94.552 139C94.3271 139.695 94.1636 140.421 94.0818 141.146C94.0307 141.616 94.0512 142.158 94.2249 142.577C94.7258 143.722 94.828 144.928 95.0017 146.134C95.2879 148.127 96.2282 149.854 97.424 151.398C98.2723 152.481 99.366 153.37 100.378 154.321C101.461 155.343 102.647 156.171 104.2 156.334C104.589 156.375 104.946 156.672 105.335 156.774C106.193 156.999 107.062 157.183 107.921 157.387V157.397ZM102.739 189.705C102.739 189.705 102.718 189.705 102.708 189.705C102.729 188.407 102.749 187.099 102.759 185.801C102.769 184.656 102.585 184.451 101.42 184.175C100.081 183.859 98.722 183.583 97.3934 183.204C94.3067 182.315 91.4653 180.956 89.1964 178.575C88.6444 178.002 87.8983 177.604 87.234 177.144C86.0995 176.357 85.0263 175.559 84.0962 174.476C82.1747 172.238 80.4065 169.928 79.0165 167.322C78.6281 166.596 78.1478 166.555 77.7185 167.168C77.095 168.027 76.4511 168.875 75.9299 169.795C74.1821 172.922 72.4548 176.06 70.7889 179.229C69.4295 181.825 68.0599 184.421 66.4553 186.874C66.0158 187.559 65.6581 188.294 65.2697 189.01C63.7877 191.729 62.3159 194.447 60.8237 197.156C59.8425 198.944 58.8307 200.713 57.829 202.481C57.1442 203.687 56.4288 204.872 55.744 206.078C54.8241 207.703 53.6896 209.216 53.0355 210.995C52.8004 211.628 52.8924 211.874 53.5772 212.047C55.6213 212.569 57.6757 213.08 59.7403 213.55C60.2002 213.652 60.7113 213.591 61.2019 213.55C63.0211 213.407 63.0211 213.407 64.6769 214.337C64.82 214.419 64.9631 214.51 65.1164 214.551C66.4451 214.909 67.7738 215.287 69.1229 215.604C71.259 216.105 73.3951 216.575 75.5313 217.055C78.2295 217.658 80.9176 218.292 83.6159 218.875C86.8763 219.57 90.0242 220.714 93.3562 221.082C94.9404 221.798 96.6472 221.972 98.3439 222.166C99.3455 222.278 99.8565 221.869 99.877 220.878C99.8974 219.907 99.8974 218.926 99.969 217.955C100.01 217.475 100.327 217.004 100.306 216.544C100.204 214.398 101.114 212.415 101.257 210.31C101.349 208.93 101.625 207.581 101.553 206.181C101.502 205.21 101.523 204.198 101.747 203.268C102.054 201.98 102.095 200.702 102.074 199.404C102.054 197.871 101.89 196.307 102.596 194.836C102.759 194.498 102.677 194.038 102.688 193.63C102.708 192.321 102.729 191.023 102.749 189.715L102.739 189.705ZM156.213 188.274C156.326 186.588 156.346 186.588 155.978 185.801C155.11 183.94 154.006 182.213 152.514 180.803C150.96 179.331 149.018 178.605 146.892 179.024C145.063 179.382 143.254 179.903 141.598 180.823C140.688 181.324 140.055 181.917 140.003 183.072C139.963 184.032 139.697 184.993 139.523 185.954C139.421 186.506 139.308 187.068 139.186 187.62C138.879 188.959 138.307 190.247 138.429 191.677C138.46 191.984 138.317 192.311 138.215 192.618C137.264 195.653 136.968 198.822 136.334 201.919C135.721 204.944 135.077 207.959 134.413 210.974C134.259 211.659 134.208 212.252 134.75 212.783C135.414 213.437 135.649 214.245 135.864 215.154C137.223 221.011 138.358 226.929 140.371 232.622C142.211 237.844 143.908 243.118 146.259 248.137C147.015 249.762 147.802 251.377 148.62 252.971C149.008 253.727 149.621 253.87 150.224 253.41C152.309 251.847 154.394 250.293 156.459 248.709C157.041 248.269 157.552 247.728 158.145 247.288C160.966 245.213 163.787 243.139 166.639 241.105C167.18 240.716 167.426 240.267 167.303 239.674C166.976 237.998 166.925 236.27 166.281 234.666C166.128 234.288 165.862 233.868 165.923 233.521C166.107 232.397 165.586 231.456 165.279 230.455C165.116 229.913 164.993 229.351 164.932 228.799C164.748 227.092 164.421 225.436 163.787 223.832C163.603 223.382 163.358 222.932 163.266 222.462C162.867 220.387 162.571 218.302 162.131 216.238C161.498 213.223 160.741 210.238 160.097 207.223C159.576 204.76 159.116 202.287 158.534 199.844C157.941 197.319 157.624 194.733 156.868 192.24C156.469 190.942 155.917 189.623 156.203 188.284L156.213 188.274ZM107.185 182.755C107.543 182.745 107.716 182.785 107.859 182.724C108.881 182.295 109.955 182.52 111.007 182.438C112.05 182.356 113.092 182.142 114.135 182.009C116.905 181.631 119.47 180.649 121.923 179.341C122.782 178.881 123.65 178.411 124.458 177.869C125.735 177.011 126.972 176.091 128.209 175.171C128.607 174.875 128.934 174.466 128.883 173.934C128.812 173.076 129.364 172.585 129.905 172.084C130.621 171.42 131.428 170.837 132.072 170.112C133.094 168.957 134.075 167.751 134.985 166.494C136.988 163.724 139.022 160.985 141.107 158.276C142.191 156.856 143.121 155.322 144.133 153.851C144.398 153.452 144.398 153.064 144.082 152.747C143.622 152.287 143.121 151.868 142.61 151.469C141.905 150.917 141.077 150.498 140.463 149.854C138.92 148.26 137.131 146.993 135.404 145.643C135.087 145.398 134.822 145.071 134.495 144.826C133.462 144.039 132.43 143.252 131.377 142.495C131.019 142.23 130.365 142.342 130.028 142.679C129.793 142.904 129.558 143.139 129.384 143.405C128.086 145.378 126.809 147.371 125.521 149.343C124.724 150.57 123.937 151.807 123.078 152.992C122.751 153.442 122.26 153.779 121.821 154.137C121.381 154.495 120.891 154.801 120.451 155.159C119.112 156.242 117.733 157.223 116.015 157.643C115.464 157.775 114.891 157.959 114.431 158.276C113.205 159.104 111.805 159.084 110.445 159.104C108.994 159.125 107.543 159.012 106.101 158.818C104.487 158.593 102.913 158.215 101.461 157.397C96.8108 154.791 93.8263 150.907 92.4363 145.766C92.2217 144.979 91.9151 144.223 91.6289 143.456C91.5778 143.323 91.4449 143.139 91.3223 143.129C91.1894 143.119 90.985 143.221 90.9032 143.344C89.83 145.071 88.7466 146.798 87.745 148.567C87.1113 149.691 86.7332 150.989 86.0279 152.062C84.689 154.106 83.6159 156.304 82.3791 158.409C81.6739 159.605 80.9176 160.75 80.4065 162.058C80.2839 162.375 80.1306 162.671 80.3861 162.957C81.1833 163.836 81.2753 165.053 81.8374 166.034C83.7385 169.355 85.6804 172.646 88.7364 175.079C89.1146 175.386 89.503 175.692 89.8403 176.05C91.7924 178.104 94.4089 179.167 96.7597 180.608C97.7715 181.232 99.0491 181.436 100.235 181.733C101.42 182.029 102.677 182.07 103.812 182.458C104.998 182.867 106.234 182.172 107.175 182.785L107.185 182.755ZM125.909 261.158C125.449 261.096 124.959 261.413 124.754 262.159C124.56 262.865 124.345 263.57 124.223 264.296C123.906 266.135 123.64 267.985 123.333 269.825C123.242 270.367 123.415 270.786 123.793 271.143C125.143 272.431 126.481 273.729 127.831 275.007C129.251 276.346 130.59 277.787 132.052 279.054C134.454 281.139 136.641 283.439 139.033 285.514C141.608 287.762 143.816 290.42 146.708 292.31C147.035 292.525 147.23 292.934 147.505 293.22C148.241 293.976 148.987 294.733 149.754 295.469C150.061 295.755 150.541 295.683 150.848 295.346C151.727 294.385 152.606 293.414 153.464 292.443C155.621 290.001 157.777 287.548 159.934 285.105C160.956 283.94 161.978 282.785 162.98 281.599C163.358 281.149 163.337 280.7 162.847 280.322C162.172 279.8 161.477 279.208 161.487 278.38C161.508 277 160.721 276.131 159.975 275.15C157.992 272.564 155.978 269.988 154.241 267.219C152.115 263.836 149.979 260.463 147.853 257.08C147.638 256.742 147.495 256.354 147.342 255.976C147.117 255.455 146.984 254.872 146.688 254.392C145.206 251.939 144.204 249.251 143.008 246.665C142.078 244.672 141.271 242.617 140.463 240.573C139.922 239.214 139.492 237.803 139.002 236.434C138.644 235.432 138.266 234.441 137.878 233.46C136.641 230.342 136.232 226.99 135.22 223.811C134.607 221.88 134.188 219.887 133.667 217.924C133.646 217.853 133.575 217.75 133.513 217.74C133.462 217.74 133.35 217.812 133.329 217.873C133.135 218.405 132.88 218.926 132.788 219.468C132.409 221.624 131.827 223.75 131.602 225.947C131.387 228.043 130.968 230.138 130.447 232.172C130.12 233.449 130.253 234.819 129.793 236.005C129.159 237.63 129.139 239.357 128.638 240.992C128.28 242.147 128.117 243.374 127.902 244.57C127.616 246.164 127.391 247.779 127.084 249.373C126.543 252.245 125.97 255.117 125.429 257.989C125.347 258.429 125.572 258.817 125.96 259.011C126.389 259.226 126.86 259.471 127.32 259.512C128.863 259.645 130.335 260.156 131.909 260.187C133.278 260.217 134.638 260.616 135.895 261.209C136.079 261.301 136.355 261.597 136.314 261.71C136.222 261.986 135.997 262.384 135.772 262.415C135.149 262.517 134.454 262.599 133.861 262.435C131.336 261.74 128.699 261.791 125.878 261.117L125.909 261.158ZM104.834 8.41007C102.821 8.49184 102.821 8.49184 101.706 10.2191C101.359 10.7608 100.96 11.3127 100.776 11.926C100.429 13.0605 99.3251 13.7351 98.998 14.8184C98.6607 15.9223 98.2417 16.9546 97.6182 17.9255C97.0867 18.7432 96.6677 19.6324 96.2282 20.5114C95.3594 22.2591 94.5009 24.0171 93.6526 25.775C92.9882 27.1651 92.3443 28.5755 91.68 29.9757C91.5062 30.3437 91.2814 30.6912 91.0565 31.0285C90.4637 31.9075 89.9833 32.8375 89.6052 33.8494C89.2066 34.9123 88.7262 35.9855 88.0823 36.9054C87.3771 37.9172 86.8047 38.9597 86.2732 40.0636C84.9241 42.8538 83.3399 45.5214 82.2054 48.4139C82.1134 48.6387 82.0214 48.8738 81.8783 49.068C80.3759 51.0304 79.5889 53.3607 78.4748 55.5173C77.2381 57.9089 76.257 60.413 74.8772 62.7433C74.0902 64.072 73.4463 65.4722 72.741 66.852C72.3424 67.639 72.3935 68.1807 73.0374 68.8451C73.9368 69.7854 74.7852 70.8279 75.8481 71.5638C76.7986 72.2179 77.7083 72.9129 78.434 73.7714C79.7115 75.2637 81.4082 75.9893 83.1253 76.7355C83.7589 77.0114 83.9736 76.9399 84.3313 76.3266C85.936 73.5875 87.6019 70.8688 89.1146 68.0785C90.9441 64.7057 92.6101 61.2613 94.5929 57.9702C95.5127 56.4474 96.2078 54.7814 97.0663 53.2176C98.2315 51.0713 99.4682 48.9556 100.654 46.8195C101.247 45.7565 101.798 44.6629 102.371 43.5897C103.403 41.6478 104.435 39.7059 105.468 37.7639C106.193 36.3944 106.827 34.9839 107.645 33.6654C108.462 32.347 109.116 30.9467 109.822 29.5669C110.568 28.1156 111.314 26.6642 112.07 25.2231C112.561 24.2828 113.011 23.3323 113.563 22.4226C114.237 21.3086 114.717 20.0719 115.699 19.1622C116.649 18.2833 116.946 17.0874 117.313 15.9223C117.467 15.4215 117.365 14.9513 116.997 14.5629C115.024 12.437 112.724 10.7813 110.036 9.7081C109.28 9.4117 108.473 9.23795 107.686 9.04375C106.745 8.80868 105.785 8.61448 104.844 8.41007H104.834ZM109.995 184.768C108.657 184.748 107.839 184.717 107.031 184.727C105.907 184.738 105.284 185.279 105.325 186.342C105.386 187.63 105.498 188.908 105.151 190.185C105.09 190.41 105.192 190.666 105.192 190.911C105.151 192.372 105.13 193.844 105.049 195.306C104.926 197.329 104.691 199.353 104.609 201.387C104.497 204.157 104.047 206.896 103.802 209.645C103.689 210.933 103.403 212.211 103.219 213.499C102.902 215.665 102.606 217.842 102.31 220.019C102.299 220.101 102.289 220.183 102.289 220.265C102.289 220.674 102.606 221.062 103.035 221.082C103.516 221.103 104.027 221.133 104.476 221.011C105.498 220.735 106.49 220.367 107.502 220.03C110.047 219.181 112.561 218.17 115.157 217.526C118.479 216.698 121.637 215.369 124.918 214.449C126.798 213.918 128.607 213.151 130.447 212.477C130.825 212.333 131.234 212.19 131.541 211.945C131.837 211.7 132.154 211.352 132.226 211.005C132.522 209.574 132.726 208.123 132.982 206.681C133.084 206.13 133.248 205.578 133.391 205.026C133.554 204.402 133.697 203.769 133.912 203.155C134.535 201.377 134.464 199.466 134.944 197.646C135.312 196.236 135.394 194.754 135.67 193.323C136.079 191.166 136.416 189 137.06 186.894C137.367 185.893 137.469 184.819 137.602 183.777C137.694 183.133 137.714 182.479 137.714 181.825C137.714 181.119 137.336 180.731 136.661 180.772C135.854 180.823 135.036 180.905 134.239 181.038C132.236 181.365 130.253 181.855 128.229 182.05C124.979 182.366 121.831 183.204 118.622 183.705C117.579 183.869 116.475 183.787 115.484 184.094C113.501 184.697 111.498 184.819 109.975 184.768H109.995ZM164.656 142.291C164.87 142.24 165.126 142.23 165.32 142.117C167.487 140.993 169.715 140.022 171.759 138.642C173.497 137.467 175.49 136.649 177.186 135.361C178.546 134.329 180.099 133.573 181.53 132.653C183.38 131.478 184.903 129.812 186.927 128.871C187.07 128.81 187.172 128.657 187.295 128.554C188.838 127.215 190.351 125.856 191.925 124.558C195.441 121.655 198.66 118.426 202.084 115.431C202.575 115.002 203.035 114.532 203.474 114.051C203.975 113.51 203.995 113.172 203.546 112.528C202.064 110.382 200.622 108.205 199.069 106.11C197.117 103.503 195.205 100.856 193.427 98.1376C193.12 97.6674 192.712 97.2484 192.282 96.8805C191.955 96.6045 191.506 96.5841 191.148 96.86C190.494 97.3506 189.921 97.9638 189.226 98.3727C187.111 99.5992 185.302 101.306 183.012 102.246C182.419 102.492 181.939 102.982 181.387 103.33C179.036 104.801 176.788 106.427 174.284 107.643C173.18 108.174 172.107 108.757 171.023 109.319C167.763 110.995 164.533 112.743 161.079 114.021C159.709 114.532 158.391 115.176 157.052 115.779C156.765 115.911 156.745 116.443 157.021 116.606C158.207 117.322 159.341 118.18 160.608 118.681C162.182 119.294 162.99 120.613 163.981 121.778C164.554 122.453 164.993 123.26 165.412 124.047C166.833 126.766 167.661 129.587 167.374 132.745C167.211 134.554 166.925 136.261 166.22 137.937C165.811 138.908 165.525 139.92 164.819 140.758C164.574 141.054 164.492 141.484 164.38 141.872C164.349 141.974 164.533 142.127 164.646 142.301L164.656 142.291ZM45.0123 316.329C44.5932 317.607 45.0123 318.986 44.9203 320.356C44.8385 321.736 44.8692 323.136 44.859 324.526C44.859 324.69 44.8385 324.894 44.9203 324.996C45.1043 325.231 45.3291 325.528 45.5846 325.589C46.0548 325.701 46.5658 325.701 47.0462 325.661C48.0989 325.569 49.1414 325.385 50.1942 325.303C52.7085 325.119 55.2227 324.986 57.737 324.833C58.8 324.771 59.4746 324.25 59.5461 323.238C59.6483 321.705 60.006 320.162 59.495 318.619C59.3212 318.097 59.3417 317.494 59.3417 316.932C59.3417 315.021 59.5052 314.898 61.3449 314.561C62.0604 314.428 62.6328 314.581 63.154 315.011C63.7264 315.471 64.2578 315.982 64.8098 316.462C65.9851 317.484 67.2627 318.394 68.6936 318.976C69.9099 319.467 71.0546 320.049 72.1891 320.704C73.9368 321.715 75.8583 322.032 77.8514 321.767C79.5582 321.531 80.9482 320.796 81.6637 319.109C81.9192 318.506 82.185 317.893 82.5733 317.382C83.6261 316.012 83.5136 314.459 83.3297 312.926C83.1661 311.556 82.512 310.452 81.1527 309.91C80.3963 309.614 79.6604 309.195 78.8837 309.052C76.9008 308.684 75.2349 307.693 73.6098 306.589C72.4242 305.781 71.627 304.708 71.1364 303.339C70.7173 302.184 70.3085 301.059 70.3187 299.792C70.3187 299.128 69.869 298.739 69.2455 298.668C69.082 298.647 68.9185 298.647 68.755 298.637C65.2595 298.494 61.764 298.586 58.289 298.034C56.4492 297.748 54.5482 297.85 52.6676 297.779C51.7784 297.748 50.8994 297.707 50 297.503C48.5588 297.176 47.0871 297.329 45.6562 297.738C45.3904 297.819 45.0429 298.146 45.0123 298.382C44.9407 299.158 44.8998 299.966 45.0327 300.732C45.1656 301.478 45.1758 302.163 44.9407 302.889C44.7976 303.339 44.7363 303.87 44.8078 304.34C44.9509 305.301 45.2576 306.241 44.8385 307.202C45.37 310.207 44.8181 313.222 45.0123 316.319V316.329ZM65.5968 42.3326C65.6887 43.1298 65.8114 44.0905 65.9238 45.0513C66.1487 46.9012 66.3429 48.7512 66.6086 50.6011C66.6801 51.0713 66.8846 51.5414 67.0992 51.9809C68.1622 54.0864 69.2047 56.2123 70.3494 58.2769C70.8604 59.1865 71.5861 59.9837 72.2402 60.8116C72.4548 61.0876 72.8739 61.016 73.0681 60.6992C73.7324 59.5851 74.4785 58.5222 74.9691 57.2957C75.6948 55.4866 76.5022 53.698 77.3812 51.9605C79.3232 48.1073 81.3469 44.2949 83.3092 40.452C83.8612 39.3686 84.1473 38.1114 84.8526 37.1405C85.7315 35.9242 86.2017 34.5546 86.8251 33.2259C87.2646 32.2652 87.6224 31.2738 88.3174 30.4357C88.6751 30.0064 88.9306 29.4647 89.1146 28.923C90.1673 25.9181 91.8231 23.1892 93.1415 20.3172C94.1943 18.0277 95.4412 15.8201 96.5961 13.5715C96.7801 13.2138 96.9436 12.8356 97.1072 12.4575C97.1992 12.2428 96.9334 11.7318 96.6881 11.6909C96.0442 11.6091 95.3799 11.4354 94.7564 11.5274C92.4363 11.8749 90.0856 12.018 87.8063 12.7028C86.3141 13.1423 84.8628 13.6022 83.4625 14.2972C81.1936 15.4317 79.0983 16.8115 77.0644 18.3242C75.6744 19.3564 74.3661 20.4705 73.2623 21.7685C72.0562 23.1892 70.9626 24.7428 70.0223 26.3474C69.1229 27.8907 68.4688 29.5771 67.7124 31.2022C67.5387 31.5702 67.3547 31.9381 67.2321 32.3265C66.2304 35.5358 65.9749 38.8575 65.607 42.3428L65.5968 42.3326ZM170.482 264.122C172.27 264.132 174.038 264.142 175.745 263.396C176.624 263.018 177.636 262.885 178.597 262.793C179.486 262.711 180.089 262.333 180.672 261.689C182.348 259.798 184.106 257.989 185.792 256.109C187.479 254.228 189.145 252.327 190.77 250.406C191.72 249.292 191.659 248.975 190.698 247.922C190.208 247.38 189.656 246.859 189.298 246.246C188.501 244.907 187.295 244.069 185.915 243.558C184.893 243.18 183.789 242.74 182.634 243.128C178.832 244.396 175.204 246.041 171.912 248.361C171.585 248.597 171.228 248.801 170.87 248.975C170.574 249.118 169.889 248.872 169.787 248.597C169.408 247.523 169.03 246.45 168.693 245.367C168.55 244.907 168.509 244.406 168.366 243.946C168.131 243.169 167.712 243.047 167.129 243.527C166.25 244.242 165.381 244.989 164.462 245.673C162.898 246.839 161.263 247.922 159.709 249.097C157.379 250.876 155.079 252.695 152.79 254.525C152.095 255.087 151.451 255.71 150.797 256.323C150.531 256.569 150.5 256.865 150.684 257.192C150.929 257.621 151.113 258.071 151.359 258.49C153.362 261.843 155.324 265.226 157.409 268.537C158.574 270.387 159.944 272.114 161.222 273.903C162.162 275.221 163.133 276.53 164.032 277.879C164.84 279.075 165.238 279.156 166.23 278.012C167.62 276.417 168.959 274.772 170.298 273.126C170.952 272.319 170.962 271.798 170.369 270.908C169.603 269.764 168.775 268.66 168.008 267.515C167.65 266.973 167.323 266.401 167.037 265.818C166.812 265.369 166.966 264.817 167.415 264.531C167.742 264.326 168.141 264.142 168.519 264.101C169.163 264.04 169.817 264.101 170.471 264.101L170.482 264.122ZM145.38 147.596C146.667 147.412 147.945 147.228 149.233 147.044C150.193 146.911 151.185 146.901 152.115 146.645C152.882 146.441 153.597 146.001 154.282 145.582C154.823 145.255 154.844 144.734 154.609 144.069C154.292 143.17 153.597 142.618 152.933 142.015C152.289 141.422 152.371 140.686 153.055 140.124C153.485 139.766 154.18 139.511 154.312 139.071C154.548 138.305 153.525 138.182 153.198 137.651C153.158 137.579 153.086 137.528 153.035 137.467C152.626 137.017 152.646 136.639 153.035 136.189C153.372 135.801 153.771 135.596 154.261 135.443C154.711 135.3 155.14 135.034 155.508 134.748C155.754 134.564 155.917 134.217 155.61 133.91C155.089 133.399 154.537 132.908 154.006 132.397C153.648 132.06 153.628 131.641 153.955 131.324C154.425 130.875 154.936 130.466 155.396 130.006C155.825 129.566 155.662 128.881 155.079 128.585C154.721 128.401 154.343 128.217 153.955 128.125C153.086 127.921 152.217 127.716 151.338 127.624C150.285 127.512 149.223 127.532 148.221 127.134C146.616 127.594 145.247 126.612 143.765 126.357C143.039 126.234 142.794 125.611 143.008 124.834C143.09 124.527 143.254 124.231 143.315 123.914C143.376 123.608 143.397 123.219 143.019 123.107C142.845 123.056 142.528 123.178 142.385 123.332C141.271 124.527 140.116 125.682 139.124 126.97C138.44 127.859 137.734 128.881 137.52 129.934C137.244 131.345 136.712 132.551 135.925 133.695C135.241 134.707 134.556 135.719 133.902 136.751C133.554 137.303 133.237 137.876 132.972 138.458C132.798 138.847 132.869 139.307 133.196 139.583C134.382 140.574 135.506 141.678 136.815 142.465C138.573 143.538 140.157 144.795 141.629 146.206C142.712 147.248 143.846 147.851 145.38 147.585V147.596ZM221.34 105.599C221.34 105.599 221.309 105.599 221.289 105.599C221.289 105.926 221.258 106.253 221.289 106.57C221.319 107.04 221.851 107.5 222.301 107.438C222.781 107.377 223.292 107.336 223.721 107.142C225.213 106.498 226.665 105.762 228.157 105.118C229.721 104.444 230.896 103.289 231.796 101.94C232.879 100.325 233.717 98.5464 234.627 96.8191C235.598 94.9794 235.547 92.8842 235.996 90.9116C236.221 89.9406 235.761 88.9696 235.761 88.0191C235.761 85.8319 235.128 83.8388 234.3 81.8867C233.104 79.0555 231.356 76.6435 228.729 74.9468C227.983 74.4665 227.217 73.9963 226.43 73.5773C226.011 73.3524 225.357 73.6897 225.265 74.1701C225.009 75.601 224.774 77.0421 224.58 78.4934C224.488 79.1884 224.743 79.7403 225.459 80.0674C226.409 80.5069 226.747 81.3961 227.135 82.3364C227.534 83.3074 227.206 84.2783 227.523 85.2186C227.932 86.4042 227.81 87.6307 227.574 88.8368C227.176 90.9116 226.655 92.9557 226.338 95.0407C226.113 96.5023 225.612 97.8616 225.193 99.2619C224.621 101.204 223.65 102.849 221.83 103.882C221.432 104.106 221.258 104.413 221.34 104.883C221.381 105.118 221.34 105.364 221.34 105.599ZM214.952 76.0098C214.901 75.9382 214.86 75.836 214.799 75.8054C214.676 75.7543 214.461 75.6725 214.41 75.7236C213.725 76.4084 213.041 77.1034 212.386 77.8086C210.945 79.3622 209.535 80.9464 208.084 82.4897C207.409 83.2052 206.694 83.8797 205.978 84.5441C204.721 85.699 203.443 86.8437 202.156 87.9782C201.236 88.7857 200.326 89.6033 199.376 90.3801C198.057 91.4635 196.677 92.4855 195.4 93.6098C194.306 94.5604 194.275 94.6626 195.195 96.0219C197.342 99.2006 199.948 102.032 201.849 105.384C202.023 105.701 202.462 105.732 202.718 105.517C203.607 104.771 204.588 104.188 205.682 103.861C207.215 103.401 208.38 102.696 208.145 100.815C208.114 100.601 208.298 100.355 208.37 100.12C208.625 99.313 208.595 98.5362 208.278 97.7288C207.777 96.4512 207.889 95.1429 208.451 93.9267C208.85 93.0784 208.932 92.3527 208.727 91.3919C208.4 89.8282 208.247 88.152 209.678 86.8335C209.985 86.5575 210.077 85.9443 210.087 85.4742C210.107 84.5952 210.496 83.9002 210.976 83.2358C211.559 82.4386 212.202 81.6925 213.112 81.2632C213.94 80.8748 214.369 80.1798 214.523 79.3724C214.747 78.2686 214.809 77.1238 214.942 76.0098H214.952ZM215.167 99.8445C215.167 99.8445 215.167 99.8649 215.167 99.8751C214.022 99.8547 212.877 99.8036 211.743 99.8445C211.272 99.8649 210.802 100.039 210.363 100.212C209.974 100.366 209.944 101.03 210.291 101.214C211.589 101.899 212.846 102.604 214.42 102.481C215.126 102.42 215.872 102.624 216.577 102.778C219.582 103.401 222.423 101.5 223.18 98.6895C223.374 97.9843 223.496 97.2586 223.752 96.5738C224.651 94.1924 224.927 91.6679 225.326 89.1843C225.52 87.9884 225.387 86.7415 225.387 85.515C225.387 84.5747 224.989 83.7673 224.386 83.0723C224.059 82.6941 223.639 82.3977 223.098 82.6226C222.219 82.9905 221.36 83.0007 220.481 82.6226C220.267 82.5306 219.98 82.4182 219.786 82.4897C218.672 82.9088 217.517 82.6532 216.383 82.7146C215.299 82.7657 214.328 83.1745 213.378 83.6344C212.765 83.9308 212.519 84.4419 212.642 85.0244C212.734 85.4639 213.102 85.7195 213.776 85.7399C215.248 85.7808 216.72 85.8217 218.192 85.8012C219.05 85.791 219.786 86.0567 220.491 86.5064C221.064 86.8744 221.074 87.3956 220.583 87.9476C220.062 88.5404 219.449 88.8265 218.652 88.7652C216.546 88.6221 214.441 88.8572 212.335 88.6732C212.019 88.6426 211.671 88.6732 211.375 88.7652C211.17 88.8265 210.956 89.0207 210.843 89.2149C210.485 89.8588 210.894 90.8911 211.579 91.0138C213.255 91.3204 215.013 90.8911 216.669 91.4839C216.863 91.5555 217.17 91.4635 217.374 91.3511C217.977 91.0444 218.478 91.4328 219.02 91.5248C219.633 91.6168 220.246 91.8212 220.216 92.4958C220.195 92.8944 219.756 93.3134 219.449 93.6609C219.03 94.1209 218.447 94.1311 217.865 94.1209C215.749 94.0698 213.623 94.0289 211.507 94.0084C210.741 94.0084 210.046 94.6728 210.025 95.3576C210.015 96.1037 210.557 96.8498 211.283 96.952C212.489 97.136 213.695 97.3097 214.911 97.3915C216.291 97.4835 217.681 97.4733 219.061 97.5244C219.694 97.5448 220.41 98.1069 220.543 98.6384C220.665 99.1392 219.837 99.9467 219.091 100.018C218.693 100.049 218.274 100.018 217.875 99.9978C216.976 99.9467 216.086 99.8956 215.187 99.8445H215.167ZM204.905 265.42C204.803 265.481 205.109 265.379 205.324 265.174C205.631 264.888 205.416 264.561 205.212 264.326C204.895 263.958 204.517 263.641 204.169 263.294C203.321 262.425 202.288 261.71 201.777 260.555C201.685 260.34 201.491 260.136 201.297 260.003C199.6 258.919 198.67 257.141 197.321 255.741C196.197 254.565 195.154 253.318 194.051 252.123C193.948 252.01 193.56 252.02 193.417 252.123C193.1 252.348 192.824 252.644 192.579 252.951C191.863 253.83 191.271 254.821 190.463 255.608C189.359 256.691 188.102 257.601 187.315 258.981C187.162 259.247 186.886 259.502 186.61 259.645C185.802 260.033 185.434 260.708 185.189 261.516C185.067 261.894 184.801 262.221 184.607 262.578C184.198 263.335 184.453 263.754 185.353 263.815C186.242 263.876 187.141 263.887 188.031 263.989C188.756 264.071 189.461 264.316 190.177 264.367C193.662 264.612 197.147 264.807 200.633 265.031C201.92 265.113 203.208 265.256 204.915 265.41L204.905 265.42ZM165.269 130.629C165.187 130.271 165.085 129.883 165.024 129.484C164.543 126.51 163.644 123.792 160.874 122.105C160.741 122.023 160.619 121.901 160.516 121.778C159.648 120.715 158.38 120.327 157.184 119.836C156.581 119.591 155.948 119.918 155.886 120.531C155.754 121.737 155.59 122.933 155.304 124.119C155.14 124.793 155.406 125.406 156.142 125.682C156.295 125.744 156.449 125.805 156.581 125.897C158.043 126.909 158.902 128.176 158.278 130.047C158.063 130.68 158.063 131.314 158.278 131.958C158.789 133.44 158.554 134.84 157.818 136.189C157.634 136.537 157.43 136.966 157.471 137.324C157.624 138.601 157.225 139.736 156.735 140.86C156.612 141.146 156.479 141.524 156.571 141.79C156.827 142.557 157.184 143.282 157.532 144.008C157.573 144.1 157.849 144.192 157.941 144.141C159.535 143.293 160.925 142.189 161.968 140.686C163.041 139.133 163.726 137.406 164.462 135.688C165.167 134.043 164.625 132.275 165.279 130.629H165.269ZM148.221 155.465C148.19 155.333 148.098 155.159 147.986 155.087C147.873 155.026 147.638 155.016 147.546 155.087C146.657 155.823 146.197 156.896 145.502 157.765C143.519 160.259 141.721 162.886 139.963 165.523C137.673 168.947 134.719 171.757 132.042 174.813C130.529 176.541 128.71 177.931 126.86 179.29C126.747 179.372 126.747 179.699 126.788 179.883C126.809 179.965 127.074 180.077 127.207 180.046C130.723 179.382 134.239 178.718 137.786 178.237C138.521 178.135 138.93 177.583 139.084 176.919C139.237 176.285 139.155 175.611 139.298 174.977C139.83 172.595 140.239 170.204 140.31 167.751C140.341 166.718 140.954 166.146 142.027 166.075C142.6 166.034 143.172 166.095 143.744 166.034C145.543 165.84 145.891 165.512 146.299 163.714C146.647 162.129 146.841 160.525 147.311 158.951C147.608 157.949 147.771 156.907 148.221 155.936C148.282 155.803 148.262 155.609 148.221 155.445V155.465ZM125.398 281.272C126.809 281.293 128.025 281.323 129.251 281.323C129.568 281.323 129.895 281.262 130.202 281.19C130.58 281.109 130.743 280.516 130.468 280.23C130.304 280.056 130.14 279.862 129.957 279.708C127.667 277.777 125.419 275.804 123.425 273.555C123.17 273.259 122.608 273.177 122.311 273.433C121.892 273.801 121.473 274.189 121.126 274.629C120.778 275.068 120.533 275.579 120.206 276.039C118.99 277.756 117.753 279.453 116.527 281.17C116.394 281.364 116.567 281.64 116.854 281.63C117.743 281.62 118.663 281.712 119.521 281.538C121.535 281.129 123.558 281.293 125.388 281.282L125.398 281.272ZM214.431 115.574C215.095 115.646 215.34 115.697 215.575 115.697C216.669 115.727 217.027 115.451 217.19 114.378C217.538 112.068 217.844 109.748 218.182 107.438C218.253 106.968 218.417 106.498 218.447 106.028C218.458 105.844 218.243 105.517 218.069 105.476C217.211 105.251 216.352 105.047 215.473 104.955C215.023 104.914 214.533 105.108 214.073 105.241C213.654 105.364 213.337 105.67 213.317 106.1C213.265 107.96 212.509 109.738 212.673 111.629C212.703 112.028 212.673 112.447 212.601 112.835C212.458 113.53 211.927 114.194 212.386 114.92C212.918 115.758 213.828 115.482 214.604 115.584C214.686 115.584 214.768 115.605 214.42 115.564L214.431 115.574ZM104.067 63.3668C104.047 63.1317 104.057 62.8046 103.975 62.498C103.444 60.5356 102.913 58.5835 102.35 56.6313C101.972 55.3129 101.553 53.9944 101.144 52.6759C101.022 52.2875 100.429 52.1751 100.153 52.4817C99.9383 52.727 99.693 52.9621 99.5499 53.2381C98.7834 54.669 98.0168 56.0999 97.3014 57.5512C96.9028 58.3484 96.5757 59.1865 96.2486 60.0144C96.0851 60.4232 96.3304 60.8627 96.7903 60.9036C99.0389 61.1387 100.981 62.1199 102.821 63.3463C103.086 63.5201 103.403 63.6325 103.71 63.7245C103.771 63.7449 103.904 63.5303 104.067 63.3566V63.3668ZM149.989 117.761C149.58 117.751 149.171 117.741 148.763 117.741C148.221 117.741 147.781 117.996 147.567 118.456C146.831 120.01 146.289 121.615 146.361 123.362C146.381 123.945 146.81 124.415 147.424 124.517C148.384 124.681 149.345 124.803 150.306 124.967C151.297 125.141 151.778 124.957 151.962 124.027C152.227 122.596 152.738 121.206 152.759 119.724C152.779 118.405 152.462 117.935 151.216 117.792C150.807 117.751 150.398 117.772 149.989 117.772V117.761ZM222.73 73.2911C222.689 73.3933 222.771 73.1582 222.873 72.9436C223.098 72.4428 222.801 72.2077 222.413 72.0033C221.973 71.7784 221.534 71.6047 221.023 71.7171C220.645 71.7989 220.226 71.9113 219.858 71.8397C219.245 71.7171 218.917 72.0135 218.713 72.4734C218.192 73.659 217.865 74.9059 217.742 76.1938C217.691 76.7559 217.66 77.3385 217.476 77.8597C216.71 79.9754 217.354 79.9652 218.979 79.955C219.459 79.955 219.95 79.9243 220.43 79.8732C221.595 79.7506 221.841 79.5359 222.004 78.4321C222.239 76.8377 222.464 75.233 222.74 73.3013L222.73 73.2911ZM65.2186 323.933C66.3735 323.8 67.9884 323.627 69.593 323.422C69.6953 323.412 69.7872 323.208 69.8588 323.085C69.8895 323.034 69.8588 322.921 69.8077 322.87C69.5828 322.646 69.3682 322.359 69.0922 322.226C67.5387 321.511 65.9851 320.806 64.4112 320.152C63.522 319.784 63.0722 320.152 63.062 321.184C63.062 321.828 63.1131 322.482 63.2051 323.126C63.2664 323.565 63.5935 323.831 64.033 323.903C64.2681 323.944 64.5236 323.913 65.2186 323.923V323.933ZM176.256 266.585C176.021 266.421 175.837 266.186 175.674 266.197C174.406 266.319 173.139 266.493 171.872 266.657C171.473 266.708 171.187 267.219 171.391 267.576C171.831 268.333 172.311 269.069 172.791 269.804C172.975 270.091 173.333 270.05 173.589 269.753C174.273 268.966 174.968 268.19 175.643 267.403C175.847 267.168 176.011 266.902 176.246 266.575L176.256 266.585Z" fill="#212633"/>
<path id="Vector_12" d="M441.115 104.648C438.387 105.057 435.617 104.904 432.847 104.955C429.341 105.016 425.856 105.405 422.35 105.415C420.899 105.415 419.448 105.732 417.976 105.732C417.547 105.732 417.025 106.028 416.698 106.345C415.186 107.827 413.734 109.38 412.252 110.893C411.455 111.711 410.637 112.508 409.82 113.295C407.765 115.278 405.762 117.312 403.881 119.468C402.481 121.063 400.938 122.524 399.456 124.047C396.737 126.848 394.008 129.658 391.29 132.459C391.003 132.755 390.697 133.021 390.421 133.317C389.123 134.666 387.835 136.036 386.527 137.385C385.392 138.55 384.217 139.685 383.082 140.86C381.549 142.444 380.067 144.07 378.534 145.654C376.95 147.289 375.304 148.883 373.72 150.529C370.787 153.595 367.905 156.702 364.961 159.758C364.348 160.402 363.602 160.923 362.907 161.475C362.467 161.823 362.048 161.823 361.823 161.506C361.496 161.036 361.087 160.525 361.476 159.952C362.018 159.145 362.641 158.389 363.244 157.612C363.397 157.418 363.591 157.264 363.765 157.091C365.574 155.323 367.404 153.585 368.978 151.582C369.979 150.304 371.185 149.18 372.32 148.015C373.291 147.023 374.323 146.103 375.049 144.877C375.366 144.345 375.938 143.916 376.48 143.589C377.481 142.986 378.248 142.179 379.035 141.341C380.864 139.388 382.663 137.416 384.718 135.668C386.261 134.36 387.487 132.694 388.867 131.191C389.307 130.721 389.756 130.261 390.216 129.801C390.39 129.628 390.635 129.515 390.768 129.321C391.913 127.594 393.64 126.408 394.897 124.814C396.635 122.606 398.822 120.94 400.907 119.141C401.551 118.589 401.991 117.925 402.389 117.22C402.982 116.147 403.779 115.308 404.72 114.481C405.926 113.418 407.316 112.498 408.266 111.138C410.177 109.922 411.24 107.939 412.641 106.263C413.428 105.333 414.255 104.464 415.175 103.647C417.833 101.235 420.367 98.6692 422.943 96.1549C423.117 95.9811 423.362 95.8074 423.403 95.5927C423.751 93.9268 425.1 93.058 426.224 92.0359C427.798 90.605 429.157 89.0004 430.312 87.222C431.089 86.0262 432.152 85.8831 433.154 86.946C434.268 88.1316 435.269 89.4296 436.271 90.7175C439.184 94.4378 442.107 98.1581 444.969 101.919C446.011 103.289 447.074 104.618 448.331 105.803C448.454 105.916 448.546 106.049 448.648 106.181C450.345 108.379 452.052 110.556 453.718 112.764C454.597 113.939 455.516 115.084 456.457 116.208C458.388 118.528 460.177 120.95 462.027 123.332C462.375 123.781 462.732 124.231 463.121 124.65C464.439 126.102 465.676 127.604 466.647 129.321C467.342 130.558 467.863 130.691 468.957 129.75C470.449 128.473 472.146 127.471 473.72 126.316C474.047 126.071 474.363 125.795 474.731 125.652C475.661 125.284 476.377 124.64 477.154 124.037C480.445 121.512 483.654 118.886 487.18 116.698C487.456 116.525 487.742 116.361 487.977 116.136C490.686 113.52 493.926 111.588 496.88 109.288C498.74 107.837 500.733 106.549 502.501 104.965C503.421 104.137 504.658 104.158 505.618 104.986C506.978 106.161 508.276 107.398 509.615 108.593C512.108 110.811 514.623 113.019 517.127 115.237C517.985 115.993 518.834 116.76 519.662 117.537C521.215 118.978 522.758 120.439 524.302 121.891C524.363 121.942 524.414 122.013 524.476 122.064C527.818 124.926 531.16 127.798 534.502 130.65C534.952 131.038 535.401 131.028 535.8 130.588C536.567 129.74 537.313 128.871 537.998 127.972C540.113 125.182 542.178 122.34 544.293 119.55C546.808 116.239 549.383 112.978 551.908 109.667C553.88 107.081 556.006 104.607 557.723 101.817C558.49 100.58 559.655 99.5992 560.442 98.3728C561.986 95.9607 563.968 93.8961 565.573 91.5453C566.953 89.5216 568.506 87.641 570.121 85.8013C570.602 85.2494 570.959 84.5953 571.337 83.9718C572.462 82.0912 573.974 80.4559 574.792 78.3811C575.15 77.4714 575.589 76.6027 575.916 75.6828C576.581 73.8329 577.378 72.0647 578.38 70.368C579.207 68.978 579.861 67.4654 580.465 65.9629C581.149 64.2254 582.263 62.6616 582.611 60.781C582.672 60.4744 582.866 60.178 583.071 59.9225C584.093 58.6143 584.675 57.0709 585.248 55.5787C586.372 52.6147 587.517 49.6711 589.07 46.8911C589.111 46.8196 589.132 46.7378 589.152 46.6663C589.551 45.4295 589.878 44.1724 590.368 42.9664C590.828 41.8319 591.513 40.7996 591.973 39.6651C592.249 38.9803 592.525 38.3262 592.975 37.7231C594.222 36.0776 594.733 34.0743 595.571 32.2244C596.348 30.5278 596.981 28.7596 597.84 27.1038C598.3 26.2249 598.657 25.3459 598.964 24.4158C599.444 22.9542 599.843 21.4518 600.773 20.1742C600.967 19.9187 601.1 19.6018 601.202 19.2952C602.306 16.137 603.849 13.1628 605.137 10.0864C605.883 8.27731 606.66 6.47846 607.447 4.68984C607.876 3.71887 608.326 2.75813 608.827 1.81782C609.42 0.703766 610.176 0.683325 610.82 1.71562C611.484 2.78879 611.525 3.86196 610.84 4.93514C610.442 5.54838 610.074 6.18206 609.645 6.77486C609.164 7.43921 608.725 8.11377 608.643 8.97231C608.612 9.28915 608.469 9.59577 608.357 9.9024C607.948 11.0573 606.895 11.9261 606.803 13.173C606.711 14.3893 605.965 15.2785 605.556 16.3414C605.117 17.4759 604.534 18.5593 604.064 19.6836C603.686 20.583 603.4 21.5131 603.001 22.4023C601.018 26.8688 599.015 31.325 597.032 35.8016C596.705 36.5375 596.552 37.3654 596.194 38.0911C595.55 39.3993 594.814 40.6667 594.13 41.9647C593.864 42.4655 593.639 42.9766 593.383 43.4774C592.944 44.3462 592.77 45.3171 592.198 46.145C591.85 46.656 591.687 47.351 591.595 47.9847C591.401 49.4156 590.757 50.6421 589.908 51.7357C589.285 52.5329 588.784 53.3915 588.641 54.3318C588.386 55.9977 587.363 57.3264 586.914 58.8902C586.832 59.1866 586.597 59.4728 586.362 59.6772C585.442 60.4846 585.043 61.5169 584.931 62.7025C584.849 63.5202 584.583 64.2459 584.164 64.9817C583.367 66.3922 582.601 67.8129 582.202 69.438C581.895 70.6849 581.303 71.9216 580.557 72.9743C579.77 74.0782 579.514 75.3353 579.034 76.5311C578.073 78.9432 577.081 81.3553 575.998 83.7163C575.63 84.5135 574.986 85.1983 574.373 85.8422C573.811 86.4452 573.31 87.0687 572.932 87.8046C572.707 88.2338 572.451 88.6733 572.114 89.0106C570.203 90.9321 568.711 93.1909 567.137 95.3577C565.553 97.5347 563.733 99.5175 562.118 101.664C561.577 102.379 561.066 103.115 560.555 103.841C560.412 104.045 560.34 104.301 560.166 104.464C557.785 106.621 556.487 109.646 554.187 111.885C553.145 112.896 552.398 114.215 551.54 115.4C551.111 115.993 550.763 116.658 550.273 117.199C547.717 120.051 545.755 123.383 543.006 126.071C542.076 127.706 540.573 128.902 539.684 130.578C539.306 131.294 538.672 131.856 538.233 132.541C537.466 133.747 536.362 134.043 535.064 133.777C534.686 133.706 534.318 133.491 533.981 133.297C533.776 133.174 533.643 132.929 533.439 132.806C532.417 132.152 531.323 131.59 530.363 130.854C529.402 130.108 528.605 129.147 527.685 128.34C526.101 126.94 524.516 125.529 522.85 124.211C520.929 122.688 519.12 121.063 517.525 119.192C516.82 118.364 515.849 117.905 514.745 117.833C514.091 117.792 513.437 117.761 512.783 117.761C511.965 117.761 511.158 117.813 510.361 117.516C509.993 117.383 509.553 117.404 509.155 117.393C505.966 117.301 502.787 117.21 499.598 117.118C498.709 117.087 497.83 117.036 496.931 116.862C495.745 116.637 494.488 116.647 493.272 116.719C492.658 116.75 491.984 117.026 491.463 117.373C489.511 118.702 487.272 119.591 485.616 121.359C485.289 121.707 484.809 121.901 484.4 122.167C483.991 122.432 483.562 122.678 483.194 122.984C481.814 124.129 480.445 125.294 479.075 126.449C478.953 126.551 478.82 126.653 478.677 126.725C476.295 127.859 474.425 129.72 472.289 131.212C471.757 131.58 471.256 132.019 470.776 132.449C469.447 133.655 469.376 134.074 470.153 135.617C470.48 136.271 470.807 136.935 471.144 137.579C472.554 140.237 474.118 142.833 475.365 145.572C476.551 148.178 478.278 150.468 479.402 153.094C480.138 154.811 481.058 156.457 481.978 158.103C483.766 161.312 485.453 164.572 486.935 167.935C487.231 168.609 487.64 169.223 487.988 169.867C489.347 172.371 490.747 174.854 492.055 177.379C493.824 180.782 495.51 184.227 497.278 187.63C499.302 191.545 501.346 195.439 503.441 199.312C504.095 200.529 504.433 201.908 505.393 202.961C505.772 203.38 506.048 203.901 506.456 204.28C509.645 207.193 512.885 210.054 515.972 213.09C518.006 215.093 520.183 216.933 522.288 218.865C522.953 219.468 523.556 220.142 524.22 220.745C527.041 223.331 529.903 225.876 532.703 228.492C535.565 231.16 538.365 233.909 541.227 236.577C542.535 237.793 543.956 238.897 545.285 240.093C546.133 240.86 546.951 241.667 547.717 242.505C548.433 243.292 548.116 244.273 547.114 244.641C546.092 245.009 545.203 244.815 544.416 244.048C542.893 242.566 541.37 241.095 539.827 239.643C538.754 238.642 537.64 237.681 536.556 236.689C535.841 236.025 535.146 235.34 534.451 234.656C534.277 234.482 534.144 234.267 533.96 234.114C529.862 230.741 526.305 226.786 522.268 223.341C520.551 221.869 518.772 220.408 517.239 218.752C514.858 216.177 512.149 213.948 509.809 211.332C508.245 209.584 506.538 207.928 504.668 206.487C503.697 205.741 502.746 204.944 502.46 203.646C501.244 202.011 500.58 200.048 499.343 198.423C499.098 198.106 498.842 197.718 498.801 197.34C498.556 194.703 497.064 192.628 495.766 190.471C495.214 189.562 494.692 188.652 494.345 187.64C494.161 187.109 493.926 186.567 493.609 186.097C491.575 183.113 490.389 179.689 488.724 176.52C487.282 173.791 485.995 170.97 484.4 168.323C484.196 167.976 483.991 167.618 483.848 167.24C483.031 164.93 481.753 162.855 480.578 160.719C479.76 159.227 479.126 157.632 478.401 156.089C478.053 155.353 477.706 154.607 477.297 153.902C477.062 153.483 476.755 153.084 476.397 152.767C476.04 152.451 475.416 152.328 475.212 151.96C475.028 151.623 475.283 151.06 475.273 150.601C475.273 150.365 475.171 150.12 475.058 149.916C474.179 148.26 473.29 146.604 472.401 144.949C472.248 144.662 472.033 144.397 471.91 144.1C470.633 141.014 468.865 138.162 467.444 135.147C467.168 134.564 466.78 134.023 466.391 133.501C464.746 131.365 463.08 129.26 461.434 127.134C461.189 126.817 461.025 126.439 460.831 126.081C460.279 125.079 459.584 124.211 458.818 123.362C457.254 121.615 455.455 120.03 454.515 117.782C454.392 117.485 454.198 117.179 453.953 116.995C452.92 116.259 452.317 115.216 451.653 114.184C450.958 113.101 449.987 112.212 449.169 111.2C448.137 109.932 447.146 108.645 446.144 107.357C445.94 107.101 445.776 106.815 445.572 106.56C444.447 105.18 443.252 103.953 441.187 104.628L441.115 104.648ZM422.831 103.289C424.66 103.289 426.265 103.217 427.89 103.054C430.864 102.747 433.889 102.993 436.874 102.655C438.162 102.512 439.47 102.573 440.768 102.522C441.463 102.492 441.729 101.93 441.34 101.316C441.207 101.112 441.064 100.907 440.932 100.713C440.012 99.3744 438.908 98.1786 437.886 96.9316C436.547 95.3066 435.371 93.5486 434.104 91.8622C433.767 91.4125 433.389 90.9832 432.99 90.5846C432.663 90.2473 432.264 90.2678 431.907 90.5744C431.344 91.0445 430.752 91.484 430.241 92.0053C427.195 95.1635 424.159 98.3319 421.144 101.521C420.766 101.919 420.49 102.441 420.204 102.921C420.173 102.982 420.316 103.248 420.378 103.248C421.267 103.279 422.156 103.289 422.831 103.299V103.289ZM510.351 115.308C510.514 115.308 510.698 115.329 510.831 115.278C511.035 115.196 511.311 115.073 511.383 114.9C511.444 114.726 511.342 114.409 511.199 114.266C510.218 113.285 509.277 112.263 508.204 111.394C506.937 110.372 505.557 109.493 504.423 108.307C504.106 107.98 503.687 107.97 503.319 108.256C501.356 109.84 499.098 111.026 497.309 112.845C496.972 113.183 496.471 113.346 496.103 113.663C495.96 113.786 495.868 114.133 495.939 114.307C496.001 114.481 496.287 114.583 496.481 114.705C496.542 114.746 496.634 114.746 496.716 114.746C501.101 114.746 505.496 114.644 509.86 115.298C510.023 115.319 510.187 115.298 510.351 115.298V115.308Z" fill="#212633"/>
<path id="Vector_13" d="M318.702 294.191C318.559 294.038 318.263 293.844 318.181 293.578C317.987 292.934 318.017 292.27 318.549 291.759C319.05 291.278 319.274 290.726 319.315 290.031C319.346 289.469 319.591 288.927 319.683 288.376C319.785 287.742 320.634 287.466 320.399 286.658C320.174 285.892 320.889 285.309 320.961 284.584C321.022 283.94 321.083 283.286 321.247 282.662C321.339 282.294 321.543 281.824 321.85 281.661C322.484 281.303 322.8 280.935 322.77 280.148C322.76 279.739 323.128 279.248 323.455 278.911C324.221 278.114 324.436 277.194 324.068 276.213C323.802 275.508 323.874 274.945 324.323 274.394C324.824 273.78 324.834 273.044 324.967 272.319C325.018 272.033 325.284 271.542 325.448 271.542C326.572 271.562 326.357 271.031 326.01 270.377C325.948 270.264 326.01 270.06 326.061 269.907C326.735 267.903 327.42 265.91 328.095 263.917C328.381 263.069 328.657 262.221 328.902 261.362C329.096 260.667 329.495 260.217 330.18 260.013C330.722 259.86 331.263 259.645 331.815 259.543C332.52 259.41 333.062 260.054 332.899 260.769C332.868 260.933 332.858 261.107 332.776 261.24C332.122 262.292 331.948 263.529 331.468 264.623C330.517 266.789 329.802 269.038 329.004 271.256C328.156 273.627 327.144 275.947 326.347 278.339C325.468 280.965 324.231 283.439 323.496 286.117C322.872 288.375 321.84 290.532 320.951 292.719C320.583 293.619 319.755 294.16 318.722 294.201L318.702 294.191Z" fill="#212633"/>
<path id="Vector_14" d="M125.98 348.995C126.062 348.974 126.144 348.923 126.215 348.943C126.369 348.974 126.543 349.015 126.645 349.117C126.686 349.158 126.614 349.434 126.532 349.485C125.49 350.109 124.457 350.742 123.374 351.304C123.016 351.488 122.577 351.427 122.27 351.059C121.974 350.712 121.984 350.303 122.137 349.914C122.464 349.087 122.812 348.259 123.19 347.451C123.998 345.673 124.774 343.884 125.653 342.136C126.778 339.888 127.83 337.598 129.098 335.421C129.711 334.369 130.13 333.214 130.641 332.11C130.845 331.67 130.989 331.18 131.275 330.791C132.665 328.85 133.462 326.632 134.351 324.444C134.903 323.095 135.629 321.828 136.273 320.52C136.589 319.866 136.947 319.211 137.182 318.527C137.509 317.566 138.215 317.106 139.114 316.83C139.819 316.615 140.453 317.249 140.197 317.975C139.901 318.813 139.513 319.62 139.155 320.438C138.399 322.145 137.693 323.862 136.712 325.456C136.457 325.875 136.211 326.294 135.997 326.734C134.412 329.933 132.849 333.142 131.275 336.352C130.375 338.171 129.496 340 128.536 341.779C127.381 343.925 126.624 346.266 125.193 348.269C125.081 348.432 125.091 348.749 125.152 348.954C125.255 349.281 125.531 349.117 125.756 349.066C125.837 349.046 125.909 349.015 125.991 348.995H125.98Z" fill="#212633"/>
<path id="Vector_15" d="M211.507 324.087C212.805 324.035 213.418 324.373 213.827 325.058C214.87 326.795 215.902 328.543 216.955 330.28C217.589 331.323 218.232 332.355 218.897 333.377C220.133 335.278 221.421 337.149 222.638 339.07C223.241 340.021 223.67 341.073 224.242 342.044C224.978 343.312 225.775 344.538 226.542 345.775C227.779 347.788 229.015 349.792 230.242 351.805C230.405 352.081 230.507 352.398 230.671 352.684C231.008 353.277 230.783 353.778 230.446 354.268C230.221 354.595 229.864 354.718 229.628 354.493C229.22 354.095 228.79 353.716 228.474 353.256C227.727 352.193 227.063 351.069 226.337 349.996C225.653 348.984 224.835 348.054 224.242 346.991C222.045 343.005 219.316 339.346 217.067 335.391C216.015 333.551 214.972 331.711 213.582 330.096C213.378 329.861 213.214 329.555 213.112 329.258C212.805 328.318 212.335 327.521 211.558 326.836C211.119 326.448 210.965 325.712 210.761 325.109C210.598 324.628 210.996 324.117 211.507 324.066C211.671 324.046 211.834 324.046 211.507 324.066V324.087Z" fill="#212633"/>
<path id="Vector_16" d="M114.318 35.2702C114.114 34.1868 114.278 33.5225 114.922 33.0217C115.392 32.6537 116.117 32.7048 116.393 33.2159C116.659 33.7065 116.904 34.2277 117.047 34.7592C117.231 35.4542 117.303 36.1799 117.395 36.8953C117.446 37.253 117.078 37.713 116.7 37.7334C116.301 37.7641 115.892 37.7743 115.504 37.713C114.819 37.6005 114.359 37.0895 114.318 36.3945C114.288 35.9141 114.318 35.4338 114.318 35.26V35.2702Z" fill="#212633"/>
</g>
</g>
</g>
</g>
<defs>
<clipPath id="clip0_13682_1036">
<rect width="366" height="366" fill="white"/>
</clipPath>
</defs>
</svg>
