<svg width="364" height="364" viewBox="0 0 364 364" fill="none" xmlns="http://www.w3.org/2000/svg">
<g clip-path="url(#clip0_16038_590)">
<path d="M105.419 44.3102C107.946 44.3493 110.468 44.3829 112.994 44.422C113.199 44.4267 113.452 44.3365 113.612 44.4264C116.287 45.8568 119.267 44.5976 122.01 45.3872C122.758 45.6036 123.49 45.8733 124.24 46.0847C124.585 46.1818 124.948 46.2157 125.308 46.2391C125.507 46.2532 125.731 46.1142 125.916 46.1618C129.71 47.0737 133.733 46.3029 137.465 47.8965C138.556 48.3655 139.991 48.2273 141.237 48.0763C142.321 47.9407 143.227 47.9799 144.22 48.5026C144.901 48.8617 145.777 48.862 146.575 48.9586C147.547 49.0762 148.523 49.1641 149.497 49.2167C150.467 49.2736 151.442 49.281 152.412 49.2927C152.944 49.3017 153.481 49.2259 154.008 49.2796C155.479 49.4325 156.958 49.5611 158.41 49.8324C159.542 50.0398 160.623 50.5026 161.751 50.7448C162.702 50.9505 163.688 50.9993 164.66 51.1169C166.326 51.3185 167.992 51.5202 169.661 51.702C170.962 51.8443 172.265 51.9718 173.568 52.0944C174.653 52.1954 175.809 52.0838 176.808 52.4311C178.3 52.9487 179.746 53.0583 181.315 53.0268C183.398 52.9871 185.486 53.3655 187.572 53.5878C188.595 53.6965 189.619 53.8455 190.639 54.0193C191.364 54.1423 192.079 54.3445 192.801 54.4972C193.355 54.6146 193.915 54.7276 194.473 54.8153C195.54 54.9746 196.601 55.1483 197.677 55.2432C198.906 55.3518 200.14 55.3903 201.376 55.4443C201.786 55.4638 202.208 55.3891 202.614 55.4383C207.434 56.0266 212.255 56.6 217.064 57.2422C219.361 57.5504 221.628 58.1065 223.935 58.3806C226.103 58.6379 228.299 58.6169 230.475 58.8097C231.829 58.9284 233.167 59.2211 234.519 59.3998C235.297 59.5039 236.095 59.6458 236.859 59.5672C238.046 59.4443 239.164 59.3582 240.196 60.1371C240.413 60.2992 240.822 60.2028 241.147 60.222C241.682 60.2515 242.257 60.1601 242.75 60.3254C244.747 60.9947 246.754 61.2476 248.841 60.8461C249.155 60.7836 249.546 60.7957 249.821 60.9346C251.81 61.9248 253.975 61.4574 256.043 61.7479C258.536 62.0999 261.005 62.6552 263.489 63.0816C264.332 63.2289 265.203 63.3896 266.038 63.3046C267.714 63.1352 269.344 63.0155 270.919 63.8096C271.307 64.0076 271.799 64.0218 272.249 64.0813C275.107 64.4574 277.965 64.8284 280.826 65.1846C281.312 65.2434 281.842 65.3076 282.3 65.1869C283.376 64.8996 284.273 65.2195 285.294 65.5593C287.398 66.2566 289.578 66.792 291.761 67.1719C294.841 67.7056 297.632 68.7577 299.93 70.9323C300.02 71.0187 300.103 71.1243 300.213 71.1728C304.313 72.9668 307.107 76.3684 310.144 79.4222C311.969 81.2579 313.544 83.3802 315.022 85.5109C316.175 87.1696 317.312 88.9572 317.877 90.8567C318.313 92.328 319.231 93.7671 319.249 95.198C319.28 97.893 320.244 100.319 320.741 102.869C320.931 103.833 320.724 104.879 320.673 105.884C320.648 106.339 320.549 106.785 320.524 107.239C320.485 107.939 320.621 108.685 320.436 109.341C319.751 111.718 320.229 114.126 320.068 116.496C319.925 118.591 319.923 120.729 319.202 122.82C318.7 124.268 318.992 125.968 318.792 127.539C318.594 129.094 318.167 130.622 317.954 132.176C317.778 133.428 317.662 134.712 317.706 135.969C317.774 137.743 317.769 139.448 316.715 141.001C316.458 141.382 316.236 142.009 316.371 142.393C317.016 144.257 316.248 145.899 315.78 147.608C315.583 148.319 315.482 149.071 315.423 149.809C315.15 153.267 315.178 156.776 314.572 160.169C314.035 163.188 313.98 166.179 313.887 169.196C313.868 169.722 313.812 170.314 313.558 170.751C312.032 173.379 312.41 176.287 312.208 179.119C312.101 180.671 312.044 182.264 311.647 183.755C311.209 185.422 310.732 186.995 311.198 188.756C311.374 189.422 311.077 190.211 310.998 190.946C310.871 192.122 310.743 193.304 310.611 194.48C310.556 194.932 310.512 195.379 310.448 195.829C310.137 197.894 309.606 199.953 309.567 202.021C309.534 203.672 309.441 205.23 308.817 206.764C308.673 207.124 308.584 207.611 308.703 207.958C309.064 209.012 309.057 209.982 308.452 210.945C308.352 211.109 308.258 211.385 308.326 211.529C308.972 212.93 308.431 214.072 307.713 215.263C307.443 215.713 307.526 216.397 307.501 216.978C307.393 219.203 307.31 221.427 307.211 223.653C307.206 223.738 307.244 223.838 307.207 223.899C306.077 226.001 306.343 228.377 305.911 230.614C305.853 230.924 305.806 231.275 305.891 231.572C306.334 233.105 305.91 234.528 305.407 235.946C305.3 236.25 305.166 236.56 305.148 236.875C305.056 238.72 305.102 240.582 304.896 242.408C304.588 245.123 303.89 247.81 303.768 250.527C303.669 252.758 303.397 254.884 302.641 256.97C302.491 257.38 302.421 257.915 302.549 258.317C303.119 260.092 302.349 261.628 301.948 263.28C301.621 264.609 301.641 266.065 301.761 267.443C301.921 269.324 301.452 270.997 300.891 272.765C300.339 274.495 300.19 276.433 300.26 278.268C300.353 280.91 300.588 283.499 299.025 285.855C298.834 286.144 298.872 286.576 298.774 286.932C298.414 288.246 298.028 289.558 297.683 290.874C297.292 292.356 297.118 293.92 296.527 295.312C295.715 297.236 294.626 299.046 293.608 300.885C292.953 302.063 292.221 303.202 291.518 304.354C291.304 304.706 291.129 305.112 290.835 305.384C289.103 306.975 287.344 308.533 285.595 310.102C285.504 310.181 285.355 310.249 285.328 310.351C284.828 312.152 283.225 312.552 281.794 313.188C281.311 313.402 280.907 313.785 280.446 314.062C279.545 314.601 278.632 315.125 277.723 315.649C277.333 315.873 276.897 316.032 276.538 316.295C274.792 317.578 272.909 318.467 270.694 318.475C270.492 318.476 270.276 318.515 270.087 318.583C268.418 319.151 266.775 320.089 265.075 320.21C262.379 320.407 259.676 321.202 256.923 320.461C256.182 320.261 255.325 320.484 254.527 320.513C253.718 320.541 252.904 320.659 252.108 320.583C250.636 320.44 249.116 320.361 247.719 319.926C246.226 319.458 244.781 319.299 243.235 319.348C242.362 319.373 241.485 318.965 240.596 318.827C239.673 318.685 238.732 318.642 237.798 318.539C237.113 318.466 236.431 318.363 235.747 318.276C235.197 318.209 234.642 318.137 234.088 318.095C233.889 318.081 233.637 318.247 233.48 318.172C231.629 317.299 229.658 318.243 227.782 317.775C225.922 317.308 224.054 316.861 222.187 316.403C221.825 316.314 221.465 316.175 221.095 316.151C218.899 316 216.701 315.875 214.503 315.74C214.419 315.73 214.328 315.769 214.255 315.75C211.768 315.017 209.195 314.947 206.635 314.813C205.275 314.739 203.905 314.709 202.567 314.497C200.929 314.233 199.321 313.797 197.699 313.435C197.537 313.4 197.348 313.302 197.216 313.351C194.856 314.188 192.543 313.093 190.201 313.192C189.953 313.202 189.678 313.189 189.464 313.092C187.03 311.958 184.366 312.304 181.827 311.876C179.947 311.563 178.082 311.136 176.201 310.833C175.348 310.695 174.45 310.591 173.601 310.7C172.298 310.869 171.159 310.797 169.883 310.24C168.659 309.709 167.161 309.82 165.785 309.638C164.318 309.446 162.857 309.214 161.387 309.051C159.873 308.883 158.342 308.808 156.829 308.635C155.678 308.496 154.54 308.252 153.393 308.083C152.869 308.01 152.27 307.842 151.812 308.013C150.441 308.526 149.248 308.201 147.962 307.688C147.155 307.369 146.205 307.405 145.311 307.307C143.095 307.074 140.875 306.87 138.655 306.627C136.143 306.353 133.634 306.039 131.118 305.75C130.622 305.69 130.071 305.794 129.636 305.606C127.944 304.873 126.213 304.955 124.417 304.914C121.903 304.856 119.314 304.835 116.891 303.862C116.325 303.633 115.671 303.503 115.064 303.531C113.066 303.621 111.097 303.674 109.23 302.719C108.879 302.541 108.34 302.752 107.892 302.713C107.006 302.636 106.128 302.489 105.246 302.418C104.324 302.347 103.37 302.201 102.468 302.338C101.32 302.511 100.377 302.317 99.3941 301.71C98.8507 301.377 98.0488 301.185 97.4315 301.296C95.1066 301.714 92.8884 301.541 90.7394 300.547C90.4489 300.411 90.1073 300.365 89.7844 300.331C86.8296 300.048 83.8809 299.717 80.9247 299.53C77.7739 299.33 74.8183 298.514 71.8936 297.361C70.5774 296.844 69.3517 296.329 68.1663 295.521C66.93 294.677 65.3925 294.285 64.0236 293.621C63.3631 293.3 62.7837 292.807 62.1767 292.377C61.075 291.584 59.9215 290.846 58.9012 289.963C57.2201 288.512 55.1982 287.216 54.1221 285.381C53.1671 283.751 52.1305 282.338 50.8063 281.055C50.6079 280.865 50.414 280.555 50.4105 280.293C50.3669 278.2 48.9286 276.738 48.0976 274.998C47.3916 273.514 46.8464 271.949 46.2307 270.426C45.859 269.505 45.4879 268.58 45.1008 267.663C44.4553 266.136 44.1239 264.592 44.5758 262.936C44.6907 262.528 44.6739 262.043 44.5837 261.624C44.0928 259.402 43.6568 257.266 44.1859 254.891C44.9518 251.472 45.3821 247.958 45.6446 244.458C45.771 242.748 46.1346 241.157 46.4602 239.506C46.909 237.211 46.8121 234.81 46.9614 232.454C47.0098 231.68 46.934 230.851 47.1765 230.135C47.9891 227.703 48.0176 225.182 48.3503 222.681C48.6175 220.681 48.1139 218.523 49.2991 216.629C49.5491 216.227 49.3232 215.515 49.3061 214.95C49.2781 213.975 49.1211 212.985 49.2363 212.034C49.8129 207.435 51.0925 202.932 51.1403 198.254C51.1545 196.681 52.0537 195.155 51.3353 193.524C51.2165 193.258 51.4862 192.818 51.5647 192.46C51.7644 191.559 51.9789 190.659 52.1544 189.75C52.3904 188.505 52.5924 187.252 52.8037 186.005C52.9085 185.389 53.0424 184.781 53.0975 184.159C53.3197 181.741 53.4675 179.314 53.7491 176.904C53.8816 175.768 54.2526 174.655 54.5146 173.53C54.5792 173.246 54.7737 172.928 54.7015 172.693C54.0613 170.623 54.8527 168.616 55.0256 166.605C55.2973 163.403 55.967 160.239 56.4284 157.051C56.529 156.343 56.3917 155.607 56.4582 154.891C56.5799 153.553 56.7717 152.218 56.9337 150.879C56.9817 150.482 57.1485 150.06 57.0672 149.693C56.7192 148.036 57.052 146.492 57.6512 144.949C57.8837 144.359 57.9263 143.675 57.9646 143.025C58.0288 141.871 57.9293 140.697 58.0673 139.557C58.4051 136.765 58.8421 133.986 59.2152 131.194C59.3043 130.541 59.2546 129.871 59.304 129.213C59.3536 128.595 59.2539 127.838 59.5738 127.399C60.4661 126.179 60.0368 124.945 60.0738 123.642C60.1452 121.18 60.837 118.749 61.08 116.283C61.3713 113.335 62.2963 110.514 62.2576 107.466C62.2206 104.363 63.08 101.253 63.5467 98.1449C63.6699 97.3348 63.8228 96.5283 63.9069 95.7085C64.0102 94.73 64.0584 93.7498 64.1214 92.7715C64.1408 92.4871 64.1204 92.1979 64.1143 91.9154C64.0976 90.8067 63.9667 89.6842 64.0789 88.591C64.3618 85.8786 64.6553 83.1625 65.1305 80.4834C65.5019 78.3703 66.2032 76.3172 66.654 74.2137C67.0926 72.169 67.7696 70.2338 68.9176 68.4812C69.5723 67.4789 70.2606 66.5309 70.3069 65.2336C70.3224 64.7727 70.797 64.302 71.1293 63.8844C72.4542 62.2086 74.2992 60.9328 74.9971 58.7837C75.0357 58.6727 75.1201 58.5571 75.2102 58.4775C76.6126 57.2839 78.0193 56.0959 79.4304 54.9135C79.654 54.7293 79.9745 54.6172 80.1136 54.3825C81.3668 52.3006 83.6081 51.4098 85.3837 49.9596C85.6351 49.7535 85.9405 49.5994 86.248 49.4706C87.414 48.9828 88.6885 48.6793 89.7404 48.0118C91.741 46.7397 93.9165 45.9768 96.1809 45.4761C98.828 44.8909 101.512 44.4964 104.192 44.0611C104.587 43.9982 105.012 44.1452 105.428 44.1956C105.423 44.2353 105.424 44.2706 105.424 44.3108L105.419 44.3102ZM259.206 315.777C261.96 315.265 265.169 315.483 268.029 313.927C268.416 313.718 268.907 313.485 269.313 313.539C272.481 313.978 274.316 311.202 276.97 310.391C278.104 310.046 279.068 309.111 280.088 308.414C280.439 308.17 280.727 307.833 281.049 307.54C281.728 306.917 282.425 306.313 283.091 305.679C284.422 304.406 285.845 303.205 287.035 301.815C287.956 300.734 288.627 299.427 289.332 298.179C290.236 296.573 291.317 294.999 291.868 293.269C292.803 290.364 293.379 287.35 294.116 284.381C294.145 284.264 294.205 284.145 294.278 284.043C295.557 282.327 295.241 280.407 295.233 278.434C295.224 275.978 295.707 273.522 296.039 271.072C296.195 269.908 296.649 268.776 296.694 267.614C296.785 265.276 296.169 262.883 297.518 260.682C297.706 260.372 297.614 259.883 297.653 259.481C297.8 257.889 297.922 256.299 298.104 254.711C298.242 253.53 298.494 252.364 298.622 251.182C298.786 249.617 298.791 248.033 299.025 246.477C299.398 243.982 300.277 241.497 300.23 239.017C300.194 237.025 300.384 235.247 300.79 233.304C301.115 231.744 300.823 229.877 301.088 228.144C301.201 227.418 301.116 226.658 301.259 225.941C301.543 224.547 301.797 223.159 302.007 221.756C302.452 218.786 301.938 215.671 303.209 212.821C303.284 212.654 303.172 212.419 303.186 212.215C303.322 210.264 303.463 208.309 303.613 206.361C303.622 206.241 303.701 206.13 303.75 206.015C304.382 204.542 304.684 203.039 304.494 201.412C304.405 200.651 304.582 199.848 304.702 199.067C304.948 197.447 305.249 195.839 305.49 194.218C305.703 192.795 305.88 191.368 306.058 189.94C306.107 189.539 306.096 189.13 306.11 188.724C306.163 187.287 306.102 185.831 306.304 184.411C306.502 183.027 307.151 181.702 307.283 180.319C307.54 177.649 307.545 174.953 307.728 172.269C307.782 171.496 308.07 170.736 308.248 169.973C308.473 168.984 308.808 168.003 308.889 167.002C309.039 165.184 308.934 163.345 309.113 161.536C309.37 158.996 309.771 156.469 310.152 153.945C310.619 150.882 310.079 147.693 311.388 144.728C311.583 144.288 311.315 143.667 311.383 143.147C311.56 141.77 311.786 140.404 312.027 139.035C312.202 138.045 312.649 137.053 312.606 136.082C312.531 134.372 312.478 132.731 312.999 131.043C313.453 129.579 314.076 128.05 313.416 126.431C313.304 126.155 313.411 125.771 313.47 125.446C314.013 122.544 314.569 119.648 315.106 116.75C315.175 116.386 315.251 115.973 315.146 115.633C314.125 112.341 316.002 109.142 315.452 105.866C315.419 105.681 315.596 105.471 315.605 105.271C315.637 104.505 315.757 103.72 315.626 102.974C315.273 100.945 315.093 98.815 314.312 96.9498C313.598 95.2435 312.935 93.6089 312.792 91.7605C312.772 91.5066 312.488 91.276 312.326 91.0301C311.138 89.2464 310.068 87.3662 308.73 85.7002C307.082 83.6445 305.244 81.7419 303.433 79.8275C302.665 79.0153 301.677 78.4127 300.931 77.588C300.123 76.6954 299.269 76.0186 298.058 75.7564C297.573 75.6523 297.094 75.2825 296.731 74.9166C295.221 73.421 293.428 72.5248 291.342 72.1315C290.043 71.8888 288.77 71.5135 287.486 71.1871C287.086 71.0833 286.702 70.886 286.3 70.8423C284.531 70.6535 282.747 70.5532 280.984 70.3247C278.418 69.9891 275.878 69.395 273.306 69.2347C270.524 69.064 267.879 67.6372 264.987 68.4141C264.39 68.5732 263.672 68.3102 263.015 68.2056C259.804 67.6712 256.599 67.0921 253.382 66.6023C252.364 66.4489 251.309 66.5577 250.278 66.4731C248.205 66.3028 246.138 66.0928 244.07 65.8828C242.484 65.7211 240.768 65.8505 239.36 65.2576C237.901 64.6383 236.474 64.7473 235.033 64.5528C232.993 64.2808 231.015 63.9106 228.892 63.9455C225.771 64.0004 222.632 63.2885 219.51 62.8503C217.214 62.5273 214.941 62.0158 212.642 61.7677C208.28 61.3003 203.893 61.0461 199.531 60.5433C195.775 60.1089 192.043 59.4662 188.306 58.8731C187.328 58.7196 186.382 58.268 185.403 58.2049C183.436 58.0775 181.452 58.1695 179.482 58.0718C178.541 58.0284 177.606 57.7694 176.671 57.5959C175.791 57.429 174.893 57.0286 174.034 57.1057C171.877 57.2974 169.826 57.1146 167.784 56.3545C167.043 56.0786 166.174 56.1043 165.358 56.0709C164.121 56.0219 162.739 56.3878 161.669 55.9565C159.375 55.04 157.043 54.7629 154.638 54.6781C153.992 54.6552 153.355 54.4322 152.714 54.405C151.693 54.3569 150.672 54.4346 149.652 54.3866C148.472 54.3243 147.285 54.236 146.119 54.0596C144.903 53.8773 143.703 53.5661 142.494 53.3242C142.185 53.2616 141.868 53.2232 141.553 53.2003C139.744 53.0618 137.874 53.1675 136.139 52.7413C134.053 52.2273 132.077 51.3795 129.869 52.0379C129.515 52.1409 129.041 51.9779 128.66 51.8413C127.397 51.3915 126.187 51.0741 124.788 51.4482C124.143 51.6216 123.227 51.2944 122.592 50.9259C121.178 50.1007 119.742 49.9471 118.17 50.2097C117.452 50.3289 116.656 50.4138 115.975 50.2257C113.725 49.6063 111.44 49.36 109.127 49.3467C108.177 49.3424 107.185 49.5946 106.277 49.4092C103.979 48.94 101.848 49.2103 99.7875 50.3092C99.5186 50.4527 99.1331 50.4362 98.8096 50.4071C96.8751 50.2183 95.1402 50.8334 93.4738 51.7133C92.0499 52.4615 90.6628 53.2796 89.2463 54.0489C87.8892 54.7852 86.3708 55.3157 85.1937 56.2699C83.1525 57.9194 81.3173 59.8202 79.4087 61.6215C79.2327 61.7864 79.1383 62.0265 78.9978 62.2308C78.5006 62.9302 78.0449 63.6598 77.493 64.3124C76.3841 65.6169 74.8919 66.6386 74.8229 68.6224C74.8066 69.048 74.3342 69.4586 74.0769 69.8803C73.4496 70.906 72.7224 71.8845 72.2242 72.9661C71.8347 73.8144 71.732 74.7879 71.4952 75.705C71.0009 77.6272 70.4676 79.5396 70.0217 81.4777C69.4035 84.1747 70.2613 87.0654 68.973 89.6863C68.887 89.857 68.8601 90.1204 68.924 90.2992C69.7572 92.6033 68.6218 94.8755 68.836 97.1803C68.9073 97.9636 68.4762 98.7817 68.3524 99.5967C67.9455 102.294 67.2201 105.003 67.2717 107.696C67.3349 110.998 66.5449 114.117 65.9675 117.267C65.52 119.718 64.7876 122.069 65.2847 124.614C65.4718 125.563 65.556 126.78 65.111 127.546C64.2396 129.05 64.3024 130.653 64.1277 132.221C63.7054 136.044 62.6037 139.784 62.9345 143.702C63.0248 144.744 62.5055 145.834 62.3047 146.911C62.1835 147.58 62.1205 148.267 62.0581 148.949C61.9661 149.959 61.9236 150.975 61.8167 151.983C61.7392 152.748 61.5266 153.507 61.4943 154.273C61.4519 155.289 61.653 156.33 61.5175 157.324C61.0772 160.506 60.459 163.66 60.049 166.84C59.8109 168.683 59.8307 170.557 59.7414 172.417C59.6197 174.837 58.2042 177.096 58.856 179.609C58.8667 179.646 58.8414 179.688 58.8311 179.732C58.5794 181.271 58.3278 182.81 58.0811 184.35C57.9166 185.376 57.7627 186.399 57.5982 187.425C57.4507 188.353 57.0673 189.318 57.191 190.208C57.455 192.101 56.301 193.903 56.9479 195.793C57.0144 195.992 56.8395 196.273 56.7952 196.514C56.4745 198.291 56.1036 200.067 55.8523 201.853C55.6082 203.579 55.707 205.382 55.2588 207.048C54.5353 209.742 53.8586 212.382 54.5104 215.187C54.5892 215.534 54.5003 215.935 54.4361 216.3C54.0625 218.513 53.3829 220.72 53.3409 222.938C53.2561 227.506 51.6761 231.872 51.7072 236.439C51.7124 236.977 51.6916 237.523 51.6175 238.053C51.4343 239.358 51.2115 240.66 51.0035 241.962C50.9001 242.609 50.7824 243.249 50.7088 243.899C50.3644 246.744 50.1682 249.613 49.6713 252.431C49.1592 255.332 48.4641 258.165 49.6262 261.078C49.8696 261.685 49.9635 262.532 49.7365 263.118C49.225 264.435 49.5063 265.52 50.1533 266.66C50.4971 267.27 50.8121 267.952 50.9058 268.632C51.2433 271.083 52.7155 272.971 53.8872 275.014C54.2989 275.728 54.839 276.463 54.9468 277.235C55.075 278.171 55.5024 278.756 56.1965 279.258C57.2373 280.013 58.0135 280.917 58.2326 282.266C58.2967 282.651 58.6774 283.039 59.0069 283.311C60.9327 284.902 62.808 286.578 64.8601 287.998C66.3922 289.059 68.161 289.786 69.8268 290.656C70.2291 290.866 70.6523 291.028 71.0608 291.228C72.0441 291.71 73.014 292.219 74.0102 292.677C74.8401 293.054 75.6909 293.383 76.5422 293.708C77.0424 293.899 77.6443 294.289 78.0533 294.152C80.1027 293.474 81.9222 294.822 83.9174 294.676C85.2169 294.581 86.5472 294.898 87.8637 295.037C90.0251 295.264 92.1846 295.465 94.2063 296.389C94.6594 296.594 95.3293 296.63 95.8026 296.461C99.1803 295.285 102.284 297.909 105.63 297.127C105.894 297.063 106.233 297.376 106.55 297.465C106.9 297.562 107.264 297.637 107.627 297.666C108.569 297.739 109.597 297.567 110.433 297.889C112.12 298.546 113.841 298.377 115.563 298.535C117.807 298.742 120.027 299.232 122.268 299.553C123.356 299.71 124.465 299.774 125.563 299.846C126.342 299.895 127.145 299.786 127.904 299.923C129.002 300.116 130.053 300.581 131.152 300.729C133.945 301.107 136.754 301.381 139.556 301.68C141.488 301.889 143.421 302.047 145.351 302.276C146.735 302.443 148.104 302.685 149.485 302.877C149.96 302.944 150.442 302.993 150.92 302.995C151.614 302.999 152.372 302.758 152.991 302.964C156.644 304.176 160.603 303.226 164.224 304.61C164.585 304.749 165.049 304.614 165.458 304.644C167.298 304.786 169.132 304.927 170.967 305.109C171.275 305.141 171.555 305.407 171.869 305.51C172.169 305.612 172.488 305.681 172.803 305.698C174.207 305.773 175.633 305.719 177.018 305.912C180.79 306.429 184.487 307.525 188.357 307.224C188.743 307.195 189.146 307.44 189.547 307.539C190.651 307.813 191.747 308.237 192.87 308.313C194.287 308.414 195.729 308.216 197.157 308.183C197.52 308.177 197.891 308.272 198.247 308.365C199.168 308.617 200.07 309.023 201.002 309.136C203.58 309.453 206.172 309.656 208.759 309.904C210.226 310.046 211.69 310.168 213.155 310.33C214.004 310.423 214.845 310.625 215.697 310.698C217.754 310.872 219.817 311 221.882 311.15C221.921 311.155 221.965 311.17 221.998 311.189C224.158 312.175 226.714 311.548 228.805 312.853C228.983 312.965 229.355 312.97 229.524 312.859C231.598 311.485 233.71 312.908 235.761 312.965C237.205 313.009 238.821 313.33 240.356 313.541C240.806 313.606 241.242 313.744 241.691 313.819C242.732 313.985 243.776 314.136 244.813 314.292C245.895 314.458 247.049 314.442 248.05 314.825C249.934 315.556 251.846 315.43 253.771 315.406C254.542 315.394 255.316 315.151 256.075 315.202C257.023 315.267 257.952 315.535 259.201 315.772L259.206 315.777Z" fill="black"/>
<path d="M102.571 189.181C100.786 189.211 99.1037 189.39 97.458 189.226C94.6687 188.949 91.9003 188.458 89.1235 188.036C88.9505 188.01 88.738 187.854 88.6518 187.692C87.8928 186.273 86.8242 184.916 86.4997 183.398C86.0257 181.202 86.0736 178.894 85.9345 176.634C85.8834 175.767 85.7807 174.869 85.9472 174.034C86.3664 171.942 86.8309 169.85 87.4746 167.815C87.7757 166.866 88.5085 166.049 89.0571 165.175C90.1241 163.468 91.1445 161.73 92.2861 160.072C92.6656 159.514 93.36 159.181 93.8892 158.717C94.5017 158.187 95.0544 157.57 95.71 157.101C96.4378 156.575 97.2203 156.097 98.0305 155.722C101.464 154.13 105.156 153.349 108.838 152.734C110.533 152.451 112.358 152.958 114.12 153.116C115.22 153.214 116.322 153.302 117.421 153.45C118.233 153.559 119.08 153.631 119.834 153.923C121.372 154.522 122.796 155.479 124.372 155.881C126.409 156.394 127.932 157.65 129.472 158.858C130.988 160.047 132.273 161.531 133.635 162.913C135.579 164.894 135.954 167.62 136.985 170.034C137.063 170.22 137.061 170.451 137.155 170.628C137.888 172.01 138.261 173.418 138.075 175.04C137.817 177.298 137.807 179.581 137.693 181.856C137.688 181.941 137.673 182.024 137.653 182.102C137.032 184.326 136.737 186.72 135.703 188.733C134.385 191.31 132.53 193.631 130.787 195.971C129.952 197.092 128.911 198.088 127.831 198.988C126.964 199.708 125.874 200.15 124.944 200.802C124.345 201.223 123.884 201.831 123.31 202.295C122.132 203.254 121.014 204.22 119.503 204.767C116.688 205.789 113.998 207.144 111.211 208.26C109.281 209.033 107.286 209.637 105.383 210.513C106.866 210.693 108.345 210.902 109.827 211.046C111.762 211.235 113.698 211.368 115.635 211.537C115.799 211.552 115.965 211.597 116.112 211.666C118.62 212.895 121.285 212.493 123.928 212.531C125.098 212.547 126.259 213.059 127.44 213.233C129.562 213.54 131.698 213.763 133.831 214.021L132.505 224.973C130.621 224.911 128.699 224.95 126.8 224.76C124.95 224.582 123.134 224.116 121.286 223.882C119.21 223.616 117.186 223.039 115.008 223.409C113.894 223.596 112.662 223.045 111.477 222.856C109.913 222.606 108.347 222.366 106.771 222.161C105.107 221.944 103.439 221.757 101.773 221.591C101.162 221.527 100.535 221.592 99.9204 221.518C98.1264 221.291 96.3342 221.049 94.5468 220.767C92.0092 220.364 89.4849 219.852 86.9351 219.509C85.4349 219.307 83.9059 219.343 82.3907 219.266C82.0709 219.247 81.7559 219.189 81.6567 219.177C81.7799 216.953 81.7528 214.807 82.0624 212.706C82.2789 211.208 82.9262 209.767 83.4236 208.319C83.486 208.135 83.781 207.984 83.9957 207.915C86.112 207.225 88.2439 206.573 90.3608 205.878C90.9845 205.672 91.5713 205.356 92.18 205.107C95.0899 203.93 98.0772 202.903 100.89 201.528C102.553 200.718 104.206 200.159 105.99 199.716C107.334 199.38 108.541 198.389 109.74 197.584C111.209 196.594 112.605 195.496 114.022 194.43C115.234 193.52 116.682 192.78 117.587 191.622C119.176 189.59 120.649 187.399 121.75 185.078C122.507 183.479 122.56 181.549 122.937 179.763C123.03 179.322 123.234 178.889 123.247 178.448C123.283 176.983 123.382 175.501 123.21 174.056C123.045 172.668 122.601 171.312 122.216 169.957C121.898 168.842 121.573 167.706 120.177 167.391C119.707 167.284 119.225 167.025 118.867 166.7C116.612 164.666 113.93 164.583 111.147 164.92C110.943 164.946 110.736 164.991 110.53 164.986C106.55 164.867 104.092 167.211 102.228 170.305C101.612 171.327 101.593 172.683 101.157 173.833C99.6832 177.699 100.402 181.574 101.113 185.423C101.363 186.771 102.117 188.024 102.59 189.188L102.571 189.181Z" fill="black"/>
<path d="M168.663 126.767C168.597 129.098 167.744 131.078 166.337 132.93C164.327 135.574 162.276 138.218 159.003 139.231C155.684 140.258 152.422 141.885 148.728 140.94C145.678 140.158 142.881 138.899 140.228 137.205C134.651 133.648 132.925 128.408 133.426 122.151C133.654 119.266 134.617 116.59 135.762 113.947C136.865 111.399 138.884 109.933 141.266 108.793C141.822 108.528 142.401 108.231 142.849 107.817C145.86 105.053 149.416 104.653 153.208 105.459C156.259 106.11 159.23 107.043 161.918 108.701C162.269 108.92 162.692 109.122 162.904 109.449C164.802 112.431 167.889 114.741 168.444 118.47C168.797 120.832 168.71 123.261 168.797 125.661C168.812 126.031 168.717 126.406 168.673 126.763L168.663 126.767ZM148.435 126.522C148.134 126.219 147.862 125.97 147.609 125.693C146.405 124.375 145.258 122.999 143.979 121.763C143.6 121.4 142.642 121.128 142.288 121.352C141.519 121.837 141.798 122.651 142.297 123.31C142.449 123.509 142.641 123.673 142.798 123.868C144.024 125.385 145.314 126.864 146.456 128.446C147.377 129.73 148.051 130.023 149.45 129.231C150.126 128.845 150.737 128.325 151.319 127.802C152.154 127.053 152.818 126.017 153.769 125.518C156.569 124.046 159.281 122.503 161.636 120.343C162.31 119.72 162.801 119.196 162.216 118.376C161.64 117.567 160.946 117.855 160.274 118.372C159.092 119.29 157.87 120.154 156.701 121.084C154.473 122.862 151.48 123.48 149.625 125.831C149.369 126.158 148.856 126.287 148.44 126.523L148.435 126.522Z" fill="black"/>
<path d="M111.194 136.805C110.121 136.479 109.271 136.271 108.463 135.967C107.028 135.426 105.564 134.932 104.21 134.225C103.126 133.661 102.106 132.904 101.211 132.066C99.9409 130.876 98.8259 129.529 97.6257 128.262C96.2743 126.83 95.495 125.162 95.1112 123.219C94.1016 118.131 94.5775 113.284 97.3077 108.811C98.0488 107.592 99.0306 106.423 100.152 105.553C102.208 103.951 104.417 102.533 106.624 101.14C108.776 99.7803 111.218 100.101 113.536 100.442C115.534 100.734 117.518 101.341 119.414 102.059C120.901 102.621 122.564 103.265 123.586 104.385C126.103 107.159 128.687 109.922 129.877 113.683C130.66 116.157 130.203 118.561 130.018 120.964C129.768 124.148 128.547 127.089 126.724 129.72C126.193 130.486 125.502 131.248 124.712 131.706C123.03 132.674 121.264 133.507 119.476 134.271C117.618 135.068 115.712 135.768 113.794 136.401C112.914 136.687 111.941 136.7 111.198 136.811L111.194 136.805ZM109.71 122.002C108.989 121.176 108.277 120.37 107.576 119.551C106.791 118.636 106.092 117.636 105.209 116.825C104.915 116.552 104.157 116.662 103.667 116.804C103.536 116.843 103.43 117.761 103.632 118.047C105.045 120.049 106.496 122.026 108.026 123.941C109.246 125.462 109.904 125.426 111.475 124.253C113.533 122.716 115.665 121.274 117.741 119.755C119.446 118.507 121.122 117.221 122.783 115.923C123.467 115.387 123.479 114.659 122.902 114.071C122.346 113.506 121.697 113.548 120.997 114.047C119.791 114.907 118.504 115.652 117.258 116.462C116.707 116.822 116.032 117.118 115.668 117.627C114.172 119.72 111.883 120.676 109.704 122.007L109.71 122.002Z" fill="black"/>
<path d="M167.195 203.43C170.214 204.555 173.144 205.498 175.942 206.742C177.799 207.57 179.498 207.63 181.348 206.934C183.325 206.187 185.295 205.334 187.351 204.898C191.477 204.024 195.376 204.818 198.874 207.218C200.421 208.281 202.059 208.715 203.923 208.614C206.521 208.476 208.98 209.03 211.122 210.582C212.588 211.65 214.037 211.855 215.636 210.907C216.314 210.506 217.117 210.316 217.768 209.882C220.581 208.009 223.311 208.732 226.034 210.062C226.741 210.409 227.473 210.765 228.067 211.264C229.519 212.491 231.016 212.713 232.786 211.976C235.99 210.653 239.136 210.939 242.126 212.679C244.8 214.235 247.708 214.944 250.747 215.367C253.048 215.686 255.339 216.169 257.579 216.787C258.514 217.046 259.428 217.725 260.116 218.442C260.943 219.297 260.696 220.007 259.591 220.451C259.099 220.649 258.548 220.753 258.018 220.764C253.619 220.866 249.219 220.882 244.818 221.033C242.892 221.102 241.312 220.312 239.889 219.27C238.383 218.162 237.118 218.215 235.557 219.143C231.219 221.722 226.606 221.631 221.959 220.158C221.232 219.929 220.381 219.308 220.089 218.649C219.452 217.219 218.42 217.094 217.142 217.221C215.863 217.348 214.581 217.51 213.295 217.53C210.718 217.581 208.388 216.957 206.428 215.11C205.945 214.654 204.914 214.318 204.317 214.507C200.106 215.834 196.177 214.251 192.165 213.509C192.008 213.48 191.834 213.419 191.706 213.318C189.855 211.852 187.833 212.306 185.761 212.674C182.085 213.316 178.431 214.237 174.643 213.733C171.92 213.368 169.327 212.798 167.489 210.443C167.21 210.087 166.359 210.009 165.803 210.068C162.404 210.426 159.123 211.216 155.99 212.653C153.63 213.736 151.205 213.613 148.91 212.325C146.964 211.234 146.819 209.732 148.644 208.449C149.568 207.801 150.721 207.423 151.82 207.073C155.222 205.99 158.621 204.882 162.075 203.993C163.727 203.564 165.494 203.596 167.191 203.419L167.195 203.43Z" fill="black"/>
<path d="M162.602 175.106C164.346 176.076 166.115 176.969 167.789 178.022C169.202 178.907 169.662 179.013 171.045 178.059C171.831 177.515 172.578 176.911 173.351 176.346C176.069 174.346 179.172 174.601 181.406 177.099C182.381 178.188 183.394 178.718 184.904 178.423C186.424 178.129 187.634 178.894 188.638 179.997C189.812 181.276 190.107 181.291 191.389 180.179C192.08 179.578 192.776 178.983 193.472 178.393C194.676 177.377 195.377 177.246 196.718 178.132C197.641 178.742 198.443 179.558 199.217 180.356C199.798 180.955 200.274 181.098 201.048 180.653C204.612 178.6 204.611 178.69 207.884 181.083C208.943 181.855 210.308 182.257 211.581 182.673C212.96 183.126 214.391 183.4 215.803 183.752C216.873 184.017 217.348 184.834 217.604 185.791C217.91 186.92 217.218 187.862 216.052 188.013C213.793 188.308 211.515 188.5 209.289 188.935C207.582 189.272 206.395 188.685 205.351 187.462C204.377 186.323 203.962 186.298 202.96 187.389C201.087 189.431 198.869 190.466 196.055 189.934C194.707 189.68 193.713 189.037 193.49 187.596C193.309 186.433 192.658 186.319 191.7 186.63C191.071 186.836 190.424 187.024 189.771 187.106C188.043 187.33 186.629 186.791 185.796 185.186C185.319 184.268 184.731 184.177 183.87 184.641C181.162 186.105 178.797 184.772 176.509 183.554C175.767 183.158 175.212 182.965 174.456 183.266C172.987 183.843 171.541 184.523 170.019 184.917C168.804 185.233 167.489 185.33 166.228 185.268C164.668 185.19 163.462 184.34 162.894 182.838C162.524 181.862 162.048 181.975 161.179 182.207C158.933 182.806 157.184 184.164 155.395 185.517C154.414 186.258 153.345 186.617 152.147 185.949C150.163 184.843 150.066 182.568 152.009 180.856C152.69 180.26 153.505 179.805 154.282 179.33C156.087 178.221 157.88 177.08 159.739 176.062C160.547 175.622 161.503 175.456 162.598 175.095L162.602 175.106Z" fill="black"/>
<path d="M246.579 133.675C246.08 136.181 245.659 138.655 243.777 140.53C241.465 142.836 239.086 145.073 236.72 147.327C236.521 147.52 236.214 147.643 235.94 147.701C231.793 148.502 227.709 149.316 223.453 147.895C219.574 146.601 216.51 144.192 214.085 141.193C211.87 138.455 210.634 134.95 210.829 131.341C210.97 128.722 211.49 126.004 212.496 123.6C213.29 121.694 214.933 120.047 216.462 118.556C218.082 116.977 220.007 115.706 221.82 114.325C222.208 114.03 222.687 113.686 223.132 113.664C226.996 113.508 230.863 112.567 234.732 113.609C236.691 114.138 238.416 114.98 239.839 116.526C242.699 119.624 245.572 122.748 246.393 127.018C246.807 129.171 246.536 131.457 246.573 133.68L246.579 133.675ZM245.232 134.036C245.667 129.692 245.34 126.367 243.523 123.461C242.17 121.295 240.481 119.33 238.825 117.374C236.831 115.015 234.188 114.117 231.135 114.351C229.688 114.462 228.226 114.733 226.802 114.611C224.212 114.393 222.071 115.286 220.119 116.816C219.308 117.447 218.539 118.149 217.83 118.893C216.383 120.418 214.967 121.972 213.601 123.568C213.333 123.877 213.317 124.419 213.223 124.865C212.851 126.651 212.474 128.432 212.137 130.222C212.023 130.832 211.941 131.466 211.973 132.078C212.223 136.872 214.24 140.784 218.11 143.611C219.797 144.842 221.632 146.105 223.596 146.67C226.543 147.514 229.618 147.846 232.778 147.348C235.178 146.97 237.126 146.094 238.694 144.281C239.729 143.089 240.625 141.713 241.847 140.759C244.398 138.764 245.085 136.045 245.246 134.042L245.232 134.036Z" fill="black"/>
<path d="M249.298 133.999C249.864 131.145 250.803 128.583 252.479 126.255C253.979 124.168 255.107 121.754 257.424 120.404C259.687 119.084 262.048 117.946 264.817 118.231C265.433 118.295 266.073 118.282 266.683 118.19C270.452 117.61 273.914 118.728 277.311 120.135C277.901 120.377 278.479 120.84 278.865 121.349C280.524 123.522 282.486 125.57 283.641 127.999C285.485 131.884 286.433 135.988 284.927 140.409C283.452 144.733 280.899 148.081 277.159 150.586C273.474 153.053 269.403 153.843 265.031 153.213C264.131 153.084 263.221 153.039 262.318 152.935C260.298 152.706 259.082 151.231 257.697 149.992C256.999 149.364 256.212 148.836 255.495 148.231C254.49 147.39 253.221 146.688 252.586 145.62C251.453 143.713 250.486 141.639 249.873 139.512C249.37 137.766 249.472 135.847 249.302 134.005L249.298 133.999ZM266.589 152.154C268.889 152.644 271.167 152.452 273.282 151.44C274.734 150.745 276.091 149.843 277.446 148.961C282.236 145.843 283.757 140.966 284.521 135.696C284.53 135.617 284.516 135.53 284.496 135.447C284.013 133.532 283.698 131.557 283.021 129.715C280.974 124.17 277.248 120.414 271.236 119.319C270.424 119.171 269.591 119.07 268.768 119.096C267.242 119.143 265.721 119.321 264.197 119.398C261.195 119.548 258.402 120.382 256.351 122.619C254.884 124.217 253.623 126.072 252.601 127.99C249.565 133.664 249.727 139.308 253.318 144.723C253.854 145.532 254.637 146.216 255.402 146.841C256.973 148.123 258.597 149.336 260.227 150.544C260.781 150.953 261.377 151.438 262.02 151.566C263.524 151.869 265.065 151.975 266.588 152.159L266.589 152.154Z" fill="black"/>
<path d="M172.519 124.507C172.629 119.027 175.222 115.392 179.14 112.541C180.684 111.42 182.198 110.185 183.905 109.38C187.89 107.508 191.947 107.375 195.967 109.502C197.456 110.291 199.101 110.796 200.609 111.557C201.396 111.954 202.292 112.491 202.712 113.215C204.378 116.083 206.234 118.919 207.339 122.01C208.768 126.006 208.295 130.039 206.082 133.851C204.779 136.098 203.344 138.183 201.585 140.083C200.415 141.345 199.096 142.141 197.439 142.659C193.433 143.91 189.339 143.686 185.249 143.72C185.123 143.72 184.981 143.733 184.882 143.675C181.687 141.971 178.197 140.668 176.201 137.328C175.351 135.907 174.301 134.567 173.689 133.05C172.546 130.19 171.472 127.253 172.519 124.507ZM206.852 128.491C207.095 126.186 207.204 123.961 206.302 121.809C205.837 120.702 205.456 119.529 204.817 118.526C203.647 116.674 202.574 114.648 200.986 113.218C199.575 111.945 197.735 110.938 195.659 110.712C195.103 110.65 194.565 110.353 194.041 110.109C191.318 108.828 188.579 108.678 185.724 109.736C183.011 110.741 180.773 112.437 178.668 114.32C176.766 116.027 174.931 117.963 174.353 120.458C173.646 123.512 172.863 126.571 173.777 129.871C174.823 133.66 176.496 136.926 179.589 139.307C181.918 141.098 184.352 142.902 187.526 142.828C189.009 142.796 190.498 142.423 191.972 142.466C194.388 142.542 196.649 141.945 198.665 140.801C203.44 138.094 205.529 133.517 206.847 128.485L206.852 128.491Z" fill="black"/>
</g>
<defs>
<clipPath id="clip0_16038_590">
<rect width="257.762" height="257.827" fill="white" transform="translate(69.9746 39) rotate(6.9)"/>
</clipPath>
</defs>
</svg>
