<svg width="364" height="364" viewBox="0 0 364 364" fill="none" xmlns="http://www.w3.org/2000/svg">
<g clip-path="url(#clip0_14496_1250)">
<path opacity="0.12" d="M165.839 20.5307L201.833 22.4483L194.158 44.0625L200.87 43.8241L205.2 46.2293L207.592 52.2314L206.878 56.7926L204.236 60.4004L198.239 62.8056L201.833 71.6896L210.472 80.0969L216.956 82.9788L220.312 47.4319L221.037 35.6552L215.755 21.7333L204.951 13.5643L194.158 11.885L185.757 11.3975L178.32 12.3617L171.598 15.9586L165.839 20.5307Z" fill="#212633"/>
<path opacity="0.12" d="M166.791 78.1685L177.595 79.1327L187.435 83.9322L194.634 90.6603L198.239 98.1033L199.43 105.796L198.715 111.798L196.074 119.967L176.881 125.254L169.195 117.561L165.601 109.88L165.839 96.6624L166.791 78.1685Z" fill="#212633"/>
<path d="M144.718 328.687L175.679 329.89L172.55 354.386L149.276 354.624L149.038 346.943L139.912 352.23L131.76 353.183L125.514 351.98L121.195 348.145L120.719 342.858L144.718 328.687Z" fill="#212633"/>
<path d="M190.553 329.89H217.433L223.192 334.928L232.794 339.5L240.469 341.894L240.956 346.704L238.077 350.54L233.032 352.945L225.595 352.706L210.234 347.658L210.959 353.671L191.278 354.386L190.553 329.89Z" fill="#212633"/>
<path opacity="0.12" d="M178.559 195.145L208.794 196.586L206.629 234.3L229.665 234.776L225.822 329.175L190.304 329.413L189.579 246.066L176.383 329.89L144.459 327.972L152.621 230.941L165.341 236.467C165.341 236.467 168.946 226.618 169.898 225.416C170.851 224.213 173.979 213.65 174.456 212.686C174.932 211.721 178.537 195.156 178.537 195.156L178.559 195.145Z" fill="#212633"/>
<path d="M174.001 34.9404C173.557 35.4496 174.055 36.4138 173.265 37.0097C172.637 37.4756 172.085 37.4864 171.695 36.8255C170.862 35.3846 171.273 33.5428 172.269 32.5244C172.789 31.9827 173.557 32.1885 173.741 32.9252C173.882 33.5319 173.904 34.1712 174.001 34.9404Z" fill="#212633"/>
<path d="M247.711 352.565C247.029 352.533 246.347 352.49 245.676 352.49C243.706 352.5 241.725 352.555 239.754 352.598C239.375 352.598 238.997 352.533 238.921 352.154C238.877 351.915 239.029 351.58 239.202 351.374C239.733 350.702 240.35 350.095 240.859 349.413C241.367 348.741 241.8 348.026 242.255 347.322C242.363 347.148 242.471 346.943 242.493 346.737C242.634 344.862 242.396 343.053 241.454 341.395C241.183 340.919 240.858 340.474 240.231 340.334C239.873 340.247 239.494 340.041 239.256 339.781C238.25 338.698 236.929 338.654 235.608 338.535C235.143 338.492 234.677 338.405 234.233 338.264C232.415 337.679 230.704 336.834 228.961 336.043C228.117 335.653 227.316 335.155 226.504 334.678C225.627 334.169 224.804 333.476 223.863 333.151C222.618 332.717 221.578 332.024 220.593 331.222C220.334 331.016 220.388 330.648 220.712 330.55C220.994 330.464 221.308 330.453 221.6 330.453C222.986 330.453 224.382 330.442 225.768 330.453C226.905 330.464 227.587 329.825 228.052 328.871C228.139 328.698 228.204 328.416 228.128 328.264C227.706 327.387 227.955 326.466 227.933 325.578C227.922 324.722 228.095 323.866 228.106 323.01C228.117 322.338 228.03 321.656 227.987 320.973C227.965 320.464 227.922 319.944 227.944 319.435C227.976 318.925 228.117 318.427 228.16 317.929C228.301 316 227.89 314.039 228.409 312.121C228.442 312.013 228.344 311.883 228.334 311.753C228.279 310.811 227.998 309.803 228.225 308.936C228.615 307.452 228.106 305.913 228.691 304.473C228.409 303.292 228.723 302.122 228.691 300.941C228.691 300.691 228.572 300.442 228.55 300.193C228.528 299.868 228.474 299.51 228.572 299.207C228.907 298.167 229.048 297.116 228.951 296.033C228.875 295.285 228.875 294.559 228.918 293.801C229.08 291.526 228.94 289.24 229.167 286.954C229.362 285.004 229.373 283.021 229.708 281.071C229.795 280.583 229.643 280.052 229.546 279.554C229.449 279.066 229.275 278.601 229.481 278.113C229.698 277.582 229.438 277.051 229.481 276.52C229.535 275.924 229.676 275.339 229.719 274.754C229.741 274.462 229.611 274.169 229.589 273.877C229.557 273.411 229.513 272.945 229.546 272.479C229.568 272.013 229.719 271.558 229.73 271.092C229.762 270.139 229.719 269.186 229.752 268.232C229.762 267.821 230.033 267.355 229.914 267.008C229.384 265.491 230.022 264.039 230.12 262.566C230.163 261.873 230.25 261.244 230.011 260.572C229.817 260.031 229.708 259.522 229.914 258.85C230.217 257.886 230.163 256.824 230.25 255.795C230.347 254.603 230.033 253.379 230.499 252.198C230.553 252.046 230.542 251.84 230.488 251.688C230.12 250.681 230.25 249.695 230.466 248.666C230.629 247.897 230.412 247.051 230.358 246.239C230.347 246.033 230.25 245.806 230.282 245.611C230.488 244.245 230.899 242.891 230.542 241.483C230.509 241.342 230.672 241.169 230.693 241.006C230.813 240.248 231.126 239.446 230.964 238.752C230.78 237.972 230.802 237.214 230.791 236.456C230.769 235.448 231.105 235.134 232.079 235.101C234.926 235.015 237.773 235.275 240.62 234.863C242.19 234.635 243.792 234.646 245.373 234.581C245.892 234.56 245.979 234.235 246.033 233.845C246.066 233.574 246.044 233.303 246.033 233.032C245.903 231.32 245.73 229.619 245.643 227.907C245.503 225.459 245.622 223 245.438 220.54C245.135 216.586 245.199 212.599 245.124 208.623C245.124 208.276 245.124 207.929 245.124 207.583C245.124 207.323 245.124 207.063 245.048 206.813C244.745 205.654 244.68 204.538 245.319 203.455C245.524 203.097 245.633 202.675 245.784 202.274C246.087 201.44 246.607 200.605 246.639 199.76C246.672 198.807 247.061 198.027 247.3 197.171C247.462 196.564 247.841 195.99 247.906 195.372C248.014 194.462 248.198 193.617 248.664 192.826C248.804 192.588 248.783 192.241 248.772 191.938C248.729 190.855 248.999 189.815 249.313 188.807C249.573 187.951 249.909 187.117 249.833 186.185C249.811 185.947 249.919 185.676 250.049 185.47C250.352 184.961 250.385 184.408 250.342 183.845C250.168 181.851 251.143 179.966 250.904 177.973L250.98 176.521C250.926 176.218 250.883 175.914 250.883 175.611C250.883 174.625 250.807 173.65 251.089 172.664C251.262 172.025 251.251 171.234 251.024 170.616C250.731 169.836 251.381 169.208 251.121 168.493C251.088 168.417 251.089 168.32 251.056 168.244C250.536 167.334 250.634 166.337 250.601 165.351C250.58 164.679 250.515 163.964 250.287 163.336C249.8 162.014 249.66 160.616 249.313 159.262C248.88 157.583 248.447 155.904 248.079 154.203C247.841 153.087 247.051 152.122 247.191 150.898C247.213 150.714 247.018 150.519 246.942 150.313C246.683 149.685 246.423 149.056 246.185 148.428C245.762 147.323 245.481 146.131 244.886 145.134C244.041 143.704 243.208 142.274 242.634 140.714C242.233 139.642 241.411 138.764 241.043 137.713C240.361 135.774 238.986 134.311 237.903 132.643C237.167 131.505 236.29 130.454 235.457 129.382C234.721 128.439 233.974 127.507 233.216 126.576C232.783 126.045 232.361 125.503 231.873 125.026C231.386 124.55 230.802 124.17 230.315 123.694C229.503 122.892 228.583 122.177 227.868 121.278C227.706 121.072 227.5 120.92 227.294 120.747C225.865 119.533 223.949 118.992 222.748 117.464C222.726 117.431 222.683 117.41 222.639 117.388C220.864 116.326 219.089 115.254 217.302 114.214C216.924 113.986 216.555 113.77 216.501 113.282C216.436 112.654 216.339 112.025 216.35 111.397C216.371 109.544 216.436 107.681 216.512 105.828C216.534 105.319 216.675 104.82 216.74 104.322C216.837 103.65 217.075 102.946 216.967 102.307C216.859 101.7 216.869 101.191 216.967 100.584C217.097 99.7393 217.27 98.9267 217.486 98.0925C217.735 97.1174 217.855 96.034 217.692 95.0589C217.584 94.4522 217.714 93.9972 217.811 93.4663C217.919 92.9246 218.006 92.3829 218.06 91.8303C218.104 91.397 218.017 90.9528 218.093 90.5302C218.342 89.2518 218.883 87.995 218.342 86.6624C218.298 86.5541 218.32 86.4024 218.353 86.2724C218.634 85.1673 218.915 84.0731 218.591 82.9246C218.558 82.8055 218.547 82.6429 218.591 82.5346C218.97 81.7112 218.818 80.8336 218.829 79.9777C218.85 78.9052 218.764 77.8326 219.262 76.8142C219.403 76.5325 219.327 76.1424 219.348 75.7958C219.435 74.474 219.24 73.1414 219.565 71.8088C219.836 70.7037 219.781 69.5119 219.868 68.3527C219.868 68.2227 219.868 68.0927 219.868 67.9627C220.041 66.565 220.236 65.1783 220.366 63.7807C220.442 63.0006 220.334 62.2205 220.388 61.4405C220.442 60.7254 220.528 59.9887 220.745 59.3061C220.972 58.5694 220.442 57.811 220.896 57.1176C220.983 54.875 221.07 52.6431 221.167 50.4005C221.189 49.9346 221.275 49.4687 221.329 49.0029C221.351 48.8403 221.459 48.6128 221.384 48.5153C220.94 47.9194 221.297 47.3669 221.405 46.8035C221.6 45.8501 221.773 44.8859 221.925 43.9216C222.033 43.2066 222.228 42.4699 222.12 41.7765C222.033 41.1373 222.098 40.5089 222.022 39.913C221.871 38.7429 222.12 37.5403 221.622 36.3919C221.254 35.5468 221.113 34.5934 221.145 33.64C221.2 32.3074 221.124 31.0615 220.323 29.8372C219.457 28.5154 219.305 26.7928 218.266 25.5144C218.136 25.3627 218.104 25.1244 218.028 24.9293C217.855 24.5068 217.757 24.0084 217.476 23.6726C216.62 22.6433 216.231 21.2132 214.921 20.5632C214.845 20.5307 214.802 20.444 214.748 20.379C213.654 19.0139 212.68 17.5404 211.175 16.5654C209.746 15.6445 208.469 14.5285 206.899 13.8026C205.016 12.9251 203.11 12.1125 201.108 11.56C200.621 11.43 200.112 11.365 199.603 11.3108C199.008 11.2566 198.358 11.3758 197.806 11.1916C196.15 10.6174 194.418 10.8558 192.74 10.5416C191.776 10.3574 190.759 10.4332 189.817 10.1949C188.399 9.83734 186.981 10.0107 185.562 10.0432C184.382 10.0757 183.202 10.3465 182.033 10.5307C181.784 10.5741 181.557 10.6932 181.319 10.7799C181.081 10.8666 180.843 11.0074 180.604 11.0291C178.407 11.2024 176.361 11.9067 174.445 12.9251C172.799 13.8026 171.23 14.8319 169.66 15.8395C168.87 16.3487 168.09 16.9012 167.43 17.5513C166.856 18.1146 166.326 18.6997 165.6 19.0681C165.427 19.1547 165.319 19.3497 165.167 19.4581C164.453 19.9673 164.42 20.8774 163.944 21.5274C163.186 22.5567 162.385 23.5534 161.671 24.6151C160.989 25.6336 160.274 26.6411 159.928 27.8437C159.636 28.8188 159.116 29.6964 158.694 30.6173C158.326 31.419 158.131 32.2966 157.904 33.1525C157.763 33.6833 157.784 34.2684 157.6 34.7776C157.395 35.3301 157.276 35.8177 157.525 36.3919C157.611 36.5869 157.6 36.9228 157.481 37.1069C157.07 37.7353 157.113 38.4179 157.102 39.1004C157.102 39.5338 157.167 39.9997 157.016 40.3789C156.204 42.459 156.334 44.6584 156.063 46.8144C155.858 48.3745 155.609 49.9346 155.435 51.5056C155.305 52.6756 155.035 53.8457 155.002 55.0483C154.981 55.8067 154.916 56.6084 154.656 57.3127C154.353 58.1144 154.255 58.8294 154.667 59.5878C154.721 59.6853 154.721 59.8479 154.667 59.9345C154.245 60.6713 154.255 61.4947 154.147 62.2855C153.996 63.3365 153.822 64.3874 153.725 65.4491C153.595 66.7276 153.541 68.0168 153.443 69.2953C153.433 69.4578 153.292 69.6094 153.27 69.772C153.065 70.9854 152.826 72.1988 152.686 73.4231C152.502 75.0049 152.805 76.7167 151.387 77.9301C151.365 77.9518 151.387 78.0168 151.354 78.0493C150.813 79.0893 151.268 79.9127 152.404 80.0752C153.476 80.2378 154.58 79.8586 155.63 80.3028C155.728 80.3461 155.868 80.2486 155.998 80.2269C156.377 80.1728 156.756 80.0752 157.135 80.0644C159.3 80.0536 161.476 80.0644 163.641 80.0644C163.857 80.0644 164.074 80.0427 164.291 80.0752C164.897 80.1728 165.113 80.4544 165.178 81.0828C165.221 81.5054 165.351 81.9171 165.395 82.3288C165.438 82.7188 165.438 83.1088 165.395 83.4988C165.341 84.0514 165.211 84.5931 165.167 85.1348C165.059 86.6733 164.994 88.2225 164.886 89.7718C164.875 89.9777 164.724 90.1727 164.691 90.3785C164.518 91.462 164.063 92.5345 164.615 93.6505C164.702 93.8238 164.669 94.0838 164.626 94.2897C164.226 96.359 164.074 98.45 164.117 100.563C164.117 100.866 164.171 101.191 164.085 101.473C163.803 102.491 163.652 103.51 163.847 104.56C163.901 104.853 163.847 105.167 163.803 105.46C163.749 105.926 163.576 106.391 163.619 106.846C163.728 108.201 163.836 109.566 164.096 110.909C164.583 113.336 165.514 115.535 167.17 117.399C167.311 117.551 167.419 117.746 167.495 117.941C168.101 119.522 169.433 120.378 170.786 121.191C171.359 121.538 172.031 121.733 172.594 122.09C173.535 122.697 173.525 122.881 173.048 123.943C172.756 124.582 172.388 125.135 171.868 125.6C171.035 126.348 170.429 127.291 169.757 128.168C168.718 129.544 167.603 130.855 166.683 132.318C166.25 133 165.676 133.596 165.167 134.224C164.983 134.452 164.832 134.723 164.604 134.918C163.684 135.687 163.046 136.705 162.342 137.637C161.66 138.558 161.032 139.522 160.242 140.367C159.56 141.082 158.78 141.754 158.304 142.599C157.059 144.82 154.786 146.24 153.779 148.623C153.736 148.731 153.595 148.807 153.508 148.905C152.881 149.609 152.274 150.335 151.636 151.028C151.473 151.202 151.224 151.288 151.008 151.418C150.867 151.169 150.596 150.92 150.596 150.682C150.651 148.916 150.64 147.139 150.889 145.405C151.084 144.051 151.116 142.686 151.343 141.342C151.452 140.714 151.527 140.075 151.625 139.447C151.701 138.991 151.82 138.536 151.863 138.071C151.928 137.388 151.841 136.716 152.09 136.034C152.318 135.405 152.35 134.69 152.383 134.019C152.437 132.881 152.448 131.787 152.848 130.638C153.303 129.338 153.292 127.876 153.422 126.478C153.552 125.2 153.389 123.845 153.747 122.643C154.245 120.974 154.201 119.262 154.407 117.583C154.645 115.676 154.732 113.748 154.991 111.841C155.056 111.332 155.219 110.833 155.24 110.335C155.284 108.829 155.111 107.312 155.522 105.839C155.814 104.777 155.544 103.65 155.836 102.654C156.139 101.614 155.868 100.704 155.76 99.7609C155.619 98.645 154.537 97.8541 153.443 97.7674C152.697 97.7133 152.144 98.1791 151.484 98.2983C149.698 98.6233 148.269 99.5876 146.948 100.758C146.288 101.343 145.877 102.069 145.617 102.914C145.227 104.214 144.491 105.384 144.264 106.749C144.209 107.074 143.939 107.345 143.809 107.659C143.603 108.136 143.322 108.277 142.791 108.114C142.098 107.908 141.384 107.757 140.67 107.702C140.128 107.659 139.663 107.507 139.262 107.182C138.32 106.413 137.108 106.218 136.08 105.644C135.982 105.59 135.798 105.579 135.701 105.633C134.683 106.175 133.568 106.662 133.189 107.865C132.973 108.547 132.973 109.295 132.864 110.01C132.81 110.346 132.702 110.66 132.626 110.985C132.529 111.44 132.431 111.895 132.345 112.35C132.28 112.729 132.28 113.119 132.172 113.477C131.544 115.362 131.154 117.312 130.569 119.208C130.223 120.335 130.039 121.44 128.848 122.014C128.339 122.264 128.534 122.762 128.805 122.946C129.346 123.314 129.974 123.737 130.602 123.791C132.139 123.932 133.124 124.723 133.839 126.001C134.716 127.572 135.04 129.349 135.679 131.007C135.982 131.776 135.278 132.588 134.391 132.426C133.265 132.22 132.15 131.949 131.024 131.776C129.714 131.57 128.372 131.375 127.159 132.177C126.954 132.307 126.705 132.502 126.661 132.708C126.521 133.412 126.467 134.138 126.369 134.864C126.196 136.131 126.044 137.399 125.839 138.656C125.73 139.316 125.406 139.945 125.817 140.638C125.947 140.866 125.936 141.277 125.817 141.527C125.492 142.198 125.59 142.881 125.601 143.563C125.601 145.329 125.676 147.106 125.308 148.84C125.016 150.259 124.951 151.635 125.308 153.033C125.373 153.271 125.395 153.596 125.287 153.802C124.962 154.376 125.103 154.983 125.059 155.579C124.984 156.564 124.962 157.561 124.767 158.515C124.323 160.66 123.955 162.794 124.009 164.993C124.009 165.373 123.858 165.752 123.858 166.131C123.858 167.16 123.739 168.222 123.966 169.197C124.161 170.021 124.291 170.811 124.215 171.646C124.204 171.808 124.02 171.992 124.063 172.101C124.475 173.076 124.518 174.148 125.027 175.113C125.73 176.456 126.586 177.713 127.17 179.121C127.268 179.349 127.506 179.511 127.668 179.717C127.852 179.945 128.047 180.183 128.199 180.432C129.26 182.111 130.526 183.607 132.182 184.733C132.464 184.917 132.843 185.069 132.983 185.34C133.2 185.784 133.557 185.925 133.947 186.109C134.293 186.272 134.64 186.434 134.975 186.629C137.086 187.897 139.316 188.764 141.828 188.72C142.077 188.72 142.326 188.872 142.575 188.872C144.209 188.872 145.844 188.894 147.468 188.829C148.442 188.785 149.406 188.547 150.38 188.471C151.084 188.417 151.192 188.601 151.094 189.316C151.008 189.988 150.932 190.67 150.835 191.342C150.802 191.548 150.726 191.754 150.64 191.938C150.131 193.065 149.795 194.235 149.535 195.448C149.416 195.979 149.07 196.488 149.059 197.008C149.038 197.951 148.734 198.764 148.204 199.489C147.912 199.89 147.684 200.172 147.944 200.725C148.063 200.995 147.868 201.472 147.706 201.808C147.186 202.891 146.71 203.964 146.667 205.199C146.667 205.513 146.461 205.849 146.299 206.142C145.595 207.431 144.837 208.688 144.404 210.129C144.177 210.887 143.668 211.559 143.354 212.285C142.705 213.801 142.055 215.329 141.481 216.878C140.908 218.428 139.89 219.793 139.554 221.45C139.5 221.721 139.262 221.96 139.1 222.209C138.667 222.891 138.201 223.552 137.812 224.256C137.4 224.993 137.433 225.199 137.996 225.719C138.234 225.936 138.548 226.109 138.851 226.217C140.161 226.716 141.514 227.095 142.77 227.691C144.025 228.287 145.173 229.088 146.58 229.348C146.905 229.413 147.197 229.63 147.511 229.76C148.366 230.107 149.07 230.779 150.033 230.93C150.466 230.995 150.845 231.342 150.824 231.829C150.77 233.205 151.008 234.581 150.672 235.957C150.456 236.867 150.347 237.821 150.347 238.742C150.347 239.403 150.282 240.063 150.326 240.724C150.38 241.483 150.239 242.165 149.839 242.826C149.741 242.989 149.795 243.249 149.795 243.465C149.795 243.985 149.817 244.505 149.795 245.025C149.752 245.795 149.882 246.553 149.59 247.322C149.384 247.875 149.839 248.492 149.579 249.153C149.33 249.814 149.319 250.573 149.297 251.298C149.265 252.035 148.832 252.783 149.265 253.519C148.572 254.787 149.038 256.315 148.323 257.593C148.139 257.918 148.258 258.438 148.291 258.861C148.334 259.37 148.431 259.868 148.496 260.377C148.54 260.757 148.453 261.19 148.605 261.526C148.875 262.154 148.81 262.718 148.475 263.249C148.139 263.779 148.128 264.364 148.323 264.863C148.54 265.405 148.453 265.827 148.269 266.336C148.096 266.802 147.858 267.431 148.031 267.81C148.561 268.958 148.052 270.042 147.879 271.092C147.674 272.36 147.403 273.606 147.446 274.906C147.468 275.513 147.381 276.13 147.468 276.726C147.749 278.774 146.862 280.702 146.872 282.739C146.872 283.259 146.678 283.758 146.894 284.332C147.013 284.646 146.818 285.069 146.743 285.448C146.645 285.946 146.288 286.553 146.461 286.921C146.916 287.918 146.331 288.926 146.667 289.89C146.082 291.006 146.385 292.187 146.342 293.357C146.31 294.462 145.595 295.534 146.071 296.704C146.071 296.726 146.039 296.78 146.006 296.813C145.53 297.474 145.617 298.156 145.877 298.882C145.974 299.153 145.974 299.521 145.877 299.781C145.53 300.659 145.671 301.569 145.638 302.468C145.638 302.555 145.66 302.652 145.638 302.728C145.303 303.519 145.519 304.397 145.314 305.155C145.021 306.249 145.14 307.3 145.162 308.373C145.162 308.86 145.151 309.359 145.108 309.835C145.043 310.464 144.794 311.071 144.74 311.699C144.675 312.544 144.718 313.4 144.729 314.256C144.729 314.462 144.913 314.722 144.826 314.863C144.328 315.773 144.502 316.802 144.274 317.734C143.95 319.045 143.798 320.334 143.82 321.666C143.841 322.446 143.82 323.227 143.82 324.007C143.82 324.906 143.971 325.827 143.376 326.628C143.289 326.748 143.278 326.964 143.3 327.127C143.43 327.95 142.921 328.427 142.347 328.817C141.785 329.196 141.2 329.543 140.583 329.825C139.544 330.29 138.385 330.518 137.595 331.45C137.498 331.569 137.303 331.612 137.151 331.699C136.556 332.035 135.982 332.392 135.376 332.696C133.698 333.562 132.215 334.83 130.299 335.231C130.136 335.263 129.931 335.35 129.866 335.469C129.238 336.715 127.982 337.159 126.91 337.82C126.153 338.286 125.319 338.611 124.54 339.034C123.533 339.586 122.483 339.998 121.487 340.594C119.43 341.85 119.008 343.833 118.846 345.967C118.824 346.282 118.986 346.628 119.127 346.932C119.939 348.698 120.913 350.344 122.429 351.623C122.656 351.818 122.948 352.208 122.894 352.435C122.786 352.89 122.299 352.825 121.909 352.825C121.173 352.825 120.437 352.804 119.701 352.825C119.073 352.847 118.445 352.923 117.806 352.955C117.373 352.977 116.962 353.042 116.486 352.88C115.912 352.685 115.208 352.728 114.613 353.085C114.44 353.194 114.169 353.356 114.039 353.291C113.725 353.15 113.411 353.064 113.097 353.031L112.978 355.686C120.274 355.686 127.582 355.686 134.878 355.686C135.82 355.686 136.762 355.816 137.693 355.458C138.028 355.328 138.515 355.328 138.84 355.458C139.511 355.751 140.193 355.675 140.875 355.675C143.3 355.686 145.736 355.686 148.161 355.675C149.189 355.675 150.239 356.065 151.235 355.436C151.387 355.339 151.668 355.393 151.874 355.426C152.751 355.545 153.617 355.501 154.494 355.426C155.403 355.361 156.312 355.426 157.222 355.415C158.098 355.415 158.975 355.469 159.852 355.436C161.671 355.361 163.5 355.501 165.319 355.393C167.116 355.274 168.891 355.902 170.677 355.426C170.753 355.404 170.862 355.404 170.937 355.426C172.507 355.935 174.109 355.642 175.7 355.664C177.021 355.686 178.374 355.87 179.684 355.436C179.998 355.339 180.42 355.328 180.713 355.447C181.514 355.783 182.326 355.664 183.138 355.675C187.868 355.686 192.599 355.675 197.33 355.686C198.271 355.686 199.224 355.512 200.144 355.913C200.361 356.011 200.653 355.935 200.913 355.902C201.422 355.837 201.92 355.74 202.428 355.686C203.024 355.632 203.608 355.718 204.204 355.469C204.604 355.306 205.146 355.426 205.611 355.469C206.12 355.512 206.618 355.686 207.127 355.664C208.371 355.621 209.606 355.523 210.851 355.415C212.29 355.296 213.719 355.978 215.17 355.426C215.321 355.371 215.549 355.371 215.679 355.447C216.285 355.816 216.945 355.664 217.584 355.675C218.526 355.697 219.468 355.534 220.399 355.469C221.795 355.371 223.235 355.209 224.642 355.653C225.075 355.783 225.638 355.805 226.06 355.642C226.785 355.35 227.5 355.447 228.225 355.426C229.265 355.404 230.304 355.436 231.354 355.415C231.819 355.404 232.274 355.263 232.739 355.231C233.389 355.187 234.082 355.036 234.666 355.22C235.359 355.436 236.02 355.415 236.702 355.415C238.044 355.436 239.397 355.436 240.739 355.415C241.205 355.415 241.66 355.241 242.125 355.22C242.807 355.187 243.543 355.068 244.182 355.252C245.091 355.512 246.033 355.545 246.867 355.35C247.17 355.285 247.462 355.241 247.754 355.209L247.7 352.522L247.711 352.565ZM217.237 117.215C218.796 118.32 220.312 119.49 221.892 120.563C225.909 123.271 229.048 126.922 232.371 130.357C234.785 132.859 236.907 135.676 238.401 138.872C238.488 139.067 238.564 139.284 238.704 139.436C240.079 140.92 240.523 142.848 241.227 144.658C241.389 145.091 241.54 145.568 241.822 145.925C242.591 146.89 242.872 148.049 243.305 149.154C243.63 149.977 243.998 150.801 244.29 151.635C244.528 152.307 244.658 153.022 244.864 153.704C245.113 154.56 245.405 155.394 245.654 156.25C245.773 156.651 245.827 157.074 245.892 157.496C245.914 157.626 245.86 157.778 245.903 157.886C246.672 159.392 246.347 161.158 247.029 162.707C247.332 163.39 247.375 164.192 247.44 164.95C247.57 166.402 247.624 167.865 247.711 169.316C247.819 171.115 247.927 172.924 248.025 174.614C247.917 176.629 247.873 178.525 247.689 180.41C247.538 181.884 247.191 183.336 246.953 184.798C246.834 185.557 246.672 186.326 246.683 187.084C246.715 188.98 245.86 190.627 245.373 192.371C245.264 192.772 245.113 193.195 245.124 193.607C245.135 194.614 244.831 195.524 244.55 196.467C244.128 197.864 243.413 199.121 242.785 200.421C242.645 200.725 242.493 201.082 242.526 201.385C242.612 202.187 242.158 202.74 241.822 203.379C241.302 204.387 240.848 205.437 240.458 206.51C240.35 206.803 240.588 207.236 240.707 207.593C240.783 207.821 241.107 208.07 240.75 208.233C240.49 208.352 240.231 208.72 239.83 208.352C238.628 207.247 237.07 206.694 235.727 205.784C234.461 204.917 233.259 203.975 231.993 203.119C231.062 202.48 230.26 201.732 229.654 200.768C228.886 199.544 228.074 198.352 227.327 197.117C226.959 196.499 226.71 195.817 226.428 195.156C226.352 194.972 226.309 194.722 226.363 194.527C226.753 193.097 226.796 191.591 227.511 190.237C227.792 189.695 227.771 189.002 227.901 188.374C228.106 187.377 228.312 186.38 228.528 185.383C228.831 184.018 229.145 182.664 229.459 181.31C229.492 181.191 229.492 181.039 229.459 180.92C229.124 179.728 229.503 178.601 229.698 177.442C229.795 176.889 229.698 176.315 229.73 175.752C229.762 175.243 229.871 174.744 229.936 174.235C229.957 174.062 230.022 173.867 229.968 173.726C229.481 172.415 229.827 171.071 229.719 169.739C229.643 168.883 229.535 168.038 229.47 167.193C229.449 166.857 229.427 166.467 229.546 166.174C229.838 165.481 229.676 164.863 229.492 164.181C229.232 163.206 229.135 162.177 228.94 161.18C228.539 159.186 228.453 157.128 227.814 155.178C227.738 154.939 227.641 154.679 227.652 154.441C227.738 152.61 227.045 150.942 226.601 149.208C226.45 148.612 226.082 148.092 225.53 148.146C224.999 148.19 224.458 148.569 224.014 148.916C223.733 149.143 223.722 149.522 223.873 149.966C224.404 151.527 224.859 153.119 225.292 154.712C225.443 155.286 225.454 155.904 225.562 156.499C225.735 157.507 225.941 158.504 226.093 159.511C226.277 160.736 226.591 161.938 226.634 163.195C226.666 164.203 226.926 165.21 227.078 166.218C227.089 166.304 227.11 166.391 227.121 166.467C227.208 168.406 227.305 170.335 227.381 172.274C227.392 172.567 227.24 172.859 227.24 173.152C227.229 174.007 227.24 174.853 227.273 175.708C227.283 176.218 227.392 176.738 227.37 177.247C227.338 177.886 227.208 178.514 227.143 179.143C227.034 180.118 226.959 181.104 226.818 182.068C226.721 182.783 226.407 183.487 226.439 184.181C226.482 185.416 225.876 186.499 225.811 187.702C225.779 188.319 225.465 188.915 225.324 189.533C225.064 190.692 224.804 191.851 224.599 193.011C224.491 193.639 224.155 194.04 223.668 194.43C222.823 195.102 222.813 195.221 223.289 196.163C224.187 197.951 225.075 199.749 226.298 201.342C226.558 201.678 226.796 202.035 227.089 202.339C228.117 203.401 229.156 204.441 230.217 205.47C231.938 207.138 233.876 208.503 236.074 209.5C237.622 210.204 239.191 210.844 240.859 211.201C241.194 211.266 241.519 211.342 241.854 211.375C242.623 211.45 242.656 211.515 242.764 212.328C242.894 213.292 243.099 214.246 243.24 215.221C243.294 215.6 243.262 216.001 243.283 216.391C243.37 218.72 243.413 221.049 243.565 223.368C243.641 224.636 243.846 225.903 244.095 227.16C244.193 227.637 244.193 228.016 244.095 228.482C243.9 229.381 244.149 230.291 244.453 231.125C244.658 231.689 244.409 231.851 244.02 231.959C243.283 232.154 242.536 232.306 241.789 232.469C241.66 232.501 241.53 232.512 241.4 232.49C239.971 232.306 238.564 232.436 237.145 232.664C236.582 232.75 235.965 232.512 235.37 232.512C234.829 232.512 234.277 232.653 233.735 232.729C233.562 232.75 233.367 232.805 233.227 232.75C232.523 232.48 231.83 232.707 231.126 232.75C228.149 232.88 225.183 232.935 222.206 233.032C221.827 233.043 221.449 233.151 221.081 233.205C220.907 233.227 220.734 233.303 220.572 233.281C219.132 233.01 217.703 233.411 216.263 233.303C215.895 233.27 215.505 233.411 215.127 233.444C214.888 233.465 214.639 233.444 214.401 233.411C214.109 233.379 213.806 233.26 213.524 233.303C212.561 233.422 211.597 233.617 210.634 233.747C210.169 233.812 209.681 233.845 209.216 233.79C208.599 233.715 208.112 232.924 208.274 232.284C208.794 230.248 208.837 228.167 208.62 226.131C208.447 224.408 208.869 222.837 209.097 221.201C209.227 220.237 209.118 219.229 209.097 218.243C209.075 217.691 208.859 217.117 208.967 216.586C209.508 213.823 209.432 211.028 209.487 208.233C209.508 207.182 209.757 206.131 209.898 205.069C209.93 204.852 210.017 204.625 209.974 204.441C209.746 203.563 210.006 202.696 209.974 201.819C209.952 201.169 209.952 200.53 210.342 199.955C210.45 199.793 210.515 199.522 210.461 199.349C210.06 198.114 210.147 196.9 210.482 195.676C210.504 195.589 210.482 195.502 210.493 195.416C210.58 193.26 210.645 191.115 210.775 188.959C210.818 188.298 211.132 187.648 211.175 186.987C211.219 186.358 210.926 185.676 211.078 185.091C211.262 184.343 211.338 183.704 211.067 182.967C210.959 182.653 211.078 182.187 211.24 181.862C211.489 181.331 211.565 180.811 211.554 180.237C211.533 179.37 211.489 178.493 211.565 177.637C211.63 176.976 212.085 176.293 211.976 175.687C211.857 175.048 211.738 174.408 211.825 173.78C212.095 171.83 212.344 169.88 212.323 167.897C212.323 167.68 212.269 167.377 212.388 167.269C213.091 166.586 212.799 165.73 212.832 164.928C212.864 164.148 212.799 163.368 212.842 162.588C212.972 160.541 213.07 158.504 213.568 156.499C213.643 156.218 213.611 155.893 213.611 155.589C213.611 154.549 213.546 153.498 213.622 152.469C213.752 150.725 213.752 148.97 214.109 147.236C214.163 146.987 214.109 146.716 214.131 146.456C214.217 143.823 214.25 141.191 214.412 138.569C214.509 136.825 214.769 135.091 214.975 133.347C215.072 132.523 215.018 131.689 215.127 130.855C215.354 129.024 215.332 127.161 215.44 125.319C215.484 124.636 215.603 123.964 215.7 123.293C215.863 122.155 215.635 121.018 215.7 119.88C215.722 119.457 215.668 119.046 216.014 118.667C216.209 118.45 216.187 118.027 216.22 117.691C216.296 116.987 216.675 116.781 217.248 117.182L217.237 117.215ZM183.646 177.572C183.711 177.474 183.668 177.312 183.668 177.182C183.755 174.376 183.83 171.581 183.939 168.775C183.971 167.973 183.776 167.149 184.133 166.348C184.263 166.066 183.895 165.6 183.949 165.253C184.177 163.899 183.83 162.556 183.906 161.201C183.982 159.815 184.068 158.406 183.884 157.041C183.668 155.449 183.7 153.867 183.646 152.274C183.635 151.895 183.462 151.537 183.408 151.158C183.159 149.555 183.051 147.93 182.834 146.326C182.456 143.509 182.304 140.66 181.654 137.865C181.362 136.608 180.983 135.319 181.016 133.954C181.037 133.141 180.669 132.307 180.453 131.483C180.074 130.01 179.663 128.547 179.284 127.063C179.208 126.781 179.23 126.467 179.23 126.164C179.24 125.319 179.305 125.319 180.182 125.124C181.254 124.885 182.293 124.517 183.365 124.257C184.188 124.051 185.021 123.91 185.768 123.455C186.006 123.314 186.353 123.314 186.645 123.325C187.608 123.369 188.485 123.141 189.395 122.838C190.715 122.404 192.09 122.123 193.497 121.982C194.948 121.83 196.377 121.505 197.806 121.202C200.036 120.725 202.266 120.227 204.485 119.663C205.979 119.284 207.473 119.046 208.999 118.883C209.162 118.862 209.346 118.818 209.476 118.721C210.298 118.168 211.229 118.396 212.117 118.374C212.593 118.363 212.821 118.645 212.821 119.122C212.821 119.728 212.821 120.335 212.821 121.137C212.918 122.329 212.712 123.672 212.355 125.005C212.334 125.091 212.279 125.2 212.312 125.254C212.961 126.348 212.106 127.431 212.279 128.526C212.323 128.797 212.139 129.1 212.128 129.392C212.095 129.858 212.106 130.324 212.128 130.79C212.16 131.386 212.323 131.982 212.269 132.578C212.15 133.889 212.03 135.21 211.749 136.5C211.489 137.702 211.673 138.916 211.478 140.086C211.262 141.418 211.403 142.762 211.219 144.062C210.959 145.936 211.013 147.821 210.721 149.685C210.602 150.4 210.396 151.039 210.602 151.819C210.764 152.437 210.515 153.152 210.472 153.834C210.374 155.416 210.407 157.03 210.158 158.59C210.006 159.533 210.082 160.486 209.92 161.397C209.627 163.108 209.898 164.863 209.616 166.543C209.389 167.919 209.703 169.392 208.945 170.692C208.794 170.952 208.902 171.375 208.891 171.721C208.805 175.004 208.729 178.276 208.62 181.559C208.61 181.981 208.48 182.393 208.371 182.805C208.025 184.072 208.144 185.362 208.112 186.651C208.047 188.807 207.949 190.952 207.841 193.108C207.819 193.487 207.657 193.845 207.592 194.224C207.419 195.318 207.213 195.524 206.087 195.492C205.102 195.459 204.128 195.318 203.154 195.242C202.179 195.167 201.173 195.427 200.209 195.004C200.025 194.928 199.754 194.928 199.57 195.004C198.986 195.232 198.434 195.047 197.86 195.004C195.63 194.874 193.378 194.939 191.159 194.69C188.962 194.441 186.775 194.527 184.577 194.452C183.765 194.43 182.964 194.3 182.163 194.192C181.579 194.105 181.2 193.541 181.308 192.946C181.384 192.534 181.449 192.09 181.633 191.721C182.012 190.92 182.055 190.085 182.098 189.219C182.142 188.33 182.369 187.464 182.499 186.575C182.618 185.817 182.748 185.069 182.834 184.311C182.943 183.336 183.018 182.35 183.116 181.375C183.181 180.736 183.3 180.107 183.365 179.479C183.441 178.84 183.213 178.179 183.603 177.572H183.646ZM171.23 18.2772C171.414 18.0063 171.684 17.7571 171.966 17.5838C173.016 16.9446 174.098 16.3487 175.159 15.7311C175.863 15.3303 176.534 14.8752 177.259 14.5285C177.985 14.1927 178.742 13.8351 179.522 13.716C180.171 13.6185 180.745 13.4018 181.34 13.1526C181.719 12.9901 182.163 12.8926 182.575 12.8926C183.69 12.8926 184.772 12.7409 185.866 12.4809C186.851 12.2534 187.922 12.4375 188.962 12.4375C190.596 12.3292 192.198 12.405 193.801 12.8384C194.742 13.0876 195.749 13.1526 196.734 13.1201C198.488 13.0659 200.079 13.6401 201.681 14.2035C202.32 14.431 202.959 14.6152 203.641 14.7344C204.864 14.9402 205.968 15.4928 206.953 16.2512C208.101 17.1396 209.292 17.9738 210.353 18.9489C211.327 19.8481 212.215 20.8665 213.037 21.9066C213.795 22.8708 214.499 23.9001 215.105 24.9618C215.733 26.0561 216.231 27.2262 216.761 28.3638C217.4 29.7072 217.909 31.1048 218.223 32.5566C218.461 33.6292 218.612 34.7234 218.796 35.8177C218.894 36.4027 218.991 36.9986 219.056 37.5836C219.219 39.1438 218.948 40.6605 218.493 42.1448C218.179 43.1741 218.147 44.1492 218.623 45.1351C218.71 45.3192 218.807 45.5468 218.786 45.7418C218.634 46.706 218.45 47.6594 218.266 48.6128C218.19 48.9812 218.06 49.3495 218.028 49.7179C217.963 50.4871 218.147 51.2672 217.779 52.0039C217.725 52.1123 217.725 52.2748 217.768 52.3831C218.223 53.4774 217.865 54.6258 218.006 55.7417C218.039 56.0559 217.963 56.4351 217.811 56.7276C217.541 57.2477 217.519 57.7894 217.497 58.3527C217.454 59.2953 217.335 60.2271 217.248 61.1588C217.162 62.0905 217.443 63.0548 217.01 63.9757C216.924 64.1599 216.913 64.4524 217.01 64.6149C217.422 65.2649 217.043 65.8392 216.913 66.4459C216.599 67.9843 216.144 69.5228 216.675 71.1154C216.729 71.2671 216.729 71.4729 216.675 71.6138C216.101 73.0655 216.101 74.604 215.895 76.1316C215.722 77.4209 215.646 78.7101 215.733 79.9886C215.765 80.4436 215.863 80.8661 215.679 81.3103C215.43 81.9387 215.224 82.0579 214.618 81.7654C213.232 81.1045 211.89 80.3569 210.796 79.241C210.342 78.7752 209.887 78.3093 209.411 77.8651C208.371 76.9008 207.3 75.9583 206.282 74.9724C204.951 73.6939 203.738 72.318 202.905 70.6387C202.775 70.3787 202.493 70.1945 202.309 69.9561C202.082 69.6528 201.736 69.3386 201.703 69.0027C201.562 67.8976 200.87 67.0526 200.491 66.0667C200.252 65.4383 200.003 64.7991 199.83 64.149C199.69 63.6073 199.895 63.3365 200.393 63.1631C200.945 62.9789 201.551 62.8598 202.028 62.5564C203.349 61.7113 204.875 61.1805 205.979 59.9887C206.975 58.9053 207.754 57.681 208.274 56.3268C208.545 55.6334 208.501 54.8208 208.664 54.0732C209.064 52.1556 208.523 49.8263 207.581 48.1036C206.564 46.2293 204.951 44.9942 203.359 43.7483C202.428 43.0116 201.194 42.7407 200.014 42.6215C198.856 42.5132 197.676 42.6215 196.518 42.6649C195.976 42.6865 195.706 42.4265 195.879 41.9065C196.28 40.7039 196.788 39.5338 197.135 38.3095C197.665 36.4352 198.65 34.7343 199.072 32.8058C199.376 31.4082 199.928 30.0431 200.512 28.743C201.248 27.107 201.616 25.3627 202.147 23.6726C202.233 23.3909 202.298 23.0984 202.407 22.8275C202.829 21.7983 202.309 20.9857 201.151 20.9749C199.809 20.9532 198.455 20.9965 197.113 20.9532C196.615 20.9424 196.096 20.8449 195.608 20.704C194.472 20.3682 193.357 20.3898 192.188 20.574C191.56 20.6715 190.867 20.4332 190.217 20.3356C189.968 20.3031 189.687 20.1406 189.47 20.2056C188.139 20.6065 186.872 19.9673 185.606 19.989C184.502 20.0106 183.462 19.8264 182.391 19.6748C181.882 19.5989 181.351 19.6748 180.832 19.6531C180.106 19.6314 179.392 19.6964 178.667 19.4472C178.201 19.2847 177.606 19.5014 177.075 19.4689C175.928 19.3931 174.78 19.2631 173.633 19.1439C172.908 19.0681 172.193 18.9705 171.479 18.8622C171.111 18.808 171.1 18.4722 171.23 18.2772ZM165.265 76.9983C164.215 77.4426 163.132 77.1717 162.06 77.2259C161.238 77.2692 160.415 77.2367 159.592 77.2259C158.347 77.2259 157.124 77.3992 155.922 77.7134C155.327 77.8651 154.959 77.5726 154.569 77.1825C154.19 76.8033 154.266 76.5 154.429 76.0341C154.645 75.4057 154.656 74.7015 154.764 74.0298C154.818 73.6939 154.851 73.3581 154.927 73.0222C155.1 72.188 155.338 71.3754 155.305 70.4978C155.284 69.8695 155.457 69.2302 155.544 68.6019C155.706 67.5076 155.879 66.4134 156.031 65.3299C156.063 65.0699 156.074 64.8099 156.063 64.5499C156.02 63.7265 156.15 62.9464 156.42 62.1555C156.648 61.4838 156.724 60.7471 156.832 60.032C156.951 59.187 157.113 58.3311 157.092 57.486C157.07 56.0559 157.546 54.7125 157.741 53.3257C157.86 52.394 158.12 51.4839 158.142 50.5521C158.185 48.5803 158.51 46.6518 158.91 44.7234C159.105 43.77 159.094 42.7624 159.213 41.7873C159.354 40.6931 159.506 39.5988 159.69 38.5045C159.95 36.9986 160.231 35.4927 160.502 33.9975C160.523 33.8675 160.502 33.7375 160.556 33.6183C160.913 32.6649 161.173 31.6899 161.4 30.6931C161.595 29.8372 162.028 29.0138 162.483 28.2554C163.403 26.6845 164.085 24.9727 165.449 23.6834C165.947 23.2175 166.326 22.6325 166.78 22.1233C167.127 21.7224 167.549 21.4624 168.101 21.7441C168.134 21.7658 168.188 21.7441 168.231 21.7441C170.429 21.8308 172.615 21.9066 174.813 22.0149C175.755 22.0583 176.686 22.21 177.617 22.2641C178.526 22.3075 179.479 22.1016 180.345 22.3183C181.6 22.6217 182.834 22.47 184.068 22.535C186.006 22.6325 187.955 22.5567 189.86 22.8383C192.166 23.185 194.461 23.3475 196.778 23.3367C197.449 23.3367 198.131 23.4776 198.802 23.6076C199.278 23.7051 199.376 24.1709 199.3 24.6585C198.986 26.457 197.86 28.0062 197.687 29.8589C197.633 30.4656 197.2 31.029 196.972 31.6249C196.236 33.6075 195.489 35.5902 194.796 37.5836C194.504 38.4179 194.201 39.2846 194.125 40.1513C194.017 41.2673 193.368 42.1123 192.945 43.0766C192.686 43.6724 192.155 44.225 192.545 44.9292C193.043 45.8176 193.53 46.2293 194.602 45.7526C197.102 44.6367 199.625 44.4958 202.071 45.9693C203.662 46.9335 205.167 48.1253 205.979 49.7938C207.062 52.0364 207.3 54.3658 205.936 56.7493C204.918 58.5369 203.359 59.5987 201.692 60.5087C200.74 61.0288 199.581 61.3646 198.369 60.9096C197.633 60.6388 196.648 61.603 196.702 62.5456C196.767 63.6398 197.026 64.7124 197.438 65.7525C198.358 68.0493 199.516 70.227 200.88 72.2855C201.941 73.8998 202.959 75.5899 204.485 76.8575C205.048 78.0926 206.282 78.6776 207.235 79.5227C208.426 80.5845 209.865 81.3754 211.197 82.2854C211.76 82.6646 212.301 83.1088 212.907 83.4013C213.557 83.7155 214.293 83.943 215.018 83.7047C215.419 83.5747 215.451 83.7155 215.43 84.008C215.343 85.2431 215.614 86.4999 215.213 87.735C215.051 88.2442 215.159 88.8509 215.181 89.4143C215.235 90.5411 215.083 91.6353 214.737 92.7079C214.694 92.8271 214.661 92.9571 214.661 93.0763C214.574 94.7122 214.488 96.3373 214.39 97.9733C214.304 99.6526 214.445 101.375 214.066 102.979C213.449 105.579 213.6 108.212 213.384 110.823C213.308 111.689 213.405 112.578 213.34 113.455C213.308 113.965 213.21 114.463 213.07 114.95C212.918 115.492 212.55 115.828 211.933 115.796C211.11 115.752 210.353 116.066 209.562 116.251C208.036 116.586 206.477 116.803 204.94 117.106C203.987 117.291 203.045 117.583 202.093 117.778C200.934 118.017 199.765 118.244 198.585 118.385C198.001 118.461 197.882 118.255 198.066 117.702C198.466 116.5 198.899 115.308 199.321 114.105C199.386 113.91 199.516 113.715 199.538 113.509C199.722 111.765 199.884 110.021 200.068 108.287C200.133 107.648 200.404 106.987 200.296 106.391C200.036 105.016 200.101 103.65 200.058 102.274C200.058 102.036 199.917 101.787 199.83 101.559C199.754 101.364 199.581 101.169 199.581 100.974C199.56 99.1217 198.531 97.5941 197.968 95.9148C197.925 95.7956 197.773 95.6873 197.784 95.5789C197.893 94.7664 197.416 94.203 196.951 93.6505C195.933 92.4262 195.403 90.9311 194.656 89.5551C194.342 88.9701 194.006 88.4609 193.53 88.0059C191.798 86.3591 190.077 84.6906 188.312 83.0655C187.912 82.6971 187.359 82.5129 186.926 82.1662C185.378 80.9312 183.571 80.1511 181.806 79.3277C181.092 78.9918 180.269 78.8943 179.5 78.656C178.894 78.4718 178.299 78.2443 177.703 78.0276C175.733 77.3559 173.709 77.0959 171.598 77.2584C170.569 77.085 169.487 77.4425 168.426 77.0308C168.101 76.9008 167.657 77.1067 167.267 77.1067C166.813 77.1067 166.358 77.085 165.903 77.0525C165.687 77.0417 165.449 76.9225 165.276 76.9875L165.265 76.9983ZM173.362 118.97C171.782 118.688 170.721 117.572 169.931 116.402C168.945 114.961 167.906 113.466 167.776 111.603C167.755 111.223 167.668 110.823 167.484 110.498C166.65 108.981 166.986 107.399 167.181 105.839C167.246 105.362 167.354 104.918 167.062 104.474C166.737 103.986 166.715 103.423 166.748 102.86C166.834 101.104 166.91 99.3384 167.019 97.5833C167.051 97.1174 167.094 96.6082 167.311 96.229C167.506 95.904 167.928 95.6331 168.307 95.5031C169.021 95.2539 169.79 95.1564 170.526 94.9397C171.219 94.7447 171.912 94.5389 172.55 94.2247C173.806 93.618 175.213 93.2929 176.307 92.3504C176.794 91.9278 177.292 91.527 177.746 91.0719C177.855 90.9636 177.855 90.6927 177.811 90.5194C177.66 89.9777 177.14 89.7718 176.729 89.5118C176.382 89.2951 176.123 89.6635 175.841 89.8585C175.04 90.4219 174.261 91.0178 173.405 91.4728C172.399 92.0145 171.338 92.4587 170.266 92.8704C169.649 93.1087 168.967 93.2713 168.307 93.2929C168.069 93.2929 167.744 92.8271 167.571 92.5129C167.462 92.3179 167.473 91.9712 167.56 91.7436C167.96 90.6494 167.798 89.5227 167.798 88.4067C167.798 86.8141 167.895 85.254 168.285 83.6939C168.437 83.0871 168.35 82.3938 168.253 81.7654C168.047 80.5086 168.567 79.8261 169.822 79.8152C170.429 79.8152 171.035 79.8152 171.922 79.8152C173.492 79.7936 175.278 80.0644 177.086 80.4978C179.857 81.1695 182.326 82.3504 184.75 83.8022C186.461 84.8315 188.02 85.9907 189.373 87.4317C189.719 87.8 190.174 88.06 190.575 88.3851C192.079 89.6418 193.097 91.2886 194.223 92.8487C194.537 93.2821 194.634 93.8671 194.883 94.3547C195.327 95.2214 195.847 96.0556 196.269 96.9441C196.669 97.7891 197.005 98.6558 197.308 99.5334C197.514 100.129 197.633 100.758 197.73 101.386C197.86 102.274 197.957 103.163 198.012 104.062C198.077 105.091 197.99 106.11 198.239 107.139C198.401 107.822 198.174 108.569 198.077 109.295C197.925 110.4 197.752 111.484 197.492 112.556C197.319 113.293 197.221 114.073 196.929 114.766C196.409 116.023 195.738 117.215 195.219 118.472C194.959 119.1 194.461 119.241 193.93 119.382C193.487 119.501 193.01 119.652 192.556 119.609C191.69 119.533 190.975 119.923 190.217 120.194C188.496 120.812 186.677 121.018 184.913 121.483C183.852 121.765 182.78 121.765 181.719 121.722C180.345 121.678 178.981 121.57 177.617 121.462C177.368 121.44 177.108 121.343 176.902 121.202C175.971 120.606 175.073 119.967 174.152 119.36C173.903 119.197 173.654 118.97 173.384 118.916L173.362 118.97ZM146.223 119.176C146.656 118.992 146.721 118.634 146.71 118.222C146.699 117.832 146.721 117.442 146.71 117.052C146.688 116.467 146.84 116.11 147.37 115.676C148.236 114.972 148.518 113.889 148.182 112.762C147.923 111.874 147.641 110.974 147.013 110.248C146.353 109.479 146.32 108.623 146.58 107.713C146.851 106.781 146.97 105.806 147.652 105.016C147.879 104.755 147.923 104.311 148.009 103.943C148.226 102.979 148.713 102.231 149.644 101.819C150.38 101.494 151.105 101.148 151.863 100.866C152.502 100.628 152.794 100.931 152.751 101.635C152.686 102.621 152.61 103.585 152.231 104.517C152.134 104.745 152.177 105.026 152.188 105.286C152.242 106.922 152.036 108.526 151.701 110.118C151.527 110.931 151.592 111.798 151.538 112.643C151.506 113.13 151.473 113.629 151.408 114.116C151.343 114.615 151.224 115.113 151.159 115.622C151.051 116.511 150.921 117.399 150.899 118.298C150.867 119.793 150.943 121.299 150.402 122.74C150.369 122.816 150.347 122.924 150.369 122.989C150.759 124.062 150.261 125.059 150.066 126.055C149.86 127.128 149.86 128.19 149.828 129.262C149.817 129.696 149.709 130.118 149.644 130.552C149.676 130.552 149.709 130.562 149.741 130.573C149.687 131.256 149.633 131.938 149.579 132.621C149.514 133.379 149.341 133.618 148.626 133.488C146.115 133.044 143.517 133.347 141.038 132.523C140.334 132.285 139.49 132.48 138.71 132.458C137.92 132.448 137.942 132.437 137.855 131.722C137.822 131.386 137.693 131.072 137.638 130.736C137.53 130.151 137.498 129.544 137.335 128.981C137.108 128.168 136.783 127.388 136.523 126.586C136.437 126.326 136.329 125.947 136.448 125.785C136.632 125.546 136.967 125.525 137.335 125.665C138.461 126.099 139.63 126.38 140.843 126.207C141.947 126.045 142.964 125.633 143.289 124.452C143.571 123.466 144.058 122.654 144.826 121.993C145.238 121.635 145.465 121.234 145.433 120.649C145.4 120.032 145.595 119.457 146.234 119.176H146.223ZM135.538 109.739C135.701 109.295 136.101 109.208 136.502 109.306C136.913 109.403 137.292 109.62 137.693 109.728C139.121 110.118 140.583 110.389 141.969 110.877C143.181 111.299 144.513 111.581 145.335 112.751C145.476 112.946 145.584 113.174 145.682 113.325C145.573 113.715 145.487 114.008 145.075 113.802C144.242 113.401 143.408 112.989 142.575 112.589C142.467 112.534 142.337 112.426 142.228 112.437C141.308 112.556 140.605 111.841 139.814 111.765C138.634 111.646 137.649 111.039 136.523 110.855C136.318 110.823 136.112 110.747 135.95 110.628C135.668 110.422 135.398 110.151 135.538 109.75V109.739ZM134.521 113.878C134.564 113.791 134.726 113.726 134.835 113.726C135.214 113.737 135.625 113.705 135.982 113.835C137.498 114.387 139.067 114.712 140.648 115.048C141.124 115.145 141.568 115.438 142.012 115.676C142.131 115.741 142.228 115.958 142.228 116.099C142.228 116.175 141.99 116.272 141.839 116.316C141.72 116.348 141.579 116.316 141.178 116.316C141.113 116.305 140.778 116.261 140.442 116.175C138.97 115.796 137.508 115.373 136.025 115.026C135.452 114.896 134.975 114.669 134.607 114.225C134.532 114.138 134.488 113.965 134.521 113.878ZM134.304 117.356C134.51 117.377 134.737 117.388 134.932 117.453C136.805 118.103 138.764 118.428 140.68 118.905C141.481 119.111 142.196 119.436 142.77 120.053C143.138 120.454 143.029 120.877 142.521 120.974C142.315 121.018 142.088 120.974 141.871 120.974C141.655 120.974 141.416 121.028 141.222 120.963C139.868 120.476 138.537 119.945 137.184 119.479C136.274 119.165 135.333 118.916 134.412 118.645C134.293 118.612 134.12 118.645 134.044 118.558C133.828 118.32 133.471 118.027 133.481 117.778C133.503 117.41 133.914 117.291 134.293 117.345L134.304 117.356ZM135.192 122.914C134.445 122.632 133.687 122.361 132.951 122.025C132.724 121.928 132.594 121.624 132.421 121.418C132.67 121.288 132.951 120.996 133.157 121.039C134.835 121.473 136.491 121.96 138.147 122.459C138.992 122.719 139.825 123.022 140.648 123.369C140.886 123.466 141.027 123.759 141.211 123.954C140.983 124.354 140.713 124.463 140.312 124.333C139.425 124.051 138.537 123.791 137.649 123.509C137.043 123.314 136.469 123.022 135.798 123.076C135.603 123.087 135.387 122.989 135.192 122.914ZM150.629 228.85C148.15 227.723 145.682 226.575 143.213 225.448C142.716 225.221 142.196 225.026 141.709 224.776C140.854 224.343 140.832 224.256 141.243 223.411C142.12 221.613 143.029 219.825 143.895 218.016C144.426 216.911 144.891 215.762 145.411 214.646C145.628 214.191 145.963 213.78 146.147 213.314C146.797 211.754 147.479 210.194 148.139 208.644C149.027 206.564 149.481 204.354 150.358 202.285C150.694 201.505 151.213 200.746 151.333 199.944C151.603 198.124 152.328 196.445 152.761 194.668C153.173 192.946 153.606 191.223 153.996 189.479C154.19 188.612 154.613 187.799 154.569 186.868C154.558 186.651 154.981 186.434 155.1 186.163C155.219 185.914 155.295 185.578 155.24 185.318C155.208 185.199 154.818 185.08 154.602 185.102C154.19 185.145 153.714 185.178 153.379 185.394C151.711 186.521 149.73 186.748 147.89 187.366C147.771 187.409 147.619 187.453 147.511 187.409C146.299 186.922 145.021 187.312 143.787 187.171C142.098 186.976 140.41 186.77 138.862 185.99C138.115 185.611 137.324 185.308 136.556 184.961C135.614 184.527 134.737 184.04 134.034 183.238C133.254 182.361 132.356 181.591 131.565 180.736C130.223 179.284 129.162 177.648 128.48 175.784C128.101 174.755 127.722 173.715 127.441 172.653C127.019 171.006 126.564 169.338 127.159 167.615C126.975 166.499 127.636 165.557 127.809 164.517C127.863 164.181 128.036 163.791 127.917 163.52C127.224 161.884 127.733 160.281 127.917 158.666C128.015 157.897 127.906 157.106 127.95 156.326C128.004 155.297 128.123 154.278 128.231 153.26C128.285 152.708 128.448 152.166 128.458 151.624C128.48 149.988 128.653 148.385 128.967 146.781C128.989 146.651 128.978 146.521 128.989 146.391C129.076 144.192 129.119 141.993 129.26 139.804C129.368 138.103 129.595 136.402 129.779 134.701C129.822 134.322 130.288 134.029 130.71 134.084C131.392 134.159 132.074 134.192 132.745 134.289C134.261 134.506 135.809 134.636 137.324 134.712C138.656 134.788 140.009 135.481 141.373 134.853C141.481 134.799 141.687 134.983 141.839 134.983C142.651 134.983 143.462 134.983 144.285 134.983C144.513 134.983 144.762 134.95 144.978 135.015C146.147 135.351 147.305 135.546 148.496 135.102C148.864 134.961 149.081 135.199 149.027 135.59C148.918 136.435 148.799 137.28 148.68 138.125C148.615 138.591 148.518 139.056 148.518 139.522C148.485 141.581 148.377 143.618 147.793 145.611C147.749 145.774 147.695 145.99 147.771 146.109C148.28 146.922 147.858 147.691 147.684 148.471C147.63 148.721 147.489 148.959 147.468 149.197C147.37 151.05 147.295 152.892 147.186 154.744C147.154 155.34 146.97 155.925 146.948 156.51C146.894 157.691 147.208 157.951 148.356 158.016C149.514 158.081 150.293 157.615 150.889 156.619C151.3 155.925 151.917 155.362 152.426 154.723C153.205 153.758 153.996 152.805 154.732 151.808C156.193 149.815 157.644 147.821 159.289 145.958C160.004 145.156 160.902 144.441 161.314 143.336C161.541 142.729 162.147 142.263 162.558 141.722C163.414 140.606 164.258 139.479 165.102 138.352C165.232 138.179 165.276 137.93 165.438 137.821C166.412 137.16 167.008 136.185 167.711 135.275C168.675 134.029 169.649 132.783 170.677 131.592C171.738 130.357 172.539 128.916 173.806 127.843C174.38 127.356 174.802 126.673 175.289 126.077C175.711 125.557 175.971 125.59 176.22 126.218C176.285 126.37 176.318 126.543 176.361 126.706C176.751 128.352 177.227 129.977 177.443 131.678C177.573 132.718 177.985 133.715 178.255 134.744C178.342 135.069 178.439 135.416 178.428 135.741C178.407 136.651 178.634 137.507 178.905 138.374C179.11 139.013 179.154 139.707 179.219 140.389C179.414 142.253 179.565 144.116 179.944 145.958C180.215 147.29 180.236 148.688 180.312 149.501C180.204 151.527 180.28 152.978 180.767 154.376C180.832 154.571 180.778 154.809 180.788 155.026C180.832 156.099 180.734 157.16 181.005 158.233C181.156 158.85 180.864 159.576 180.843 160.259C180.799 161.516 180.626 162.805 180.853 164.018C181.124 165.427 180.994 166.781 180.907 168.168C180.897 168.374 180.734 168.612 180.799 168.785C181.362 170.411 180.572 172.014 180.767 173.628C180.821 174.072 180.518 174.549 180.561 175.004C180.626 175.838 180.106 176.619 180.474 177.507C180.637 177.897 180.355 178.493 180.193 178.98C179.912 179.847 179.76 180.681 179.955 181.602C180.052 182.057 179.814 182.599 179.706 183.097C179.641 183.39 179.424 183.715 179.5 183.942C180.128 185.773 179.5 187.485 179.11 189.229C178.861 190.389 178.667 191.559 178.418 192.718C178.309 193.216 178.039 193.672 177.941 194.17C177.855 194.679 177.378 195.188 177.866 195.752C177.952 195.849 177.79 196.142 177.746 196.348C177.627 196.922 177.508 197.507 177.368 198.081C177.313 198.319 177.216 198.558 177.108 198.774C176.696 199.663 176.328 200.551 176.318 201.57C176.318 202.025 176.155 202.48 176.036 202.935C175.885 203.509 175.711 204.072 175.549 204.636C175.495 204.842 175.441 205.047 175.365 205.242C174.997 206.185 174.618 207.128 174.261 208.081C174.131 208.438 173.979 208.829 174.001 209.186C174.066 210.118 173.698 210.854 173.178 211.559C172.832 212.025 172.669 212.523 172.669 213.108C172.669 213.476 172.539 213.856 172.442 214.224C172.009 215.871 171.381 217.442 170.623 218.98C170.071 220.118 169.757 221.364 169.313 222.555C168.718 224.137 168.134 225.73 167.462 227.29C167.083 228.189 166.531 229.002 166.088 229.879C165.839 230.367 165.525 230.876 165.46 231.407C165.351 232.349 164.864 233.075 164.355 233.823C163.912 234.473 163.912 234.473 163.121 234.126C161.422 233.357 159.733 232.555 158.001 231.851C156.713 231.331 155.446 230.757 154.082 230.378C152.87 230.042 151.722 229.424 150.564 228.904L150.629 228.85ZM148.529 351.309C148.518 351.384 148.496 351.731 148.399 352.056C148.301 352.392 148.117 352.598 147.674 352.609C146.645 352.641 145.628 352.771 144.599 352.847C144.339 352.869 144.015 352.934 143.841 352.815C143.517 352.598 142.889 352.977 142.867 352.37C142.867 352.186 143.333 351.98 143.592 351.807C144.513 351.211 145.411 350.572 146.559 350.442C146.829 350.409 147.078 350.171 147.327 350.009C148.107 349.521 148.475 349.716 148.529 350.648C148.529 350.778 148.529 350.908 148.529 351.298V351.309ZM174.044 335.967C173.535 337.896 173.633 339.944 173.027 341.861C172.951 342.1 172.994 342.381 172.994 342.641C172.994 342.945 173.102 343.313 172.972 343.541C172.323 344.624 172.572 345.87 172.29 347.029C172.052 347.972 172.063 348.979 171.944 349.954C171.879 350.507 171.847 351.07 171.652 351.58C171.359 352.381 170.558 352.479 169.855 352.587C169.259 352.674 168.642 352.609 167.96 352.609C167.019 352.663 165.979 352.425 165.016 353.053C164.756 353.215 164.269 353.085 163.901 353.01C162.483 352.728 161.108 352.468 159.614 352.804C158.369 353.085 157.027 352.847 155.728 352.88C155.176 352.89 154.634 353.02 154.093 353.085C153.876 353.107 153.66 353.129 153.454 353.107C152.913 353.042 152.372 352.923 151.82 352.88C151.04 352.815 150.878 352.717 150.889 351.97C150.91 351.027 150.889 350.106 151.073 349.153C151.289 348.069 151.148 346.91 151.127 345.783C151.127 345.307 150.705 344.83 150.25 344.83C149.676 344.83 149.102 344.689 148.529 345.144C147.641 345.859 146.634 346.422 145.649 347.018C145.216 347.278 144.729 347.463 144.264 347.668C144.036 347.766 143.766 347.809 143.56 347.95C141.103 349.499 138.396 350.442 135.668 351.363C134.012 351.926 132.345 352.035 130.624 351.623C129.552 351.363 128.448 351.276 127.365 351.07C125.969 350.799 124.659 350.236 123.576 349.359C122.829 348.752 122.191 347.928 121.725 347.083C121.021 345.805 121.487 344.212 122.84 343.465C125.178 342.175 127.452 340.756 129.725 339.337C130.44 338.893 131.067 338.297 131.739 337.777C132.074 337.517 132.41 337.235 132.778 337.051C134.402 336.228 136.069 335.469 137.682 334.624C138.808 334.028 139.879 333.335 140.983 332.696C141.46 332.414 141.904 332.046 142.412 331.861C143.43 331.493 144.361 331.038 145.097 330.193C145.324 329.933 145.768 329.738 146.115 329.738C147.143 329.749 148.182 329.532 149.2 329.9C149.514 330.009 149.882 329.965 150.228 329.965C152.48 329.965 154.743 329.976 156.994 329.965C157.492 329.965 158.033 329.673 158.488 329.781C159.008 329.911 159.462 330.052 159.982 329.868C160.079 329.835 160.22 329.835 160.307 329.89C161.01 330.355 161.801 330.215 162.569 330.225C165.979 330.312 169.378 330.388 172.788 330.485C174.207 330.529 174.737 331.276 174.401 332.663C174.261 333.237 174.142 333.822 174.066 334.407C174.001 334.927 174.207 335.458 174.066 336L174.044 335.967ZM190.196 352.695C189.968 352.782 189.709 352.825 189.449 352.847C188.539 352.945 187.63 353.064 186.721 353.085C186.093 353.096 185.454 352.955 184.815 352.89C184.599 352.869 184.372 352.804 184.177 352.869C183.04 353.248 181.925 352.988 180.767 352.923C179.608 352.858 178.45 352.381 177.227 352.793C176.567 353.02 175.765 352.858 175.029 352.825C174.466 352.804 174.25 352.587 174.293 351.991C174.401 350.767 174.575 349.543 174.715 348.308C174.834 347.333 174.943 346.357 175.062 345.382C175.148 344.667 175.127 343.909 175.343 343.237C175.852 341.677 175.852 340.052 176.112 338.459C176.447 336.368 176.945 334.277 177.075 332.176C177.14 331.081 177.692 330.15 177.703 329.055C177.703 328.004 178.039 326.964 178.169 325.913C178.299 324.895 178.309 323.866 178.461 322.847C178.677 321.417 178.981 320.009 179.219 318.589C179.349 317.831 179.381 317.062 179.5 316.303C179.738 314.668 180.117 313.042 180.236 311.396C180.345 309.933 180.821 308.568 181.048 307.138C181.211 306.13 181.232 305.09 181.34 304.072C181.384 303.693 181.525 303.335 181.579 302.956C181.763 301.656 181.849 300.323 182.131 299.045C182.434 297.669 182.217 296.217 182.802 294.895C182.867 294.743 182.889 294.559 182.878 294.397C182.824 293.519 183.04 292.717 183.354 291.905C183.516 291.482 183.603 291.027 183.473 290.464C183.3 289.771 183.571 288.947 183.69 288.2C183.83 287.365 184.025 286.542 184.177 285.708C184.285 285.079 184.361 284.44 184.458 283.812C184.534 283.357 184.621 282.891 184.696 282.436C184.729 282.23 184.696 281.981 184.794 281.807C185.368 280.67 185.432 279.435 185.487 278.2C185.487 277.983 185.422 277.723 185.519 277.56C186.212 276.282 185.963 274.809 186.45 273.476C186.753 272.663 186.677 271.71 186.796 270.822C186.937 269.727 187.121 268.633 187.24 267.539C187.305 266.986 187.294 266.423 187.305 265.86C187.305 265.589 187.338 265.361 187.673 265.275C187.879 265.22 188.063 265.058 188.074 265.426C188.074 265.6 188.074 265.773 188.074 265.946C188.16 267.311 188.247 268.687 188.334 270.052C188.366 270.052 188.388 270.063 188.42 270.074C188.323 270.616 188.16 271.157 188.139 271.699C188.117 272.198 188.334 272.707 188.28 273.183C188.225 273.671 187.814 274.148 187.847 274.614C187.879 275.274 188.085 275.957 188.366 276.564C188.658 277.214 188.821 277.766 188.334 278.384C187.922 278.904 187.987 279.532 188.193 280.107C188.42 280.757 188.409 281.352 188.096 281.97C187.998 282.154 188.052 282.425 188.031 282.653C187.966 283.281 187.792 283.92 187.847 284.538C187.901 285.155 188.236 285.74 188.323 286.369C188.464 287.355 188.442 288.319 188.139 289.326C187.901 290.15 187.998 291.071 188.474 291.948C189.135 293.173 189.005 294.505 188.594 295.816C188.485 296.174 188.334 296.553 188.345 296.921C188.377 298.167 188.15 299.424 188.572 300.648C188.68 300.962 188.572 301.341 188.594 301.688C188.615 302.176 188.15 302.652 188.583 303.129C188.496 304.646 188.756 306.109 189.091 307.571C189.167 307.885 189.07 308.254 188.962 308.579C188.626 309.608 188.366 310.616 188.821 311.699C188.94 311.991 188.853 312.382 188.853 312.728C188.853 316.022 188.853 319.326 188.853 322.62C188.853 323.216 188.702 323.833 189.081 324.386C189.146 324.472 189.146 324.667 189.102 324.765C188.68 325.643 188.875 326.509 189.102 327.387C189.156 327.593 189.146 327.831 189.102 328.037C188.788 329.478 189.34 330.919 189.189 332.306C189.048 333.573 189.438 334.743 189.427 335.967C189.416 336.888 189.568 337.788 189.156 338.665C189.102 338.774 189.091 338.947 189.135 339.044C189.557 339.868 189.286 340.745 189.373 341.59C189.438 342.305 189.687 343.053 189.579 343.736C189.449 344.494 189.795 345.014 190.066 345.599C190.261 346.043 190.131 346.433 189.903 346.823C189.535 347.452 189.254 348.058 189.6 348.849C189.806 349.304 189.535 349.879 189.6 350.431C189.676 351.114 189.86 351.688 190.369 352.132C190.824 352.522 190.401 352.587 190.174 352.685L190.196 352.695ZM191.733 311.926C191.733 311.331 191.809 310.735 191.527 310.15C191.376 309.835 191.43 309.359 191.527 309.001C191.841 308.026 191.841 307.062 191.527 306.098C191.473 305.935 191.419 305.729 191.473 305.588C191.863 304.668 191.419 303.758 191.451 302.837C191.484 301.927 191.484 301.016 191.451 300.106C191.43 299.554 191.289 299.012 191.224 298.47C191.192 298.167 191.116 297.81 191.246 297.571C191.614 296.899 191.506 296.195 191.43 295.534C191.322 294.505 191.657 293.454 191.224 292.425C191.083 292.078 191.278 291.58 191.3 291.157C191.343 290.431 191.43 289.706 191.419 288.98C191.419 288.427 191.202 287.885 191.202 287.344C191.192 277.268 191.202 267.203 191.181 257.127C191.181 255.058 190.997 252.999 190.943 250.93C190.932 250.388 191.073 249.836 191.148 249.294C191.159 249.207 191.202 249.11 191.181 249.045C190.683 247.474 191.051 245.871 190.932 244.289C190.845 243.151 189.395 242.404 188.377 242.924C187.803 243.216 187.598 243.693 187.565 244.267C187.457 245.719 187.468 247.192 187.273 248.633C187.067 250.183 186.959 251.753 186.526 253.292C186.244 254.31 186.169 255.383 185.985 256.423C185.898 256.921 185.79 257.42 185.681 257.918C185.617 258.211 185.53 258.481 185.465 258.774C185.14 260.193 185.303 261.667 184.978 263.097C184.772 264.007 184.978 264.971 184.696 265.903C184.393 266.954 184.545 268.113 183.971 269.121C183.841 269.359 183.863 269.717 183.895 270.009C184.004 271.19 183.755 272.306 183.354 273.4C183.311 273.519 183.202 273.638 183.202 273.747C183.235 275.253 182.78 276.694 182.585 278.167C182.466 279.099 182.315 280.02 182.207 280.952C182.066 282.219 181.86 283.476 181.308 284.646C181.211 284.863 181.276 285.155 181.286 285.415C181.308 286.152 181.265 286.845 180.897 287.539C180.648 288.005 180.626 288.611 180.583 289.153C180.464 290.724 179.825 292.208 179.944 293.844C180.02 294.884 179.641 295.935 179.533 296.997C179.457 297.81 179.468 298.644 179.468 299.456C179.468 300.063 179.468 300.648 179.143 301.201C179.024 301.406 178.991 301.677 178.948 301.927C178.916 302.1 178.991 302.295 178.926 302.447C178.19 304.093 178.385 305.881 178.147 307.604C178.093 308.026 178.028 308.46 177.866 308.839C177.368 310.02 177.368 311.255 177.357 312.501C177.357 313.042 177.281 313.617 177.097 314.126C176.826 314.884 176.891 315.643 176.837 316.412C176.794 317.094 176.783 317.799 176.556 318.427C176.014 319.944 175.885 321.504 175.82 323.075C175.765 324.353 175.571 325.621 175.3 326.867C175.159 327.495 174.802 327.755 174.142 327.853C172.041 328.167 169.931 328.124 167.82 328.08C165.968 328.048 164.106 328.048 162.288 327.788C161.129 327.614 159.95 327.755 158.824 327.549C156.626 327.148 154.429 327.419 152.242 327.311C151.906 327.289 151.582 327.192 151.246 327.138C151.04 327.105 150.791 327.018 150.618 327.083C149.568 327.528 148.485 327.257 147.414 327.3C147.111 327.311 146.775 327.138 146.483 326.997C146.028 326.769 146.385 326.401 146.407 326.108C146.439 325.643 146.559 325.188 146.634 324.732C146.645 324.646 146.678 324.537 146.645 324.472C146.136 323.465 146.526 322.457 146.656 321.461C146.786 320.496 146.97 319.532 147.111 318.568C147.165 318.232 147.132 317.874 147.176 317.539C147.241 316.997 147.5 316.401 147.36 315.913C147.176 315.285 147.37 314.863 147.641 314.386C147.684 314.321 147.684 314.223 147.684 314.137C147.771 312.902 147.89 311.656 147.944 310.421C148.052 308.265 147.987 306.098 148.258 303.974C148.464 302.382 148.334 300.724 148.962 299.185C149.059 298.958 148.973 298.665 148.994 298.405C149.059 297.203 148.799 295.989 149.243 294.808C149.276 294.733 149.276 294.624 149.243 294.548C148.897 293.628 149.232 292.717 149.254 291.797C149.308 290.161 149.276 288.514 149.546 286.91C149.763 285.654 149.665 284.418 149.774 283.183C149.871 282.035 150.077 280.908 150.217 279.771C150.261 279.391 150.282 279.001 150.282 278.611C150.282 276.38 150.445 274.159 150.791 271.948C150.943 270.973 151.04 269.987 151.051 269.012C151.084 267.127 151.257 265.253 151.571 263.389C151.592 263.259 151.571 263.129 151.581 262.999C151.668 261.147 151.711 259.305 151.852 257.452C151.95 256.141 152.177 254.83 152.35 253.53C152.361 253.444 152.35 253.357 152.361 253.27C152.448 251.071 152.523 248.882 152.632 246.683C152.664 245.957 152.74 245.231 152.902 244.527C153.097 243.682 153.162 242.837 153.151 241.981C153.13 239.533 153.314 237.095 153.66 234.668C153.714 234.289 153.649 233.888 153.682 233.498C153.736 232.805 154.071 232.62 154.732 232.88C155.987 233.379 157.254 233.877 158.51 234.375C158.629 234.419 158.737 234.495 158.845 234.56C160.242 235.481 161.811 235.99 163.349 236.596C164.247 236.954 165.113 236.9 166.012 236.889C166.575 236.889 166.629 236.618 166.726 235.892C166.791 235.318 166.997 234.733 167.246 234.202C168.707 231.136 169.887 227.929 171.479 224.917C172.226 223.498 172.778 221.97 173.33 220.454C173.709 219.424 173.828 218.287 174.293 217.312C174.954 215.914 175.332 214.441 175.895 213.021C176.718 210.974 177.259 208.85 177.876 206.738C178.017 206.25 178.255 205.795 178.385 205.307C178.677 204.202 178.916 203.086 179.175 201.97C179.175 201.927 179.175 201.884 179.175 201.84C179.587 200.378 180.074 198.926 180.388 197.442C180.572 196.564 181.135 196.337 181.828 196.283C182.369 196.25 182.921 196.402 183.473 196.467C184.491 196.575 185.508 196.716 186.537 196.77C187.359 196.824 188.182 196.748 189.005 196.781C190.769 196.846 192.545 196.803 194.277 197.073C196.453 197.409 198.618 197.626 200.805 197.55C201.465 197.528 202.093 198.092 202.764 197.637C203.868 198.168 205.016 197.713 206.141 197.799C207.224 197.875 207.538 198.114 207.527 199.186C207.527 199.652 207.386 200.107 207.321 200.573C207.289 200.79 207.213 201.039 207.289 201.212C207.603 201.84 207.386 202.48 207.235 203.043C206.964 204.072 207.062 205.091 206.997 206.12C206.964 206.716 206.845 207.301 206.769 207.886C206.748 208.059 206.683 208.265 206.769 208.395C207.116 209.024 206.845 209.609 206.769 210.237C206.596 211.905 206.574 213.585 206.477 215.253C206.445 215.849 206.607 216.467 206.25 217.03C206.174 217.16 206.163 217.398 206.228 217.539C206.715 218.677 206.109 219.804 206.196 220.941C206.293 222.111 206.423 223.335 206.163 224.441C205.828 225.838 206.066 227.247 205.763 228.655C205.492 229.901 205.687 231.244 205.708 232.555C205.708 233.119 205.654 233.65 205.395 234.17C205.026 234.917 205.395 235.491 206.239 235.567C206.455 235.589 206.672 235.567 206.888 235.567C208.101 235.567 209.313 235.567 210.537 235.567C211.76 235.567 212.886 235.6 214.055 235.567C214.997 235.535 215.928 235.383 216.859 235.329C217.237 235.307 217.616 235.426 217.995 235.481C218.288 235.524 218.612 235.632 218.883 235.567C220.94 235.08 223.018 235.426 225.075 235.318C225.335 235.307 225.616 235.351 225.844 235.253C226.223 235.091 226.547 234.928 226.894 235.296C227.251 235.665 227.673 235.979 227.576 236.607C227.478 237.192 227.543 237.777 227.381 238.384C227.219 238.991 227.381 239.749 227.597 240.388C227.836 241.103 227.652 241.732 227.424 242.328C227.121 243.151 227.024 243.985 227.034 244.841C227.056 246.401 227.056 247.972 227.034 249.532C227.034 249.955 226.894 250.367 226.861 250.789C226.84 251.082 226.872 251.374 226.883 251.667C226.894 252.295 226.926 252.924 226.905 253.552C226.905 253.974 226.775 254.408 226.796 254.83C226.84 255.6 226.959 256.358 227.034 257.127C227.045 257.257 227.067 257.398 227.034 257.517C226.71 258.861 227.034 260.237 226.785 261.58C226.731 261.873 226.666 262.165 226.634 262.458C226.569 263.194 226.32 263.877 226.482 264.668C226.656 265.545 226.58 266.488 226.515 267.398C226.45 268.243 226.699 269.056 226.558 269.912C226.439 270.627 226.558 271.385 226.526 272.122C226.504 272.804 226.623 273.487 226.309 274.159C226.179 274.44 226.212 274.863 226.309 275.188C226.677 276.466 226.634 277.712 226.288 278.991C226.147 279.5 226.158 280.031 226.32 280.572C226.45 280.995 226.58 281.58 226.396 281.916C225.714 283.162 225.941 284.484 226.093 285.719C226.19 286.553 225.963 287.29 225.952 288.07C225.952 288.535 225.833 288.991 225.757 289.456C225.627 290.291 225.909 291.114 225.79 291.959C225.681 292.772 225.79 293.606 225.746 294.429C225.725 294.938 225.562 295.437 225.541 295.946C225.519 296.412 225.606 296.878 225.627 297.344C225.67 297.94 225.833 298.568 225.703 299.131C225.4 300.464 225.335 301.753 225.725 303.064C225.757 303.183 225.768 303.335 225.725 303.454C225.227 305.025 225.595 306.629 225.465 308.221C225.421 308.73 225.313 309.229 225.259 309.738C225.237 309.987 225.259 310.247 225.27 310.496C225.324 311.136 225.573 311.807 225.432 312.392C225.053 313.985 225.292 315.578 225.205 317.159C225.183 317.495 225.129 317.831 225.075 318.178C225.064 318.254 224.956 318.362 224.978 318.405C225.692 319.792 224.599 321.276 225.194 322.663C225.227 322.739 225.237 322.847 225.194 322.923C224.739 324.017 225.302 325.112 225.194 326.195C225.151 326.574 225.043 326.943 224.934 327.3C224.815 327.679 224.523 327.809 224.133 327.82C223.062 327.82 221.99 327.777 220.929 328.048C220.463 328.167 219.922 327.972 219.413 327.918C219.121 327.885 218.818 327.853 218.526 327.82C217.638 327.734 216.718 328.015 215.841 327.593C215.7 327.528 215.44 327.658 215.246 327.734C214.477 328.037 213.676 328.102 212.853 328.08C211.338 328.048 209.811 328.037 208.296 328.08C206.488 328.134 204.691 328.275 202.883 328.319C201.108 328.362 199.311 328.178 197.557 328.373C196.139 328.524 194.732 328.568 193.313 328.579C193.021 328.579 192.707 328.546 192.426 328.459C192.09 328.351 191.884 328.167 191.874 327.723C191.819 325.263 191.679 322.815 191.635 320.355C191.592 317.539 191.635 314.711 191.625 311.894L191.733 311.926ZM217.974 352.587C217.173 352.641 216.371 352.576 215.56 352.815C215.051 352.966 214.423 352.836 213.871 352.706C213.146 352.533 213.059 352.316 213.091 351.157C213.091 351.114 213.07 350.897 213.135 350.691C213.297 350.193 213.719 350.019 214.206 350.279C215.148 350.778 216.166 351.016 217.173 351.309C217.497 351.406 217.855 351.45 218.136 351.612C218.396 351.764 218.883 351.753 218.807 352.251C218.721 352.793 218.277 352.565 217.984 352.587H217.974ZM235.294 351.515C234.656 351.818 233.909 352.045 233.216 352.045C231.332 352.045 229.384 352.132 227.565 351.731C226.114 351.417 224.512 350.994 223.462 349.673C223.343 349.521 223.007 349.456 222.78 349.478C221.687 349.575 220.68 349.207 219.641 348.936C219.11 348.795 218.569 348.687 218.039 348.557C216.761 348.243 215.711 347.484 214.802 346.596C213.73 345.545 212.442 345.447 211.1 345.577C210.385 345.642 209.508 346.932 209.443 347.82C209.357 349.109 209.281 350.409 209.183 351.699C209.118 352.62 208.599 352.955 207.711 352.771C206.098 352.457 204.474 352.49 202.851 352.76C201.974 352.901 201.054 353.14 200.198 353.01C198.131 352.695 196.063 352.966 193.995 352.847C193.865 352.847 193.736 352.847 193.606 352.847C193.086 352.858 192.815 352.62 192.783 352.078C192.729 351.265 192.599 350.464 192.534 349.662C192.447 348.708 192.198 347.777 192.48 346.769C192.664 346.119 192.382 345.339 192.317 344.613C192.296 344.31 192.274 344.006 192.263 343.714C192.177 340.821 192.09 337.939 192.004 335.047C191.495 333.996 191.971 332.956 192.004 331.905C192.036 331.038 192.393 330.702 193.303 330.702C195.554 330.691 197.806 330.702 200.068 330.702C202.06 330.702 204.052 330.713 206.055 330.702C206.65 330.702 207.256 330.832 207.83 330.485C208.003 330.377 208.328 330.496 208.577 330.529C209.043 330.583 209.53 330.778 209.963 330.68C211.37 330.355 212.756 330.81 214.141 330.702C214.932 330.648 215.538 330.94 216.09 331.482C216.859 332.23 217.703 332.901 218.461 333.66C219.294 334.494 220.442 334.819 221.362 335.491C221.925 335.902 222.672 336.076 223.029 336.802C223.127 336.997 223.44 337.094 223.668 337.192C226.255 338.264 228.799 339.424 231.44 340.334C232.859 340.821 234.277 341.395 235.792 341.677C237.535 341.991 238.986 342.804 239.505 344.743C239.819 345.913 239.581 347.008 239.061 347.95C238.206 349.51 236.907 350.734 235.283 351.504L235.294 351.515Z" fill="#212633"/>
</g>
<defs>
<clipPath id="clip0_14496_1250">
<rect width="138.175" height="346" fill="white" transform="translate(113 10)"/>
</clipPath>
</defs>
</svg>
