<svg width="364" height="364" viewBox="0 0 364 364" fill="none" xmlns="http://www.w3.org/2000/svg">
<g clip-path="url(#clip0_14496_1261)">
<path d="M177.854 203.762L212.794 207.594L212.546 251.148L219.972 251.86L229.535 331.066L202.259 331.314L192.685 233.435L180.488 323.413H155.359L155.597 254.256L169.478 255.454L173.547 231.762L176.893 214.297L177.854 203.762Z" fill="#212633"/>
<path d="M198.19 22.6181L205.368 24.2911L211.358 22.8555L216.14 19.5094L218.774 11.8457L206.091 12.094L200.823 19.0345L198.19 22.6181Z" fill="#212633"/>
<path d="M213.28 34.5996C212.61 34.6968 211.963 34.4593 211.423 33.9088C210.722 33.1856 210.819 32.0306 211.682 31.5125C212.082 31.2751 212.513 31.1024 212.934 30.9189C213.809 30.5411 214.262 30.6274 214.834 31.3506C215.233 31.8687 215.428 32.484 215.363 33.1316C215.266 34.1571 214.64 34.6104 213.29 34.6104L213.28 34.5996Z" fill="#212633"/>
<path d="M249.655 352.395C249.569 352.395 249.483 352.405 249.396 352.416C248.964 352.438 248.554 352.503 248.079 352.341C247.507 352.146 246.806 352.19 246.212 352.546C246.039 352.654 245.769 352.816 245.64 352.751C244.453 352.2 243.265 352.578 242.067 352.686C241.668 352.719 241.387 352.244 241.571 351.844C241.797 351.348 242.099 350.862 242.283 350.355C242.434 349.934 242.639 349.426 242.542 349.027C241.992 346.879 240.88 345.076 238.721 344.267C237.544 343.824 236.487 343.306 235.537 342.507C235.353 342.345 235.083 342.27 234.857 342.162C233.065 341.331 231.532 340.1 230.086 338.805C228.812 337.661 227.484 336.614 226.124 335.589C225.304 334.973 224.613 334.174 223.912 333.408C223.739 333.225 223.674 332.847 223.717 332.588C223.782 332.167 224.192 332.296 224.462 332.318C225.099 332.372 225.768 332.663 226.34 332.523C227.279 332.296 228.208 332.35 229.147 332.296C229.697 332.264 230.053 331.897 230.161 331.336C230.226 331.012 230.312 330.677 230.388 330.353C230.496 329.857 230.647 329.371 230.679 328.864C230.798 327.05 229.848 325.334 230.151 323.499C230.172 323.391 230.064 323.262 229.999 323.154C229.525 322.269 229.568 321.265 229.406 320.315C229.168 318.933 229.039 317.541 228.845 316.149C228.791 315.728 228.618 315.317 228.629 314.907C228.661 313.914 228.467 312.964 228.218 312.014C228.024 311.28 227.765 310.482 227.895 309.769C228.057 308.884 227.83 308.15 227.636 307.341C227.549 306.952 226.977 306.79 227.225 306.229C227.387 305.862 227.182 305.333 227.344 304.966C227.603 304.394 227.387 303.908 227.301 303.39C227.182 302.624 227.161 301.793 226.848 301.113C226.265 299.882 226.804 298.565 226.351 297.367C226.902 296.147 226.405 294.96 225.941 293.924C225.574 293.125 225.509 292.391 225.498 291.592C225.498 291.031 225.466 290.47 225.498 289.909C225.542 289.358 225.423 288.851 225.077 288.462C224.635 287.976 224.624 287.48 224.818 286.919C225.088 286.152 225.002 285.418 224.667 284.684C224.559 284.458 224.495 284.209 224.451 283.961C224.343 283.378 224.343 282.763 224.171 282.212C223.922 281.457 223.944 280.701 223.922 279.924C223.922 279.492 223.976 279.017 223.815 278.65C223.437 277.819 223.75 276.837 223.188 276.038C223.102 275.92 223.188 275.596 223.307 275.455C223.912 274.711 223.728 273.955 223.426 273.167C223.275 272.779 223.07 272.282 223.188 271.958C223.458 271.246 223.383 270.738 222.778 270.285C222.67 270.199 222.649 269.983 222.627 269.81C222.53 268.839 222.454 267.856 222.357 266.885C222.282 266.173 222.239 265.482 222.282 264.748C222.336 263.809 221.915 262.848 221.893 261.887C221.861 259.804 221.742 257.743 221.094 255.735C220.976 255.379 221.051 254.958 221.073 254.569C221.105 254.083 221.407 253.889 221.861 253.932C222.066 253.954 222.26 254.051 222.465 254.116C223.35 254.396 224.225 254.796 225.131 254.925C226.481 255.12 227.862 255.13 229.222 255.217C229.525 255.238 229.838 255.184 230.129 255.238C231.673 255.573 233.238 255.767 234.824 255.735C235.861 255.713 236.897 255.735 237.944 255.735C238.246 255.735 238.591 255.681 238.84 255.8C239.671 256.21 240.383 255.886 240.955 255.4C241.614 254.839 241.819 253.9 241.527 253.155C241.139 252.151 240.999 251.212 241.009 250.144C241.009 249.215 240.599 248.255 240.254 247.359C240.059 246.841 240.027 246.409 240.135 245.88C240.232 245.362 240.2 244.801 240.135 244.261C239.995 243.171 239.293 242.199 239.509 241.034C239.531 240.893 239.369 240.72 239.336 240.559C239.164 239.458 238.451 238.421 238.98 237.245C239.034 237.126 238.937 236.91 238.861 236.77C238.44 235.928 238.494 235.032 238.473 234.125C238.473 233.672 238.386 233.197 238.257 232.755C237.857 231.416 237.383 230.099 237.437 228.664C237.458 228.243 237.361 227.822 237.296 227.401C237.199 226.807 236.659 226.257 237.156 225.587C237.231 225.49 237.091 225.188 236.983 225.005C236.53 224.206 236.303 223.353 236.4 222.425C236.422 222.252 236.443 222.047 236.368 221.917C235.602 220.59 236.076 219.057 235.645 217.665C235.483 217.146 235.386 216.585 235.386 216.035C235.386 215.214 235.321 214.426 234.975 213.66C234.878 213.433 234.824 213.153 234.857 212.915C235.04 211.264 234.533 209.709 234.155 208.144C233.972 207.367 233.572 206.547 233.68 205.802C233.864 204.442 233.356 203.244 233.162 201.981C233.054 201.269 233.022 200.524 233.065 199.801C233.087 199.52 233.367 199.077 233.615 199.013C234.544 198.743 235.213 198.03 236.044 197.663C237.307 197.113 238.203 196.174 239.131 195.235C239.455 194.9 239.671 194.468 239.995 194.145C240.675 193.475 241.171 192.698 241.603 191.856C242.186 190.734 242.736 189.6 243.373 188.499C244.334 186.826 244.927 184.991 244.053 183.027C243.956 182.8 243.902 182.52 243.945 182.282C244.118 181.106 244.323 179.94 244.507 178.774C244.668 177.727 244.82 176.68 244.971 175.633C245.003 175.374 244.949 175.082 245.057 174.877C245.672 173.615 245.759 172.265 245.759 170.894C245.759 170.679 245.759 170.463 245.802 170.258C246.039 168.887 246.277 167.505 246.547 166.145C246.633 165.692 246.752 165.206 247.022 164.85C247.291 164.494 247.291 164.148 247.324 163.77C247.378 163.134 247.486 162.508 247.572 161.882C247.658 161.255 247.745 160.619 247.831 159.993C247.939 159.237 248.047 158.481 248.166 157.726C248.306 156.852 248.457 155.977 248.597 155.092C248.749 154.175 248.889 153.257 249.051 152.34C249.234 151.26 249.569 150.181 249.612 149.091C249.677 147.245 250.152 145.485 250.508 143.704C250.735 142.56 250.702 142.377 249.59 142.053C248.943 141.87 248.263 141.826 247.604 141.686C246.158 141.384 244.722 141.049 243.265 140.769C242.305 140.585 242.186 140.369 242.726 139.516C242.769 139.441 242.844 139.387 242.898 139.322C243.719 138.243 244.539 137.163 245.359 136.073C245.618 135.739 245.823 135.35 246.136 135.069C246.719 134.519 247.054 133.85 247.313 133.116C247.453 132.716 247.475 132.22 247.745 131.939C248.619 131 248.91 129.791 249.45 128.69C250.584 126.359 250.886 123.844 251.199 121.318C251.253 120.864 251.102 120.39 251.058 119.925C251.026 119.591 250.875 119.181 251.004 118.922C251.533 117.821 250.832 116.666 251.22 115.575C251.242 115.5 251.22 115.403 251.21 115.316C251.134 114.734 250.951 114.14 250.983 113.557C251.069 112.132 251.242 110.751 250.767 109.304C250.497 108.484 250.281 107.61 250.055 106.757C249.86 106.044 249.288 105.753 248.597 105.731C247.82 105.699 247.043 105.731 246.266 105.721C245.478 105.71 244.668 105.764 243.902 105.602C243.244 105.462 242.704 105.807 242.078 105.753C241.409 105.688 240.718 105.656 240.049 105.947C239.725 106.088 239.282 105.969 238.904 105.915C238.786 105.893 238.581 105.623 238.602 105.569C238.948 104.976 238.473 104.35 238.591 103.864C238.937 102.396 238.764 100.95 238.732 99.5033C238.71 98.467 238.527 97.3445 238.084 96.427C237.393 94.9914 236.476 93.6421 235.558 92.3253C234.749 91.1595 233.561 90.6198 232.126 90.6846C231.521 90.717 230.561 91.5265 230.474 92.0986C230.366 92.811 230.237 93.5342 230.215 94.2466C230.107 97.2149 230.032 100.183 229.945 103.141C229.945 103.4 229.956 103.659 229.924 103.918C229.762 105.095 229.514 106.26 229.438 107.437C229.319 109.401 229.46 111.377 229.201 113.352C228.942 115.349 229.158 117.367 228.963 119.396C228.715 122.041 228.898 124.718 228.672 127.384C228.467 129.737 228.478 132.101 228.391 134.465C228.391 134.508 228.402 134.562 228.391 134.594C228.057 135.328 228.218 136.116 228.111 136.872C228.013 137.627 228.111 138.351 228.111 139.095C228.111 139.937 227.916 140.79 227.884 141.632C227.776 144.082 227.7 146.522 227.625 148.972C227.603 149.792 227.625 150.613 227.625 151.433C227.625 151.681 227.582 151.951 227.484 152.178C227.355 152.48 226.923 152.48 226.75 152.199C226.664 152.059 226.621 151.886 226.589 151.724C226.362 150.213 225.714 148.788 225.801 147.223C225.801 147.061 225.736 146.889 225.682 146.738C225.218 145.561 225.261 144.233 224.646 143.1C224.602 143.024 224.527 142.927 224.549 142.873C224.84 142.215 224.246 141.686 224.268 141.082C224.289 140.369 224.009 139.754 223.825 139.106C223.502 138.016 223.221 136.904 222.983 135.793C222.832 135.048 222.811 134.271 222.692 133.515C222.584 132.803 222.53 132.058 222.271 131.41C221.872 130.406 221.721 129.392 221.623 128.312C221.526 127.233 221.321 126.11 220.911 125.117C220.522 124.178 220.317 123.272 220.339 122.268C220.35 121.814 220.177 121.361 220.058 120.918C219.918 120.39 219.637 119.882 219.605 119.353C219.573 118.792 219.389 118.403 219.022 117.993C218.385 117.27 218.461 116.946 219.227 116.331C219.292 116.277 219.357 116.191 219.432 116.169C220.641 115.813 221.267 114.798 221.915 113.87C222.703 112.726 223.458 111.539 223.717 110.125C223.879 109.207 224.203 108.279 224.182 107.361C224.149 105.548 224.721 103.67 223.75 101.91C223.588 101.619 223.609 101.241 223.523 100.906C223.437 100.539 223.307 100.172 223.221 99.8055C222.994 98.9312 222.422 98.1 222.919 97.1286C223.016 96.9451 222.919 96.6105 222.811 96.3946C222.444 95.6714 222.066 94.959 222.141 94.0955C222.163 93.8688 221.947 93.6314 221.861 93.3939C221.774 93.1564 221.71 92.9189 221.645 92.6707C221.537 92.2173 221.44 91.764 221.332 91.3214C221.267 91.0732 221.159 90.8465 221.127 90.5983C220.933 89.0331 220.749 87.4788 219.853 86.1188C219.756 85.9784 219.68 85.8165 219.637 85.6546C219.173 83.9492 218.698 82.2329 218.266 80.5167C218.061 79.6964 217.921 78.8652 217.781 78.0341C217.759 77.9046 217.889 77.7319 217.986 77.5915C218.223 77.2245 218.59 77.1598 219.011 77.1706C219.702 77.1922 220.414 77.2785 221.084 77.1382C222.638 76.8144 224.192 76.5985 225.779 76.6525C226.081 76.6525 226.383 76.6525 226.675 76.6093C227.851 76.4582 229.028 76.2855 230.205 76.1452C230.55 76.102 230.917 76.1991 231.241 76.1128C232.784 75.7134 234.382 75.8969 235.936 75.6486C236.541 75.5515 237.08 75.4651 237.609 75.1197C238.138 74.7851 238.721 74.4937 239.325 74.3534C239.703 74.267 239.779 74.0403 239.941 73.8029C240.232 73.3927 239.962 73.0581 239.8 72.7343C238.861 70.9317 237.901 69.1507 236.962 67.3481C235.353 64.261 233.907 61.0984 232.525 57.9142C232.309 57.4069 231.942 56.9535 231.791 56.4246C230.939 53.4455 229.427 50.7362 228.434 47.811C227.549 45.2205 226.783 42.5868 225.898 39.9962C225.757 39.5968 225.811 39.1327 225.65 38.7549C224.98 37.233 224.7 35.6031 224.257 34.0272C223.804 32.4081 223.545 30.7242 223.199 29.0727C223.113 28.6626 223.016 28.2524 222.94 27.8314C222.832 27.2054 222.757 26.5793 222.649 25.9425C222.584 25.5647 222.476 25.2085 222.422 24.8307C222.368 24.4961 222.444 24.1291 222.336 23.8053C221.796 22.1862 221.731 20.4808 221.364 18.8293C221.051 17.4369 220.857 15.9905 220.123 14.7168C219.745 14.0584 219.745 13.3352 219.907 12.6012C219.95 12.4177 220.037 12.137 219.95 12.0399C219.313 11.3383 218.709 10.5935 217.597 10.7014C217.273 10.7338 216.917 10.6367 216.615 10.4964C216.043 10.2373 215.536 10.0862 214.91 10.41C214.597 10.5719 214.132 10.4964 213.755 10.4424C213.042 10.3345 212.351 10.097 211.65 10.0214C211.11 9.95667 210.549 10.043 209.998 10.0538C209.372 10.0538 208.746 10.0538 208.12 10.0538C207.699 10.0538 207.257 9.95667 206.879 10.0754C205.886 10.3776 204.882 10.5287 203.846 10.4532C203.123 10.3992 202.421 10.4208 201.687 10.2805C201.007 10.151 200.23 10.5719 199.485 10.7122C198.902 10.8202 198.308 10.8742 197.726 10.9821C196.733 11.1656 195.664 11.2196 194.768 11.6189C193.905 12.0075 193.03 12.299 192.134 12.4717C191.53 12.5904 190.99 12.7955 190.472 13.0761C189.857 13.4107 189.242 13.6158 188.518 13.5942C188.151 13.5834 187.784 13.7561 187.417 13.8317C186.964 13.9288 186.511 14.08 186.057 14.0907C184.373 14.1231 182.895 14.7708 181.567 15.6883C180.52 16.4114 179.603 17.3073 178.264 17.5016C178.059 17.534 177.865 17.6528 177.692 17.7715C176.354 18.6566 175.004 19.5417 173.677 20.4484C173.32 20.6859 173.094 21.1392 172.716 21.3011C171.118 22.0135 170.201 23.5247 168.841 24.5285C168.118 25.0682 167.61 25.8885 167.028 26.6009C166.196 27.6156 165.301 28.5978 164.567 29.688C163.692 30.9833 163.012 32.4081 162.138 33.7034C160.638 35.9485 159.893 38.5282 158.878 40.9893C158.986 41.8744 158.565 42.6515 158.295 43.4395C157.971 44.3786 157.766 45.3068 157.788 46.3107C157.788 46.8072 157.615 47.3037 157.561 47.811C157.453 48.8257 157.356 49.8511 157.281 50.8657C157.205 51.9883 157.507 53.0569 157.702 54.1471C157.766 54.5141 157.702 54.9027 157.702 55.2805C157.691 55.9929 157.658 56.7053 157.658 57.4177C157.658 57.5796 157.82 57.817 157.766 57.8926C157.291 58.4863 157.691 59.0583 157.82 59.598C158.069 60.699 158.252 61.8108 158.77 62.8686C159.18 63.7105 159.742 64.7144 159.126 65.783C159.04 65.9341 159.126 66.2039 159.18 66.409C159.321 67.0243 159.461 67.6503 159.634 68.2548C159.882 69.1075 160.001 70.0574 160.486 70.7482C160.972 71.4498 161.188 72.2054 161.382 72.9609C161.523 73.5006 161.706 73.9972 161.944 74.5045C162.688 76.1344 163.282 77.7858 163.282 79.6208C163.282 80.0418 163.595 80.4735 163.768 80.8945C163.93 81.2831 164.254 81.6501 164.264 82.0387C164.286 83.2044 165.106 84.2082 164.847 85.4172C164.815 85.5575 165.139 85.7518 165.16 85.9461C165.268 86.9283 165.689 87.781 166.099 88.6553C166.164 88.7957 166.132 89.0007 166.11 89.1734C166.035 89.9182 166.326 90.5119 166.866 90.9976C167.427 91.5049 167.718 92.1634 167.923 92.865C168.204 93.8364 168.506 94.8079 168.679 95.8009C168.96 97.4308 169.618 98.9528 169.845 100.604C170.093 102.428 170.87 104.145 171.129 106.012C171.334 107.491 172.036 108.894 172.155 110.438C172.219 111.344 172.597 112.229 172.824 113.125C172.867 113.287 172.867 113.471 172.867 113.633C172.867 115.047 173.245 116.396 173.579 117.756C173.839 118.781 174.033 119.828 174.152 120.875C174.227 121.566 174.022 121.793 173.374 121.76C172.403 121.717 171.798 122.235 171.151 122.84C169.91 123.984 168.603 125.031 167.2 125.97C166.229 126.618 165.214 127.255 164.588 128.355C164.167 129.079 163.606 129.856 162.893 130.244C161.523 130.989 160.54 132.187 159.245 133.018C157.788 133.958 156.568 135.274 155.122 136.224C153.524 137.271 152.499 138.988 150.707 139.765C150.588 139.819 150.567 140.078 150.448 140.186C149.898 140.725 149.39 141.362 148.743 141.751C147.35 142.593 146.087 143.618 144.943 144.741C143.335 146.295 141.521 147.58 139.805 148.972C137.959 150.462 135.898 151.692 134.182 153.354C134.009 153.516 133.75 153.71 133.534 153.7C132.951 153.667 132.584 154.045 132.39 154.423C132.023 155.178 131.256 155.438 130.738 155.977C130.425 156.312 129.972 156.528 129.659 156.862C128.45 158.147 127.014 159.161 125.546 160.09C124.338 160.856 123.29 161.752 122.233 162.68C121.121 163.662 120.042 164.688 118.703 165.4C117.613 165.983 116.533 166.631 115.778 167.635C115.271 168.315 114.699 168.984 114.288 169.686C113.425 171.175 112.648 172.773 112.216 174.424C111.87 175.752 112.335 177.198 112.648 178.58C112.648 178.623 112.648 178.666 112.669 178.709C113.015 179.562 113.338 180.436 113.738 181.257C113.954 181.71 114.288 182.12 114.623 182.498C115.044 182.984 115.638 183.361 115.951 183.912C116.296 184.527 116.782 184.84 117.375 185.121C119.07 185.909 120.743 186.729 122.438 187.496C123.981 188.186 125.536 188.856 127.112 189.471C128.288 189.935 129.529 190.226 130.652 190.831C131.505 191.284 132.379 191.705 133.264 192.115C134.689 192.774 136.125 193.4 137.549 194.026C137.895 194.177 138.251 194.317 138.607 194.458C138.996 194.62 139.395 194.749 139.762 194.933C140.41 195.256 140.993 195.807 141.673 195.926C142.558 196.077 143.27 196.508 144.015 196.886C145.332 197.545 146.605 198.279 148.009 198.808C149.25 199.272 150.567 199.725 151.463 200.88C152.046 201.614 152.164 201.625 152.963 201.171C153.406 200.923 153.74 201.01 153.999 201.236C154.442 201.625 154.83 202.089 155.143 202.575C155.381 202.952 155.338 203.406 154.928 203.73C153.978 204.496 153.362 205.295 153.341 206.698C153.319 208.047 152.628 209.375 152.326 210.724C152.013 212.084 151.517 213.412 151.603 214.847C151.625 215.214 151.463 215.581 151.366 215.948C151.301 216.197 151.117 216.423 151.117 216.661C151.15 217.924 150.675 219.068 150.394 220.266C150.286 220.719 150.189 221.281 150.362 221.658C150.686 222.382 150.362 222.824 150.059 223.418C149.628 224.227 149.293 225.112 149.034 225.998C148.699 227.174 148.484 228.372 148.214 229.57C148.127 229.937 148.041 230.304 147.976 230.682C147.879 231.222 147.804 231.772 147.706 232.312C147.642 232.679 147.534 233.046 147.458 233.424C147.221 234.633 146.746 235.798 146.908 237.072C146.908 237.148 146.821 237.223 146.8 237.299C146.411 238.594 146.023 239.879 145.634 241.174C145.461 241.735 145.245 242.286 145.127 242.858C144.986 243.516 145.04 244.239 144.803 244.865C144.533 245.599 144.371 246.312 144.296 247.089C144.198 248.05 144.058 249.053 143.68 249.928C143.151 251.147 143.302 252.432 143.043 253.673C142.946 254.116 143.195 254.386 143.572 254.709C144.619 255.616 145.807 255.541 146.983 255.389C147.685 255.303 148.322 255.292 149.012 255.433C149.757 255.595 150.524 255.659 151.29 255.702C152.024 255.746 152.769 255.659 153.492 255.735C153.783 255.767 154.107 256.026 154.312 256.264C154.409 256.383 154.248 256.706 154.226 256.933C154.183 257.246 154.096 257.57 154.15 257.872C154.248 258.487 154.258 259.081 154.226 259.707C154.161 261.391 154.226 263.086 154.194 264.769C154.15 266.486 153.988 268.191 153.956 269.907C153.913 272.412 153.935 274.927 153.956 277.431C153.956 278.154 153.783 278.899 154.183 279.589C154.258 279.719 154.215 279.935 154.183 280.097C153.848 282.191 153.87 283.745 154.183 285.569C154.248 285.936 154.183 286.336 154.14 286.724C154.096 287.145 153.956 287.555 153.956 287.976C153.935 290.265 153.945 292.564 153.956 294.852C153.956 295.187 154.032 295.532 154.042 295.867C154.096 297.108 154.312 298.371 154.14 299.591C153.988 300.713 153.837 301.771 154.161 302.861C154.248 303.142 154.291 303.52 154.161 303.746C153.848 304.329 154.01 304.934 153.935 305.517C153.729 307.298 154.453 309.068 153.956 310.86C153.881 311.119 154.021 311.442 154.064 311.734C154.107 312.025 154.194 312.317 154.194 312.608C154.204 314.422 154.161 316.246 154.204 318.059C154.248 319.905 154.377 321.74 154.453 323.586C154.496 324.784 155.327 325.388 156.503 325.151C157.13 325.021 157.777 324.989 158.414 325.01C159.072 325.032 159.256 325.442 158.964 326.079C158.911 326.198 158.9 326.349 158.813 326.424C157.971 327.223 157.378 328.216 156.655 329.112C155.575 330.451 154.345 331.659 153.157 332.901C152.294 333.807 151.376 334.66 150.502 335.567C149.66 336.441 148.538 337.067 148.041 338.265C147.998 338.363 147.836 338.406 147.739 338.481C147.318 338.848 146.854 339.172 146.497 339.593C146.033 340.154 145.494 340.575 144.889 340.964C144.285 341.342 143.615 341.784 143.249 342.367C142.817 343.069 142.18 343.446 141.586 343.911C141.154 344.245 140.518 344.45 140.28 344.871C139.881 345.573 139.19 345.8 138.661 346.264C138.013 346.814 137.279 347.268 136.686 347.861C135.855 348.703 135.293 349.707 135.531 350.97C135.574 351.218 135.714 351.445 135.758 351.693C135.844 352.157 135.434 352.643 135.002 352.621C133.966 352.578 132.919 352.535 131.882 352.503C131.58 352.503 131.224 352.438 130.997 352.578C130.544 352.848 130.199 352.708 129.799 352.503C129.076 352.114 128.342 352.103 127.586 352.47C127.381 352.567 127.122 352.6 126.906 352.578C126.108 352.492 125.309 352.33 124.51 352.265C124.186 352.233 123.83 352.319 123.517 352.427C122.945 352.611 122.416 352.6 121.833 352.438C121.402 352.319 120.937 352.362 120.484 352.373C120.193 352.373 119.89 352.513 119.61 352.492C118.638 352.438 117.732 352.481 117.084 353.388C116.9 353.647 116.533 353.766 116.253 353.971C116.102 354.089 115.961 354.23 115.821 354.359C115.961 354.51 116.08 354.726 116.253 354.802C116.598 354.942 116.987 355.093 117.354 355.082C119.588 354.974 121.833 355.385 124.046 354.866C124.197 354.834 124.381 354.91 124.543 354.92C125.179 354.974 125.816 355.093 126.453 355.061C127.036 355.028 127.619 355.072 128.202 355.061C128.828 355.039 129.465 354.845 130.091 354.856C131.289 354.856 132.476 354.78 133.674 355.061C134.333 355.212 135.099 354.834 135.811 354.877C136.556 354.92 137.279 355.212 138.024 355.363C138.272 355.417 138.542 355.363 138.801 355.363C139.017 355.363 139.255 355.32 139.449 355.385C140.723 355.827 141.964 355.654 143.216 355.298C143.615 355.18 144.08 355.039 144.457 355.126C145.343 355.331 146.184 355.298 147.08 355.126C147.836 354.985 148.635 355.093 149.412 355.093C150.146 355.093 150.923 354.953 151.614 355.136C152.391 355.341 153.103 354.974 153.837 355.104C154.496 355.212 155.143 355.147 155.802 355.147C158.252 355.169 160.713 354.812 163.153 355.331C163.595 355.428 164.092 355.298 164.556 355.244C164.804 355.223 165.052 355.104 165.301 355.104C168.075 355.104 170.838 355.093 173.612 355.104C173.979 355.104 174.357 355.255 174.724 355.244C175.447 355.223 176.181 355.072 176.904 355.072C181.448 355.072 185.993 355.093 190.526 355.093C191.249 355.093 191.962 355.158 192.685 354.888C193.138 354.715 193.764 354.715 194.218 354.888C194.822 355.126 195.405 355.093 195.988 355.093C204.688 355.093 213.377 355.093 222.077 355.093C222.66 355.093 223.296 354.769 223.825 354.91C225.412 355.309 226.988 355.428 228.596 355.115C228.758 355.082 228.963 355.061 229.114 355.126C229.892 355.482 230.723 355.331 231.532 355.374C231.824 355.385 232.126 355.449 232.407 355.525C234.252 356.043 236.174 356.183 237.965 355.568C239.239 355.126 240.47 355.115 241.743 355.115C244.528 355.115 247.313 355.115 250.098 355.115L249.763 352.373L249.655 352.395ZM248.015 125.851C247.809 126.24 247.594 126.542 247.065 126.488C246.514 126.434 245.942 126.477 245.381 126.477C245.381 126.445 245.381 126.423 245.381 126.391C242.682 126.337 239.984 126.305 237.285 126.197C236.735 126.175 236.141 125.884 235.655 125.571C235.019 125.16 235.04 124.254 235.645 123.746C236.033 123.423 236.433 123.11 236.832 122.797C237.696 122.127 238.699 122.235 239.649 122.44C240.167 122.548 240.61 122.613 241.139 122.44C241.527 122.311 241.981 122.311 242.413 122.343C243.729 122.43 245.057 122.138 246.385 122.505C246.665 122.592 247.065 122.257 247.41 122.138C247.842 121.987 248.306 122.181 248.306 122.581C248.295 123.682 248.587 124.815 248.025 125.862L248.015 125.851ZM237.177 119.332C237.307 119.202 237.447 118.976 237.577 118.976C238.613 118.943 239.638 118.954 240.675 118.954C241.668 118.954 242.65 118.954 243.643 118.954C243.913 118.954 244.204 118.986 244.15 119.343C244.129 119.494 243.924 119.656 243.773 119.72C243.265 119.936 242.78 120.098 242.197 119.807C241.851 119.634 241.355 119.731 240.934 119.731C239.811 119.731 238.699 119.731 237.577 119.71C237.447 119.71 237.318 119.461 237.188 119.332H237.177ZM245.251 119.731C245.241 119.58 245.273 119.386 245.37 119.267C245.467 119.148 245.651 119.083 245.813 119.04C246.417 118.857 247.011 118.673 247.626 118.533C247.788 118.501 248.058 118.565 248.155 118.684C248.274 118.824 248.36 119.127 248.295 119.256C248.101 119.623 247.809 120.13 247.345 119.936C246.849 119.731 246.449 120.109 246.039 119.99C245.845 119.99 245.661 119.99 245.5 119.958C245.402 119.925 245.262 119.817 245.251 119.731ZM242.812 108.344C243.924 108.505 245.025 108.57 246.136 108.559C246.816 108.559 247.248 108.883 247.518 109.477C248.187 110.934 248.684 112.391 248.112 114.021C248.015 114.313 248.112 114.701 248.198 115.025C248.468 116.148 247.853 116.925 246.806 116.568C245.273 116.04 243.686 115.791 242.121 115.5C240.47 115.187 238.732 114.939 237.167 115.964C236.821 116.191 236.389 116.234 236.109 115.899C235.947 115.705 235.85 115.327 235.915 115.079C236.022 114.658 236.325 114.313 236.821 114.291C237.339 114.269 237.857 114.259 238.376 114.291C239.908 114.367 241.452 114.528 242.985 114.518C243.675 114.518 244.388 114.248 245.046 113.978C245.618 113.74 245.834 113.212 245.715 112.726C245.608 112.24 245.1 111.744 244.561 111.711C243.827 111.668 243.093 111.7 242.359 111.7C241.754 111.7 241.15 111.7 240.545 111.7C239.336 111.7 238.127 111.7 236.918 111.7C236.12 111.7 235.709 111.377 235.623 110.761C235.494 109.855 235.699 109.358 236.53 109.185C238.602 108.754 240.675 108.041 242.823 108.365L242.812 108.344ZM230.248 137.185C230.334 136.991 230.399 136.786 230.41 136.58C230.507 134.875 230.485 133.148 230.701 131.453C230.928 129.694 230.744 127.924 230.993 126.197C231.176 124.858 231.046 123.541 231.219 122.225C231.5 120.044 231.262 117.831 231.521 115.673C231.759 113.73 231.521 111.798 231.748 109.887C231.986 107.912 231.878 105.936 232.018 103.972C232.072 103.173 232.191 102.439 232.029 101.608C231.878 100.853 232.05 99.989 232.255 99.2226C232.612 97.9489 232.417 96.6645 232.493 95.38C232.514 95.1101 232.558 94.7107 232.73 94.6136C233.097 94.4085 233.389 94.7431 233.572 95.013C234.533 96.4702 235.364 97.9813 235.861 99.6652C236.249 100.971 236.055 102.31 236.12 103.432C236.12 104.49 236.098 105.354 236.12 106.217C236.141 106.692 235.969 107.016 235.645 107.35C234.911 108.128 234.209 108.937 233.507 109.736C232.871 110.459 232.903 111.301 233.108 112.154C233.151 112.316 233.227 112.478 233.324 112.607C234.188 113.73 234.123 114.874 233.41 116.029C233.194 116.374 233.205 116.655 233.475 116.957C233.691 117.216 233.885 117.497 234.047 117.799C234.317 118.306 234.544 118.76 234.349 119.429C234.144 120.141 234.123 120.983 234.608 121.663C234.889 122.052 234.706 122.257 234.457 122.538C233.853 123.196 233.27 123.887 232.687 124.567C232.363 124.945 232.374 125.344 232.666 125.743C232.871 126.013 233.087 126.272 233.27 126.564C234.015 127.719 235.062 128.129 236.422 128.345C238.073 128.604 239.736 128.399 241.387 128.744C242.542 128.992 243.794 128.798 245.014 128.798C245.316 128.798 245.618 128.798 245.921 128.798C246.838 128.82 247.022 129.068 246.471 129.856C245.845 130.741 245.554 131.745 245.165 132.727C244.884 133.439 244.507 134.098 243.913 134.638C243.049 135.415 242.423 136.365 241.797 137.347C241.301 138.135 240.675 138.847 240.016 139.506C239.746 139.775 239.25 139.894 238.851 139.905C238.354 139.927 237.825 139.829 237.361 139.668C235.958 139.171 234.522 138.858 233.076 138.577C232.622 138.491 232.147 138.469 231.694 138.394C231.327 138.329 230.939 138.264 230.593 138.113C230.194 137.941 230.032 137.617 230.226 137.163L230.248 137.185ZM218.763 135.598C219.044 135.479 219.152 135.717 219.324 135.933C219.864 136.624 219.724 137.487 220.015 138.232C220.209 138.728 220.209 139.311 220.306 139.851C220.36 140.186 220.436 140.509 220.501 140.844C220.738 142.215 221.321 143.51 221.375 144.935C221.407 145.583 221.753 146.219 221.926 146.867C222.012 147.191 222.109 147.526 222.109 147.86C222.098 149.533 222.433 151.163 222.94 152.739C223.264 153.743 223.394 154.79 223.869 155.761C224.171 156.377 224.095 157.175 224.192 157.888C224.279 158.6 224.354 159.323 224.462 160.036C224.592 160.986 225.606 162.054 226.556 161.957C227.269 161.881 227.938 161.407 228.618 161.083C228.693 161.05 228.715 160.813 228.693 160.673C228.618 160.133 228.488 159.593 228.424 159.043C228.391 158.805 228.478 158.557 228.521 158.319C228.726 157.197 228.931 156.074 229.136 154.952C229.136 154.909 229.136 154.865 229.136 154.822C229.373 153.916 229.848 153.084 229.686 152.048C229.535 151.12 229.611 150.148 229.654 149.199C229.751 146.835 229.999 144.482 229.935 142.118C229.924 141.729 230.151 141.308 230.366 140.952C230.528 140.682 230.777 140.639 231.187 140.661C233.248 140.779 235.181 141.395 237.156 141.859C238.721 142.226 240.308 142.485 241.873 142.798C242.121 142.852 242.348 142.97 242.585 143.035C242.952 143.132 243.319 143.284 243.686 143.294C244.69 143.316 245.608 143.651 246.514 143.974C247.281 144.244 247.389 144.417 247.281 145.237C247.183 145.939 246.935 146.63 246.741 147.32C246.687 147.526 246.503 147.752 246.547 147.914C247 149.382 246.234 150.721 246.147 152.135C246.082 153.268 245.467 154.358 245.856 155.524C245.877 155.589 245.888 155.675 245.877 155.74C245.564 156.916 245.23 158.093 244.928 159.28C244.82 159.723 244.679 160.198 244.712 160.651C244.83 162.389 244.42 164.029 244.032 165.692C243.773 166.804 243.611 167.937 243.373 169.049C243.319 169.297 243.33 169.491 243.341 169.729C243.373 170.171 243.233 170.635 243.136 171.089C242.952 171.931 242.51 172.708 242.823 173.647C242.952 174.035 242.682 174.543 242.607 175.007C242.52 175.503 242.445 176.011 242.359 176.507C242.359 176.55 242.359 176.594 242.359 176.637C241.862 178.353 241.97 180.166 241.517 181.893C241.452 182.142 241.333 182.379 241.333 182.627C241.258 186.276 239.833 189.492 237.879 192.45C236.886 193.95 235.537 195.246 233.961 196.239C233.928 196.26 233.907 196.303 233.864 196.325C233.065 196.8 232.45 196.573 232.255 195.688C232.05 194.738 231.899 193.778 231.716 192.817C231.392 191.155 231.327 189.449 230.744 187.841C230.712 187.765 230.679 187.679 230.69 187.593C230.798 186.254 230.41 184.981 230.161 183.685C230.086 183.318 230.01 182.94 229.892 182.584C229.74 182.099 229.373 181.904 228.909 181.688C228.38 181.451 228.218 181.796 227.927 181.98C227.679 182.131 227.366 182.271 227.225 182.509C227.01 182.876 226.74 183.178 226.977 183.772C227.366 184.689 227.474 185.725 227.722 186.708C227.851 187.215 227.29 187.765 227.808 188.251C227.754 189.331 228.629 190.248 228.37 191.371C228.348 191.468 228.478 191.597 228.531 191.716C229.05 192.871 229.233 194.08 229.114 195.332C229.05 195.98 229.244 196.519 229.73 196.951C230.474 197.609 230.69 198.462 230.679 199.401C230.679 200.999 230.658 202.607 230.679 204.205C230.679 204.701 230.831 205.208 230.928 205.705C231.198 207.076 231.543 208.425 231.77 209.807C231.932 210.778 231.727 211.868 232.396 212.775C232.59 213.034 232.482 213.531 232.482 213.908C232.493 215.02 232.417 216.121 232.925 217.19C233.173 217.708 233.162 218.345 233.259 218.928C233.356 219.554 233.443 220.19 233.529 220.816C233.702 222.123 233.723 223.461 234.09 224.713C234.77 227.077 234.846 229.56 235.602 231.902C235.364 233.262 236.26 234.46 236.152 235.809C236.13 236.079 236.325 236.371 236.389 236.662C236.487 237.094 236.584 237.472 236.497 237.979C236.357 238.821 236.443 239.825 236.8 240.591C237.318 241.703 237.361 242.89 237.685 244.023C237.857 244.617 238.063 245.178 237.76 245.869C237.577 246.301 237.76 246.981 237.976 247.467C238.408 248.406 238.311 249.485 238.786 250.381C239.25 251.255 238.797 251.968 238.505 252.669C238.214 253.349 237.426 253.252 236.886 253.08C236.109 252.842 235.407 252.788 234.641 253.08C234.403 253.177 234.058 253.047 233.777 252.982C232.201 252.594 230.626 252.205 228.985 252.356C226.956 252.529 224.991 252.022 222.994 251.806C222.552 251.763 222.131 251.482 221.71 251.299C220.857 250.921 220.026 250.5 219.054 250.532C218.31 250.554 217.619 250.295 216.82 250.467C216.032 250.64 215.136 250.37 214.294 250.241C213.906 250.176 213.787 249.831 213.798 249.442C213.809 248.406 213.798 247.37 213.798 246.323C213.798 245.459 213.701 244.574 213.809 243.732C214.283 240.213 213.938 236.673 214.046 233.143C214.607 231.664 214.003 230.067 214.553 228.577C214.64 228.351 214.575 228.059 214.575 227.8C214.575 226.419 214.553 225.026 214.575 223.644C214.65 219.942 214.704 216.24 214.866 212.537C214.899 211.696 214.942 210.875 214.856 210.022C214.704 208.522 214.812 207.011 215.244 205.543C215.298 205.338 215.341 205.122 215.352 204.917C215.449 202.165 215.514 199.412 215.622 196.67C215.665 195.472 215.751 194.285 215.881 193.098C216.086 191.23 216.043 189.352 216.162 187.496C216.302 185.455 216.216 183.394 216.626 181.375C216.701 181.019 216.561 180.62 216.55 180.231C216.518 179.465 216.431 178.698 216.485 177.943C216.572 176.842 216.831 175.763 216.896 174.662C216.971 173.237 216.885 171.812 216.917 170.376C216.982 168.131 216.917 165.854 217.219 163.63C217.457 161.86 217.338 160.111 217.425 158.363C217.435 158.104 217.349 157.791 217.457 157.596C217.845 156.905 217.716 156.182 217.543 155.513C217.263 154.477 217.489 153.484 217.727 152.523C217.921 151.746 217.921 151.001 217.943 150.235C218.029 147.137 217.997 144.028 218.256 140.952C218.396 139.322 218.407 137.703 218.482 136.073C218.482 135.9 218.612 135.641 218.752 135.587L218.763 135.598ZM213.69 172.373C213.69 172.978 213.69 173.604 213.528 174.176C213.096 175.709 213.355 177.252 213.355 178.785C213.355 179.713 213.841 180.641 213.312 181.57C213.269 181.634 213.28 181.753 213.312 181.829C213.776 182.984 213.269 184.052 213.075 185.164C212.988 185.628 213.075 186.114 213.042 186.589C212.988 187.528 213.226 188.478 212.805 189.384C212.751 189.492 212.751 189.654 212.805 189.773C213.344 191.295 212.729 192.806 212.772 194.328C212.816 195.872 212.524 197.426 212.567 198.97C212.621 200.621 212.438 202.218 212.049 203.816C211.963 204.183 212.049 204.582 212.071 204.971C212.071 205.198 212.211 205.521 212.103 205.64C211.887 205.878 211.574 206.04 211.261 206.147C211.024 206.223 210.743 206.201 210.495 206.147C208.994 205.824 207.462 205.78 205.94 205.608C204.18 205.403 202.421 205.478 200.672 205.36C199.582 205.284 198.524 204.939 197.445 204.723C197.283 204.69 197.11 204.626 196.948 204.615C195.146 204.518 193.354 204.485 191.562 204.334C190.04 204.215 188.529 203.978 187.007 203.794C186.543 203.74 186.09 203.622 185.636 203.579C185 203.514 184.373 203.622 183.737 203.373C183.359 203.222 182.808 203.373 182.366 203.503C181.675 203.697 181.103 203.503 180.563 203.125C180.175 202.855 179.937 202.424 180.142 202.003C180.455 201.377 180.304 200.74 180.369 200.103C180.401 199.768 180.477 199.434 180.531 199.099C180.563 198.937 180.65 198.754 180.617 198.602C180.326 197.329 180.617 196.109 180.876 194.879C180.876 194.835 180.876 194.792 180.876 194.749C180.963 192.817 181.103 190.896 181.124 188.964C181.135 187.711 181.308 186.502 181.578 185.304C181.61 185.142 181.664 184.959 181.621 184.808C181.232 183.156 181.265 181.505 181.632 179.864C181.675 179.659 181.718 179.378 181.621 179.227C181.081 178.375 181.524 177.533 181.718 176.756C181.923 175.935 181.988 175.18 181.718 174.381C181.632 174.1 181.589 173.766 181.664 173.496C182.085 171.974 181.535 170.452 181.664 168.941C181.707 168.39 181.837 167.851 181.891 167.311C181.923 166.965 182.01 166.577 181.891 166.285C181.556 165.487 181.675 164.677 181.664 163.868C181.643 161.666 181.697 159.453 181.653 157.251C181.61 154.887 181.524 152.534 181.384 150.17C181.33 149.296 181.06 148.432 180.909 147.558C180.855 147.266 180.909 146.953 180.876 146.651C180.801 145.896 180.693 145.129 180.639 144.374C180.628 144.147 180.747 143.91 180.811 143.672C180.995 143.769 181.211 143.834 181.34 143.974C181.707 144.384 182.128 144.795 182.355 145.28C183.1 146.921 184.244 148.303 185.334 149.695C186.208 150.807 187.363 151.714 188.605 152.448C188.821 152.577 189.026 152.728 189.231 152.879C190.526 153.883 191.983 154.509 193.591 154.79C193.635 154.79 193.689 154.779 193.721 154.79C194.876 155.599 196.225 155.33 197.467 155.34C198.654 155.351 199.874 155.362 201.093 155.081C202.917 154.66 204.709 154.207 206.318 153.225C206.933 152.847 207.57 152.502 208.12 152.048C209.405 150.99 210.689 149.933 211.661 148.54C212.373 147.526 213.409 146.727 213.625 145.388C213.636 145.302 213.938 145.162 214.024 145.205C214.24 145.302 214.543 145.464 214.575 145.658C214.661 146.079 214.597 146.522 214.597 146.953C214.64 147.871 214.564 148.788 214.597 149.706C214.629 150.591 214.413 151.487 214.37 152.372C214.327 153.322 214.51 154.304 214.327 155.222C213.938 157.154 214.197 159.086 214.1 161.007C214.068 161.73 214.197 162.464 213.863 163.166C213.765 163.382 213.776 163.695 213.852 163.932C214.24 165.238 213.852 166.544 213.83 167.84C213.809 168.649 213.625 169.448 213.593 170.247C213.571 170.959 213.711 171.672 213.711 172.395L213.69 172.373ZM180.088 128.463C182.107 129.78 184.104 131.13 186.144 132.414C187.115 133.018 188.162 133.483 189.188 134.001C189.565 134.195 189.954 134.368 190.353 134.497C190.99 134.702 191.638 134.961 192.296 135.026C193.354 135.134 194.423 135.134 195.491 135.253C196.657 135.382 197.887 135.199 199.053 135.005C200.964 134.681 202.853 134.238 204.752 133.86C204.904 133.828 205.098 133.806 205.206 133.882C205.616 134.163 205.951 133.925 206.274 133.742C207.3 133.159 208.271 132.425 209.351 131.971C210.905 131.324 211.844 130.104 212.762 128.809C213.323 128.01 213.906 127.233 214.489 126.456C214.575 126.348 214.78 126.305 214.931 126.283C214.964 126.283 215.071 126.488 215.071 126.596C215.093 127.071 215.071 127.546 215.071 128.075C215.201 129.424 214.748 130.698 214.305 131.993C214.046 132.738 213.819 133.547 213.809 134.335C213.798 135.458 213.571 136.526 213.258 137.584C213.01 138.415 212.632 139.193 212.956 140.142C213.085 140.531 212.762 141.114 212.578 141.578C212.373 142.085 212.071 142.56 211.866 143.068C211.693 143.489 211.617 143.964 211.445 144.384C211.067 145.28 210.819 146.306 210.203 147.007C208.379 149.069 206.21 150.721 203.554 151.584C202.917 151.789 202.216 151.8 201.557 151.929C201.19 151.994 200.769 152.027 200.467 152.221C199.971 152.534 199.463 152.448 198.967 152.415C198.416 152.383 197.877 152.242 197.337 152.189C196.366 152.081 195.383 152.037 194.412 151.897C194.099 151.854 193.71 151.692 193.516 151.465C192.696 150.515 191.541 150.116 190.472 149.63C189.36 149.123 188.497 148.313 187.547 147.612C186.586 146.899 186.144 145.799 185.582 144.805C185.172 144.082 184.751 143.489 184.05 143.003C183.197 142.42 182.776 141.427 182.409 140.477C181.815 138.944 181.124 137.433 180.768 135.836C180.531 134.799 180.315 133.752 179.937 132.77C179.451 131.507 179.289 130.223 179.289 128.906C179.289 128.291 179.57 128.14 180.088 128.485V128.463ZM180.542 123.887C181.189 123.844 181.837 123.887 182.485 123.887C182.7 123.887 182.916 123.887 183.251 123.887C184.935 123.952 186.705 123.725 188.464 123.401C189.544 123.196 190.666 123.218 191.778 123.11C192.458 123.045 193.138 123.002 193.797 122.84C194.423 122.678 195.005 122.786 195.632 122.807C196.722 122.861 197.834 122.635 198.924 122.505C199.971 122.376 201.018 122.225 202.076 122.073C203.166 121.922 204.256 121.771 205.346 121.631C205.562 121.598 205.767 121.566 205.983 121.566C207.224 121.566 208.422 121.221 209.631 121.102C210.981 120.972 212.33 120.854 213.668 120.605C214.078 120.53 214.456 121.07 214.294 121.512C214.089 122.063 213.852 122.624 213.528 123.12C212.146 125.268 210.668 127.33 208.919 129.208C207.505 130.719 205.638 131.237 203.813 131.907C202.777 131.518 201.903 132.317 200.91 132.317C199.884 132.317 198.859 132.403 197.833 132.49C197.11 132.544 196.398 132.695 195.686 132.738C193.656 132.835 191.681 132.468 189.857 131.648C188.443 131.011 187.137 130.093 185.809 129.273C185.161 128.874 184.557 128.399 183.952 127.935C183.445 127.546 182.981 127.103 182.463 126.726C182.02 126.402 181.524 126.164 181.071 125.84C180.704 125.571 180.315 125.29 180.056 124.934C179.635 124.34 179.829 123.973 180.52 123.93L180.542 123.887ZM218.094 18.5163C218.45 18.1709 218.849 18.2572 218.968 18.6998C219.108 19.2287 219.238 19.7792 219.249 20.3189C219.303 21.7329 219.173 23.1469 219.519 24.5393C219.573 24.7444 219.519 25.0034 219.616 25.1653C220.609 26.7305 220.576 28.4791 220.544 30.2169C220.533 31.1344 220.846 31.9547 221.051 32.829C221.354 34.1135 222.012 35.2577 222.39 36.499C222.444 36.6933 222.606 36.9415 222.541 37.0711C222.12 37.8374 222.465 38.4635 222.811 39.1219C222.983 39.4457 223.135 39.8451 223.113 40.2013C223.059 41.2699 223.426 42.1982 223.901 43.1265C224.3 43.9144 224.549 44.7456 224.764 45.6199C225.088 46.9044 225.336 48.286 226.168 49.3978C226.427 49.7432 226.459 50.0778 226.524 50.4556C226.664 51.373 226.826 52.2474 227.398 53.0677C227.895 53.7693 228.402 54.5573 228.348 55.5287C228.348 55.6798 228.456 55.8417 228.542 55.9929C229.179 57.0507 229.525 58.2164 229.935 59.3714C229.946 59.4145 229.967 59.4577 229.999 59.4793C230.895 60.4292 231.046 61.7676 231.759 62.8146C231.802 62.8902 231.899 62.9442 231.91 63.0197C232.104 64.2826 232.914 65.2325 233.518 66.2903C234.511 68.0605 235.44 69.8847 236.368 71.6873C236.854 72.6263 236.703 72.853 235.655 72.9933C234.188 73.1984 232.72 73.5006 231.241 73.5546C230.41 73.587 229.6 73.6626 228.791 73.7813C227.15 74.008 225.488 74.0403 223.836 74.2346C222.875 74.3534 221.904 74.688 220.825 74.3642C220.134 74.1591 219.259 74.5584 218.461 74.688C218.212 74.7311 217.953 74.8391 217.716 74.8067C216.723 74.6664 216.011 75.3032 215.223 75.6702C214.737 75.8969 214.532 76.4474 214.586 76.9871C214.683 78.0017 214.715 79.0487 215.007 80.0094C215.287 80.9377 215.309 81.9199 215.805 82.805C216.075 83.2907 216.075 83.96 216.108 84.5428C216.172 85.5683 216.367 86.5505 216.734 87.5112C216.917 87.9753 216.464 88.4287 215.989 88.2452C214.37 87.6191 212.675 87.5112 210.959 87.5328C209.901 87.5544 208.994 87.047 208.034 86.7448C207.591 86.6045 207.116 86.4642 206.674 86.5181C206.35 86.5613 205.994 86.8743 205.799 87.1658C205.573 87.5004 205.843 87.835 206.134 88.0401C206.9 88.5582 207.645 89.1627 208.487 89.5296C210.376 90.35 212.351 90.8789 214.456 90.7278C215.384 90.6306 216.324 90.5335 217.252 90.4256C217.586 90.3932 218.159 90.7494 218.159 91.1487C218.159 92.3361 219 93.2752 219.065 94.4409C219.087 94.8942 219.238 95.3476 219.346 95.8009C219.562 96.6968 219.81 97.5927 220.026 98.4886C220.134 98.942 220.188 99.4061 220.263 99.8595C220.35 100.356 220.393 100.874 220.522 101.36C220.879 102.623 221.138 103.896 221.364 105.192C221.688 107.048 221.289 108.732 220.749 110.416C220.436 111.409 219.993 112.488 219.281 113.19C217.964 114.474 216.431 115.575 214.704 116.299C214.359 116.45 213.938 116.741 213.528 116.331C213.506 116.309 213.442 116.32 213.398 116.331C211.833 116.547 210.344 116.061 208.843 115.77C207.397 115.489 206.005 114.982 204.58 114.572C202.475 113.956 200.651 112.726 198.87 111.56C196.322 109.898 194.12 107.771 192.275 105.31C191.638 104.468 191.055 103.583 190.429 102.731C189.911 102.029 189.738 101.295 189.824 100.399C189.889 99.7515 189.652 99.0715 189.479 98.4131C188.777 95.6714 188.033 92.9513 187.342 90.2097C187.158 89.4757 187.137 88.6985 187.018 87.9429C186.888 87.155 186.705 86.367 186.575 85.5791C186.446 84.7803 186.36 83.9816 186.241 83.1828C186.09 82.1358 185.895 81.0996 185.755 80.0418C185.636 79.1135 185.528 78.1852 185.464 77.2461C185.388 76.1775 185.334 75.1089 185.28 74.0511C185.215 72.9394 185.075 71.7628 185.259 70.6726C185.518 69.0751 185.431 67.4992 185.453 65.9233C185.485 63.7861 185.582 61.6705 186.176 59.598C186.241 59.3822 186.09 59.1231 186.079 58.8748C186.079 58.6374 186.047 58.3675 186.144 58.1516C186.349 57.6767 186.489 57.2234 186.532 56.6837C186.629 55.464 186.845 54.2442 187.029 53.0353C187.083 52.7115 187.191 52.3769 187.331 52.0747C187.622 51.4486 187.828 50.8226 187.817 50.1102C187.817 49.8187 187.935 49.5381 187.989 49.2466C188.108 48.6638 188.205 48.0809 188.335 47.5088C188.378 47.3037 188.443 47.0986 188.529 46.9151C189.09 45.717 189.36 44.4541 189.673 43.1696C189.965 41.9931 190.58 40.9029 191.033 39.7588C191.206 39.327 191.314 38.8844 191.443 38.4419C191.508 38.2368 191.541 38.0317 191.638 37.8482C192.199 36.7688 192.771 35.6894 193.354 34.61C194.012 33.3903 194.682 32.1814 195.351 30.9617C195.955 29.8607 196.592 28.7597 197.164 27.6372C197.456 27.0651 197.736 26.5254 198.211 26.072C198.837 25.4892 199.561 25.338 200.348 25.4892C201.827 25.7806 203.025 25.705 204.655 25.5C205.875 25.3488 207.095 25.1869 208.304 24.9279C208.39 24.9063 208.487 24.9387 208.563 24.9063C210.149 24.2155 211.779 23.6002 213.323 22.8015C214.1 22.4021 214.737 21.7005 215.395 21.096C216.313 20.2325 217.165 19.3258 218.072 18.4515L218.094 18.5163ZM205.551 15.5263C206.026 14.9651 206.415 14.3714 206.749 13.7345C207.138 13.0221 207.796 12.5904 208.52 12.8387C209.459 13.1625 210.387 13.0114 211.326 13.0653C213.031 13.1625 214.748 13.2164 216.453 13.3352C217.478 13.4107 217.662 13.8533 217.155 14.7816C216.971 15.1162 216.755 15.4616 216.712 15.8178C216.485 17.4045 215.374 18.4299 214.435 19.5633C214.273 19.7576 214.057 19.9195 213.884 20.1138C212.697 21.5386 211.078 22.0999 209.329 22.4021C207.958 22.6396 206.587 22.9094 205.217 23.1577C204.968 23.2008 204.698 23.1577 204.472 23.1577C203.511 23.0713 202.561 23.0281 201.644 22.8878C200.921 22.7799 200.769 22.1754 201.201 21.6141C201.968 20.5995 202.691 19.5525 203.414 18.5163C204.116 17.5124 204.752 16.4546 205.54 15.5156L205.551 15.5263ZM173.763 100.874C173.342 99.3306 172.943 97.7762 172.532 96.2327C172.522 96.1895 172.532 96.1463 172.522 96.1032C171.378 93.545 171.086 90.7278 170.147 88.1156C169.564 86.4642 169.24 84.7803 168.873 83.0965C168.798 82.7295 168.657 82.3517 168.442 82.0494C167.697 81.024 167.481 79.8043 167.06 78.6709C166.52 77.2569 166.358 75.7242 165.57 74.3749C165.095 73.5546 164.815 72.5832 164.599 71.6333C164.372 70.6726 163.984 69.7983 163.627 68.8916C163.228 67.877 162.98 66.8084 162.678 65.7506C162.429 64.8655 162.192 63.9696 161.965 63.1061C162.624 61.5409 161.469 60.3104 161.307 58.9072C161.102 57.1478 160.573 55.4208 160.594 53.6182C160.616 52.4956 160.562 51.373 160.594 50.2397C160.659 48.3939 160.724 46.5589 160.864 44.7132C160.929 43.9684 161.21 43.2344 161.404 42.5004C161.447 42.3385 161.598 42.1982 161.609 42.0363C161.782 39.6616 162.807 37.546 163.822 35.4736C164.836 33.3903 166.164 31.4582 167.416 29.4937C167.869 28.7813 168.496 28.1768 169.068 27.5292C169.802 26.6873 170.536 25.8562 171.291 25.0358C173.407 22.7691 175.9 20.9989 178.631 19.5525C180.045 18.7969 181.481 18.0629 182.959 17.4369C184.471 16.8 186.003 16.0768 187.601 15.807C188.993 15.5695 190.278 15.0298 191.649 14.8031C193.063 14.5657 194.433 14.1123 195.837 13.8317C196.711 13.659 197.618 13.6482 198.503 13.5295C199.507 13.3891 200.51 13.1949 201.514 13.0653C202.022 13.0006 202.55 12.9898 203.069 13.0329C203.63 13.0761 203.759 13.4647 203.446 13.9073C202.723 14.9435 202.043 16.0229 201.288 17.0375C200.586 17.9982 199.798 18.8941 199.075 19.8439C198.762 20.2433 198.503 20.6859 198.222 21.1068C197.337 22.4345 196.646 23.9132 195.448 25.025C195.178 25.2841 194.887 25.5971 194.779 25.9425C194.218 27.8314 192.955 29.3858 192.264 31.1992C191.659 32.7859 190.785 34.2215 189.911 35.6463C189.803 35.8298 189.706 36.0241 189.641 36.2183C188.928 38.2476 187.881 40.1365 187.169 42.1658C186.597 43.7957 186.208 45.4903 185.777 47.1634C185.334 48.8796 184.794 50.5851 184.579 52.3337C184.417 53.7045 183.629 54.8811 183.607 56.2627C183.607 56.6837 183.434 57.1046 183.445 57.5148C183.478 58.7669 183.337 59.9758 182.981 61.174C182.873 61.5302 182.905 61.9403 182.927 62.3289C182.981 63.6242 182.787 64.8655 182.485 66.1284C182.323 66.8084 182.506 67.564 182.538 68.2872C182.56 68.8377 182.744 69.4421 182.592 69.9278C182.355 70.6618 182.431 71.3634 182.474 72.0866C182.495 72.5292 182.398 72.9825 182.431 73.4251C182.463 73.8892 182.636 74.3426 182.657 74.7959C182.765 76.6849 182.765 78.5738 182.949 80.4519C183.078 81.8012 183.294 83.1504 183.499 84.4889C183.661 85.4711 183.985 86.4642 184.06 87.468C184.19 89.2922 185.043 90.9868 185.021 92.8434C185.021 93.2751 185.377 93.6961 185.464 94.1495C185.69 95.3152 185.852 96.4917 186.036 97.6575C186.057 97.787 186.014 97.9273 186.047 98.0461C186.37 98.9959 186.64 99.9782 187.072 100.885C187.741 102.299 188.27 103.788 189.339 105.008C189.598 105.31 189.587 105.829 189.824 106.163C190.407 106.994 191.055 107.782 191.703 108.581C192.156 109.142 192.739 109.639 193.084 110.254C193.667 111.301 194.541 111.97 195.48 112.618C196.247 113.158 196.948 113.762 197.704 114.313C197.963 114.507 198.298 114.604 198.6 114.734C198.913 114.863 199.312 114.906 199.528 115.133C200.489 116.158 201.816 116.579 202.993 117.205C204.062 117.767 205.173 118.339 206.447 118.403C206.577 118.403 206.782 118.663 206.792 118.803C206.803 119.191 206.577 119.094 206.285 119.04C205.702 118.943 205.076 118.792 204.537 119.245C204.418 119.343 204.17 119.45 204.072 119.396C203.263 118.911 202.507 119.472 201.73 119.515C200.931 119.558 200.154 119.796 199.355 119.904C198.514 120.023 197.672 120.13 196.819 120.184C196.009 120.238 195.189 120.12 194.401 120.433C194.174 120.519 193.861 120.53 193.635 120.433C192.08 119.807 190.623 120.605 189.134 120.757C187.828 120.886 186.543 121.242 185.215 121.221C183.542 121.188 181.88 121.242 180.261 121.728C180.099 121.771 179.916 121.739 179.743 121.75C178.415 121.782 178.178 121.631 177.832 120.379C177.66 119.774 177.584 119.137 177.476 118.511C177.455 118.382 177.519 118.209 177.455 118.134C176.882 117.41 176.915 116.515 176.818 115.694C176.591 113.762 175.803 111.916 175.911 109.93C175.933 109.563 175.738 109.196 175.674 108.818C175.404 107.448 175.263 106.044 174.853 104.717C174.443 103.421 174.141 102.115 173.785 100.82L173.763 100.874ZM163.779 163.522C163.8 163.662 163.789 163.824 163.725 163.943C163.207 164.979 163.088 165.735 163.142 166.922C163.163 167.322 163.012 167.753 162.85 168.131C162.71 168.477 162.375 168.746 162.246 169.092C161.426 171.143 159.86 172.308 157.842 173.01C157.399 173.161 157.022 173.453 156.59 173.647C156.288 173.787 155.953 173.96 155.64 173.96C154.906 173.96 154.269 174.284 153.794 174.715C153.201 175.266 152.542 175.212 151.7 175.298C151.312 175.201 150.74 175.147 150.265 174.899C149.628 174.554 148.991 174.456 148.289 174.489C148.16 174.489 148.019 174.521 147.901 174.489C147.544 174.37 147.199 174.219 146.854 174.089C147.026 173.82 147.21 173.539 147.393 173.269C147.415 173.237 147.458 173.204 147.48 173.172C148.063 172.589 148.57 171.898 149.239 171.467C149.865 171.067 150.599 170.819 151.193 170.344C151.463 170.139 151.819 169.966 151.959 169.696C152.272 169.092 152.823 168.779 153.308 168.39C154.949 167.084 156.536 165.724 158.004 164.224C158.263 163.954 158.576 163.716 158.911 163.544C160.357 162.799 161.372 161.579 162.516 160.489C162.753 160.262 163.055 160.036 163.358 159.982C163.984 159.863 164.405 160.381 164.092 160.921C163.606 161.763 163.627 162.626 163.757 163.522H163.779ZM154.55 198.343C153.244 197.426 153.179 196.616 153.416 195.332C153.449 195.17 153.557 195.019 153.578 194.846C153.675 193.659 153.729 192.461 153.859 191.273C154.032 189.762 154.258 188.251 154.474 186.74C154.496 186.578 154.604 186.416 154.625 186.254C154.722 184.981 154.766 183.696 154.906 182.422C155.035 181.203 155.165 179.972 155.446 178.785C155.618 178.072 156.05 177.414 156.417 176.756C156.525 176.561 156.806 176.356 157.022 176.335C158.025 176.227 158.878 175.752 159.731 175.288C159.839 175.223 159.958 175.18 160.076 175.136C160.432 175.007 160.821 174.834 161.102 175.255C161.361 175.655 161.544 176.097 161.231 176.572C161.188 176.648 161.112 176.702 161.048 176.756C160.659 177.155 160.087 177.522 160.368 178.159C160.692 178.871 160.897 179.702 161.803 180.015C162.958 180.415 164.048 180.954 165.247 181.257C167.168 181.742 169.046 182.368 170.827 183.264C170.989 183.351 171.183 183.534 171.194 183.674C171.194 183.815 171.011 184.041 170.859 184.095C170.46 184.225 170.039 184.354 169.629 184.322C168.83 184.279 168.021 184.16 167.233 184.02C165.981 183.804 164.75 183.513 163.498 183.307C162.624 183.167 162.451 183.286 161.987 184.117C161.9 184.268 161.846 184.43 161.76 184.57C161.296 185.326 161.361 185.596 162.149 186.006C162.775 186.341 163.422 186.654 164.07 186.945C165.808 187.701 167.384 188.812 169.262 189.266C169.618 189.352 169.974 189.546 170.277 189.762C170.406 189.859 170.428 190.151 170.406 190.345C170.395 190.431 170.147 190.539 169.996 190.539C169.521 190.561 169.046 190.539 168.377 190.539C167.319 190.831 166.24 190.129 165.074 189.924C164.038 189.741 163.034 189.428 162.008 189.19C161.102 188.985 160.53 189.255 160.055 190.086C159.763 190.593 159.353 191.079 159.839 191.694C159.893 191.759 159.936 191.846 160.001 191.899C160.897 192.536 161.782 193.195 162.688 193.81C164.016 194.717 165.495 195.429 166.574 196.681C166.769 196.908 167.243 197.07 166.963 197.502C166.671 197.955 166.207 197.922 165.819 197.707C164.934 197.221 164.038 196.724 163.207 196.141C162.3 195.505 161.479 194.771 160.605 194.091C159.828 193.486 159.385 193.551 158.77 194.328C158.058 195.213 158.079 195.99 158.911 196.789C160.001 197.825 161.102 198.84 162.224 199.844C162.624 200.211 162.98 200.556 163.271 201.053C163.541 201.528 163.962 201.97 164.383 202.391C165.085 203.082 165.484 204.075 165.97 204.96C166.024 205.068 165.873 205.349 165.754 205.478C165.678 205.554 165.419 205.565 165.311 205.489C164.642 205.036 163.994 204.561 163.347 204.075C162.872 203.73 162.429 203.309 161.911 203.028C160.076 202.046 158.349 200.902 156.741 199.585C156.093 199.056 155.241 198.797 154.55 198.311V198.343ZM155.349 253.414C154.647 253.835 153.999 253.511 153.384 253.349C152.272 253.047 151.204 253.015 150.103 253.317C149.908 253.371 149.639 253.382 149.498 253.285C148.851 252.842 148.127 252.842 147.393 252.874C147.221 252.874 147.037 252.896 146.875 252.864C146.282 252.734 145.915 252.162 146.195 251.612C146.649 250.705 146.843 249.712 147.167 248.773C147.426 248.028 147.415 247.186 147.62 246.42C148.052 244.833 148.073 243.149 148.818 241.638C148.926 241.422 148.861 241.131 148.915 240.882C149.207 239.522 149.52 238.162 149.811 236.802C150.049 235.691 150.157 234.536 150.491 233.456C150.945 231.999 151.063 230.477 151.581 229.041C151.862 228.253 151.884 227.379 152.024 226.548C152.056 226.343 152.056 226.116 152.143 225.922C153.071 223.947 152.963 221.691 153.827 219.705C153.827 218.064 154.507 216.564 154.82 214.999C155.349 212.343 155.975 209.72 156.838 207.151C157.065 206.482 157.097 205.737 157.216 205.025C157.248 204.82 157.237 204.582 157.324 204.399C157.486 203.999 157.82 203.967 158.274 204.215C158.716 204.453 159.191 204.658 159.645 204.885C159.904 205.014 160.217 205.133 160.4 205.349C161.426 206.558 162.883 207.141 164.135 207.993C164.836 208.468 165.722 208.814 166.542 208.349C167.546 207.777 168.442 207.097 168.398 205.673C168.366 204.572 168.021 203.6 167.61 202.618C167.492 202.348 167.351 202.078 167.243 201.808C166.898 200.977 167.103 200.556 167.956 200.157C168.809 199.757 169.597 199.347 169.985 198.343C170.233 197.685 170.179 197.199 169.866 196.66C169.391 195.861 168.863 195.084 168.409 194.274C168.258 194.004 168.107 193.529 168.226 193.357C168.398 193.13 168.755 192.752 169.197 193.076C169.284 193.141 169.445 193.173 169.553 193.13C171.28 192.569 172.878 191.802 173.99 190.28C174.508 189.568 174.486 189.287 173.806 188.64C173.374 188.23 172.878 187.884 172.414 187.528C172.209 187.377 171.971 187.269 171.788 187.107C171.421 186.772 171.431 186.556 171.82 186.287C172.133 186.06 172.5 185.92 172.77 185.661C173.374 185.078 174.044 184.506 174.475 183.793C174.907 183.102 174.605 182.314 174 181.839C173.245 181.235 172.381 180.76 171.561 180.242C171.464 180.177 171.27 180.253 171.183 180.188C169.532 178.839 167.427 178.752 165.506 178.148C165.387 178.105 165.247 178.116 165.128 178.072C163.714 177.597 163.455 177.101 163.768 175.676C164.059 174.305 164.523 172.999 165.085 171.726C165.171 171.531 165.268 171.315 165.257 171.121C165.16 169.383 165.754 167.775 166.218 166.145C166.434 165.379 166.758 164.634 166.952 163.857C167.136 163.123 167.179 162.346 167.362 161.612C167.869 159.55 168.193 157.445 168.841 155.405C168.96 155.049 168.927 154.628 168.884 154.25C168.841 153.937 168.668 153.743 168.258 153.916C168.064 154.002 167.772 153.872 167.535 153.818C166.142 153.473 164.88 153.764 164.048 154.93C163.433 155.794 162.634 156.398 161.825 157.013C160.735 157.834 159.569 158.557 158.781 159.701C158.716 159.798 158.63 159.895 158.522 159.949C157.788 160.327 157.313 160.964 156.763 161.547C156.126 162.227 155.327 162.745 154.604 163.339C154.474 163.447 154.302 163.522 154.204 163.652C153.276 164.871 151.938 165.616 150.75 166.501C149.973 167.084 149.412 167.775 148.915 168.563C148.656 168.973 148.376 169.308 147.814 169.329C147.555 169.329 147.275 169.556 147.07 169.75C146.077 170.635 145.094 171.531 144.123 172.438C143.378 173.118 143.119 174.187 143.486 175.082C143.572 175.288 143.745 175.471 143.918 175.611C144.824 176.378 145.947 176.626 147.07 176.842C147.566 176.939 148.138 176.939 148.538 177.187C149.25 177.63 149.995 177.597 150.772 177.63C151.236 177.651 151.7 177.749 152.132 177.889C152.693 178.062 152.812 178.461 152.618 179.033C152.467 179.508 152.315 180.015 152.305 180.512C152.305 182.099 152.11 183.653 151.797 185.207C151.7 185.704 151.819 186.243 151.754 186.762C151.689 187.28 151.43 187.787 151.43 188.294C151.43 188.791 151.722 189.277 151.743 189.773C151.776 190.485 151.851 191.219 151.549 191.932C151.398 192.299 151.495 192.785 151.517 193.216C151.56 194.166 151.387 195.073 151.031 195.958C150.707 196.746 150.308 197.124 149.66 196.789C148.203 196.012 146.573 195.688 145.127 194.846C143.421 193.853 141.521 193.184 139.708 192.374C139.125 192.115 138.542 191.878 137.959 191.63C136.902 191.198 135.844 190.798 134.797 190.334C134.182 190.064 133.61 189.697 133.027 189.363C132.768 189.212 132.541 189.007 132.271 188.888C131.03 188.359 129.821 187.776 128.515 187.366C126.788 186.837 125.125 186.082 123.452 185.391C122.319 184.916 121.218 184.365 120.106 183.847C119.351 183.502 118.735 182.994 118.293 182.282C118.131 182.034 117.958 181.775 117.721 181.591C116.08 180.296 115.832 178.45 115.702 176.55C115.681 176.248 115.702 175.946 115.702 175.428C115.508 174.23 115.853 172.924 116.577 171.715C117.008 170.992 117.678 170.398 118.012 169.642C118.358 168.854 118.887 168.261 119.491 167.743C120.657 166.75 121.876 165.832 123.064 164.871C123.765 164.31 124.37 163.587 125.136 163.166C126.28 162.54 127.09 161.536 128.169 160.845C129.098 160.262 130.058 159.744 130.684 158.73C130.965 158.266 131.634 158.05 132.12 157.715C132.746 157.272 133.372 156.841 133.966 156.366C134.937 155.61 135.822 154.714 136.869 154.077C138.024 153.365 138.942 152.372 140.043 151.606C141.932 150.3 143.572 148.68 145.472 147.385C146.875 146.435 148.084 145.183 149.379 144.082C149.736 143.78 150.124 143.51 150.48 143.219C151.344 142.528 152.207 141.837 153.071 141.146C154.366 140.11 155.791 139.193 156.924 138.005C158.36 136.505 160.314 135.695 161.706 134.141C162.602 133.148 163.833 132.468 164.89 131.615C165.991 130.741 167.071 129.834 168.139 128.928C168.949 128.237 169.726 127.492 170.546 126.801C171.485 126.002 172.446 125.225 173.428 124.48C174.098 123.973 174.357 124.027 174.659 124.815C174.961 125.603 175.361 126.337 175.231 127.298C175.134 128.032 175.587 128.83 175.803 129.608C175.846 129.769 175.922 129.931 175.922 130.104C175.922 131.518 175.976 132.921 176.159 134.335C176.289 135.296 176.267 136.257 176.569 137.228C176.807 137.994 176.58 138.912 176.559 139.754C176.548 140.175 176.397 140.628 176.483 141.028C176.753 142.193 176.969 143.348 176.98 144.557C176.98 145.097 177.077 145.669 177.249 146.187C177.714 147.59 177.465 149.015 177.422 150.418C177.401 151.044 177.541 151.649 177.508 152.264C177.476 152.89 177.638 153.527 177.692 154.164C177.778 155.103 177.854 156.053 177.951 156.992C178.048 158.05 178.199 159.107 178.253 160.176C178.275 160.759 178.135 161.353 178.059 161.946C178.037 162.119 178.016 162.281 178.005 162.454C177.973 163.954 178.113 165.454 177.757 166.944C177.649 167.397 177.595 167.958 177.768 168.358C178.232 169.426 177.962 170.506 177.983 171.585C177.983 172.006 177.832 172.416 177.8 172.837C177.768 173.431 177.757 174.035 177.8 174.629C177.822 175.093 177.973 175.547 177.994 176.011C178.027 177.047 178.037 178.083 177.994 179.119C177.951 180.058 177.822 180.987 177.746 181.915C177.67 182.854 177.692 183.782 177.552 184.721C177.379 185.833 177.282 187.021 177.67 188.176C177.789 188.532 177.67 189.028 177.519 189.395C177.271 190.011 177.077 190.572 177.39 191.23C177.53 191.522 177.519 191.921 177.465 192.245C177.044 194.609 176.98 197.005 176.936 199.401C176.915 200.578 176.634 201.754 176.505 202.931C176.451 203.395 176.343 203.924 176.494 204.334C176.699 204.906 176.623 205.36 176.494 205.921C176.148 207.324 175.976 208.749 175.879 210.206C175.781 211.62 175.706 213.023 175.663 214.437C175.663 214.642 175.566 214.847 175.501 215.042C175.263 215.733 175.177 216.434 175.123 217.168C175.026 218.474 174.778 219.769 174.573 221.065C174.432 221.982 174.26 222.9 174.108 223.817C173.936 224.864 173.763 225.9 173.601 226.947C173.407 228.253 173.256 229.56 173.061 230.855C173.007 231.179 172.846 231.47 172.738 231.783C172.586 232.258 172.327 232.744 172.306 233.229C172.241 234.935 171.831 236.576 171.442 238.227C171.237 239.091 171.14 239.976 170.989 240.85C170.751 242.188 170.46 243.505 170.438 244.887C170.428 245.761 170.19 246.646 169.942 247.488C169.51 248.924 169.197 250.359 169.154 251.86C169.132 252.443 168.981 253.036 168.798 253.598C168.582 254.267 168.15 254.472 167.449 254.181C166.671 253.868 165.883 253.857 165.128 254.008C164.307 254.17 163.552 254.278 162.753 253.954C162.494 253.846 162.16 253.9 161.857 253.911C160.012 253.965 158.187 253.824 156.385 253.414C156.05 253.339 155.618 253.263 155.359 253.414H155.349ZM163.962 343.522C163.789 344.601 163.595 345.767 163.401 346.933C163.142 348.509 162.408 349.988 162.386 351.628C162.375 352.298 161.706 352.762 161.026 352.805C160.184 352.848 159.31 352.632 158.49 353.031C158.349 353.096 158.101 352.902 157.896 352.88C157.389 352.848 156.849 352.74 156.363 352.859C155.262 353.139 154.194 353.172 153.093 352.837C152.693 352.718 152.218 352.729 151.808 352.816C151.042 352.988 150.243 352.6 149.498 353.031C149.39 353.096 149.142 352.913 148.959 352.848C149.056 352.74 149.142 352.6 149.261 352.524C150.804 351.488 152.348 350.452 153.891 349.416C155.046 348.638 156.212 347.861 157.356 347.084C157.95 346.685 158.544 346.285 159.126 345.854C160.422 344.904 161.717 343.943 163.001 342.993C163.109 342.918 163.185 342.81 163.293 342.745C163.606 342.561 163.908 342.702 163.951 343.036C163.973 343.166 163.951 343.295 163.951 343.511L163.962 343.522ZM178.005 331.53C177.973 331.789 177.973 332.048 177.994 332.307C178.037 333.214 177.94 334.077 177.595 334.941C177.411 335.405 177.379 335.934 177.357 336.441C177.293 337.844 176.872 339.194 176.699 340.575C176.591 341.417 176.451 342.27 176.461 343.112C176.461 343.9 176.289 344.688 176.408 345.487C176.429 345.67 176.246 345.864 176.202 346.069C176.051 346.717 175.684 347.354 176.138 348.034C176.224 348.163 176.094 348.433 176.051 348.638C175.835 349.588 175.598 350.527 175.414 351.477C175.231 352.427 174.961 352.74 174.044 352.783C173.623 352.805 173.202 352.697 172.781 352.654C172.446 352.611 172.068 352.47 171.777 352.557C170.406 352.988 168.96 352.567 167.567 353.01C166.261 353.42 165.322 352.384 165.56 351.002C165.668 350.376 165.722 349.739 165.808 349.113C165.873 348.649 165.948 348.196 166.067 347.742C166.358 346.685 166.25 345.53 166.822 344.547C166.661 343.026 167.2 341.601 167.362 340.122C167.384 339.949 167.362 339.777 167.384 339.604C167.546 338.481 167.481 338.33 166.531 337.844C166.38 337.769 166.229 337.704 166.067 337.629C165.203 337.208 165.225 337.218 164.567 337.812C162.947 339.258 161.307 340.672 159.461 341.849C159.213 342.011 158.921 342.14 158.738 342.356C157.993 343.285 156.881 343.662 155.964 344.332C155.424 344.72 154.798 344.958 154.42 345.573C154.269 345.821 153.881 345.94 153.568 346.059C152.931 346.307 152.337 346.577 151.851 347.106C151.409 347.602 150.804 347.894 150.167 348.174C149.164 348.617 148.289 349.308 147.318 349.836C146.098 350.506 144.868 351.143 143.616 351.736C142.935 352.06 142.18 352.233 141.478 352.513C140.723 352.816 140 352.643 139.298 352.373C138.165 351.931 137.916 350.884 138.812 350.074C139.687 349.275 140.626 348.52 141.629 347.883C142.515 347.311 143.302 346.685 144.047 345.918C145.375 344.537 146.908 343.349 148.332 342.054C149.131 341.331 149.941 340.597 150.621 339.766C151.992 338.071 153.319 336.366 155.079 335.016C155.813 334.455 156.331 333.624 156.935 332.912C157.183 332.62 157.378 332.286 157.637 332.016C159.191 330.429 160.735 328.842 161.782 326.845C162.257 325.939 163.174 325.539 164.048 325.108C164.156 325.054 164.329 325 164.415 325.043C165.128 325.442 165.797 325.14 166.52 325.064C167.265 324.978 168.031 324.924 168.819 325.205C169.348 325.388 170.028 325.334 170.6 325.205C171.583 324.989 172.532 324.902 173.493 325.248C173.731 325.334 174.033 325.356 174.26 325.269C175.307 324.859 176.386 325.064 177.455 325.043C178.383 325.021 178.491 325.151 178.512 326.068C178.512 326.37 178.512 326.673 178.512 326.975C178.545 326.975 178.566 326.975 178.599 326.975C178.404 328.486 178.199 330.008 178.016 331.519L178.005 331.53ZM202.648 351.38C202.626 351.984 202.302 352.449 201.816 352.524C201.018 352.654 200.219 352.729 199.226 352.848C198.567 352.718 197.747 352.481 196.905 352.416C195.707 352.319 194.487 352.2 193.3 352.352C192.62 352.438 191.951 352.762 191.228 352.87C190.591 352.956 190.051 352.826 189.479 352.718C189.144 352.654 188.767 352.47 188.497 352.578C187.698 352.891 186.888 352.772 186.079 352.805C185.356 352.837 184.643 352.87 183.92 352.988C183.175 353.107 182.355 353.085 181.567 353.064C181.081 353.064 180.617 352.934 180.11 353.021C179.397 353.139 178.976 352.503 179.149 351.79C179.192 351.628 179.279 351.466 179.289 351.304C179.387 349.988 179.451 348.66 179.559 347.343C179.603 346.749 179.721 346.167 179.818 345.584C180.067 343.997 180.337 342.41 180.574 340.824C180.617 340.564 180.596 340.305 180.596 340.046C180.574 338.373 180.941 336.754 181.254 335.135C181.297 334.887 181.373 334.628 181.362 334.38C181.319 332.663 181.578 330.99 181.858 329.296C182.053 328.119 182.042 326.91 182.15 325.723C182.215 325 182.29 324.287 182.42 323.575C182.711 321.934 182.927 320.293 182.927 318.631C182.927 318.34 182.981 318.038 183.067 317.757C183.337 316.85 183.478 315.933 183.456 314.983C183.456 314.529 183.607 314.076 183.683 313.612C183.78 313.029 183.866 312.435 183.963 311.853C184.147 310.762 184.319 309.683 184.514 308.604C184.654 307.859 184.87 307.125 184.967 306.38C185.107 305.322 185.172 304.254 185.259 303.196C185.356 301.793 185.431 300.379 185.539 298.975C185.561 298.727 185.712 298.5 185.798 298.263C185.885 298.026 186.014 297.788 186.036 297.551C186.144 296.406 186.187 295.251 186.316 294.107C186.414 293.222 186.597 292.359 186.748 291.474C186.856 290.804 186.975 290.135 187.072 289.466C187.18 288.71 187.288 287.955 187.342 287.188C187.45 285.569 187.514 283.939 187.622 282.32C187.655 281.899 187.806 281.5 187.871 281.079C188.119 279.568 188.238 278.035 188.443 276.535C188.615 275.283 188.583 274.063 188.659 272.822C188.68 272.401 188.831 272.001 188.885 271.58C188.939 271.149 189.295 270.728 188.928 270.264C188.842 270.156 188.842 269.875 188.928 269.767C189.511 269.044 189.36 268.137 189.587 267.328C189.792 266.561 189.814 265.741 189.943 264.942C190.299 262.729 190.137 260.441 190.882 258.271C190.947 258.077 190.979 257.85 190.979 257.645C190.979 256.275 191.217 254.936 191.487 253.608C191.627 252.907 191.292 252.14 191.713 251.46C191.757 251.396 191.713 251.266 191.767 251.212C191.886 251.072 192.037 250.964 192.177 250.834C192.296 250.975 192.501 251.104 192.523 251.255C192.642 252.011 192.642 252.788 192.814 253.533C193.106 254.807 192.976 256.091 193.084 257.365C193.16 258.282 193.473 259.178 193.656 260.085C193.743 260.495 193.818 260.927 193.829 261.337C193.861 262.406 193.829 263.463 194.077 264.532C194.282 265.406 194.228 266.324 194.358 267.22C194.552 268.558 194.638 269.918 194.79 271.267C194.898 272.282 195.232 273.286 194.941 274.408C194.736 275.196 195.124 276.146 195.265 277.031C195.286 277.193 195.372 277.355 195.383 277.517C195.48 279.136 195.545 280.766 195.653 282.385C195.707 283.195 195.718 284.026 195.955 284.781C196.171 285.472 196.042 286.152 196.182 286.811C196.473 288.128 196.398 289.455 196.43 290.783C196.43 290.988 196.527 291.193 196.603 291.387C196.851 292.078 196.916 292.78 196.959 293.514C197.089 295.867 197.294 298.22 197.477 300.562C197.488 300.724 197.65 300.875 197.661 301.037C197.704 301.642 197.974 302.192 197.769 302.872C197.618 303.401 197.834 304.049 197.898 304.631C197.995 305.495 198.157 306.348 198.222 307.211C198.341 308.658 198.46 310.115 198.481 311.561C198.514 313.234 198.848 314.853 199.14 316.483C199.194 316.775 199.269 317.066 199.258 317.368C199.215 319.128 199.345 320.866 199.776 322.571C199.82 322.733 199.787 322.916 199.787 323.089C199.776 325.14 199.96 327.158 200.521 329.155C200.705 329.803 200.521 330.537 200.575 331.217C200.618 331.811 200.737 332.393 200.823 332.976C200.899 333.473 201.007 333.969 201.082 334.477C201.18 335.146 201.266 335.826 201.342 336.495C201.417 337.164 201.255 337.844 201.557 338.524C201.73 338.924 201.611 339.464 201.601 339.938C201.579 340.791 201.611 341.644 201.86 342.475C202.011 342.982 202.054 343.468 201.946 344.051C201.795 344.893 201.989 345.832 202.205 346.695C202.594 348.25 202.712 349.815 202.648 351.402V351.38ZM203.058 328.918C203.187 328.464 203.079 328.119 202.95 327.698C202.756 327.061 202.669 326.36 202.658 325.69C202.637 324.147 202.486 322.636 202.14 321.135C202.119 321.049 202.14 320.963 202.129 320.876C202.043 319.419 201.968 317.973 201.86 316.516C201.806 315.836 201.698 315.166 201.601 314.497C201.352 312.824 201.082 311.151 200.845 309.478C200.791 309.1 200.791 308.701 200.823 308.312C200.91 307.276 200.618 306.283 200.413 305.29C200.359 305.042 200.241 304.761 200.316 304.545C200.769 303.174 200.251 301.879 200.057 300.551C199.884 299.375 199.787 298.187 199.647 297C199.647 296.968 199.571 296.914 199.582 296.903C200.478 295.662 199.485 294.323 199.776 293.05C199.215 291.711 199.679 290.265 199.323 288.861C199.107 288.02 199.096 287.124 198.794 286.26C198.643 285.818 198.632 285.246 198.686 284.684C198.773 283.853 198.557 283 198.46 282.148C198.395 281.597 198.254 281.057 198.233 280.518C198.201 279.352 198.201 278.186 198.233 277.01C198.254 276.233 198.157 275.488 197.887 274.754C197.79 274.484 197.715 274.182 197.715 273.89C197.715 273.156 197.758 272.433 197.305 271.785C197.197 271.624 197.197 271.375 197.186 271.17C197.089 268.936 196.981 266.712 196.927 264.478C196.894 263.323 196.905 262.19 196.495 261.067C196.268 260.441 196.236 259.739 196.16 259.07C196.042 257.926 195.955 256.771 195.88 255.627C195.783 254.094 195.847 252.529 195.567 251.018C195.351 249.852 195.459 248.708 195.34 247.564C195.232 246.43 195.038 245.297 194.876 244.164C194.865 244.077 194.844 243.991 194.833 243.916C194.746 242.512 194.649 241.098 194.574 239.684C194.477 238.011 194.552 236.327 194.261 234.687C194.023 233.305 194.12 231.945 194.056 230.585C194.012 229.732 193.926 229.592 193.268 229.527C192.102 229.419 191.962 229.506 191.713 230.337C191.595 230.725 191.433 231.157 191.152 231.448C190.71 231.902 190.666 232.409 190.677 232.992C190.699 234.374 190.699 235.755 190.677 237.148C190.677 237.558 190.591 238 190.418 238.378C189.889 239.522 189.803 240.753 189.673 241.962C189.587 242.685 189.63 243.43 189.673 244.164C189.716 244.952 189.598 245.686 189.166 246.366C188.961 246.69 188.799 247.024 189.123 247.413C189.231 247.542 189.188 247.844 189.144 248.05C188.734 249.939 188.723 251.86 188.572 253.77C188.486 254.915 188.529 256.123 187.935 257.257C187.579 257.926 187.687 258.833 187.601 259.642C187.568 259.988 187.568 260.333 187.601 260.679C187.774 262.373 187.331 263.981 186.964 265.601C186.888 265.935 186.824 266.27 186.824 266.604C186.856 267.932 186.64 269.227 186.338 270.523C186.122 271.429 186.047 272.379 186.068 273.318C186.09 274.106 185.528 274.873 186.025 275.671C186.068 275.736 185.96 275.909 185.906 276.017C185.323 277.29 184.686 278.553 185.215 280.021C184.902 281.068 184.892 282.104 185.215 283.162C185.28 283.357 185.097 283.637 184.989 283.864C184.568 284.771 184.287 285.677 184.622 286.692C184.708 286.951 184.568 287.372 184.384 287.599C183.845 288.279 183.758 289.045 183.693 289.865C183.575 291.538 183.326 293.201 183.24 294.874C183.175 296.029 183.067 297.162 182.83 298.295C182.798 298.468 182.916 298.673 182.916 298.857C182.895 299.353 182.841 299.817 182.679 300.325C182.377 301.264 181.459 302.16 182.128 303.315C182.236 303.509 182.236 303.865 182.128 304.081C181.707 305.02 182.042 306.11 181.459 307.049C181.222 307.438 181.459 308.129 181.491 308.679C181.502 309.003 181.664 309.478 181.502 309.64C180.995 310.158 181.114 310.752 181.114 311.335C181.114 312.403 180.93 313.428 180.736 314.486C180.434 316.159 179.937 317.768 179.57 319.419C179.484 319.829 179.57 320.283 179.549 320.714C179.505 321.74 179.084 322.172 178.037 322.182C175.879 322.204 173.709 322.161 171.55 322.204C170.438 322.226 169.337 322.398 168.236 322.431C167.783 322.441 167.319 322.323 166.866 322.193C165.775 321.902 164.696 321.74 163.595 322.118C163.433 322.172 163.25 322.193 163.088 322.172C161.868 322.01 160.659 321.783 159.439 321.686C158.77 321.632 158.079 321.729 157.41 321.848C156.503 322.01 156.212 321.848 156.201 320.919C156.18 319.279 156.201 317.627 156.201 315.987C156.201 314.648 156.19 313.31 156.201 311.961C156.201 311.421 156.374 310.87 156.342 310.331C156.32 309.899 156.644 309.456 156.255 309.014C156.136 308.873 156.18 308.485 156.277 308.28C156.482 307.859 156.514 307.481 156.309 307.049C156.244 306.909 156.396 306.672 156.385 306.477C156.363 305.452 156.32 304.437 156.288 303.412C156.277 303.023 156.136 302.624 156.223 302.268C156.719 300.174 156.406 298.058 156.406 295.964C156.406 295.262 156.525 294.572 156.482 293.859C156.439 293.147 156.59 292.423 156.655 291.7C156.665 291.571 156.719 291.441 156.698 291.323C156.158 288.365 156.579 285.386 156.471 282.428C156.45 281.802 156.687 281.165 156.698 280.539C156.709 280.043 156.503 279.536 156.503 279.039C156.503 278.542 156.709 278.035 156.698 277.539C156.698 276.999 156.471 276.448 156.493 275.909C156.514 275.38 156.719 274.916 156.514 274.322C156.363 273.858 156.687 273.253 156.709 272.714C156.752 271.678 156.687 270.641 156.73 269.605C156.763 268.796 156.568 267.986 156.924 267.187C157.054 266.907 156.73 266.464 156.73 266.097C156.752 263.507 156.806 260.927 156.838 258.336C156.838 257.797 156.763 257.268 156.73 256.728C156.709 256.404 156.881 256.264 157.194 256.275C157.41 256.275 157.648 256.21 157.842 256.275C159.105 256.728 160.411 256.404 161.685 256.534C162.947 256.652 164.21 256.857 165.473 257.009C165.862 257.052 166.25 257.019 166.639 257.052C167.319 257.106 167.977 257.052 168.668 257.257C170.007 257.645 171.237 256.803 171.205 255.346C171.172 253.619 171.917 252.119 172.176 250.5C172.446 248.794 173.18 247.164 173.094 245.383C173.072 244.984 173.245 244.552 173.418 244.164C173.741 243.441 173.914 242.717 173.86 241.929C173.849 241.757 173.828 241.562 173.893 241.422C174.724 239.663 174.864 237.72 175.069 235.863C175.263 234.179 175.911 232.56 175.727 230.801C175.652 230.067 176.116 229.268 176.321 228.502C176.548 227.606 176.893 226.699 176.936 225.792C176.98 224.864 177.379 224.065 177.541 223.202C177.584 222.954 177.811 222.662 177.735 222.49C177.465 221.853 177.714 221.259 177.778 220.655C177.843 220.028 178.059 219.424 178.199 218.809C178.232 218.69 178.286 218.55 178.275 218.431C177.994 216.466 179.052 214.632 178.804 212.678C179.225 211.739 178.976 210.681 179.441 209.709C179.808 208.943 179.721 207.961 179.829 207.076C179.851 206.903 179.818 206.73 179.84 206.558C179.926 205.964 180.401 205.683 180.844 206.072C181.265 206.439 181.697 206.385 182.161 206.439C183.251 206.568 184.341 206.752 185.431 206.892C185.809 206.946 186.208 206.968 186.586 206.946C187.666 206.881 188.702 207.119 189.738 207.367C189.943 207.41 190.191 207.529 190.364 207.454C191.681 206.925 192.965 207.572 194.282 207.497C195.157 207.443 196.042 207.702 196.927 207.831C197.844 207.961 198.773 208.198 199.69 208.22C201.147 208.252 202.572 208.425 203.997 208.727C204.493 208.835 205.033 208.77 205.551 208.76C206.836 208.716 208.099 208.911 209.34 209.224C209.793 209.342 210.29 209.267 210.754 209.278C211.725 209.31 212.243 209.871 211.974 210.778C211.768 211.469 211.801 212.063 211.974 212.753C212.103 213.304 211.909 213.93 211.855 214.524C211.822 214.815 211.693 215.139 211.768 215.409C212.103 216.607 211.812 217.729 211.52 218.874C211.445 219.154 211.563 219.489 211.477 219.78C211.261 220.579 211.866 221.302 211.585 222.155C211.358 222.867 211.488 223.688 211.499 224.465C211.499 224.886 211.671 225.307 211.661 225.717C211.639 226.386 211.661 227.099 211.434 227.703C211.196 228.351 211.283 228.977 211.218 229.603C211.186 230.024 211.11 230.445 211.056 230.866C211.035 231.028 210.937 231.222 210.991 231.362C211.499 232.841 211.315 234.384 211.164 235.842C211.002 237.385 211.099 238.929 210.948 240.461C210.797 241.951 210.808 243.397 211.207 244.844C211.261 245.038 211.207 245.276 211.164 245.481C211.121 245.686 210.991 245.88 210.981 246.085C210.873 247.931 210.797 249.766 210.689 251.612C210.668 252.043 210.732 252.313 211.25 252.443C212.135 252.659 212.988 252.885 213.916 252.896C214.888 252.896 215.881 253.004 216.842 253.166C217.403 253.263 217.91 253.479 218.018 254.288C218.169 255.465 218.504 256.609 218.515 257.807C218.515 258.217 218.709 258.628 218.752 259.049C218.979 261.067 219.637 263.032 219.551 265.104C219.529 265.601 219.691 266.108 219.799 266.604C220.307 268.925 220.101 271.354 220.814 273.642C220.706 275.034 221.494 276.405 220.879 277.819C220.76 278.1 221.03 278.542 221.094 278.92C221.267 279.924 221.44 280.917 221.591 281.921C221.623 282.137 221.613 282.353 221.613 282.569C221.613 282.828 221.548 283.108 221.623 283.346C222.066 284.684 222.098 286.098 222.303 287.469C222.433 288.311 222.498 289.153 222.66 289.995C223.048 292.035 223.016 294.129 223.62 296.147C223.922 297.151 223.836 298.263 223.955 299.321C224.009 299.785 224.128 300.228 224.203 300.692C224.3 301.275 224.376 301.868 224.473 302.451C224.71 303.833 224.678 305.236 224.948 306.628C225.239 308.129 225.326 309.661 225.509 311.183C225.552 311.518 225.703 311.831 225.747 312.166C225.93 313.515 226.081 314.864 226.286 316.203C226.459 317.325 226.697 318.448 226.912 319.57C226.945 319.732 227.085 319.937 227.031 320.045C226.513 321.125 227.085 322.107 227.269 323.132C227.42 323.963 227.484 324.816 227.582 325.669C227.679 326.597 227.765 327.536 227.873 328.464C227.959 329.252 227.905 329.425 227.236 329.717C226.902 329.868 226.47 330.03 226.146 329.943C225.002 329.652 223.89 330.062 222.746 329.986C221.58 329.911 220.371 329.781 219.249 330.008C216.993 330.472 214.704 329.943 212.449 330.364C211.974 330.451 211.455 330.235 210.959 330.235C209.405 330.213 207.839 330.213 206.285 330.235C205.691 330.235 205.119 330.213 204.515 330.44C203.716 330.742 202.831 329.781 203.069 328.929L203.058 328.918ZM225.077 352.643C225.077 352.643 225.077 352.589 225.067 352.567C224.71 352.589 224.354 352.589 223.998 352.632C223.879 352.643 223.685 352.794 223.663 352.762C223.027 351.984 222.249 352.6 221.548 352.524C220.792 352.438 220.026 352.341 219.292 352.146C218.526 351.952 218.266 351.326 218.223 350.581C218.148 349.351 218.072 348.109 217.953 346.879C217.921 346.566 217.694 346.274 217.554 345.983C217.371 345.616 217.435 345.271 217.792 345.109C217.943 345.044 218.266 345.184 218.418 345.325C220.695 347.494 222.951 349.675 225.218 351.844C225.283 351.909 225.358 351.952 225.401 352.028C225.477 352.19 225.542 352.362 225.606 352.524L225.088 352.621L225.077 352.643ZM239.951 350.57C239.779 350.981 239.477 351.391 239.131 351.682C238.138 352.546 236.886 352.697 235.645 352.794C235.386 352.816 235.127 352.794 234.76 352.794C233.659 353.01 232.601 352.459 231.575 352.017C228.866 350.83 226.405 349.264 224.333 347.106C223.102 345.821 221.828 344.601 220.576 343.339C219.745 342.497 218.698 341.881 218.051 340.834C217.759 340.37 217.371 339.96 217.025 339.539C216.367 338.73 215.233 338.881 214.877 339.852C214.629 340.521 214.391 341.234 214.748 341.957C214.823 342.108 214.834 342.281 214.845 342.453C214.942 344.386 215.007 346.307 215.115 348.239C215.179 349.362 215.277 350.484 215.428 351.607C215.546 352.481 215.201 352.88 214.391 352.718C213.517 352.546 212.643 352.33 211.768 352.319C210.927 352.298 210.063 352.438 209.254 352.654C208.843 352.762 208.552 352.675 208.174 352.611C207.602 352.513 207.019 352.244 206.415 352.503C206.026 352.665 205.767 352.438 205.519 352.179C205.357 352.006 205.26 351.866 205.486 351.671C206.069 351.186 205.702 350.646 205.4 350.322C204.979 349.869 204.99 349.405 204.99 348.887C205.001 347.181 204.828 345.487 204.493 343.813C204.493 343.77 204.472 343.716 204.493 343.684C205.109 342.648 204.375 341.676 204.364 340.662C204.342 338.956 203.759 337.294 203.932 335.556C203.975 335.124 203.749 334.649 203.608 334.207C203.371 333.397 203.695 332.901 204.515 332.825C204.644 332.825 204.785 332.793 204.904 332.825C206.382 333.333 207.85 332.717 209.329 332.804C210.84 332.89 212.373 332.955 213.863 332.782C215.32 332.609 216.766 332.609 218.223 332.545C219.292 332.501 220.015 332.987 220.555 333.84C221.407 335.168 222.379 336.43 223.555 337.488C224.635 338.46 225.768 339.356 226.891 340.284C227.776 341.018 228.65 341.752 229.557 342.464C229.989 342.799 230.485 343.058 230.949 343.349C232.666 344.429 234.382 345.508 236.12 346.577C236.476 346.793 236.875 346.998 237.275 347.095C238.645 347.408 239.142 348.649 239.93 349.567C240.113 349.772 240.081 350.301 239.951 350.603V350.57Z" fill="#212633"/>
</g>
<defs>
<clipPath id="clip0_14496_1261">
<rect width="139.188" height="346" fill="white" transform="translate(112 10)"/>
</clipPath>
</defs>
</svg>
