<svg width="364" height="364" viewBox="0 0 364 364" fill="none" xmlns="http://www.w3.org/2000/svg">
<g clip-path="url(#clip0_14117_452)">
<path d="M193.973 175.996C194.082 178.516 196.363 186.169 196.363 188.113C196.363 190.057 199.668 197.833 199.668 199.312C199.668 200.79 202.687 211.141 202.687 211.141C202.851 211.675 203.055 212.195 203.37 212.674C203.219 214.139 204.012 215.33 204.476 216.631C205.268 218.89 206.047 221.176 206.593 223.503C206.962 225.092 207.467 226.556 208.327 227.939C208.614 228.405 208.642 229.062 208.669 229.651C208.71 230.732 208.71 231.759 209.256 232.799C209.721 233.662 209.748 234.757 210.007 235.729C210.212 236.496 210.458 237.263 210.745 238.016C211.045 238.823 211.237 239.631 211.332 240.507C211.482 241.822 211.892 243.122 212.138 244.423C212.329 245.422 212.52 246.436 212.589 247.449C212.657 248.366 212.466 249.311 213.395 249.954C213.531 250.05 213.518 250.351 213.586 250.543C213.832 251.296 214.078 252.062 214.351 252.815C214.815 254.13 215.402 255.417 215.238 256.882C215.197 257.251 215.225 257.662 215.32 258.018C215.894 259.976 216.331 261.933 216.604 263.973C216.795 265.384 217.383 266.739 217.601 268.176C218.093 271.339 219.254 274.378 219.732 277.527C220.005 279.334 220.388 281.101 220.784 282.88C220.784 282.935 220.784 282.99 220.784 283.045C220.948 283.935 220.497 284.824 220.784 285.701C221.07 286.563 221.439 287.385 221.699 288.261C221.958 289.137 221.699 290.054 222.027 290.985C222.75 293.066 222.887 295.284 223.078 297.475C223.119 297.899 223.31 298.296 223.379 298.721C223.829 301.418 224.253 304.115 224.703 306.798C224.881 307.852 225.154 308.893 225.345 309.933C225.482 310.618 225.564 311.302 225.673 311.987C225.892 313.411 226.11 314.848 226.342 316.272C226.424 316.792 226.67 317.326 226.629 317.833C226.438 319.873 227.121 321.776 227.421 323.747C227.558 324.678 227.695 325.623 227.818 326.554L232.229 326.896C231.997 325.007 231.778 323.118 231.369 321.269C231.082 319.982 231.014 318.723 230.891 317.45C230.754 316.012 230.508 314.575 230.18 313.178C229.894 311.919 229.538 310.673 229.607 309.372C229.661 308.482 229.375 307.688 229.006 306.894C228.801 306.47 228.569 305.936 228.664 305.511C229.033 303.814 228.61 302.253 228.063 300.692C228.05 300.637 227.995 300.583 228.009 300.542C228.296 298.816 227.544 297.242 227.299 295.613C226.943 293.34 226.943 291.026 226.124 288.809C225.769 287.823 225.823 286.686 225.701 285.619C225.359 282.908 224.922 280.224 224.307 277.555C223.829 275.419 223.269 273.297 222.791 271.175C222.409 269.45 222.341 267.656 222.067 265.904C221.986 265.329 221.712 264.781 221.494 264.247C221.043 263.138 220.688 262.016 220.784 260.811C220.866 259.757 220.565 258.785 220.128 257.854C219.691 256.923 219.418 255.964 219.445 254.896C219.445 254.157 219.363 253.363 219.104 252.679C218.694 251.624 218.981 250.433 218.257 249.42C217.874 248.886 218.243 248.215 218.885 247.764C221.357 246.066 224.007 244.779 226.93 243.971C228.2 243.629 229.484 243.04 230.262 241.822C230.563 241.343 230.672 240.809 230.262 240.37C229.866 239.946 229.47 239.713 228.746 240.028C226.711 240.946 224.594 241.699 222.505 242.506C221.111 243.04 219.705 243.547 218.325 244.094C217.328 244.491 216.591 244.135 216.563 243.054C216.536 242.26 216.222 241.616 215.99 240.904C215.621 239.795 215.498 238.604 215.225 237.468C214.883 236.072 214.419 234.689 214.159 233.279C213.859 231.581 213.121 230.02 212.739 228.377C212.425 227.022 212.083 225.68 211.66 224.366C211.36 223.421 211.059 222.477 210.786 221.518C210.786 221.518 207.89 210.525 207.426 209.046C206.975 207.554 204.462 200.024 202.687 196.478C200.911 192.932 199.218 188.482 198.412 183.567C197.62 178.652 196.937 175.572 196.022 172.026C195.106 168.48 192.033 160.937 191.46 160.594C190.886 160.252 190.326 162.087 190.668 162.99C191.009 163.894 193.864 173.505 193.973 176.024V175.996Z" fill="#212633"/>
<path fill-rule="evenodd" clip-rule="evenodd" d="M239.102 227.543C239.208 228.062 239.319 228.607 239.434 229.167C239.947 231.672 240.519 234.466 240.861 236.4C241.544 240.261 244.262 248.229 244.262 248.229C244.562 249.365 244.89 250.488 245.231 251.611C245.471 252.417 245.752 253.212 246.032 254.008C246.567 255.523 247.102 257.041 247.362 258.648C247.447 259.191 247.653 259.719 247.858 260.248C247.984 260.571 248.11 260.894 248.209 261.222C248.428 261.965 248.624 262.717 248.82 263.471C248.88 263.702 248.94 263.934 249.001 264.165C249.206 264.973 248.974 265.356 248.168 265.356C247.54 265.356 247.075 265.603 246.543 265.904C244.699 266.944 242.828 267.998 240.67 268.341C240.246 268.409 239.823 268.505 239.44 268.683C237.593 269.598 235.628 270.2 233.664 270.801C233.13 270.965 232.596 271.128 232.065 271.298C231 271.64 229.921 272.065 229.142 272.927C228.91 273.187 228.705 273.557 228.664 273.899C228.582 274.639 228.978 274.899 229.743 274.639C230.458 274.395 231.167 274.13 231.875 273.864C233.319 273.323 234.76 272.783 236.244 272.434C237.235 272.202 238.184 271.856 239.133 271.51C240.082 271.164 241.032 270.819 242.022 270.586C242.95 270.367 243.852 270.011 244.726 269.6C245.324 269.315 245.966 269.171 246.607 269.027C247.476 268.832 248.343 268.638 249.097 268.094C249.602 267.725 250.107 268.135 250.312 268.573C250.886 269.792 251.446 271.038 251.214 272.434C251.159 272.735 250.831 273.105 250.544 273.215C249.261 273.708 247.949 274.173 246.624 274.543C243.743 275.35 240.943 276.35 238.225 277.582C237.421 277.944 236.547 278.158 235.673 278.372C235.092 278.514 234.511 278.656 233.95 278.842C232.488 279.334 231.041 279.868 229.62 280.498C228.895 280.821 228.674 281.543 228.459 282.245C228.419 282.376 228.379 282.507 228.336 282.634C228.241 282.908 229.006 283.455 229.388 283.387C229.503 283.364 229.61 283.306 229.717 283.248C229.801 283.203 229.886 283.157 229.975 283.127C230.289 283.017 230.602 282.907 230.915 282.797C233.016 282.058 235.11 281.323 237.214 280.608C237.935 280.363 238.652 280.106 239.369 279.849C241.262 279.172 243.153 278.494 245.095 278.048C245.844 277.877 246.55 277.596 247.255 277.317C248.13 276.97 249.004 276.623 249.957 276.487C250.303 276.432 250.625 276.17 250.947 275.909C251.107 275.778 251.268 275.647 251.432 275.542C251.951 275.2 252.416 275.309 252.525 275.857C252.706 276.802 252.987 277.725 253.267 278.642C253.579 279.667 253.889 280.684 254.054 281.717C254.212 282.705 254.518 283.633 254.824 284.558C255.103 285.402 255.38 286.243 255.543 287.125C255.755 288.276 256.105 289.399 256.454 290.524C256.645 291.137 256.836 291.75 257.005 292.368C257.522 294.282 258.001 296.196 258.482 298.118C258.572 298.479 258.662 298.839 258.753 299.2C258.803 299.389 258.794 299.593 258.786 299.796C258.783 299.871 258.78 299.947 258.78 300.021C258.78 301.171 258.78 301.281 257.633 301.171C256.749 301.095 255.99 301.397 255.233 301.698C254.903 301.83 254.572 301.961 254.232 302.061C254.109 302.096 253.986 302.132 253.863 302.168C252.75 302.49 251.658 302.806 250.49 302.855C250.217 302.855 249.943 302.883 249.698 302.965C248.34 303.392 246.988 303.831 245.635 304.27C244.864 304.52 244.092 304.77 243.319 305.018C242.5 305.279 241.694 305.484 240.806 305.498C239.222 305.498 237.829 305.977 237.2 307.647C237.176 307.712 237.137 307.778 237.098 307.846C236.962 308.08 236.813 308.336 237.173 308.633C237.196 308.651 237.218 308.669 237.24 308.688C237.566 308.953 237.847 309.184 238.32 309.03C239.529 308.614 240.769 308.33 242.011 308.046C243.098 307.797 244.187 307.548 245.259 307.209C246.379 306.857 247.54 306.636 248.699 306.416C250.113 306.147 251.524 305.878 252.853 305.374C253.293 305.209 253.746 305.062 254.202 304.914C255.67 304.438 257.166 303.953 258.343 302.814C258.876 302.294 259.245 302.376 259.531 303.115C259.996 304.361 260.405 305.634 260.706 306.921C260.843 307.51 260.255 308.058 259.75 308.044C258.502 308.028 257.424 308.51 256.348 308.991C255.622 309.315 254.898 309.639 254.123 309.81C253.087 310.039 252.089 310.426 251.089 310.813C250.296 311.121 249.502 311.428 248.687 311.658C248.022 311.845 247.353 312.013 246.684 312.18C245.345 312.515 244.007 312.85 242.705 313.342C241.422 313.826 240.101 314.216 238.78 314.607C238.005 314.837 237.23 315.066 236.463 315.314C235.329 315.684 234.838 316.327 234.879 317.258C234.906 317.86 235.275 318.203 235.889 318.066C237.091 317.792 238.279 317.491 239.44 317.135C242.445 316.204 245.436 315.245 248.427 314.287C248.488 314.265 248.547 314.224 248.606 314.184C248.691 314.126 248.775 314.068 248.864 314.068C250.503 314.027 252.01 313.483 253.516 312.939C254.52 312.577 255.524 312.214 256.568 312.001C257.323 311.844 258.061 311.594 258.797 311.344C259.219 311.201 259.641 311.058 260.064 310.933C260.843 310.7 261.416 310.864 261.635 311.549C261.894 312.357 262.004 313.233 262.044 314.082C262.072 314.766 261.498 315.259 260.815 315.341C260.231 315.406 259.644 315.465 259.056 315.524C257.667 315.664 256.274 315.804 254.901 316.026C254.041 316.169 253.205 316.425 252.369 316.68C251.93 316.814 251.492 316.948 251.05 317.066C250.695 317.162 250.326 317.244 249.957 317.299C249.729 317.336 249.499 317.361 249.268 317.387C248.807 317.439 248.345 317.491 247.908 317.628C247.331 317.813 246.737 317.94 246.144 318.067C245.024 318.308 243.905 318.548 242.896 319.175C242.51 319.415 242.02 319.499 241.552 319.579L241.516 319.585C240.273 319.777 239.331 320.448 238.525 321.351C238.143 321.776 238.361 322.447 238.921 322.529C239.235 322.57 239.591 322.584 239.891 322.502C240.632 322.289 241.369 322.062 242.104 321.834C243.455 321.417 244.803 321 246.174 320.681C247.066 320.473 247.956 320.253 248.845 320.034C251.058 319.489 253.269 318.943 255.53 318.572L255.563 318.567C257.682 318.226 259.788 317.888 261.949 317.956C263.233 317.997 263.451 318.257 263.711 319.544C263.926 320.621 264.198 321.679 264.471 322.739C264.597 323.229 264.724 323.72 264.844 324.213C265.042 325.014 265.234 325.818 265.425 326.622C265.616 327.427 265.807 328.231 266.005 329.032C266.014 329.068 266.02 329.103 266.026 329.138C266.038 329.211 266.05 329.282 266.087 329.347C267.072 330.94 267.17 332.709 267.269 334.474C267.284 334.741 267.299 335.009 267.316 335.275C267.335 335.52 267.425 335.764 267.515 336.009C267.556 336.12 267.596 336.232 267.631 336.343C267.665 336.459 267.699 336.579 267.733 336.699C267.767 336.819 267.801 336.938 267.835 337.055L270.922 336.754C270.9 336.659 270.879 336.564 270.857 336.469C270.647 335.553 270.439 334.646 270.253 333.728C270.121 333.074 270.029 332.406 269.938 331.739C269.765 330.477 269.593 329.22 269.147 328.074C268.638 326.767 268.351 325.413 268.065 324.062C267.844 323.021 267.624 321.981 267.303 320.968C267.17 320.556 267.12 320.118 267.069 319.681C267.021 319.262 266.972 318.844 266.852 318.449C266.593 317.573 266.524 316.765 266.852 315.916C267.112 315.273 266.893 314.807 266.442 314.301C265.992 313.794 265.459 313.178 265.377 312.562C265.233 311.533 264.975 310.527 264.718 309.523C264.538 308.818 264.357 308.113 264.216 307.401C263.974 306.221 263.709 305.045 263.443 303.867C263.169 302.652 262.895 301.436 262.645 300.213C262.35 298.716 261.939 297.247 261.528 295.777C261.292 294.935 261.057 294.092 260.843 293.244C260.627 292.386 260.432 291.521 260.236 290.654C259.972 289.488 259.708 288.32 259.395 287.166C259.25 286.641 259.14 286.104 259.029 285.567C258.772 284.325 258.515 283.077 257.838 281.949C257.606 281.552 257.51 281.032 257.469 280.567C257.315 278.618 256.696 276.786 256.079 274.96C255.876 274.361 255.674 273.762 255.489 273.16C255.261 272.414 255.071 271.658 254.882 270.902C254.605 269.8 254.329 268.695 253.932 267.615C253.743 267.109 253.588 266.574 253.432 266.035C253.305 265.597 253.177 265.156 253.03 264.726C252.935 264.455 252.819 264.189 252.703 263.923C252.369 263.155 252.035 262.386 252.197 261.482C252.238 261.29 252.17 261.03 252.06 260.866C251.459 259.948 251.241 258.894 251.05 257.84C250.876 256.881 250.537 255.967 250.198 255.053C249.739 253.813 249.28 252.575 249.233 251.227C248.706 250.67 248.652 249.964 248.599 249.251C248.574 248.93 248.55 248.608 248.482 248.297H248.741C248.741 248.297 247.499 243.081 247.499 242.41C247.499 242.067 246.794 240.042 246.029 237.844C245.299 235.747 244.514 233.492 244.234 232.389C244.124 231.954 243.865 231.082 243.514 229.95C242.143 229.233 240.664 228.43 239.102 227.543Z" fill="#212633"/>
<path d="M230.823 198.011C230.823 198.011 226.07 199.585 224.157 200.393C222.245 201.201 217.342 202.543 216.878 202.515C216.413 202.488 213.764 202.515 213.381 203.775C212.999 205.034 213.641 207.553 214.31 206.622C214.979 205.692 217.629 205.65 219.869 204.5C222.109 203.35 226.029 202.83 227.954 201.858C229.88 200.886 233.486 200.407 232.147 199.202L230.809 198.011H230.823Z" fill="#212633"/>
<path d="M59.4409 240.069C60.0555 239.07 60.7247 238.098 61.3667 237.112C61.8993 236.304 62.4183 235.496 62.951 234.702C63.7158 233.539 64.4807 232.375 65.2729 231.239C66.1333 230.006 67.0484 228.829 67.9362 227.611C68.5371 226.789 69.0425 225.872 69.7391 225.146C71.1185 223.695 72.1429 221.97 73.5633 220.532C75.5301 218.547 77.1827 216.247 79.0402 214.152C80.7884 212.181 82.6323 210.292 84.4488 208.389C84.7766 208.033 85.159 207.731 85.5551 207.444C86.0878 207.074 86.5658 206.992 87.1395 207.512C88.1775 208.457 89.3384 209.237 90.3764 210.168C92.0837 211.688 93.709 213.29 95.3889 214.837C96.0582 215.453 96.4133 215.494 97.0825 214.947C97.4786 214.632 97.861 214.111 97.9293 213.646C98.0249 213.044 97.6698 212.373 97.7245 211.757C97.7928 211.086 98.0932 210.429 98.2981 209.771C98.3118 209.717 98.2981 209.662 98.2844 209.607C97.8064 207.663 97.6289 205.678 97.6562 203.679C97.6562 203.145 97.5059 202.611 97.4513 202.091C97.3011 200.53 97.0825 198.983 97.0416 197.422C97.0279 196.888 97.2874 196.19 97.6698 195.834C98.9264 194.657 100.224 193.507 101.617 192.507C103.242 191.357 104.963 190.372 106.411 188.989C106.862 188.551 107.408 188.564 107.886 188.961C108.214 189.235 108.514 189.578 108.774 189.92C110.126 191.659 111.342 193.507 112.953 195.04C113.486 195.547 113.841 196.259 114.346 196.806C115.412 197.956 116.463 199.12 117.624 200.174C118.212 200.708 118.949 200.475 119.277 199.75C119.577 199.079 119.864 198.34 119.892 197.614C119.919 196.601 120.26 195.725 120.615 194.821C120.779 194.424 121.052 194.082 121.216 193.671C121.776 192.275 122.541 190.906 122.35 189.331C122.268 188.688 122.282 188.113 122.541 187.524C123.197 186.086 123.729 184.635 123.538 183.006C123.511 182.814 123.675 182.609 123.716 182.39C123.757 182.13 123.852 181.829 123.77 181.623C123.265 180.405 123.661 179.131 123.538 177.899C123.484 177.406 123.716 177.105 124.153 176.859C126.174 175.777 128.182 174.655 130.203 173.546C130.681 173.285 131.187 173.107 131.624 172.793C133.823 171.218 136.186 170 138.767 169.206C139.313 169.041 139.791 168.631 140.324 168.384C141.826 167.7 143.274 166.81 144.859 166.426C146.183 166.098 147.481 165.632 148.519 164.92C150.718 163.428 153.381 163.332 155.635 162.1C155.758 162.032 155.963 162.059 156.126 162.073C156.809 162.169 157.369 161.84 157.97 161.58C159.377 160.95 160.797 160.334 162.245 159.8C163.734 159.266 165.373 159.129 166.78 158.308C166.998 158.185 167.299 158.198 167.558 158.13C169.825 157.527 172.093 156.939 174.346 156.309C175.931 155.871 177.501 155.323 179.099 154.926C180.697 154.529 182.405 154.652 183.934 153.886C184.112 153.803 184.371 153.872 184.59 153.858C186.721 153.803 187.103 153.502 187.608 151.531C187.827 150.696 187.417 149.997 186.557 149.943C186.242 149.915 185.928 149.915 185.614 149.915L181.23 150.216L178.853 150.723C178.853 150.942 178.526 151.243 178.28 151.339C176.996 151.873 175.726 152.421 174.401 152.845C173.595 153.105 172.666 152.982 171.888 153.283C170.304 153.899 168.637 154.105 167.012 154.515L160.046 156.774L157.287 157.911C157.301 158.061 157.287 158.212 157.164 158.267C156.809 158.472 156.4 158.609 156.003 158.746C155.006 159.088 153.859 159.02 153.04 159.855C152.903 159.992 152.644 160.06 152.439 160.046C150.991 159.896 149.857 160.758 148.696 161.347C145.883 162.785 143.138 164.304 140.051 165.112C139.3 165.304 138.63 165.81 137.92 166.166C136.828 166.714 135.776 167.398 134.629 167.782C133.495 168.165 132.416 168.603 131.542 169.384C130.722 170.123 129.739 170.534 128.81 171.068C127.185 171.999 125.587 172.971 124.003 173.956C123.047 174.545 122.145 175.216 121.216 175.846C120.506 176.325 120.042 177.009 119.973 177.817C119.864 179.214 119.905 180.61 119.659 182.02C119.373 183.663 119.4 185.361 119.291 187.031C119.291 187.195 119.236 187.346 119.209 187.51C119.017 188.619 118.84 189.728 118.635 190.823C118.416 191.987 118.212 193.137 117.952 194.287C117.815 194.862 117.242 195.026 116.873 194.561C115.098 192.411 112.448 191.07 111.287 188.359C111.232 188.222 111.068 188.113 110.959 188.003C109.989 187.031 109.047 186.045 108.05 185.114C107.217 184.32 106.438 184.348 105.564 185.196C105.264 185.498 105.059 185.881 104.799 186.223C104.198 187.045 103.679 187.921 102.696 188.386C101.603 188.893 100.675 189.619 99.8824 190.536C99.7732 190.659 99.6639 190.782 99.5137 190.864C97.3284 191.987 95.9353 194 94.187 195.601C93.5997 196.149 93.2856 196.998 93.5178 197.641C93.8456 198.586 93.6544 199.476 93.7363 200.38C93.8183 201.187 93.7363 201.968 94.0095 202.789C94.5421 204.405 94.4056 206.116 94.3919 207.8C94.3919 208.074 94.3919 208.375 94.269 208.594C94.0778 208.95 93.7363 209.237 93.3675 208.799C92.2612 207.54 90.7998 206.636 90.0896 205.007C89.7755 204.295 89.2155 203.624 88.6145 203.104C87.0575 201.735 84.9951 202.31 84.1893 204.24C84.0254 204.637 83.7932 205.021 83.5064 205.322C82.1269 206.855 80.6928 208.348 79.3134 209.881C78.5212 210.757 77.811 211.716 77.0325 212.605C76.3632 213.386 75.653 214.139 74.9291 214.851C74.4374 215.344 73.7545 215.672 73.3448 216.206C72.3751 217.479 71.1185 218.561 70.5039 220.094C70.422 220.286 70.3264 220.491 70.1761 220.642C68.5645 222.257 67.3489 224.147 66.0923 226.036C64.549 228.35 62.869 230.581 61.2847 232.868C59.7823 235.017 58.2936 237.167 57.3512 239.645C57.2146 239.987 57.0097 240.316 56.8049 240.63C55.9034 242.027 55.002 243.41 54.1006 244.806C53.9913 244.984 53.8001 245.203 53.8274 245.381C53.9367 246.463 53.1991 247.147 52.7757 247.996C52.3113 248.941 51.6421 249.858 51.8333 251.008C51.8879 251.35 52.0655 251.802 52.325 251.939C52.7484 252.172 52.9669 251.734 53.1308 251.378C53.2401 251.131 53.3494 250.885 53.4723 250.652C54.7698 248.297 56.0537 245.956 57.3648 243.615C58.0477 242.397 58.717 241.192 59.4409 240.001V240.069Z" fill="#212633"/>
<path d="M185.026 172.491C185.026 172.491 185.081 172.437 185.163 172.341C185.627 171.766 186.105 171.204 186.624 170.67C186.706 170.588 186.775 170.561 186.857 170.506C187.266 170.041 187.649 169.575 187.895 169.219C188.414 168.466 189.493 167.152 190.162 166.358C190.025 165.988 190.08 165.591 190.189 165.085C190.312 164.537 190.326 163.894 190.148 163.387C189.739 162.21 189.042 162.141 188.277 163.086C187.703 163.798 187.089 164.482 186.502 165.194C185.955 165.865 185.368 166.508 184.89 167.207C184.098 168.343 183.428 169.562 182.623 170.698C181.161 172.751 179.673 174.778 178.156 176.79C177.255 177.995 176.285 179.145 175.329 180.323C174.715 181.075 174.032 181.774 173.472 182.568C172.229 184.334 170.986 186.086 169.415 187.592C168.309 188.647 167.23 189.742 166.206 190.864C165.277 191.905 164.512 193.096 163.529 194.095C162.122 195.533 160.606 196.847 159.131 198.216C158.94 198.394 158.762 198.613 158.612 198.832C157.683 200.229 156.563 201.434 155.211 202.419C154.951 202.611 154.637 202.734 154.405 202.94C152.029 205.144 149.638 207.293 146.948 209.114C145.828 209.881 145.691 209.936 144.858 208.923C144.585 208.594 144.38 208.211 144.189 207.827C143.465 206.403 142.782 204.952 142.058 203.528C140.952 201.393 139.818 199.271 138.712 197.135C138.644 196.998 138.685 196.793 138.603 196.669C138.056 195.944 138.521 195.519 139.026 195.054C140.46 193.767 142.386 193.192 143.724 191.741C144.257 191.166 145.022 190.81 145.637 190.303C147.262 188.989 149.133 188.03 150.717 186.634C152.001 185.498 153.408 184.498 154.801 183.512C155.539 182.992 156.399 182.636 157.137 182.116C159.336 180.61 161.521 179.063 163.706 177.516C164.935 176.653 166.137 175.763 167.339 174.86C168.159 174.244 168.91 173.546 169.743 172.971C170.617 172.368 171.614 171.916 172.447 171.273C173.554 170.424 174.592 169.452 175.63 168.507C176.149 168.028 176.108 167.357 175.821 166.851C175.548 166.358 175.056 166.111 174.346 166.344C173.841 166.508 173.362 166.604 172.898 166.947C171.409 168.083 169.866 169.151 168.35 170.246C166.971 171.259 165.659 172.409 164.184 173.244C162.709 174.08 161.48 175.175 160.155 176.174C158.653 177.297 157.383 178.748 155.58 179.419C155.375 179.487 155.143 179.556 155.006 179.706C153.517 181.308 151.373 181.965 149.761 183.43C148.027 185.005 145.937 186.182 144.121 187.674C142.249 189.208 140.269 190.577 138.22 191.85C137.237 192.453 136.226 193.151 134.929 193.014C134.423 192.959 134.014 193.247 134.041 193.753C134.096 194.766 133.344 195.232 132.743 195.711C131.022 197.066 129.083 198.121 127.403 199.558C126.269 200.53 124.849 201.174 123.77 202.187C122.664 203.241 121.257 203.857 120.151 204.856C118.361 206.486 115.958 207.252 114.36 209.169C113.841 209.799 112.98 210.168 112.27 210.634C111.068 211.428 109.825 212.167 108.651 213.002C107.517 213.81 106.534 214.851 105.332 215.549C102.955 216.932 100.879 218.711 98.6801 220.313C97.1231 221.45 95.4705 222.422 93.8588 223.49C93.1896 223.928 92.5203 224.379 91.892 224.859C90.4989 225.94 89.1468 227.09 87.5624 227.884C86.5791 228.377 85.7049 228.966 84.9811 229.801C83.9021 231.061 82.5772 231.978 81.0885 232.635C80.269 232.991 79.6407 233.539 78.9988 234.127C78.152 234.867 77.2506 235.551 76.3082 236.167C74.8877 237.112 73.3171 237.865 71.9922 238.933C70.4079 240.22 68.646 241.26 67.1299 242.67C64.7398 244.888 61.6121 246.162 59.1946 248.379C57.5693 248.763 56.8181 250.282 55.5889 251.186C54.1684 252.24 54.4689 253.842 56.0259 254.718C56.7361 255.115 57.46 255.102 58.2112 254.937C59.5634 254.636 60.9019 254.266 62.2813 254.075C65.0949 253.678 67.8538 253.103 70.4079 251.775C70.8586 251.542 71.4596 251.378 71.9512 251.446C73.5356 251.665 74.956 251.022 76.3218 250.529C79.1764 249.502 82.0036 248.434 84.9128 247.585C87.3576 246.873 89.775 246.011 92.1925 245.162C93.49 244.71 94.6237 243.834 96.0714 243.807C96.249 243.807 96.3992 243.519 96.5904 243.437C97.0685 243.232 97.5738 243.04 98.0655 242.876C99.2674 242.451 100.51 242.109 101.685 241.616C103.46 240.877 105.291 240.192 106.916 239.179C109.21 237.769 111.86 237.194 114.141 235.784C115.247 235.099 116.504 234.634 117.61 233.881C118.443 233.306 119.331 232.745 120.274 232.416C121.325 232.046 122.172 231.444 122.991 230.759C123.319 230.486 123.661 230.225 124.03 230.006C125.723 228.98 127.417 227.953 129.11 226.94C129.52 226.693 129.957 226.474 130.408 226.296C130.572 226.228 130.749 226.214 130.927 226.214L131.856 225.598C131.897 225.516 131.938 225.42 131.992 225.365C133.017 224.53 133.891 223.49 135.215 223.038C135.857 222.819 136.431 222.367 136.991 221.956C138.794 220.615 140.583 219.245 142.372 217.89C144.817 216.042 147.043 213.933 149.597 212.249C149.638 212.222 149.693 212.195 149.734 212.154C151.892 209.169 155.334 207.636 157.738 204.897C158.707 203.789 160.032 202.967 160.879 201.68C161.098 201.338 161.535 201.133 161.849 200.845C162.299 200.462 162.777 200.092 163.174 199.654C164.02 198.737 164.84 197.806 165.646 196.861C166.834 195.465 167.981 194.027 169.21 192.672C170.167 191.617 171.15 190.577 172.215 189.66C173.581 188.469 174.441 186.88 175.561 185.511C177.091 183.649 178.553 181.719 180.041 179.816C180.137 179.693 180.287 179.583 180.369 179.46C181.735 177.352 183.073 175.23 184.48 173.149C184.63 172.929 184.808 172.724 184.972 172.519V172.491H185.026ZM137.046 217.11C135.256 218.575 133.235 219.684 131.391 221.053C130.189 221.943 128.81 222.559 127.54 223.353C125.955 224.338 124.467 225.529 122.814 226.378C119.809 227.912 117.187 230.089 114.127 231.54C112.775 232.183 111.396 232.772 110.057 233.429C109.238 233.826 108.487 234.36 107.667 234.743C106.711 235.195 105.7 235.537 104.717 235.962C102.177 237.057 99.6498 238.193 97.1094 239.289C96.6724 239.48 96.1943 239.535 95.73 239.645C95.2656 239.768 94.7466 239.782 94.3368 240.014C91.7691 241.479 88.9146 242.219 86.1966 243.286C84.6123 243.903 83.0416 244.56 81.4436 245.162C80.8973 245.367 80.31 245.45 79.7364 245.573C79.1081 245.71 78.3842 245.682 77.8789 245.997C76.636 246.764 75.2292 246.928 73.8907 247.106C72.279 247.312 70.8176 247.996 69.2606 248.338C67.8128 248.653 66.3787 249.119 64.9447 249.488C64.6851 249.557 64.3983 249.488 64.1252 249.488C63.9613 249.488 63.7837 249.529 63.6335 249.488C63.5106 249.447 63.3876 249.324 63.3193 249.201C63.292 249.132 63.3467 248.982 63.4149 248.913C63.5652 248.763 63.7427 248.64 63.9203 248.53C66.01 247.421 67.8402 245.929 69.725 244.519C71.7737 242.972 73.7814 241.37 75.8848 239.877C78.9852 237.687 82.1538 235.592 85.2542 233.402C87.8356 231.581 90.3487 229.664 92.9301 227.83C95.3202 226.132 97.7787 224.489 100.169 222.791C100.647 222.449 101.016 221.929 101.48 221.559C102.136 221.025 102.723 220.382 103.638 220.231C103.938 220.19 104.239 219.998 104.498 219.807C105.919 218.739 107.244 217.561 108.732 216.617C111.041 215.152 112.912 213.112 115.48 211.989C116.381 211.592 117.078 210.716 117.897 210.114C119.276 209.114 120.656 208.087 122.104 207.184C124.193 205.87 126.065 204.268 128.031 202.789C128.509 202.433 128.946 202.05 129.438 201.721C130.558 200.982 130.954 201.037 131.746 202.091C132.129 202.597 132.416 203.2 132.675 203.775C133.467 205.527 134.15 207.334 135.011 209.046C135.68 210.387 136.554 211.606 137.319 212.907C137.565 213.317 137.783 213.755 137.947 214.194C138.562 215.96 138.439 215.96 137.032 217.11H137.046ZM141.553 213.509C141.43 213.536 141.252 213.509 141.17 213.427C140.856 213.126 140.501 212.838 140.31 212.455C138.808 209.498 137.346 206.513 135.871 203.542C135.27 202.351 134.655 201.174 134.068 199.969C133.686 199.202 133.973 198.463 134.792 198.025C135.366 197.71 136.486 198.025 136.527 198.709C136.622 200.16 137.715 201.078 138.125 202.365C138.562 203.72 139.436 204.939 140.173 206.171C140.802 207.225 141.594 208.197 142.154 209.279C142.564 210.073 142.714 210.99 142.878 211.579C142.878 212.619 142.29 213.345 141.553 213.509Z" fill="#212633"/>
<path d="M61.6258 98.9307C62.7594 100.847 64.5076 102.395 65.1632 104.626C65.2179 104.818 65.3817 105.009 65.5456 105.146C66.8568 106.255 67.7856 107.624 68.4275 109.199C68.5231 109.445 68.7416 109.637 68.9055 109.842C69.8343 111.033 70.8586 112.156 71.6508 113.416C72.6342 114.976 73.5629 116.537 75.2156 117.495C75.4478 117.632 75.6117 117.865 75.7892 118.07C76.3492 118.728 76.8819 119.398 77.4555 120.042C78.4662 121.178 79.4769 122.301 80.5012 123.424C80.829 123.78 81.1705 124.149 81.5529 124.464C82.946 125.655 84.3528 126.819 85.7323 128.024C87.303 129.393 88.8736 130.748 90.3897 132.186C91.5643 133.308 93.1077 133.801 94.3505 134.787C94.5964 134.979 94.8695 135.102 95.0608 134.609C95.5934 133.24 96.3719 132.131 97.9563 131.734C98.4753 131.611 98.8987 131.022 99.3084 130.584C100.046 129.79 100.715 128.941 101.439 128.147C102.778 126.682 104.13 125.244 105.509 123.807C105.755 123.547 106.11 123.369 106.411 123.177C106.479 123.136 106.616 123.122 106.643 123.15C106.697 123.232 106.752 123.382 106.711 123.437C105.933 124.587 105.127 125.737 104.335 126.874C104.089 127.23 103.693 127.558 103.638 127.942C103.447 129.297 102.614 130.269 101.917 131.351C101.371 132.199 100.811 133.13 100.647 134.089C100.483 135.02 100.251 135.882 99.8821 136.731C99.2401 138.21 99.2674 138.278 100.756 138.675C101.016 138.744 101.398 138.648 101.603 138.47C102.19 137.977 102.696 137.402 103.242 136.868C105.55 134.54 107.858 132.199 110.167 129.886C110.467 129.584 110.904 129.434 111.191 129.119C112.161 128.092 113.076 127.024 114.032 125.997C114.264 125.751 114.592 125.614 114.879 125.422C115.002 125.765 115.206 126.093 115.22 126.449C115.247 126.928 115.22 127.449 115.056 127.887C114.319 129.776 113.513 131.638 112.748 133.527C112.311 134.609 111.901 135.718 111.437 136.786C110.986 137.84 110.727 138.908 110.631 140.044C110.535 141.167 110.262 142.289 109.962 143.385C109.73 144.247 109.634 144.288 110.508 144.685C112.502 145.575 114.524 146.41 116.531 147.273C116.722 147.355 116.914 147.519 117.119 147.547C119.522 147.916 121.708 148.93 123.893 149.915C124.33 150.107 124.767 150.408 125.231 150.435C126.761 150.531 128.1 151.257 129.547 151.627C131.965 152.243 134.451 152.681 136.732 153.762C136.827 153.803 136.936 153.803 137.046 153.817C138.357 154.064 139.695 154.228 140.966 154.584C143.165 155.2 145.432 155.159 147.658 155.46C148.887 155.624 150.185 155.515 151.332 155.871C153.026 156.391 154.719 156.432 156.44 156.473C157.014 156.473 157.587 156.569 158.175 156.665L169.306 157.514C169.443 157.486 169.593 157.473 169.729 157.445C171.997 156.843 174.264 156.254 176.518 155.624C178.102 155.186 179.673 154.639 181.271 154.242C182.869 153.844 184.576 153.968 186.106 153.201C186.283 153.119 186.543 153.187 186.761 153.174C188.892 153.119 189.274 152.818 189.78 150.846C189.998 150.011 189.588 149.313 188.728 149.258C187.908 149.19 187.089 149.258 186.269 149.231C185.887 149.231 185.477 149.258 185.149 149.135C183.907 148.656 182.677 148.163 181.462 147.601C179.126 146.52 176.818 145.397 174.496 144.316C174.209 144.179 173.895 144.11 173.595 143.987C172.953 143.741 172.297 143.494 171.669 143.22C171.041 142.947 170.44 142.604 169.825 142.317C167.093 141.003 164.348 139.702 161.63 138.374C161.098 138.114 160.661 137.607 160.114 137.47C157.164 136.745 154.665 134.992 151.865 133.938C151.318 133.733 150.704 133.596 150.253 133.254C148.846 132.213 147.262 131.652 145.623 131.145C144.817 130.899 144.107 130.392 143.342 130.009C142.4 129.53 141.457 129.009 140.488 128.585C140.009 128.366 139.45 128.352 138.958 128.174C137.005 127.476 135.379 126.011 133.235 125.778C133.03 125.751 132.839 125.614 132.661 125.505C131.132 124.628 129.629 123.684 128.059 122.903C126.87 122.315 125.559 121.986 124.344 121.466C122.281 120.59 120.246 119.645 118.198 118.728C116.886 118.139 115.603 117.454 114.25 116.948C112.871 116.428 111.655 115.62 110.235 115.127C107.722 114.278 105.359 112.964 102.914 111.869C101.125 111.061 99.3084 110.308 97.5056 109.514C95.9485 108.829 94.5144 107.912 92.9028 107.31C91.1682 106.652 89.5566 105.721 87.8629 104.955C85.5821 103.914 83.2602 102.928 80.9656 101.915C80.6242 101.765 80.31 101.532 79.9686 101.381C77.1823 100.163 74.3005 99.1772 71.6918 97.5753C71.323 97.3563 70.9542 97.2331 70.9816 96.6444C71.0089 96.0146 71.5279 96.042 71.8557 95.8229C72.0059 95.7134 72.2791 95.7819 72.4839 95.7408C73.7405 95.5217 75.0107 95.3027 76.2672 95.0562C77.3735 94.8509 78.4798 94.3991 79.5588 94.4675C81.4983 94.5908 83.2738 93.8925 85.145 93.7419C86.0328 92.9752 86.9069 93.9473 87.781 93.7556C88.7098 93.5503 89.5156 93.0163 90.5672 93.0711C92.7935 93.1943 95.0471 93.0711 97.287 93.1122C100.702 93.1806 104.13 93.2354 107.531 93.4818C108.664 93.564 109.88 93.605 110.959 94.2211C111.3 94.4128 111.847 94.5086 112.202 94.3717C112.652 94.1937 112.994 94.3306 113.404 94.4128C114.605 94.6455 115.807 94.9741 117.023 95.0426C118.648 95.1521 120.205 95.4122 121.721 96.0146C122.459 96.3158 123.237 96.6033 124.016 96.6855C126.16 96.8771 128.182 97.6027 130.203 98.2051C132.948 99.0266 135.584 100.218 138.357 100.984C138.616 101.053 138.862 101.176 139.094 101.299C139.846 101.683 139.846 101.724 139.477 102.518C139.163 103.202 138.575 103.859 138.548 104.558C138.493 105.886 137.756 106.885 137.251 107.994C136.895 108.774 136.349 109.527 136.226 110.349C136.008 111.841 135.448 113.101 134.601 114.319C134.041 115.141 133.454 116.085 133.303 117.044C133.139 118.153 132.962 119.138 132.252 120.015C131.651 120.754 131.897 121.534 132.361 122.274C132.812 122.972 133.481 123.109 134.218 122.985C135.134 122.821 136.021 122.465 136.568 121.712C136.95 121.178 137.319 120.713 137.906 120.398C138.22 120.22 138.562 119.905 138.685 119.576C139.122 118.331 140.146 117.564 141.007 116.688C141.99 115.661 143.001 114.661 144.039 113.689C144.203 113.539 144.599 113.47 144.776 113.566C144.926 113.648 144.981 114.032 144.967 114.264C144.94 114.579 144.803 114.881 144.694 115.182C143.929 117.153 143.793 119.357 142.482 121.151C141.744 122.164 141.99 123.56 142.919 124.355C143.602 124.943 145.049 124.752 145.855 123.999C146.333 123.56 146.757 122.958 147.33 122.753C148.122 122.465 148.573 121.972 148.983 121.329C149.242 120.918 149.584 120.548 149.953 120.247C150.731 119.604 151.551 118.988 152.37 118.399C153.176 117.824 153.681 116.948 154.61 116.441C155.484 115.962 156.112 115.031 156.85 114.292C157.232 113.908 157.587 113.47 158.025 113.142C159.076 112.361 159.814 112.183 160.988 112.977C162.45 113.963 163.857 115.045 165.209 116.195C166.274 117.098 167.367 117.934 168.664 118.467C168.992 118.604 169.374 118.906 169.484 119.22C169.893 120.384 170.672 121.096 171.806 121.521C172.038 121.603 172.215 121.876 172.406 122.068C173.444 123.109 174.482 124.177 175.534 125.203C176.572 126.203 177.269 127.558 178.58 128.284C178.717 128.366 178.826 128.503 178.921 128.626C179.481 129.283 180.028 129.94 180.574 130.611C181.393 131.611 182.227 132.596 183.019 133.61C184.139 135.047 185.163 136.567 186.324 137.977C187.116 138.935 187.895 139.853 188.304 141.071C188.468 141.536 188.933 141.947 189.342 142.289C189.561 142.467 189.821 142.481 190.053 142.372L188.359 134.718C188.195 134.718 188.004 134.664 187.854 134.595C187.676 134.499 187.526 134.308 187.403 134.13C185.382 131.104 182.978 128.421 180.424 125.847C178.976 124.396 177.556 122.89 176.135 121.411C175.766 121.028 175.507 120.507 175.083 120.234C174.032 119.563 173.212 118.673 172.365 117.797C171.846 117.263 171.246 116.784 170.631 116.359C169.757 115.743 168.76 115.291 167.94 114.607C166.452 113.347 164.963 112.06 163.652 110.623C162.504 109.363 161.152 108.487 159.691 107.72C158.721 107.214 158.366 107.255 157.587 108.021C157.164 108.432 156.809 108.925 156.508 109.418C156.112 110.089 155.593 110.527 154.91 110.91C154.146 111.335 153.463 111.91 152.807 112.58C151.988 113.416 151.127 114.223 150.431 115.168C150.308 115.346 150.144 115.538 149.966 115.62C149.734 115.729 149.406 115.839 149.215 115.743C149.065 115.661 148.997 115.278 149.01 115.045C149.065 114.415 149.174 113.772 149.297 113.142C149.365 112.786 149.393 112.361 149.597 112.088C151.004 110.157 151.578 107.871 152.397 105.694C152.534 105.324 152.425 105.119 152.315 104.818C152.042 104.01 151.359 103.64 150.704 103.736C149.966 103.832 149.092 103.367 148.437 104.325C146.647 106.94 144.23 108.966 141.662 110.773C141.444 110.924 141.116 110.938 140.843 111.006C140.788 110.719 140.679 110.431 140.692 110.157C140.692 109.788 140.747 109.391 140.884 109.048C141.703 107.022 142.482 104.955 143.451 102.997C143.847 102.189 143.711 101.532 143.233 101.08C142.304 100.19 141.211 99.4921 140.529 98.342C140.419 98.1641 140.05 98.1367 139.805 98.0545C138.343 97.548 136.868 97.1099 135.448 96.4938C134.041 95.8914 132.812 94.7824 131.118 95.0289C128.701 94.2074 126.256 93.4681 123.743 92.9616C122.541 92.7151 121.353 92.4002 120.164 92.1401C118.553 91.7978 116.914 91.524 115.316 91.127C114.291 90.8669 113.267 90.7436 112.229 90.6615C110.809 90.552 109.361 90.4561 107.968 90.1276C106.998 89.8948 106.056 89.8401 105.086 89.8401C102.682 89.8401 100.278 89.8401 97.8743 89.8401C95.1973 89.8401 92.5204 89.8401 89.8434 89.8401C89.4609 89.8401 89.0512 89.7579 88.6961 89.8811C87.0298 90.4288 85.2816 90.1276 83.588 90.4698C81.9217 90.7984 80.2008 90.8806 78.5345 91.3187C76.9911 91.7294 75.4478 92.2086 73.8771 92.4413C72.402 92.6604 70.8723 92.5919 69.6294 93.6461C69.4928 93.7693 69.2197 93.7282 69.0148 93.7967C66.5017 94.4675 63.9067 94.8509 61.6667 96.3432C60.7653 96.9456 60.6151 97.1646 61.0795 98.1504C61.216 98.4379 61.4209 98.698 61.5848 98.9718L61.6258 98.9307ZM118.061 128.859C118.416 128.078 118.785 127.339 118.962 126.463C119.195 125.34 119.755 124.286 120.205 123.205C120.424 122.671 121.189 122.41 121.913 122.698C122.964 123.109 124.016 123.506 124.986 124.081C126.556 125.012 128.113 125.874 129.889 126.394C131.309 126.819 132.62 127.599 133.986 128.229C137.046 129.653 140.078 131.118 143.151 132.487C145.541 133.541 147.986 134.458 150.39 135.485C151.332 135.882 152.22 136.375 153.135 136.854C156.508 138.607 160.005 140.072 163.542 141.441C165.086 142.043 166.547 142.864 168.05 143.535C170.918 144.822 173.827 146.068 176.695 147.369C178.02 147.971 179.304 148.628 180.574 149.313C180.82 149.436 181.052 149.819 181.052 150.08C181.052 150.299 180.724 150.6 180.478 150.696C179.195 151.23 177.924 151.777 176.6 152.202C175.794 152.462 174.865 152.339 174.086 152.64C171.983 153.447 169.716 153.571 167.612 154.365C167.271 154.502 166.82 154.597 166.506 154.474C165.236 153.981 163.925 154.269 162.641 154.173C161.849 154.105 161.002 154.42 160.251 153.899C160.169 153.844 160.019 153.844 159.937 153.872C158.653 154.351 157.451 153.831 156.222 153.557C156.058 153.516 155.894 153.502 155.73 153.543C153.968 153.913 152.261 153.447 150.54 153.201C148.846 152.955 147.18 152.571 145.5 152.284C143.916 152.024 142.331 151.654 140.733 151.627C139.736 151.613 139.012 151.065 138.125 150.887C135.721 150.408 133.317 149.929 130.968 149.231C126.693 147.944 122.404 146.643 118.279 144.904C117.064 144.384 115.848 143.864 114.619 143.357C113.69 142.988 113.486 142.276 113.486 141.345C113.636 140.783 113.704 140.167 113.964 139.661C115.562 136.553 116.641 133.267 117.556 129.913C117.651 129.557 117.87 129.228 118.034 128.9L118.061 128.859ZM107.872 126.997C108.391 126.066 109.019 125.203 109.538 124.272C110.276 122.917 110.986 121.548 111.655 120.165C112.065 119.289 112.543 119.056 113.499 119.303C115.698 119.878 115.917 120.685 114.127 121.931C112.434 123.109 111.614 124.971 110.167 126.299C109.661 126.764 109.088 127.175 108.541 127.599C108.432 127.681 108.309 127.75 108.05 127.914C107.981 127.531 107.79 127.189 107.886 127.011L107.872 126.997ZM65.8734 98.0682C66.6929 98.2736 67.8812 98.4242 68.9328 99.2319C69.766 99.8617 70.8586 100.136 71.8284 100.574C74.8331 101.956 77.8106 103.367 80.829 104.708C83.3148 105.817 85.9098 106.68 88.3273 107.926C90.4716 109.021 92.7525 109.788 94.8695 110.91C96.0441 111.526 97.3826 111.841 98.5299 112.485C100.961 113.867 103.624 114.62 106.151 115.729C107.722 116.428 107.654 116.879 106.889 118.002C106.424 118.687 105.673 119.179 105.086 119.796C103.365 121.63 101.699 123.547 99.923 125.34C98.2977 126.983 96.5495 128.503 94.8832 130.105C94.3779 130.598 93.8452 130.693 93.2715 130.337C92.6296 129.954 91.9877 129.571 91.4141 129.092C89.7204 127.668 87.9312 126.367 86.3742 124.779C84.2982 122.657 81.9353 120.809 79.9959 118.591C78.1521 116.482 75.9121 114.703 74.5053 112.224C74.4234 112.088 74.3005 111.978 74.1776 111.869C71.7874 109.719 70.244 106.912 68.4138 104.311C67.3349 102.778 66.3105 101.217 65.2861 99.6564C65.0813 99.3415 64.931 98.9855 64.8218 98.6295C64.6579 98.0956 64.8901 97.9039 65.8598 98.0819L65.8734 98.0682Z" fill="#212633"/>
<path d="M187.759 135.389C187.759 135.389 187.882 135.499 187.936 135.54C188.264 135.814 188.701 135.732 188.933 135.362C189.466 134.513 190.231 133.733 189.589 132.569C189.398 132.227 189.452 131.72 189.48 131.282C189.561 130.214 189.698 129.146 189.794 128.065C189.917 126.668 190.012 125.258 190.149 123.862C190.244 122.903 190.381 121.945 190.558 121C190.818 119.686 191.241 118.399 191.405 117.085C191.706 114.634 192.116 112.211 192.744 109.829C192.99 108.898 193.044 107.926 193.304 106.995C194.014 104.489 194.806 101.998 195.557 99.4922C195.844 98.5202 196.076 97.5344 196.363 96.5624C196.554 95.9052 196.759 95.2344 197.046 94.6046C197.36 93.9201 197.702 93.2355 198.166 92.6605C198.822 91.8254 198.986 91.8664 199.914 92.4278C201.84 93.5778 203.78 94.7278 205.705 95.8642C206.948 96.5898 208.191 97.3291 209.448 98.0273C210.8 98.7666 212.166 99.5196 213.572 100.163C214.515 100.587 215.362 100.273 215.894 99.4374C216.482 98.4928 216.618 97.3838 215.744 96.1106C213.818 93.345 211.961 90.5247 210.021 87.7729C209.011 86.3217 207.85 84.98 206.812 83.5424C206.252 82.7621 205.856 81.8859 205.132 81.1876C203.998 80.1061 203.93 79.5584 204.736 78.1893C205.91 76.1494 207.18 74.1642 208.396 72.1517C208.751 71.5767 208.915 70.7279 209.68 70.6731C210.335 70.632 211.032 70.9058 211.701 71.0975C212.002 71.1797 212.261 71.3987 212.562 71.5493C214.925 72.672 217.233 73.9315 219.664 74.8762C222.532 75.9851 225.045 78.0114 228.268 78.2715C228.61 78.2989 229.006 78.6685 228.665 79.1203C227.162 81.1055 226.67 83.6109 225.168 85.5961C224.526 86.4449 224.062 87.4306 223.57 88.389C222.45 90.5795 221.125 92.6331 219.814 94.7141C219.104 95.8368 218.175 96.9868 218.066 98.4243C217.984 99.4785 217.52 100.259 216.782 100.943C216.563 101.149 216.482 101.491 216.345 101.779C216.085 102.313 215.881 102.86 215.594 103.38C214.228 105.79 212.848 108.186 211.469 110.568C211.018 111.348 210.513 112.115 210.076 112.909C209.844 113.32 209.666 113.772 209.475 114.21C209.243 114.744 209.079 115.319 208.778 115.798C208.164 116.797 207.399 117.715 206.825 118.728C205.897 120.412 205.077 122.15 204.217 123.876C204.053 124.204 203.902 124.574 203.67 124.861C201.676 127.243 200.747 130.228 199.108 132.802C198.371 133.966 197.907 135.307 197.237 136.512C195.817 139.1 194.314 141.632 192.908 144.22C192.197 145.534 191.856 147.095 190.982 148.272C190.08 149.464 190.231 150.819 189.821 152.065C189.643 152.626 190.108 153.037 190.531 153.242C191.46 153.68 192.512 153.968 193.509 153.639C194.724 153.256 195.885 152.695 197.06 152.188C198.234 151.681 199.409 151.161 200.57 150.614C202.018 149.915 203.424 149.149 204.872 148.478C205.951 147.971 207.044 147.506 208.136 147.081L210.267 145.699C210.363 145.534 210.458 145.37 210.595 145.274C210.977 144.987 211.387 144.74 211.824 144.535C212.261 144.33 212.698 144.097 213.108 143.85L214.925 142.673C215.594 142.194 216.249 141.701 216.905 141.194C217.274 140.907 217.752 140.729 218.175 140.524C219.527 139.839 220.743 138.976 221.822 137.895C222.928 136.786 224.048 135.732 225.387 134.869C226.466 134.185 227.285 133.076 228.2 132.145L236.013 124.56C237.57 122.945 239.127 121.329 240.615 119.645C241.776 118.331 242.896 116.948 243.675 115.332C243.907 114.853 244.235 114.388 244.631 114.046C246.079 112.786 247.103 111.198 248.114 109.61C248.892 108.391 249.548 107.077 250.436 105.954C251.419 104.708 252.143 103.367 252.662 101.888C252.785 101.532 252.798 101.08 253.031 100.848C254.314 99.5607 254.492 97.6303 255.708 96.3023C256.063 95.9052 256.117 95.2344 256.363 94.7278C256.705 94.0159 257.114 93.3314 257.428 92.6057C257.497 92.4688 257.333 92.0718 257.196 92.017C255.189 91.2504 254.014 89.6348 252.894 87.9235C252.43 87.1979 251.842 86.5544 251.296 85.8836C249.985 84.2407 248.687 82.6115 247.376 80.9686C247.349 80.9275 247.28 80.8864 247.267 80.8454C247.24 80.6537 247.144 80.3799 247.24 80.2703C247.39 80.0924 247.704 79.8733 247.895 79.9144C249.097 80.1471 250.272 80.462 251.474 80.7358C254.574 81.4204 257.606 82.3787 260.802 82.5841C261.376 82.6252 261.635 82.4883 261.772 82.0365C261.949 81.4751 262.059 80.8864 262.168 80.2977C262.222 79.9828 262.195 79.6406 262.263 79.3257C262.769 77.2173 264.217 75.4101 264.217 73.1237C264.217 72.9868 264.367 72.8499 264.449 72.6993C265.05 71.5082 265.186 70.235 265.132 68.9207C265.118 68.4141 264.94 68.1677 264.476 67.9486C263.329 67.4147 262.25 66.7849 261.69 65.539C261.594 65.3337 261.307 65.2105 261.089 65.0872C260.269 64.5944 259.409 64.1563 258.617 63.636C257.237 62.7187 256.09 61.514 254.56 60.761C253.536 60.2544 252.648 59.4193 251.733 58.7073C251.555 58.5704 251.364 58.146 251.446 58.0502C251.61 57.8174 252.02 57.5026 252.197 57.571C253.194 57.9954 254.273 57.6395 255.243 57.9133C257.224 58.4609 259.259 58.5567 261.266 58.8579C262.1 58.9812 262.96 58.8853 263.793 59.0085C264.654 59.1318 265.487 59.3919 266.334 59.6109C267.276 59.8437 267.877 59.5836 267.959 58.7073C268 58.2966 267.713 57.7901 267.44 57.4341C267.003 56.8865 266.948 56.3936 267.044 55.7091C267.262 54.2715 267.331 52.8066 267.399 51.3554C267.426 50.5339 267.317 49.7125 267.372 48.8774C267.494 46.6868 267.781 44.4689 267.112 42.2921C267.016 42.0046 267.044 41.6075 267.153 41.32C267.576 40.2522 267.385 39.239 267.139 38.1575C266.73 36.3229 266.347 34.4746 266.415 32.5579C266.484 30.6138 265.569 29.7103 263.575 29.5186C263.342 29.4912 263.001 29.4091 262.905 29.5186C262.714 29.7513 262.482 30.162 262.578 30.3811C263.247 32.0377 262.769 33.8038 263.083 35.5151C263.465 37.6783 263.178 39.9373 263.465 42.1689C263.67 43.7844 263.547 45.4547 263.493 47.0839C263.424 49.4661 263.301 51.8483 263.151 54.2305C263.124 54.7507 262.946 55.2846 262.728 55.7638C262.414 56.4484 261.936 56.5305 261.13 56.3525C259.778 56.0513 258.412 55.8049 257.046 55.5585C256.308 55.4216 255.571 55.2436 254.82 55.2436C252.703 55.2436 250.654 54.8329 248.578 54.5453C247.103 54.34 246.693 53.3542 247.499 52.0947C247.813 51.6018 248.264 51.1774 248.537 50.6572C249.398 49.0143 250.162 47.3029 251.05 45.6737C252.252 43.4695 253.563 41.3064 254.806 39.1295C256.281 36.5146 257.838 33.9407 259.177 31.271C259.696 30.2168 260.474 29.5049 261.403 29.4091C262.605 29.2858 262.864 28.5465 263.288 27.7251C263.561 27.1911 263.506 26.8352 263.097 26.4245C262.7 26.0274 262.332 25.8768 261.799 26.178C261.389 26.4108 260.857 26.4518 260.461 26.6983C259.901 27.0405 259.259 27.1638 258.753 26.8899C258.016 26.4655 257.469 26.7941 256.964 27.1638C254.874 28.6561 252.389 29.4638 250.367 31.0793C250.217 31.2025 249.971 31.2162 249.766 31.271C248.182 31.7091 246.543 32.0103 245.259 33.174C244.877 33.5163 244.303 33.6532 243.825 33.8723C242.637 34.4199 241.339 34.8306 240.26 35.5562C238.894 36.4735 237.693 37.6235 236.231 38.486C235.521 38.8968 234.756 39.3212 234.114 39.8688C232.83 40.9504 231.656 42.1689 230.372 43.2368C229.265 44.154 228.036 44.9344 226.889 45.8106C226.165 46.3719 225.469 46.9606 224.84 47.6178C223.857 48.6446 223.024 49.8083 221.781 50.5887C220.552 51.3554 219.391 52.2179 218.271 53.1352C217.834 53.4912 217.479 54.0525 217.328 54.6001C217.246 54.9013 217.629 55.3668 217.861 55.7228C218.995 57.4478 220.046 59.1728 220.634 61.2128C221.221 63.2664 222.15 65.2105 222.887 67.2093C223.556 69.0165 224.171 70.8237 224.799 72.6446C224.84 72.7404 224.854 72.8773 224.799 72.9732C224.649 73.3017 224.54 73.6988 224.28 73.8904C224.116 74.0136 223.679 73.8494 223.42 73.7125C222.86 73.3976 222.382 72.9321 221.808 72.6856C219.951 71.8779 218.066 71.1249 216.181 70.3993C215.239 70.0433 214.132 70.0022 213.327 69.4546C211.701 68.3457 209.803 68.154 208.082 67.4147C207.262 67.0587 206.839 67.4694 206.429 67.9897C206.17 68.3183 206.019 68.7427 205.815 69.1123C205.214 70.1939 204.79 71.4261 203.984 72.316C201.936 74.6024 201.171 77.6006 199.518 80.0924C199.3 80.4209 199.341 80.5989 199.627 80.9001C200.829 82.1323 202.072 83.3508 203.138 84.7062C205.063 87.1431 206.88 89.6622 208.696 92.1813C209.12 92.77 209.448 93.4819 209.652 94.1802C209.734 94.454 208.082 94.3719 207.235 93.9201C207.098 93.8516 206.989 93.701 206.866 93.6052C205.337 92.4278 203.739 91.3599 202.059 90.4152C201.69 90.2099 201.321 89.8539 200.925 89.8265C199.409 89.7307 198.111 89.0051 196.732 88.5122C195.967 88.2384 195.571 88.4164 195.339 89.2241C195.161 89.8402 195.134 90.5521 194.792 91.045C194.355 91.7021 194.219 92.4004 194 93.1123C193.659 94.276 193.741 95.5766 192.771 96.5487C192.512 96.8088 192.389 97.3701 192.457 97.7398C192.594 98.4928 192.225 98.9856 191.938 99.6017C191.419 100.752 191.037 101.998 190.763 103.23C190.518 104.38 190.709 105.653 190.34 106.748C189.807 108.336 189.466 109.925 189.275 111.595C189.111 113.032 188.715 114.429 188.742 115.907C188.742 116.537 188.537 117.167 188.401 117.797C188.264 118.399 187.895 119.029 187.977 119.59C188.25 121.726 187.677 123.739 187.349 125.792C187.267 126.312 187.158 126.874 187.253 127.367C187.322 127.682 187.322 127.914 187.076 128.01C186.939 128.065 186.762 128.01 186.584 127.955L187.704 135.431L187.759 135.389ZM252.074 62.7872C254.437 64.4438 256.759 66.1825 259.013 67.9897C259.819 68.6332 260.898 69.2766 260.665 70.6731C260.529 71.1797 260.365 71.6999 260.256 72.2065C259.914 73.7672 259.614 75.3553 259.231 76.9024C259.067 77.5733 258.794 78.2304 258.425 78.8191C257.743 79.887 257.292 80.0239 256.145 79.4352C254.738 78.7233 253.167 78.6001 251.678 78.2167C249.971 77.7786 248.237 77.4774 246.529 77.053C245.341 76.7655 244.044 76.9572 242.951 76.2589C242.869 76.2042 242.65 76.3274 242.527 76.4095C240.957 77.4774 240.943 78.2167 242.213 79.6816C243.552 81.2287 244.767 82.8716 246.038 84.4597C246.611 85.1716 247.185 85.8836 247.813 86.5544C248.441 87.2253 249.07 87.855 249.479 88.7312C249.739 89.2926 250.326 89.717 250.777 90.1825C251.187 90.6206 251.651 91.0176 252.047 91.4694C252.553 92.0581 252.949 92.7153 252.593 93.5367C251.829 95.2891 251.542 97.288 250.135 98.6981C249.097 99.7523 248.646 101.08 248.045 102.354C247.977 102.504 247.922 102.668 247.813 102.778C246.666 103.873 246.065 105.297 245.409 106.68C245.177 107.159 244.781 107.474 244.385 107.844C243.565 108.597 242.855 109.528 242.35 110.513C241.64 111.923 240.793 113.197 239.741 114.36C239.413 114.716 239.017 115.1 238.922 115.538C238.621 116.921 237.474 117.578 236.614 118.481C235.985 119.138 235.453 119.905 234.824 120.562C234.264 121.137 233.609 121.63 233.021 122.178C232.584 122.575 232.079 122.958 231.806 123.451C230.536 125.683 228.596 127.216 226.507 128.558C225.947 128.914 225.51 129.283 225.141 129.858C224.485 130.885 223.83 131.994 222.614 132.501C222.573 132.514 222.532 132.569 222.491 132.61C220.538 134.91 217.97 136.403 215.484 138.004C212.425 139.976 209.53 142.194 206.388 144.028C203.547 145.685 200.843 147.67 197.565 148.492C197.005 148.628 196.527 149.053 195.981 149.286C195.298 149.573 194.806 149.258 194.765 148.492C194.711 147.424 195.12 146.479 195.735 145.644C196.814 144.165 197.715 142.605 198.412 140.907C198.849 139.825 199.627 138.908 200.201 137.867C200.829 136.704 201.43 135.513 201.977 134.322C202.591 133.007 203.097 131.666 204.572 131.008C205.5 130.598 205.924 129.79 205.897 128.791C205.856 127.613 206.279 126.586 206.853 125.587C207.85 123.807 208.806 122.014 209.83 120.261C211.073 118.139 212.452 116.085 213.572 113.909C214.214 112.663 214.952 111.513 215.717 110.363C215.894 110.103 216.031 109.788 216.113 109.486C216.604 107.652 217.656 106.091 218.653 104.517C219.514 103.161 220.347 101.792 221.166 100.409C221.467 99.9029 221.74 99.369 221.931 98.8077C222.477 97.2058 223.27 95.7683 224.431 94.5361C224.635 94.3171 224.84 94.0159 224.895 93.7147C225.236 91.9212 226.397 90.5658 227.285 89.0598C228.665 86.705 230.099 84.3776 231.137 81.8448C231.191 81.6942 231.246 81.5299 231.328 81.4067C233.431 78.5042 235.125 75.3417 236.723 72.138C237.078 71.4261 237.501 70.7142 237.979 70.0707C238.99 68.7153 239.14 66.9766 239.96 65.539C240.042 65.4021 240.001 65.1694 240.096 65.0872C241.517 63.7729 241.995 61.8562 243.101 60.3365C243.47 59.83 243.593 59.1591 243.88 58.5841C244.563 57.1877 245.273 57.0644 246.352 58.0913C248.141 59.8026 250.094 61.3086 252.129 62.7324L252.074 62.7872ZM224.813 62.664C224.69 62.3217 224.431 62.0205 224.267 61.6782C224.116 61.3497 223.884 61.0074 223.884 60.6651C223.857 59.1728 223.42 57.8174 222.573 56.599C222.15 55.9966 222.136 55.3942 222.573 54.8055C223.365 53.7239 224.116 52.656 225.277 51.8619C226.739 50.8625 228.036 49.6304 229.402 48.5077C231.15 47.0702 233.021 45.7832 234.606 44.1814C235.78 43.004 237.201 42.3058 238.539 41.4433C242.678 38.7872 246.816 36.1312 251.214 33.9133C251.719 33.6532 252.225 33.3794 252.539 33.2014C253.263 33.2151 253.481 33.5163 253.304 33.9681C253.194 34.2693 253.085 34.6526 252.853 34.8169C251.87 35.5015 251.692 36.5693 251.392 37.5961C251.296 37.8973 251.228 38.2396 251.05 38.486C249.479 40.6081 248.387 42.9766 247.417 45.4136C247.226 45.8928 246.734 46.2487 246.475 46.7142C244.767 49.8083 242.746 52.7108 241.216 55.9007C240.383 57.6395 239.564 59.4056 238.471 60.9937C237.378 62.5955 236.409 64.2521 235.562 65.9772C234.633 67.8391 233.786 69.7421 232.885 71.6178C232.748 71.9053 232.612 72.2338 232.38 72.4255C231.464 73.247 230.973 74.3012 230.631 75.4649C230.481 75.9714 230.194 76.4506 229.88 76.8887C229.771 77.0393 229.375 77.1488 229.225 77.0804C229.033 76.9846 228.787 76.5601 228.842 76.4643C229.525 75.4649 228.76 74.7256 228.46 73.9041C228.036 72.7541 227.435 71.6588 227.463 70.3719C227.463 70.1665 227.435 69.9338 227.34 69.7421C226.274 67.4695 225.673 65.0188 224.799 62.664H224.813Z" fill="#212633"/>
<path fill-rule="evenodd" clip-rule="evenodd" d="M305.586 185.443C306.529 187.058 307.471 188.674 308.427 190.289L308.373 190.262C308.407 190.326 308.461 190.382 308.513 190.436C308.584 190.51 308.651 190.58 308.659 190.659C308.814 191.855 309.346 192.893 309.879 193.935C310.194 194.551 310.51 195.169 310.749 195.821C311.122 196.84 311.607 197.817 312.092 198.796C312.44 199.501 312.79 200.206 313.098 200.927C313.467 201.803 313.713 202.748 313.918 203.679C314.082 204.473 312.88 206.513 312.115 206.759C311.787 206.855 311.336 206.828 311.022 206.677C310.662 206.508 310.322 206.295 309.98 206.081C309.686 205.897 309.392 205.713 309.083 205.555C308.156 205.078 307.225 204.613 306.294 204.147C305.083 203.542 303.874 202.937 302.677 202.31C301.511 201.702 300.363 201.055 299.217 200.41C298.686 200.111 298.156 199.812 297.624 199.517C297.363 199.371 297.102 199.224 296.841 199.077C296.172 198.699 295.502 198.321 294.824 197.956C294.259 197.65 293.693 197.346 293.127 197.042C291.995 196.433 290.863 195.825 289.743 195.204C289.087 194.835 288.459 194.424 287.858 193.986C287.175 193.493 286.451 193.247 285.591 193.466C284.293 193.808 283.583 193.37 283.515 192.11C283.419 190.029 283.46 187.948 283.966 185.922C283.997 185.792 284.03 185.662 284.062 185.532C284.433 184.036 284.8 182.557 284.184 181.021C284.327 180.406 284.339 179.775 284.351 179.144C284.362 178.567 284.374 177.989 284.485 177.42C284.703 176.215 284.908 175.011 285.072 173.792C285.099 173.587 284.867 173.258 284.676 173.162C284.512 173.08 284.088 173.203 284.02 173.354C283.765 173.89 283.485 174.414 283.205 174.938C282.527 176.208 281.849 177.478 281.521 178.912C281.411 179.378 281.289 179.898 281.002 180.24C279.213 182.39 278.038 184.882 276.891 187.401C276.536 188.195 276.331 188.304 275.73 187.661C274.829 186.691 273.691 186.15 272.549 185.608C272.046 185.369 271.543 185.13 271.059 184.854C269.911 184.197 268.75 183.54 267.576 182.924C266.893 182.568 266.196 182.404 265.404 182.732C264.708 183.02 263.984 182.554 263.875 181.801C263.793 181.267 263.806 180.706 263.902 180.172C263.987 179.704 264.07 179.234 264.152 178.764C264.454 177.05 264.757 175.331 265.186 173.655C265.545 172.246 265.746 170.816 265.946 169.388C266.104 168.263 266.262 167.139 266.497 166.029C266.599 165.53 266.654 165.022 266.709 164.514C266.815 163.532 266.921 162.55 267.371 161.621C267.539 161.284 267.497 160.834 267.456 160.396C267.444 160.263 267.432 160.132 267.426 160.005C267.412 159.855 267.207 159.622 267.057 159.595C266.893 159.567 266.565 159.677 266.524 159.8C266.404 160.179 266.207 160.513 266.009 160.852C265.755 161.282 265.498 161.72 265.391 162.264C265.186 163.319 264.844 164.414 263.997 165.29C263.983 165.306 263.968 165.321 263.953 165.337C263.548 165.769 263.019 166.333 263.151 167.152C263.205 167.453 262.918 167.891 262.659 168.138C261.867 168.932 261.457 169.904 261.143 170.944C260.993 171.451 260.733 171.957 260.419 172.382C259.326 173.874 258.466 175.476 258.083 177.311C257.974 177.803 257.824 177.927 257.36 177.667C256.911 177.408 256.434 177.177 255.968 176.951C255.867 176.902 255.766 176.853 255.666 176.804C255.558 176.75 255.448 176.695 255.337 176.641C255.113 176.53 254.884 176.417 254.655 176.297H254.642C254.642 176.297 253.661 175.424 252.58 174.627C249.667 171.573 246.502 168.524 243.157 165.672C244.352 166.436 245.573 167.156 246.843 167.795C248.263 168.507 249.643 169.315 251.009 170.137C251.617 170.501 252.208 170.898 252.799 171.294C253.495 171.761 254.191 172.227 254.915 172.642C256.199 173.368 256.868 173.162 257.619 171.903C258.511 170.397 259.353 168.871 260.196 167.342C260.334 167.091 260.472 166.841 260.61 166.591C260.76 166.317 260.924 166.002 260.938 165.701C260.981 164.981 261.318 164.413 261.659 163.839C261.753 163.681 261.847 163.522 261.935 163.36C261.995 163.248 262.057 163.136 262.119 163.025C262.42 162.478 262.723 161.927 262.905 161.347C263.246 160.211 263.793 159.184 264.462 158.212C264.49 158.171 264.518 158.13 264.546 158.089C264.698 157.87 264.852 157.647 264.967 157.404C265.541 156.209 266.102 155.013 266.664 153.817C266.945 153.219 267.225 152.622 267.508 152.024C267.586 151.858 267.656 151.688 267.73 151.508C267.784 151.375 267.84 151.238 267.904 151.093C267.859 151 267.824 150.898 267.788 150.797C267.714 150.586 267.642 150.378 267.494 150.258C267.285 150.087 267.077 149.914 266.869 149.741C266.044 149.053 265.217 148.365 264.312 147.807C262.44 146.657 260.528 145.589 258.575 144.603C258.455 144.542 258.335 144.481 258.215 144.42C253.855 142.208 249.502 139.999 244.876 138.36C244.162 138.107 243.457 137.832 242.751 137.557C241.284 136.985 239.815 136.412 238.266 136.033C237.468 135.844 236.684 135.614 235.898 135.384C235.256 135.196 234.614 135.008 233.963 134.842C232.709 134.522 231.451 134.216 230.194 133.91C228.866 133.586 227.539 133.263 226.219 132.925C226.107 132.901 226.009 132.891 225.914 132.881C225.847 132.875 225.782 132.868 225.714 132.857L228.978 129.584C229.074 129.626 229.197 129.667 229.333 129.708C229.777 129.845 230.215 130.002 230.652 130.158C231.872 130.594 233.091 131.029 234.428 131.049C234.597 131.059 234.766 131.139 234.935 131.22C235.012 131.257 235.088 131.293 235.165 131.323C235.258 131.363 235.351 131.417 235.445 131.471C235.643 131.584 235.84 131.698 236.026 131.679C237.478 131.526 238.729 132.072 239.981 132.619C240.296 132.757 240.611 132.894 240.929 133.021C241.926 133.418 242.923 133.76 243.947 134.061C246.392 134.787 248.837 135.513 251.05 136.895C251.668 137.284 252.386 137.498 253.105 137.712C253.576 137.852 254.048 137.992 254.491 138.182C256.103 138.867 257.701 139.592 259.258 140.4C259.93 140.747 260.576 141.139 261.221 141.531C261.901 141.944 262.58 142.356 263.287 142.714C264.872 143.508 266.319 144.507 267.74 145.562C267.999 145.753 268.272 145.918 268.559 146.068C269.841 146.735 270.959 147.634 272.076 148.532C272.84 149.146 273.603 149.759 274.419 150.299C277.218 152.133 279.827 154.187 282.258 156.487C282.748 156.941 283.286 157.342 283.824 157.743C284.277 158.08 284.73 158.418 285.154 158.787C285.396 158.999 285.588 159.266 285.78 159.534C285.935 159.75 286.091 159.967 286.274 160.156C286.827 160.739 287.389 161.316 287.95 161.893C289.011 162.981 290.072 164.071 291.081 165.208C291.382 165.545 291.735 165.837 292.088 166.129C292.839 166.751 293.589 167.372 293.84 168.425C293.868 168.507 293.977 168.603 294.059 168.658C295.108 169.364 295.768 170.391 296.423 171.409C296.861 172.089 297.296 172.765 297.842 173.34C298.369 173.898 298.806 174.519 299.242 175.138C299.801 175.931 300.356 176.719 301.093 177.365C301.108 177.379 301.123 177.392 301.138 177.405C301.248 177.502 301.361 177.601 301.421 177.721C302.226 179.487 303.223 181.13 304.398 182.677C304.387 183.54 304.817 184.215 305.247 184.892C305.363 185.074 305.479 185.257 305.586 185.443ZM217.485 150.83C216.862 150.563 216.251 150.266 215.675 149.888C215.405 149.704 215.025 149.671 214.652 149.638C214.498 149.624 214.344 149.611 214.2 149.587C214.086 149.567 213.972 149.548 213.858 149.529C212.354 149.276 210.817 149.017 209.433 148.368C208.436 147.903 207.439 147.766 206.388 147.752L204.407 148.587C204.432 148.663 204.447 148.753 204.442 148.865C207.662 148.61 211.972 149.048 217.485 150.83ZM283.472 168.921C283.782 168.432 284.091 167.943 284.375 167.439L284.334 167.412C285.14 166.002 284.976 164.783 283.802 163.661C283.506 163.379 283.181 163.122 282.856 162.864C282.55 162.622 282.243 162.379 281.958 162.114C280.871 161.103 279.788 160.078 278.705 159.052C277.896 158.287 277.087 157.521 276.276 156.761C275.508 156.042 274.716 155.346 273.925 154.651C273.661 154.419 273.398 154.187 273.135 153.954C273.037 153.87 272.914 153.811 272.79 153.751C272.671 153.695 272.552 153.637 272.452 153.557C271.919 153.174 271.523 153.475 271.455 153.913C271.34 154.605 271.166 155.288 270.992 155.972C270.691 157.155 270.389 158.34 270.389 159.581C270.389 159.981 270.304 160.381 270.22 160.773C270.203 160.85 270.187 160.928 270.171 161.005C270.084 161.439 269.979 161.868 269.874 162.297C269.586 163.477 269.299 164.654 269.379 165.92C269.447 167.029 269.379 168.261 268.969 169.26C268.521 170.346 268.387 171.49 268.254 172.633C268.114 173.825 267.975 175.015 267.48 176.133C267.426 176.279 267.444 176.467 267.462 176.657C267.471 176.753 267.48 176.849 267.48 176.941C267.467 178.42 267.48 178.447 268.86 179.323C269.133 179.501 269.392 179.72 269.597 179.967C270.021 180.487 270.512 180.637 271.168 180.651C271.673 180.665 272.206 180.87 272.67 181.103C273.028 181.279 273.37 181.493 273.712 181.708C274.009 181.894 274.305 182.08 274.61 182.239C275.935 182.937 276.017 182.896 276.959 181.787C276.984 181.758 277.014 181.73 277.044 181.701C277.098 181.652 277.151 181.602 277.177 181.541C277.606 180.568 278.128 179.647 278.65 178.726C279.391 177.417 280.133 176.109 280.606 174.655C281.043 173.34 281.671 172.094 282.313 170.876C282.661 170.201 283.067 169.56 283.472 168.921ZM304.261 198.559C305.436 199.175 306.679 199.709 307.908 200.215V200.243C308.55 200.503 308.769 200.297 308.755 199.271C308.753 199.263 308.75 199.254 308.748 199.244C308.713 199.119 308.618 198.781 308.454 198.49C308.181 197.997 307.901 197.511 307.621 197.025C307.341 196.539 307.061 196.053 306.788 195.56C306.556 195.15 306.337 194.712 306.16 194.273C306.065 194.045 305.988 193.809 305.911 193.573C305.79 193.2 305.669 192.829 305.477 192.494C305.06 191.775 304.62 191.073 304.18 190.372C303.739 189.67 303.299 188.968 302.882 188.25C302.603 187.775 302.363 187.272 302.123 186.769C301.739 185.967 301.357 185.166 300.82 184.485C299.59 182.896 298.539 181.24 297.637 179.46C297.473 179.131 297.269 178.803 296.995 178.556C295.903 177.589 295.138 176.378 294.373 175.167C293.991 174.562 293.608 173.956 293.185 173.381C293.07 173.225 292.996 173.021 292.923 172.82C292.824 172.544 292.727 172.276 292.529 172.149C291.382 171.424 290.399 170.547 289.593 169.479C289.581 169.468 289.569 169.454 289.558 169.44C289.528 169.405 289.499 169.37 289.47 169.37C289.404 169.352 289.334 169.326 289.263 169.301C289.07 169.231 288.872 169.159 288.732 169.219C288.568 169.288 288.459 169.657 288.459 169.89C288.443 170.241 288.454 170.597 288.464 170.954C288.481 171.532 288.497 172.111 288.404 172.669C288.069 174.778 287.941 176.911 287.812 179.045C287.805 179.17 287.797 179.294 287.79 179.419C287.764 179.851 287.749 180.286 287.734 180.72C287.694 181.866 287.655 183.009 287.407 184.101C287.172 185.113 287.169 186.117 287.166 187.12C287.165 187.515 287.163 187.91 287.148 188.304C287.107 189.331 287.612 190.084 288.596 190.385C290.043 190.823 291.464 191.261 292.57 192.384C292.691 192.506 292.864 192.576 293.039 192.648C293.12 192.681 293.202 192.715 293.28 192.754C293.832 193.03 294.386 193.304 294.941 193.578C296.145 194.172 297.351 194.768 298.539 195.396C299.452 195.883 300.354 196.392 301.254 196.9C302.252 197.463 303.249 198.026 304.261 198.559Z" fill="#212633"/>
<path d="M277.983 229.089C277.697 228.391 277.355 227.624 277.86 226.762C278.093 226.379 277.86 225.708 277.806 225.174C277.779 224.859 277.574 224.462 277.71 224.27C278.106 223.695 277.819 223.257 277.601 222.75C277.464 222.408 277.341 222.052 277.273 221.683C277.041 220.478 276.836 219.259 276.618 218.055C276.03 214.796 275.197 211.592 274.309 208.403C273.312 204.802 272.288 201.201 270.581 197.847C270.403 197.505 270.43 197.012 270.512 196.615C270.84 195.109 270.854 195.136 269.529 194.123C269.147 193.836 268.6 193.466 268.546 193.069C268.423 192.124 267.631 191.672 267.275 190.933C267.112 190.604 266.934 190.29 266.77 189.961C266.429 189.249 266.142 188.482 265.732 187.812C264.476 185.799 263.178 183.828 261.894 181.842C261.717 181.569 261.566 181.295 261.348 181.048C260.46 180.035 259.531 179.036 258.657 178.009C258.165 177.434 257.742 176.818 257.319 176.202C257.25 176.092 257.305 175.873 257.346 175.736C257.346 175.736 257.346 175.736 257.36 175.736L255.516 174.066L247.485 165.797C245.901 164.811 244.357 163.743 242.827 162.675C241.967 162.073 241.243 161.306 240.41 160.663C239.686 160.101 238.962 159.554 238.129 159.157C237.159 158.691 236.162 158.267 235.452 157.404C235.411 157.363 235.384 157.308 235.329 157.295C233.458 156.61 231.764 155.611 230.112 154.516C229.497 154.105 228.814 153.804 228.131 153.516C226.957 153.01 225.714 152.654 224.594 152.065C222.941 151.189 221.097 150.764 219.513 149.724C219.131 149.464 218.53 149.505 218.038 149.423C216.426 149.149 214.76 148.902 213.271 148.204C212.151 147.67 211.004 147.561 209.816 147.574C209.72 147.574 209.625 147.533 209.543 147.492L208.081 148.095C208.45 147.944 207.33 148.409 207.699 148.273C208.232 148.081 208.395 148.341 208.259 148.943C207.999 150.121 208.027 150.217 209.133 150.559C210.294 150.915 211.51 151.175 212.67 151.545C214.132 152.01 215.593 152.503 217.014 153.105C217.792 153.434 218.434 154.064 219.185 154.461C221.193 155.556 223.228 156.624 225.263 157.678C226.301 158.212 227.38 158.678 228.405 159.253C230.74 160.553 232.994 162.004 235.384 163.196C237.351 164.181 239.208 165.318 241.011 166.55C242.035 167.248 242.09 167.275 241.516 168.302C240.943 169.329 240.15 170.233 239.591 171.259C238.225 173.696 236.695 176.01 235.07 178.283C234.482 179.104 233.991 180.008 233.444 180.857C232.871 181.747 232.898 182.527 233.649 183.348C234.223 183.964 234.892 184.293 235.575 183.91C236.927 183.157 238.238 182.322 239.604 181.569C241.475 180.528 243.374 179.542 245.272 178.543C246.119 178.105 246.98 177.68 247.84 177.256C248.933 176.708 250.025 176.147 251.132 175.613C251.746 175.326 252.279 175.476 252.73 176.01C253.809 177.311 254.942 178.584 256.008 179.898C257.838 182.144 259.723 184.348 261.198 186.881C261.334 187.113 261.471 187.332 261.621 187.551C262.755 189.29 262.891 188.701 261.389 190.262C261.307 190.344 261.225 190.413 261.143 190.481C259.791 191.631 258.411 192.768 257.073 193.931C255.885 194.958 254.737 196.026 253.59 197.108C253.358 197.327 253.235 197.642 253.003 197.874C252.238 198.641 251.446 199.367 250.695 200.147C249.479 201.407 247.717 202.091 246.816 203.679C246.488 204.268 246.105 204.145 245.778 203.857C245.026 203.186 244.33 202.447 243.633 201.708C243.237 201.283 242.937 200.763 242.527 200.325C241.94 199.681 241.216 199.148 240.697 198.449C239.167 196.423 237.706 194.369 235.862 192.59C234.51 191.289 233.417 189.728 232.174 188.304C231.15 187.113 230.057 185.977 229.019 184.8C227.599 183.17 226.192 181.541 224.785 179.898C224.225 179.241 223.679 178.57 223.133 177.913C222.654 177.338 222.217 176.722 221.698 176.161C220.087 174.395 218.175 172.834 216.877 170.862C215.443 168.699 213.449 167.138 211.919 165.099C210.622 163.374 208.983 161.909 207.535 160.293C206.702 159.376 205.882 158.431 205.186 157.418C204.762 156.802 204.161 156.419 203.601 156.542C202.987 156.679 202.304 157.172 201.963 157.719C201.662 158.198 201.375 158.897 202.099 159.581C202.987 160.43 203.601 161.539 204.435 162.456C205.459 163.593 206.634 164.592 207.644 165.742C209.27 167.604 210.799 169.562 212.411 171.437C213.504 172.711 214.651 173.943 215.798 175.175C217.669 177.188 219.568 179.173 221.453 181.172C221.644 181.377 221.876 181.541 222.026 181.76C223.255 183.554 224.744 185.114 226.26 186.662C227.203 187.62 228.227 188.578 228.91 189.715C229.88 191.33 231.232 192.562 232.502 193.89C233.144 194.561 233.827 195.191 234.455 195.875C234.892 196.355 234.947 196.916 234.537 197.436C233.895 198.244 233.253 199.038 232.557 199.791C230.166 202.324 227.749 204.843 225.345 207.362C225.263 207.444 225.195 207.513 225.113 207.595C223.829 208.991 222.573 210.415 221.248 211.784C220.469 212.592 219.65 212.592 218.871 211.757C217.861 210.675 216.932 209.511 215.976 208.375C215.184 207.43 214.419 206.445 213.599 205.514C212.534 204.295 211.414 203.104 210.335 201.886C210.226 201.762 210.157 201.612 210.075 201.475C209.16 199.969 208.436 198.285 207.289 196.984C205.459 194.917 204.653 192.33 203.287 190.043C202.031 187.948 201.239 185.58 200.228 183.321C200.119 183.075 199.982 182.842 199.927 182.582C199.518 180.405 198.439 178.474 197.715 176.421C197.305 175.257 196.609 174.176 196.376 172.998C196.185 172.053 196.076 171.109 195.803 170.178C195.42 168.85 195.215 167.467 195.024 166.084C194.915 165.331 194.614 164.743 194.082 164.263C192.962 163.237 191.937 162.073 190.667 161.265C189.684 160.635 189.684 160.033 189.889 159.116C190.012 158.568 190.025 157.925 189.848 157.418C189.438 156.241 188.755 156.172 187.977 157.117C187.403 157.829 186.788 158.513 186.201 159.225C186.174 159.266 186.133 159.307 186.105 159.348L189.165 168.069C189.165 168.069 198.534 188.934 199.955 191.96C201.375 194.986 204.052 198.956 205.118 200.174C205.773 200.927 207.125 203.2 208.081 204.87C208.354 204.911 208.669 204.898 208.833 205.048C209.72 205.924 210.553 206.855 211.387 207.773C212.247 208.731 213.067 209.717 213.722 210.853C213.927 211.195 214.391 211.387 214.705 211.675C215.252 212.195 215.812 212.701 216.29 213.29C217.423 214.687 218.666 215.946 220.128 217C220.619 217.356 220.988 217.315 221.412 216.904C222.764 215.631 224.13 214.385 225.468 213.098C225.564 213.003 225.605 212.729 225.55 212.592C225.372 212.113 225.495 211.743 225.864 211.428C225.905 211.387 225.932 211.346 225.973 211.305C227.025 210.36 228.282 209.58 229.046 208.444C229.852 207.266 230.754 206.226 231.71 205.199C232.147 204.733 232.488 204.172 232.925 203.707C233.076 203.542 233.444 203.446 233.649 203.515C233.813 203.57 233.895 203.926 233.95 204.158C233.991 204.364 234.032 204.651 233.922 204.802C233.226 205.856 233.035 207.088 232.68 208.252C232.543 208.704 232.475 209.197 232.311 209.635C232.174 210.032 231.928 210.374 231.778 210.771C231.56 211.291 231.082 211.77 231.546 212.428C231.669 212.606 231.669 213.003 231.546 213.181C231.082 213.893 231.163 214.755 230.863 215.481C230.371 216.685 230.289 217.89 230.385 219.136C230.481 220.45 229.989 221.587 229.361 222.709C228.869 223.572 228.896 223.599 229.647 224.147C230.248 224.585 230.863 225.023 231.437 225.489C233.827 227.446 236.668 228.596 239.386 229.952L246.802 233.333C246.802 233.333 246.911 233.333 246.966 233.347C247.116 233.388 247.28 233.443 247.403 233.525C248.892 234.456 250.585 234.949 252.183 235.647C253.658 236.291 255.366 236.209 256.704 237.194C256.786 237.249 256.909 237.263 257.018 237.263C258.425 237.331 259.641 238.098 260.993 238.44C262.591 238.837 264.189 239.248 265.8 239.576C267.002 239.823 268.218 240.151 269.42 240.179C270.594 240.206 271.591 240.836 272.711 240.863C273.49 240.877 274.077 241.082 274.542 241.685C275.061 242.356 275.757 242.315 276.467 242.068C278.052 241.507 278.202 241.315 278.161 239.604C278.161 239.125 278.011 238.645 277.956 238.166C277.901 237.687 277.697 237.098 277.888 236.729C278.338 235.88 277.97 235.154 277.724 234.429C277.41 233.511 277.355 232.649 277.819 231.759C278.27 230.896 278.284 230.048 277.901 229.117L277.983 229.089ZM248.386 173.19C246.392 174.217 244.398 175.202 242.404 176.215C241.83 176.503 241.284 176.859 240.683 177.078C240.424 177.174 240.069 177.037 239.754 177.01C239.823 176.722 239.809 176.393 239.959 176.161C240.588 175.161 241.257 174.203 241.899 173.217C242.595 172.149 243.265 171.054 243.988 170C244.671 169 245.341 168.987 246.269 169.822C246.747 170.246 247.307 170.589 247.758 171.04C248.209 171.478 248.878 171.793 248.782 172.765C248.728 172.834 248.605 173.094 248.414 173.19H248.386ZM270.403 237.509C270.267 237.509 270.103 237.413 269.966 237.331C269.338 236.948 268.669 236.893 267.945 236.879C267.371 236.879 266.729 236.825 266.237 236.564C264.94 235.88 263.506 235.524 262.113 235.332C259.927 235.031 257.879 234.251 255.734 233.84C255.311 233.758 254.888 233.703 254.478 233.621C254.164 233.552 253.809 233.539 253.563 233.361C252.019 232.238 250.121 231.964 248.427 231.198C246.351 230.253 244.18 229.541 242.076 228.637C240.956 228.145 239.905 227.474 238.853 226.844C237.118 225.79 235.397 224.708 233.704 223.613C233.294 223.353 232.994 222.928 232.652 222.586C232.57 222.504 232.447 222.367 232.461 222.34C233.062 221.286 232.229 220.177 232.584 219.109C233.144 217.438 234.004 215.796 234.182 214.084C234.4 212.017 235.452 210.223 235.657 208.183C235.684 207.869 235.848 207.567 235.985 207.28C236.408 206.445 236.517 205.569 236.668 204.651C236.845 203.57 237.323 202.515 237.774 201.502C238.006 200.996 238.58 200.941 239.003 201.393C240.205 202.707 241.776 203.693 242.541 205.404C242.65 205.637 242.841 205.856 243.032 206.048C244.699 207.841 246.392 209.607 248.031 211.414C248.646 212.085 249.151 212.852 249.738 213.564C250.216 214.153 250.64 214.865 251.255 215.234C252.525 215.987 253.221 217.178 254.027 218.315C254.246 218.63 254.519 218.903 254.792 219.163C255.762 220.108 256.636 221.108 257.36 222.285C257.974 223.284 258.848 224.133 259.654 225.009C261.225 226.734 262.809 228.446 264.435 230.13C265.664 231.403 266.893 232.676 268.15 233.922C269.092 234.853 269.816 236.017 270.635 237.085C270.663 237.126 270.663 237.181 270.704 237.304C270.622 237.372 270.512 237.537 270.403 237.55V237.509ZM275.484 235.866C275.279 236.674 274.965 236.742 274.405 236.154C272.985 234.661 271.728 232.977 270.157 231.677C268.764 230.513 267.972 228.911 266.661 227.72C264.79 226.009 263.315 223.928 261.758 221.929C261.129 221.121 260.419 220.272 259.559 219.752C258.848 219.314 258.521 218.684 258.07 218.123C256.991 216.795 256.103 215.262 254.888 214.098C254.109 213.359 253.358 212.619 252.689 211.784C251.842 210.744 251.05 209.676 249.889 208.923C249.247 208.498 248.851 207.704 248.318 207.088C248.018 206.746 248.14 206.486 248.414 206.253C248.659 206.048 248.946 205.897 249.192 205.705C250.613 204.542 252.033 203.392 253.426 202.201C254.451 201.324 255.543 200.489 256.431 199.49C258.22 197.45 260.446 195.903 262.318 193.972C262.604 193.671 263.014 193.48 263.369 193.233C263.615 193.069 263.902 192.727 264.107 192.768C264.448 192.836 264.831 193.069 265.022 193.356C265.445 193.959 266.101 194.698 266.005 195.287C265.91 195.903 265.117 196.478 264.53 196.957C262.331 198.764 260.091 200.53 257.879 202.324C256.622 203.337 255.379 204.364 254.164 205.432C253.727 205.815 253.331 206.294 253.03 206.787C252.566 207.526 252.784 208.403 253.453 208.909C254.232 209.498 254.915 209.457 255.639 208.868C258.056 206.897 260.296 204.72 262.85 202.899C263.861 202.187 264.721 201.27 265.664 200.448C265.869 200.27 266.046 200.051 266.265 199.901C267.234 199.243 267.876 199.339 268.382 200.38C269.119 201.858 269.72 203.405 270.389 204.925C271.605 207.718 272.384 210.661 273.162 213.605C273.626 215.357 273.982 217.151 274.309 218.931C274.692 221.039 274.979 223.161 275.293 225.283C275.306 225.393 275.293 225.502 275.293 225.612C275.402 227.556 275.498 229.5 275.634 231.444C275.675 232.019 275.866 232.594 275.948 233.046C275.784 234.086 275.689 234.99 275.47 235.88L275.484 235.866Z" fill="#212633"/>
</g>
<defs>
<clipPath id="clip0_14117_452">
<rect width="263" height="311" fill="white" transform="translate(51 26)"/>
</clipPath>
</defs>
</svg>
