<svg width="364" height="364" viewBox="0 0 364 364" fill="none" xmlns="http://www.w3.org/2000/svg">
<g clip-path="url(#clip0_14496_659)">
<path d="M158.602 72.754L197.293 18.5115L208.294 15.4833L220.423 15.0984L231.048 16.9974L239.388 20.0342L249.251 25.3378L256.078 30.65L262.527 37.4763L269.354 43.5498L277.703 49.0502L284.905 51.8902L293.631 54.1656L300.457 55.1151L307.471 54.9269L313.921 53.9774L323.973 51.8902L281.304 112.574L271.253 112.959L262.904 112.198L253.99 109.358L247.549 107.27L239.585 103.096L233.7 99.3063L225.171 92.8564L218.345 85.2688L212.844 81.2825L201.467 75.7907L191.604 73.3185L185.531 71.9926L176.617 71.0431L168.089 71.2313L158.602 72.754Z" fill="#212633" fill-opacity="0.12"/>
<path d="M89.5778 194.694L100.194 195.259L109.484 195.447L117.644 194.121L126.558 191.658L134.137 188.433L144.573 182.744L162.015 188.056L168.465 190.332L169.979 205.498L173.965 225.224L179.466 242.675L185.154 258.603L188.756 266.755L118.594 254.805L133.949 214.609L125.42 217.26L114.984 218.775L103.23 218.398L94.8815 216.499L85.027 212.71L89.5778 194.694Z" fill="#212633" fill-opacity="0.12"/>
<path d="M141.16 112.771L163.341 102.523L169.226 116.937L160.313 127.561L151.399 142.351L148.936 131.539L144.573 119.785L141.16 112.771Z" fill="#212633" fill-opacity="0.12"/>
<path d="M81.0408 330.1L92.2297 314.548L98.8678 306.961L107.97 298.235L118.021 290.648L126.934 284.959L138.5 279.655L143.624 291.033L151.399 305.062L158.602 315.113L165.052 321.751L170.741 328.013L177.567 332.94L184.778 338.252L191.792 342.426L203.931 323.65L194.829 316.635L187.43 308.475L180.792 297.859L175.48 287.234L172.255 276.807L170.552 264.292L120.484 255.755L111.006 260.691L101.52 266.756L93.1792 273.582L85.2152 280.793L78.7653 288.184L72.5036 295.96L67.2 304.309L60.9383 317.961L81.0408 330.1Z" fill="#212633"/>
<path opacity="0.12" d="M56.3873 204.173L65.3008 205.122L49.9374 227.688L43.8724 222.376L56.3873 204.173Z" fill="#212633"/>
<path opacity="0.12" d="M70.2281 185.593L79.9029 186.919L83.8892 181.042L137.747 104.61L131.861 96.2695L70.2281 185.593Z" fill="#212633"/>
<path opacity="0.12" d="M145.899 78.066L193.88 9.22153L195.017 3.15657L199.568 1.06934L203.743 2.39524L205.445 5.62019L205.633 8.08381L203.743 11.497L199.945 14.1488L150.638 84.5074L145.899 78.066Z" fill="#212633"/>
<path d="M221.433 150.922C221.433 151.983 221.501 153.052 221.416 154.105C221.33 155.071 221.45 156.021 221.518 156.97C221.544 157.287 221.39 157.629 221.45 157.928C221.715 159.246 221.553 160.572 221.664 161.889C221.784 163.403 222.049 164.909 222.246 166.423C222.271 166.594 222.254 166.765 222.254 166.936C222.246 168.082 222.442 169.211 222.639 170.341C222.836 171.461 222.93 172.607 223.075 173.737C223.127 174.104 223.212 174.455 223.281 174.823C223.58 176.534 223.837 178.245 224.247 179.938C224.427 180.674 224.495 181.453 224.718 182.188C224.778 182.376 224.829 182.573 224.906 182.753C225.163 183.309 225.325 183.856 225.359 184.489C225.411 185.387 225.813 186.226 226.198 187.047C226.565 187.843 226.891 188.638 226.985 189.519C227.019 189.81 227.096 190.135 227.258 190.375C227.643 190.965 227.601 191.606 227.575 192.239C227.558 192.761 227.395 192.898 226.882 192.881C226.685 192.881 226.497 192.77 226.3 192.761C226.112 192.744 225.864 192.718 225.736 192.813C224.752 193.617 223.572 193.677 222.391 193.694C221.305 193.711 220.235 193.771 219.2 194.096C219.14 194.113 219.063 194.104 218.995 194.113C217.678 194.181 216.36 194.275 215.034 194.318C212.485 194.404 209.936 194.472 207.387 194.515C206.822 194.523 206.266 194.549 205.676 194.387C205.206 194.25 204.624 194.515 204.093 194.515C203.666 194.515 203.238 194.395 202.802 194.344C202.596 194.318 202.383 194.292 202.186 194.344C200.706 194.737 199.2 194.455 197.712 194.523C197.464 194.532 197.242 194.335 196.959 194.523C196.839 194.6 196.566 194.609 196.463 194.523C195.753 193.95 194.983 194.404 194.248 194.318C193.529 194.241 192.819 194.275 192.1 194.241C191.356 194.215 190.612 194.207 189.868 194.113C189.278 194.036 188.679 193.899 188.114 193.702C187.378 193.446 186.643 193.531 185.899 193.514C185.223 193.497 184.556 193.514 183.888 193.334C183.298 193.18 182.657 193.206 182.032 193.172C181.279 193.138 180.527 193.001 179.774 192.744C179.03 192.487 178.174 192.513 177.37 192.496C176.583 192.487 175.839 192.342 175.12 192.026C175.026 191.983 174.941 191.88 174.855 191.889C173.991 191.966 173.204 191.624 172.383 191.487C171.818 191.393 171.262 191.341 170.715 191.144C170.219 190.965 169.774 191.264 169.723 191.803C169.688 192.145 169.62 192.522 169.74 192.821C170.022 193.557 169.834 194.31 169.928 195.037C170.082 196.234 170.013 197.458 170.313 198.647C170.373 198.869 170.338 199.126 170.33 199.365C170.287 200.349 170.45 201.307 170.706 202.256C170.741 202.385 170.741 202.522 170.741 202.658C170.741 203.745 170.954 204.797 171.134 205.858C171.331 207.047 171.425 208.262 171.57 209.459C171.596 209.656 171.699 209.844 171.724 210.032C171.818 210.563 171.861 211.102 171.981 211.615C172.203 212.59 172.049 213.616 172.52 214.566C172.759 215.054 172.682 215.687 172.794 216.243C173.119 217.876 173.478 219.502 173.948 221.11C174.342 222.453 174.53 223.847 174.847 225.216C175.129 226.414 175.539 227.594 175.736 228.809C175.941 230.075 176.575 231.204 176.72 232.487C176.797 233.163 177.216 233.804 177.344 234.48C177.729 236.456 178.542 238.287 179.124 240.194C179.44 241.221 179.885 242.188 180.27 243.18C180.415 243.548 180.484 243.95 180.569 244.343C180.595 244.437 180.561 244.557 180.595 244.651C180.997 245.678 181.416 246.696 181.81 247.722C182.101 248.466 182.357 249.228 182.622 249.981C182.691 250.169 182.742 250.365 182.828 250.545C183.084 251.118 183.555 251.606 183.486 252.299C184.128 253.18 184.29 254.275 184.752 255.233C185.3 256.379 185.916 257.491 186.463 258.637C186.78 259.296 186.976 260.015 187.293 260.682C187.823 261.802 188.405 262.889 188.944 264.001C189.218 264.574 189.457 265.164 189.697 265.746C189.739 265.857 189.757 265.994 189.722 266.114C189.62 266.533 189.508 266.952 189.38 267.371C189.192 267.979 188.414 268.423 187.729 268.175C187.002 267.91 186.164 268.158 185.488 267.628C185.317 267.491 184.958 267.619 184.684 267.594C184.051 267.534 183.375 267.577 182.785 267.363C181.519 266.901 180.176 267.08 178.918 266.755C177.652 266.422 176.309 266.524 175.086 265.994C174.821 265.883 174.479 265.968 174.171 265.943C173.632 265.9 173.11 265.994 172.563 265.78C172.007 265.566 171.596 265.951 171.758 266.559C172.075 267.765 171.827 269.048 172.314 270.237C172.537 270.784 172.186 271.46 172.528 272.033C172.451 273.368 173.221 274.565 173.178 275.891C173.178 275.96 173.187 276.028 173.213 276.088C173.88 277.696 174.034 279.458 174.761 281.05C174.966 281.494 174.949 282.033 175.103 282.512C175.394 283.436 175.728 284.343 176.061 285.25C176.515 286.464 176.985 287.679 177.473 288.877C177.9 289.929 178.362 290.964 178.816 292.008C179.338 293.205 179.859 294.394 180.398 295.583C180.509 295.823 180.672 296.045 180.826 296.268C181.254 296.909 181.724 297.525 182.109 298.184C182.716 299.227 183.238 300.314 183.846 301.366C184.128 301.853 184.47 302.324 184.855 302.743C185.565 303.522 186.249 304.3 186.532 305.344C186.549 305.412 186.566 305.48 186.609 305.532C187.225 306.293 187.832 307.054 188.456 307.799C188.893 308.32 189.278 308.902 189.799 309.313C190.595 309.929 190.971 310.852 191.63 311.528C192.656 312.598 193.392 313.958 194.744 314.71C194.769 314.728 194.804 314.753 194.821 314.779C195.291 315.6 195.916 316.259 196.737 316.746C197.096 316.96 197.319 317.422 197.695 317.585C198.448 317.91 198.927 318.526 199.508 319.039C200.21 319.646 200.92 320.245 201.664 320.801C202.845 321.682 204.008 322.606 205.283 323.342C206.446 324.017 207.686 324.539 208.576 325.609C208.713 325.771 208.987 325.848 209.209 325.899C210.424 326.156 211.373 326.934 212.4 327.542C214.102 328.551 215.821 329.501 217.609 330.339C218.054 330.544 218.465 330.75 218.533 331.28C218.601 331.836 218.499 332.332 218.114 332.794C217.532 333.487 217.053 334.214 216.856 335.155C216.72 335.822 216.258 336.421 215.907 337.028C215.607 337.55 215.231 338.029 215.257 338.688C215.257 338.842 215.154 339.004 215.077 339.15C214.624 340.082 214.136 340.998 213.708 341.939C213.443 342.512 213.272 343.136 213.016 343.709C212.631 344.556 212.211 345.377 211.784 346.207C211.45 346.849 210.791 347.122 210.184 347.379C209.739 347.576 209.252 347.294 208.867 347.037C208.277 346.661 207.712 346.224 207.182 345.771C206.446 345.146 206.078 345.181 205.633 346.07C205.317 346.695 205.086 347.362 204.812 348.004C204.282 349.27 203.751 350.527 203.238 351.802C202.887 352.666 202.502 353.53 202.271 354.428C202.1 355.095 201.784 355.66 201.45 356.233C201.185 356.695 200.954 357.174 200.715 357.644C200.655 357.764 200.603 357.884 200.535 358.003C199.91 359.073 199.363 360.193 198.644 361.194C197.43 362.888 195.77 363.966 193.632 364.026C192.203 364.068 191.108 363.273 190.441 362.075C189.432 360.279 189.252 358.406 190.236 356.481C190.501 355.959 190.535 355.326 190.672 354.744C190.757 354.385 190.783 354.009 190.928 353.684C191.288 352.888 191.621 352.092 191.715 351.211C191.75 350.886 191.938 350.587 192.032 350.262C192.135 349.911 192.22 349.552 192.314 349.21C192.588 348.252 192.862 347.294 193.153 346.335C193.255 345.985 193.384 345.643 193.495 345.292C193.991 343.803 194.504 342.324 194.958 340.827C195.146 340.228 195.206 339.586 195.317 338.962C195.317 338.928 195.24 338.868 195.197 338.842C195.171 338.825 195.112 338.833 195.103 338.842C194.35 339.791 193.52 340.715 193.17 341.879C192.939 342.649 192.297 342.88 191.775 343.247C191.613 343.359 191.074 343.188 190.886 342.982C190.176 342.229 189.235 341.827 188.405 341.271C186.728 340.168 185.035 339.09 183.349 337.995C182.562 337.482 181.793 336.96 181.014 336.43C180.706 336.224 180.424 335.985 180.142 335.754C179.979 335.626 179.851 335.395 179.68 335.36C178.696 335.198 178.174 334.377 177.447 333.855C176.523 333.196 175.753 332.324 174.744 331.759C173.983 331.331 173.435 330.604 172.605 330.254C172.443 330.185 172.349 329.946 172.212 329.8C171.776 329.33 171.348 328.842 170.894 328.389C170.655 328.158 170.356 327.987 170.107 327.764C169.466 327.208 168.833 326.652 168.217 326.07C167.687 325.566 167.19 325.027 166.686 324.496C166.121 323.889 165.582 323.256 164.992 322.674C164.564 322.247 164.043 321.913 163.623 321.477C162.905 320.716 162.229 319.911 161.545 319.124C161.433 318.996 161.365 318.842 161.254 318.722C160.142 317.533 158.987 316.379 157.909 315.147C157.028 314.137 156.267 313.017 155.394 311.999C154.402 310.853 153.769 309.441 152.623 308.406C152.195 308.021 151.972 307.405 151.656 306.892C151.032 305.865 150.544 304.719 149.757 303.829C148.85 302.794 148.414 301.52 147.593 300.459C147.507 300.356 147.464 300.211 147.37 300.125C146.438 299.321 145.967 298.226 145.634 297.097C145.411 296.345 144.881 295.84 144.513 295.207C144.231 294.711 143.786 294.257 143.675 293.735C143.47 292.769 143.025 292.016 142.34 291.323C141.964 290.947 141.742 290.357 141.588 289.818C141.186 288.432 140.424 287.2 139.894 285.874C139.5 284.882 139.047 283.915 138.636 282.931C138.585 282.812 138.585 282.666 138.568 282.538C138.423 281.204 137.884 281.118 136.746 281.477C135.737 281.794 134.813 282.41 133.855 282.889C133.35 283.137 132.837 283.385 132.332 283.624C130.621 284.446 128.859 285.181 127.217 286.122C125.711 286.986 124.171 287.799 122.751 288.817C121.614 289.638 120.347 290.271 119.176 291.032C117.636 292.042 116.113 293.077 114.608 294.138C113.324 295.044 112.067 296.002 110.809 296.952C110.356 297.294 109.911 297.67 109.484 298.038C108.893 298.543 108.312 299.065 107.73 299.569C107.217 300.014 106.712 300.451 106.199 300.895C105.711 301.315 105.206 301.717 104.745 302.153C103.136 303.675 101.52 305.181 99.9542 306.746C98.5342 308.166 97.1398 309.621 95.8054 311.109C94.9072 312.11 94.1202 313.205 93.2819 314.257C92.8199 314.839 92.4436 315.489 91.9046 315.985C90.6985 317.097 89.8174 318.466 88.8337 319.74C87.6446 321.272 86.5839 322.905 85.4804 324.496C85.2494 324.822 85.0612 325.181 84.8559 325.523C83.9577 327.054 83.0681 328.585 82.1699 330.117C81.7679 330.81 81.3316 331.485 80.9381 332.187C80.3051 333.333 79.7319 334.514 79.0818 335.643C78.3975 336.832 77.9954 338.149 77.4223 339.381C76.9262 340.442 76.3616 341.468 75.874 342.529C75.6003 343.128 75.2666 343.701 75.1212 344.385C74.9074 345.386 74.0434 346.01 73.3163 346.661C73.1708 346.797 72.7945 346.763 72.5549 346.686C72.2042 346.575 71.8963 346.353 71.5712 346.182C70.2282 345.489 68.8937 344.787 67.5507 344.103C66.182 343.41 64.7962 342.734 63.419 342.041C62.7946 341.725 62.1786 341.374 61.5799 341.015C60.8014 340.553 60.5533 339.484 60.9811 338.5C61.3403 337.67 61.6825 336.832 62.0931 336.028C62.2556 335.72 62.2214 335.566 62.0076 335.326C61.5884 334.873 61.058 334.65 60.4764 334.685C59.4413 334.744 58.4832 334.479 57.5166 334.163C56.3789 333.786 55.1813 333.607 53.9922 333.444C53.2908 333.35 52.5808 333.324 51.8879 333.222C51.5286 333.171 51.1779 333.051 50.8186 332.948C50.1428 332.751 49.5269 332.384 48.7913 332.401C48.757 332.401 48.7143 332.401 48.6886 332.392C47.5338 331.554 45.994 331.417 44.9846 330.254C43.9667 329.082 43.6502 327.747 43.8384 326.319C43.9239 325.703 44.3944 325.104 44.7793 324.573C45.1129 324.112 45.6176 323.769 45.994 323.325C46.8495 322.298 48.0299 322.024 49.2446 321.973C50.2883 321.922 51.3319 321.922 52.384 322.118C53.5389 322.332 54.745 322.298 55.9255 322.358C56.6013 322.392 57.2685 322.324 57.9357 322.546C58.1838 322.632 58.4576 322.674 58.7826 322.606C59.1419 322.52 59.5611 322.7 59.9631 322.751C60.4935 322.828 61.0238 322.948 61.5542 322.965C62.786 323 64.0178 322.982 65.2496 322.965C65.4806 322.965 65.7287 322.94 65.934 322.854C66.1136 322.786 66.1478 322.589 65.9511 322.478C65.8142 322.401 65.6346 322.392 65.4806 322.332C64.0606 321.793 62.7518 321.075 61.5542 320.125C60.9126 319.621 60.2625 319.176 59.9631 318.355C59.8605 318.089 59.8006 317.893 59.9032 317.602C60.3566 316.344 60.6902 315.044 61.366 313.872C61.5114 313.616 61.5542 313.308 61.6483 313.025C61.845 312.435 61.8707 311.776 62.4609 311.34C62.6748 311.186 62.7176 310.818 62.8715 310.562C64.1547 308.372 65.5405 306.233 66.6867 303.975C67.2171 302.931 68.1067 302.196 68.5772 301.161C68.6884 300.921 68.9023 300.716 68.9964 300.476C69.4412 299.27 70.0657 298.184 70.8869 297.183C71.2804 296.704 71.537 296.105 71.8792 295.575C72.0417 295.327 72.247 295.104 72.4437 294.882C72.5293 294.788 72.6918 294.736 72.726 294.642C73.111 293.504 74.2316 292.906 74.7534 291.888C75.3693 290.699 76.3103 289.835 77.2683 288.979C77.4138 288.851 77.6362 288.663 77.6276 288.509C77.5848 287.79 78.1665 287.534 78.5429 287.123C78.9963 286.635 79.4497 286.148 79.903 285.669C80.3222 285.233 80.7585 284.822 81.1691 284.386C81.5369 284.001 81.9218 283.624 82.2383 283.188C83.0595 282.05 83.915 280.947 84.8902 279.937C85.0014 279.818 85.1639 279.741 85.3093 279.664C85.8226 279.39 86.2332 279.048 86.5582 278.535C86.8149 278.133 87.1314 277.713 87.7045 277.585C87.9697 277.525 88.1835 277.234 88.3974 277.02C88.5086 276.909 88.5343 276.704 88.6455 276.593C89.595 275.695 90.5017 274.754 91.5282 273.949C92.0415 273.547 92.358 272.991 92.837 272.581C93.1193 272.341 93.3503 272.102 93.7695 272.033C94.0774 271.982 94.4367 271.666 94.5992 271.366C94.7789 271.041 95.0269 270.879 95.3263 270.716C96.0021 270.34 96.6608 269.963 97.0543 269.228C97.2168 268.928 97.6018 268.74 97.9012 268.535C98.1236 268.389 98.4486 268.346 98.6026 268.158C99.7745 266.747 101.614 266.251 102.888 264.985C102.982 264.891 103.076 264.754 103.196 264.728C104.043 264.523 104.514 263.761 105.249 263.385C105.993 263.009 106.661 262.478 107.362 262.025C109.236 260.793 111.126 259.604 113.102 258.526C114.103 257.979 115.104 257.474 116.164 257.046C116.763 256.807 117.353 256.499 117.952 256.225C118.466 255.986 118.491 255.746 118.149 255.224C117.952 254.925 117.961 254.651 118.089 254.318C118.38 253.573 118.628 252.812 118.893 252.059C119.372 250.708 119.817 249.348 120.347 248.013C120.792 246.892 121.28 245.798 121.579 244.634C121.682 244.224 122.016 243.864 122.118 243.445C122.52 241.854 123.179 240.357 123.718 238.809C123.846 238.432 123.923 238.03 124.017 237.645C124.103 237.32 124.111 236.952 124.274 236.679C124.933 235.575 125.189 234.309 125.702 233.146C125.925 232.633 126.053 232.077 126.233 231.538C126.609 230.366 126.951 229.177 127.371 228.022C127.832 226.739 128.371 225.473 128.868 224.198C129.021 223.796 129.141 223.377 129.278 222.966C129.577 222.119 129.877 221.264 130.176 220.417C130.621 219.16 131.066 217.902 131.502 216.645C131.545 216.516 131.528 216.302 131.451 216.217C131.365 216.131 131.143 216.089 131.023 216.131C129.997 216.525 128.979 216.953 127.944 217.338C127.507 217.5 127.028 217.543 126.601 217.714C124.667 218.492 122.572 218.629 120.604 219.271C120.45 219.322 120.27 219.296 120.099 219.314C118.953 219.382 117.798 219.416 116.661 219.527C115.899 219.604 115.146 219.784 114.385 219.912C114.317 219.921 114.248 219.921 114.18 219.921C112.212 219.989 110.245 220.058 108.277 220.126C107.183 219.69 106.002 220.066 104.873 219.758C104.146 219.562 103.342 219.664 102.563 219.545C101.4 219.373 100.271 219.202 99.1501 218.8C97.9011 218.355 96.5581 218.167 95.2579 217.868C95.0013 217.808 94.7361 217.765 94.488 217.671C93.2049 217.201 91.9303 216.705 90.6472 216.243C90.151 216.063 89.6207 215.96 89.1074 215.815C88.6882 215.695 88.2776 215.61 88.0809 215.113C87.944 214.771 87.6104 214.626 87.1827 214.557C86.6352 214.472 86.1134 214.215 85.6002 213.993C85.1724 213.813 84.7875 213.505 84.3512 213.377C83.9321 213.249 83.7867 213.026 83.8294 212.641C83.8808 212.179 83.9321 211.709 84.0347 211.247C84.2315 210.434 84.2315 209.596 84.548 208.8C84.8217 208.125 84.4881 207.714 83.7696 207.603C82.7944 207.457 81.8106 207.457 80.844 207.38C79.3042 207.252 77.7474 207.132 76.2162 206.953C75.3351 206.85 74.4283 206.97 73.5986 206.756C72.4608 206.465 71.3146 206.688 70.1769 206.431C69.3385 206.243 68.4575 206.226 67.6106 205.995C67.123 205.858 66.7979 206.055 66.6696 206.67C66.5499 207.235 66.3702 207.577 65.7543 207.646C65.4464 207.68 65.3266 207.962 65.3608 208.27C65.4207 208.852 65.147 209.288 64.8134 209.741C64.1119 210.717 63.4703 211.743 62.8031 212.735C62.6149 213.009 62.384 213.266 62.2043 213.539C61.9391 213.959 61.6996 214.386 61.443 214.814C61.2035 215.216 61.0495 215.712 60.7159 216.012C59.7321 216.901 59.313 218.142 58.6115 219.194C58.3036 219.664 57.9272 220.092 57.585 220.528C57.4653 220.682 57.3027 220.811 57.2343 220.982C56.8665 221.923 56.2163 222.641 55.4978 223.326C55.2326 223.574 55.0444 223.907 54.8134 224.189C54.4542 224.634 54.0949 225.079 53.71 225.507C53.3079 225.952 52.8973 226.362 52.6578 226.961C52.2899 227.928 50.5705 228.74 49.6125 228.518C49.4927 228.492 49.3473 228.424 49.2703 228.33C48.4234 227.32 47.1488 226.91 46.1651 226.106C45.3097 225.404 44.4115 224.763 43.5561 224.053C43.0856 223.659 42.9487 223.214 43.154 222.53C43.3935 221.743 43.6587 221.05 44.2062 220.4C44.8307 219.664 45.284 218.792 45.8229 217.979C46.5244 216.918 47.3285 215.918 48.0642 214.891C48.6202 214.113 49.2789 213.445 49.8605 212.71C50.2027 212.273 50.4422 211.709 50.5534 211.161C50.7844 210.007 51.5201 209.177 52.2386 208.356C52.8203 207.697 53.3934 207.047 53.8725 206.303C54.266 205.687 54.7365 205.105 55.2241 204.549C55.6518 204.061 55.6347 203.54 55.378 203.043C54.8049 201.914 55.1642 200.862 55.6347 199.853C55.7886 199.528 56.088 199.194 56.5842 199.177C57.106 199.168 57.26 198.792 57.3968 198.313C57.6107 197.577 57.5166 196.782 57.97 196.089C58.372 195.473 58.8083 194.908 59.3472 194.404C59.5611 194.207 59.7407 193.95 59.8861 193.694C60.0401 193.42 59.7664 193.223 59.6979 192.992C59.6466 192.83 59.6124 192.659 59.6295 192.496C59.715 191.615 59.9203 190.717 60.6047 190.169C61.1864 189.699 61.9477 189.425 62.6662 189.16C63.3335 188.92 63.496 188.801 63.5217 188.125C63.5302 187.817 63.5217 187.509 63.5217 187.201C63.5217 186.003 63.8553 185.516 65.0015 185.268C65.5747 185.148 66.0879 184.985 66.567 184.643C67.0118 184.318 67.5422 184.429 68.0469 184.438C68.1923 184.438 68.3719 184.532 68.4831 184.481C68.9964 184.258 69.8005 184.78 70.0229 184.147C70.2025 183.634 70.5532 183.215 70.6901 182.71C70.8099 182.265 71.0665 181.94 71.3573 181.598C71.6311 181.273 71.8193 180.862 72.0674 180.503C72.9313 179.228 73.7696 177.945 74.6764 176.696C75.2666 175.884 75.9339 175.122 76.584 174.344C76.7978 174.087 76.986 173.865 76.9604 173.48C76.9518 173.266 77.1315 172.967 77.3197 172.821C77.773 172.462 78.0895 172.009 78.3804 171.53C78.8423 170.794 79.2786 170.041 79.7833 169.331C80.3136 168.595 80.9039 167.903 81.4685 167.193C81.554 167.09 81.6823 167.004 81.7336 166.885C82.2897 165.567 83.3418 164.575 84.0433 163.36C84.4624 162.642 85.0099 162 85.4975 161.316C86.0364 160.555 86.5753 159.785 87.1143 159.015C87.3794 158.63 87.6275 158.228 87.9098 157.851C88.3461 157.27 88.8422 156.739 89.2272 156.123C89.5864 155.542 89.9286 154.977 90.4419 154.515C90.5616 154.413 90.6557 154.241 90.6814 154.088C90.8097 153.395 91.246 152.864 91.6651 152.36C92.5376 151.29 93.1621 150.033 94.2057 149.092C94.5907 148.75 94.8473 148.236 95.1039 147.766C95.6771 146.697 96.3614 145.721 97.0971 144.755C97.7985 143.831 98.6625 143.018 99.0645 141.872C99.1586 141.598 99.458 141.41 99.6291 141.162C100.527 139.828 101.554 138.579 102.503 137.287C103.427 136.021 104.548 134.9 105.206 133.412C105.557 132.616 106.276 131.983 106.832 131.273C106.994 131.068 107.217 130.897 107.319 130.666C107.833 129.562 108.679 128.673 109.278 127.638C109.843 126.68 110.741 125.97 111.16 124.909C111.357 124.404 111.93 124.045 112.187 123.549C112.589 122.788 113.153 122.189 113.726 121.573C114.069 121.214 114.3 120.752 114.565 120.324C115.395 118.981 116.233 117.646 117.353 116.517C117.55 116.321 117.602 115.978 117.773 115.739C118.329 114.943 118.91 114.165 119.484 113.378C119.697 113.078 119.971 112.805 120.125 112.48C120.732 111.179 121.631 110.102 122.572 109.049C123.085 108.476 123.649 107.886 123.957 107.202C124.436 106.124 125.326 105.38 125.908 104.396C126.481 103.446 127.097 102.531 127.721 101.616C128.055 101.12 128.448 100.649 128.791 100.162C129.021 99.8365 129.244 99.4944 129.424 99.1436C129.826 98.3566 130.228 97.5953 130.912 96.9965C131.382 96.5859 131.34 96.449 130.938 95.9871C130.587 95.5765 130.202 95.1916 129.92 94.7382C129.731 94.4388 129.68 94.0539 129.595 93.7031C129.526 93.4123 129.406 93.0958 129.458 92.822C129.595 91.9581 129.321 91.0941 129.432 90.2558C129.569 89.1694 130.202 88.237 131.117 87.6638C131.648 87.3302 131.81 86.8597 131.819 86.432C131.879 84.3619 133.239 83.3953 134.881 82.6853C135.266 82.5142 135.463 82.4115 135.591 81.9838C135.762 81.4107 136.07 80.8718 136.387 80.3585C136.78 79.7169 137.328 79.2978 138.14 79.3577C138.38 79.3748 138.619 79.3577 138.859 79.3577C139.167 79.3577 139.398 79.2294 139.441 78.9043C139.518 78.3141 139.928 77.9548 140.313 77.5698C140.604 77.279 140.903 76.9967 141.186 76.6973C141.605 76.2439 142.092 76.0044 142.717 76.0643C142.819 76.0728 142.931 76.0985 143.025 76.0643C143.666 75.8162 144.205 75.9959 144.778 76.3466C145.317 76.6802 145.6 76.5262 145.813 75.9018C145.993 75.4056 146.258 74.9095 146.712 74.7213C147.559 74.362 148.063 73.6349 148.371 72.9249C148.91 71.6931 149.885 70.7949 150.518 69.6486C150.903 68.9557 151.126 68.1431 151.853 67.6726C152.007 66.7744 152.811 66.2269 153.102 65.3971C153.307 64.8069 153.7 64.345 154.162 63.9344C154.573 63.5665 154.847 63.1217 155.103 62.6341C155.711 61.5221 156.438 60.4699 157.071 59.3664C157.781 58.1346 158.722 57.0995 159.714 56.1072C159.902 55.9191 160.048 55.6881 160.193 55.4657C161.143 54.0799 162.058 52.6856 163.033 51.3254C163.658 50.4529 164.316 49.5975 165.086 48.8276C165.676 48.2374 166.181 47.4333 166.421 46.6377C166.643 45.8935 167.054 45.3118 167.456 44.7216C168.149 43.695 169.03 42.7969 169.723 41.7618C170.689 40.3332 171.912 39.1271 172.93 37.7413C173.178 37.3991 173.367 36.98 173.486 36.5694C173.734 35.7396 174.273 34.9098 174.992 34.4137C175.711 33.9176 176.198 33.2161 176.523 32.4377C176.66 32.1126 176.814 31.8474 177.036 31.5994C177.19 31.4283 177.387 31.2315 177.421 31.0262C177.618 29.9826 178.448 29.3239 178.953 28.4771C179.278 27.9381 179.688 27.442 180.099 26.9544C180.33 26.6807 180.621 26.4668 180.886 26.2187C182.203 24.9698 182.622 23.1478 183.751 21.7791C184.41 20.9835 184.923 20.0939 185.437 19.1957C185.924 18.3574 186.651 17.6731 187.233 16.8861C188.114 15.7056 189.038 14.5422 189.782 13.2762C190.407 12.2326 191.236 11.3686 191.904 10.3677C191.998 10.2309 192.083 10.0854 192.177 9.94858C192.52 9.45243 192.682 8.92207 192.357 8.36604C192.152 8.01532 192.16 7.74158 192.502 7.50206C193.093 7.09146 193.238 6.51833 193.221 5.81688C193.212 5.41483 193.461 4.99567 193.606 4.58507C194.162 3.05386 195.077 1.80494 196.446 0.898191C197.276 0.35072 198.234 0.145418 199.183 -0.0342211C199.688 -0.128318 200.253 0.0256586 200.774 0.153972C202.263 0.521804 203.666 1.03506 204.513 2.46362C204.786 2.92555 205.188 3.30193 205.513 3.7382C205.916 4.29422 206.121 4.91868 206.146 5.62013C206.164 6.04784 206.309 6.47555 206.335 6.91182C206.386 7.75869 206.3 8.57134 205.967 9.39255C205.565 10.3677 204.957 11.1975 204.376 12.0444C204.196 12.301 203.854 12.455 203.563 12.6261C203.187 12.8399 202.81 13.0709 202.408 13.1906C200.98 13.6098 201.031 14.9443 200.62 15.9879C200.526 16.2188 200.706 16.3899 200.963 16.3471C201.425 16.2787 201.921 16.2616 202.34 16.0905C203.144 15.7484 204.051 15.8168 204.846 15.3976C205.291 15.1581 205.89 15.2094 206.42 15.1324C207.019 15.0555 207.618 14.9528 208.225 14.9271C208.901 14.9015 209.568 14.9443 210.193 14.5593C210.424 14.4224 210.791 14.4994 211.099 14.508C212.186 14.5422 213.247 14.4396 214.299 14.123C214.547 14.0461 214.872 14.0204 215.111 14.123C215.804 14.4139 216.523 14.277 217.224 14.3027C217.797 14.3198 218.371 14.2685 218.892 14.6192C219.021 14.7047 219.294 14.6876 219.457 14.6192C220.646 14.1145 221.826 14.4396 223.007 14.6363C224.41 14.8673 225.804 15.0982 227.207 15.3292C227.344 15.3549 227.506 15.295 227.609 15.3463C228.499 15.7911 229.474 15.8339 230.423 16.0306C231.784 16.3215 233.178 16.5524 234.461 17.1598C234.795 17.3138 235.145 17.425 235.479 17.5875C235.932 17.8099 236.394 17.9382 236.908 18.0323C237.506 18.135 238.062 18.4943 238.618 18.7851C239.713 19.3497 240.757 19.9827 241.98 20.2735C243.263 20.5815 244.401 21.2487 245.41 22.0956C245.864 22.4805 246.343 22.7628 246.899 22.9083C247.455 23.0622 247.917 23.3787 248.156 23.8663C248.396 24.3368 248.772 24.5079 249.2 24.5336C249.611 24.5592 249.884 24.7046 250.184 24.9698C250.5 25.2521 250.911 25.4489 251.279 25.6798C251.689 25.9365 252.254 26.0049 252.416 26.5951C252.442 26.6807 252.553 26.7662 252.639 26.7919C253.443 27.0314 253.871 27.7243 254.444 28.2375C254.974 28.708 255.53 29.1528 256.043 29.6404C256.522 30.0938 256.959 30.5985 257.429 31.0775C257.729 31.3769 258.079 31.6421 258.362 31.9586C259.191 32.891 259.978 33.8577 260.817 34.7901C261.107 35.1151 261.45 35.3974 261.809 35.6541C263.135 36.6207 264.281 37.7584 265.299 39.0415C265.521 39.3238 265.864 39.512 266.155 39.7344C266.711 40.1621 267.292 40.5728 267.84 41.009C268.353 41.4196 268.815 41.8815 269.337 42.2836C270.081 42.8567 270.834 43.4213 271.604 43.9431C272.562 44.5932 273.537 45.2177 274.529 45.8079C274.897 46.0304 275.282 46.3725 275.804 46.1245C275.864 46.0988 276.06 46.2699 276.137 46.3896C276.497 46.92 277.035 47.1937 277.592 47.4589C278.096 47.6984 278.609 47.9465 279.114 48.2031C279.833 48.5624 280.543 48.9302 281.261 49.281C281.407 49.3494 281.612 49.3237 281.74 49.4178C282.733 50.1792 283.973 50.2561 285.102 50.6154C286.847 51.1715 288.601 51.6933 290.363 52.1894C290.876 52.3348 291.415 52.3947 291.946 52.4546C292.681 52.5401 293.434 52.5487 294.153 52.677C295.034 52.8395 295.898 53.1218 296.77 53.3271C297.352 53.464 297.942 53.6009 298.532 53.6778C299.465 53.7976 300.44 53.4897 301.355 53.8746C302.117 53.5239 302.861 53.9687 303.622 53.9003C304.401 53.8318 305.205 53.9772 305.975 53.866C307.377 53.6607 308.789 53.5837 310.192 53.4298C311.74 53.2587 313.305 53.0277 314.854 52.7198C316.992 52.3006 319.028 51.5393 321.175 51.1715C322.014 51.026 322.664 50.6496 323.211 50.0081C323.63 49.5205 324.34 49.5205 324.794 49.9482C324.871 50.0252 324.896 50.1792 324.914 50.2989C324.939 50.4786 324.888 50.6839 324.956 50.8378C325.307 51.5136 325.016 51.9584 324.52 52.4033C324.221 52.6684 323.998 53.0106 323.767 53.3442C322.595 55.0551 321.449 56.783 320.26 58.4853C318.763 60.6239 317.249 62.7539 315.726 64.8753C314.811 66.1585 313.956 67.4758 312.972 68.7162C312.168 69.7256 311.637 70.966 310.842 71.9925C309.764 73.3697 308.951 74.9266 307.745 76.2183C306.933 77.0822 306.419 78.22 305.735 79.2122C305.051 80.2045 304.306 81.1541 303.622 82.1464C303.066 82.9419 302.553 83.7631 302.005 84.5672C300.842 86.2866 299.67 87.9975 298.507 89.7169C297.531 91.154 296.599 92.6253 295.581 94.0368C294.46 95.5851 293.254 97.0735 292.1 98.6047C291.817 98.9811 291.543 99.366 291.338 99.7852C290.56 101.316 289.217 102.446 288.413 103.985C287.703 105.337 286.659 106.509 285.795 107.783C285.384 108.391 285.034 109.049 284.666 109.682C284.597 109.802 284.58 109.982 284.486 110.042C283.597 110.581 283.4 111.445 283.203 112.394C283.032 113.232 282.313 113.806 281.467 113.806C279.935 113.814 278.421 114.011 276.899 114.019C274.76 114.037 272.613 113.968 270.483 113.814C269.072 113.712 267.677 113.515 266.266 113.404C265.171 113.318 264.101 112.907 263.007 112.856C262.048 112.813 261.167 112.471 260.226 112.368C259.611 112.3 259.037 111.949 258.421 111.787C257.292 111.487 256.146 111.256 255.025 110.94C253.871 110.615 252.741 110.196 251.587 109.871C250.483 109.563 249.405 109.221 248.481 108.502C248.379 108.425 248.242 108.331 248.122 108.331C247.061 108.348 246.189 107.758 245.291 107.373C243.477 106.611 241.766 105.602 240.021 104.678C239.106 104.191 238.199 103.677 237.275 103.198C236.745 102.925 236.266 102.608 235.813 102.206C235.299 101.753 234.581 101.53 234.016 101.12C232.699 100.136 231.313 99.2548 230.013 98.2454C228.892 97.3729 227.874 96.3892 226.754 95.5337C226.283 95.1745 225.719 94.9264 225.274 94.5414C224.504 93.8828 223.794 93.1557 223.067 92.4457C222.117 91.5132 221.151 90.5894 220.244 89.6142C219.508 88.8272 218.807 87.9975 218.182 87.1249C217.507 86.1668 216.694 85.3542 215.719 84.7468C213.948 83.6605 212.134 82.6596 210.338 81.6245C209.294 81.0257 208.251 80.4184 207.182 79.8624C206.3 79.4004 205.377 79.0155 204.47 78.5878C203.837 78.2884 203.23 77.9377 202.579 77.681C200.937 77.0309 199.277 76.4236 197.618 75.8077C197.062 75.6024 196.489 75.3372 195.907 75.2773C194.915 75.1747 194.034 74.8068 193.127 74.4561C191.964 74.0113 190.74 73.8402 189.534 73.5836C188.456 73.3611 187.353 73.2756 186.266 73.0446C185 72.7709 183.7 72.5314 182.408 72.4031C181.596 72.3261 180.74 72.3517 179.902 72.3603C179.457 72.3603 179.012 72.386 178.568 72.3603C177.661 72.3004 176.737 72.3004 175.847 72.1293C174.427 71.8642 173.042 71.9069 171.622 72.1208C170.997 72.2149 170.338 72.5143 169.663 72.1807C169.449 72.0695 169.081 72.0866 168.859 72.1892C168.328 72.4373 167.789 72.3603 167.25 72.3603C166.369 72.3603 165.514 72.4202 164.658 72.6854C163.991 72.8907 163.264 72.8821 162.571 72.9762C162.178 73.0275 161.776 73.0874 161.391 73.1815C160.843 73.3098 160.339 73.5665 159.757 73.652C159.055 73.7546 158.696 74.4219 158.32 74.9865C158.089 75.3286 158.209 75.6794 158.251 76.0557C158.294 76.4236 158.226 76.8427 158.097 77.1935C157.978 77.5356 157.943 77.8179 158.08 78.1686C158.174 78.4081 158.226 78.7332 158.132 78.9642C157.661 80.1447 157.627 81.385 157.507 82.6254C157.447 83.2926 157.259 83.977 157.362 84.6356C157.653 86.5347 157.499 88.4423 157.558 90.3413C157.584 91.1198 157.635 91.9153 157.781 92.6766C157.892 93.2498 157.576 93.84 157.943 94.4131C158.286 94.9435 158.097 95.6022 158.183 96.201C158.26 96.7912 158.482 97.3558 158.619 97.946C158.722 98.3994 158.85 98.8613 158.867 99.3233C158.884 100.196 159.406 101.008 159.115 101.932C158.996 102.292 159.534 102.634 159.937 102.488C161.271 102.001 162.597 101.505 163.923 101.017C164.641 100.752 164.821 100.872 164.949 101.599C165.026 102.018 165.163 102.437 165.317 102.839C165.865 104.276 166.438 105.696 166.985 107.133C167.396 108.22 167.789 109.315 168.157 110.41C168.303 110.846 168.294 111.342 168.448 111.778C168.67 112.437 168.936 113.096 169.269 113.703C169.423 113.994 169.714 114.199 169.688 114.584C169.688 114.661 169.834 114.806 169.928 114.824C170.031 114.841 170.176 114.764 170.261 114.687C170.535 114.456 170.809 114.216 171.057 113.951C171.237 113.763 171.382 113.532 171.545 113.318C171.964 112.753 172.374 112.18 172.802 111.624C173.255 111.043 173.717 110.461 174.196 109.896C174.479 109.563 174.744 109.135 175.12 108.964C176.617 108.288 177.704 107.133 178.816 106.004C179.124 105.696 179.338 105.294 179.645 104.995C180.193 104.447 180.758 103.908 181.365 103.429C181.955 102.959 182.597 102.548 183.23 102.138C184.034 101.607 184.983 101.505 185.899 101.334C186.207 101.274 186.446 101.18 186.728 101.034C187.19 100.795 187.712 100.572 188.277 100.76C188.379 100.795 188.508 100.769 188.627 100.76C189.474 100.701 190.295 100.726 191.142 100.88C193.888 101.376 196.258 102.651 198.405 104.345C199.166 104.943 199.748 105.773 200.398 106.509C200.706 106.86 200.98 107.253 201.262 107.629C202.109 108.759 202.383 110.119 202.699 111.445C203.016 112.762 203.195 114.096 203.127 115.457C203.11 115.876 203.366 116.021 203.7 115.807C205.283 114.789 207.01 114.421 208.875 114.447C210.167 114.464 211.442 114.516 212.682 114.875C212.998 114.969 213.306 115.089 213.623 115.208C214.786 115.636 215.941 116.064 216.976 116.765C218.268 117.638 219.423 118.647 220.398 119.888C221.39 121.145 222.151 122.522 222.631 124.028C222.964 125.072 223.264 126.166 223.315 127.253C223.4 128.972 223.358 130.717 223.178 132.428C223.092 133.258 223.229 133.985 223.426 134.755C223.571 135.337 223.529 135.978 223.358 136.5C222.973 137.672 222.656 138.861 222.348 140.059C222.203 140.597 222.151 141.162 222.083 141.718C222.023 142.206 222.109 142.727 221.955 143.172C221.767 143.711 221.809 144.242 221.784 144.781C221.69 146.816 221.604 148.852 221.518 150.888C221.536 150.888 221.561 150.888 221.578 150.888L221.433 150.922ZM213.854 17.0743C213.854 17.0743 213.854 17.0571 213.854 17.0486C213.238 17.0486 212.579 16.9032 212.015 17.0828C210.783 17.4763 209.551 17.4335 208.302 17.4592C207.909 17.4678 207.515 17.5875 207.113 17.6388C205.847 17.7928 204.667 18.4173 203.358 18.2804C203.23 18.2719 203.101 18.3403 202.973 18.3745C201.741 18.6825 200.509 18.9733 199.286 19.2984C198.713 19.4523 198.148 19.6662 197.575 19.8458C197.267 19.9485 197.139 20.1538 196.993 20.4617C196.609 21.2744 196.129 22.0443 195.65 22.8056C195.377 23.2248 195.009 23.584 194.701 23.9861C194.265 24.5421 193.846 25.0981 193.426 25.6713C192.776 26.5609 192.075 27.4249 191.502 28.3659C190.8 29.5121 190.099 30.6327 189.055 31.5053C188.841 31.6849 188.756 32.0014 188.61 32.258C188.414 32.6088 188.277 33.0108 188.029 33.3102C187.199 34.2854 186.455 35.3119 185.77 36.3897C185.274 37.1767 184.641 37.8867 184.102 38.6566C183.358 39.7259 182.657 40.8294 181.921 41.9158C181.151 43.0535 180.373 44.1826 179.603 45.3118C179.474 45.5085 179.355 45.7737 179.175 45.8507C178.576 46.0988 178.362 46.612 178.097 47.1253C177.823 47.6642 177.524 48.1946 177.173 48.6822C176.703 49.3323 176.172 49.9482 175.668 50.5727C174.847 51.5906 174.214 52.7369 173.392 53.7719C172.725 54.6188 171.844 55.3716 171.57 56.5007C171.545 56.5948 171.451 56.6633 171.382 56.7403C170.065 58.4682 168.662 60.1449 167.635 62.0781C167.439 62.4631 167.122 62.7881 166.84 63.1217C166.173 63.9173 165.454 64.67 165.103 65.6794C165.043 65.8676 164.932 66.0644 164.787 66.1841C163.546 67.2192 163.084 68.8274 161.955 69.948C161.656 70.2474 161.442 70.6495 161.211 71.0173C160.997 71.3595 161.143 71.6246 161.545 71.599C162.486 71.5391 163.418 71.4193 164.359 71.3252C164.898 71.2654 165.463 71.291 165.959 71.1285C167.704 70.5383 169.534 70.5468 171.331 70.3843C172.888 70.2474 174.462 70.6067 176.001 70.179C176.121 70.1448 176.267 70.1961 176.403 70.2132C177.267 70.333 178.123 70.5554 178.987 70.5639C180.988 70.581 182.973 70.6324 184.949 70.9831C186.532 71.2654 188.131 71.4707 189.714 71.7701C191.185 72.0524 192.614 72.5485 194.136 72.6597C194.692 72.7025 195.274 72.8821 195.753 73.1558C196.206 73.4125 196.643 73.5836 197.147 73.6691C197.507 73.729 197.883 73.7974 198.208 73.9514C199.491 74.5331 200.826 74.9437 202.169 75.3286C202.545 75.4398 202.87 75.6965 203.238 75.8504C203.512 75.9702 203.811 76.0301 204.085 76.1327C204.957 76.4578 205.924 76.5519 206.574 77.356C206.728 77.5527 207.019 77.6982 207.267 77.7409C207.832 77.835 208.294 78.1857 208.901 78.2371C209.423 78.2798 209.902 78.7332 210.398 79.007C211.476 79.6143 212.528 80.2815 213.64 80.8204C214.282 81.1284 214.658 81.7101 215.231 82.0608C215.77 82.3944 216.377 82.6339 216.891 82.9932C218.063 83.8315 219.192 84.7297 220.347 85.6023C220.612 85.8076 220.911 85.9701 221.176 86.1754C221.347 86.3123 221.613 86.4919 221.613 86.6544C221.595 87.3302 222.134 87.5869 222.519 87.9376C222.733 88.1343 222.947 88.2969 223.144 88.5449C223.828 89.4004 224.444 90.3071 225.214 91.0855C225.522 91.3935 225.873 91.6587 226.206 91.941C226.694 92.3516 227.301 92.6595 227.729 93.0787C228.413 93.763 229.234 94.319 229.833 95.0975C230.227 95.6022 230.689 95.9957 231.287 96.2608C231.561 96.3806 231.741 96.7228 231.946 96.9794C232.194 97.2874 232.451 97.5354 232.887 97.467C233.708 97.3387 234.256 97.7921 234.589 98.4422C234.846 98.9383 235.257 99.2121 235.676 99.443C237.215 100.324 238.798 101.128 240.355 101.992C241.493 102.625 242.767 102.993 243.811 103.814C244.256 104.156 244.777 104.413 245.291 104.653C246.112 105.029 246.959 105.337 247.78 105.696C248.695 106.107 249.602 106.543 250.517 106.962C250.697 107.039 250.902 107.073 251.09 107.108C251.45 107.185 251.826 107.202 252.168 107.33C253.357 107.775 254.521 108.262 255.71 108.699C257.523 109.374 259.414 109.537 261.261 109.982C261.937 110.144 262.647 110.17 263.238 110.641C263.605 110.94 264.033 110.966 264.538 110.957C265.658 110.94 266.805 111.06 267.908 111.299C269.362 111.607 270.799 111.941 272.296 111.847C273.015 111.804 273.759 111.71 274.444 111.872C275.205 112.052 275.898 111.838 276.616 111.821C277.557 111.804 278.498 111.667 279.448 111.641C279.858 111.633 280.149 111.522 280.432 111.222C281.509 110.059 282.562 108.878 283.4 107.527C283.862 106.791 284.358 106.073 284.846 105.354C285.205 104.832 285.607 104.336 285.966 103.806C286.514 103.002 287.044 102.189 287.574 101.385C287.831 101 288.088 100.606 288.353 100.221C288.815 99.5628 289.123 98.8186 289.687 98.2112C290.295 97.5696 291.21 97.1248 291.253 96.0641C291.937 95.5594 292.117 94.704 292.621 94.0881C293.579 92.9161 294.358 91.6245 295.239 90.4012C295.863 89.5372 296.36 88.5791 296.975 87.7066C297.454 87.0223 298.07 86.432 298.404 85.645C298.669 85.012 299.08 84.4817 299.585 84.0197C300.149 83.4979 300.739 82.9847 300.842 82.1207C300.876 81.8213 301.141 81.5304 301.338 81.2567C302.031 80.2644 302.732 79.2892 303.434 78.3055C303.588 78.0916 303.699 77.7923 303.913 77.6725C304.478 77.3474 304.751 76.8769 304.957 76.2781C305.111 75.8248 305.359 75.4056 305.812 75.0891C306.308 74.7469 306.667 74.2679 306.813 73.6178C306.907 73.1815 307.249 72.788 307.514 72.4116C308.002 71.7273 308.541 71.0857 309.011 70.3928C309.362 69.871 309.875 69.4861 310.072 68.8274C310.363 67.8779 311.073 67.185 311.757 66.475C312.193 66.0302 312.561 65.4998 312.732 64.8582C312.818 64.5246 312.938 64.1568 313.348 63.9857C313.536 63.9087 313.648 63.6435 313.776 63.4553C314.409 62.5571 315.042 61.6504 315.684 60.7436C315.743 60.6581 315.812 60.564 315.897 60.5298C316.445 60.2817 316.539 59.7171 316.83 59.2809C317.403 58.4255 317.848 57.4845 318.678 56.8087C318.883 56.6376 319.054 56.304 319.054 56.0388C319.054 55.4486 319.396 55.0294 319.618 54.5504C319.687 54.405 319.832 54.2766 319.875 54.1312C319.901 54.0371 319.995 53.7463 319.661 53.8831C319.225 54.0542 318.797 54.2424 318.344 54.3622C317.54 54.576 316.727 54.7728 315.915 54.9268C314.725 55.1577 313.554 55.4999 312.322 55.3887C310.953 55.2604 309.661 55.748 308.318 55.8848C306.992 56.0132 305.692 56.4751 304.341 56.0388C304.229 56.0046 304.084 56.0816 303.947 56.0901C303.032 56.1329 302.125 56.1671 301.21 56.2099C300.055 55.594 298.763 55.9105 297.54 55.6368C296.308 55.363 295.017 55.3887 293.776 55.0551C293.34 54.9353 292.844 55.0294 292.433 54.8754C291.783 54.6359 291.107 54.6616 290.457 54.5418C289.781 54.4221 289.157 54.0371 288.507 53.7719C288.473 53.7634 288.438 53.7719 288.404 53.7634C287.087 53.4212 285.744 53.1475 284.52 52.5059C284.426 52.4546 284.349 52.3605 284.255 52.3519C282.399 52.0868 280.834 51.0774 279.14 50.393C277.686 49.7942 276.249 49.0928 274.931 48.2374C273.614 47.3905 272.125 46.8002 271.022 45.6369C270.911 45.5257 270.722 45.4914 270.586 45.3973C269.781 44.8584 268.866 44.4222 268.19 43.7549C266.616 42.2066 264.794 41.0005 263.049 39.6831C262.433 39.2126 261.758 38.7421 261.33 38.1177C260.004 36.1759 258.421 34.4821 256.788 32.8141C256.103 32.1126 255.342 31.4881 254.606 30.8295C253.999 30.2906 253.434 29.6918 252.776 29.2298C250.688 27.7842 248.67 26.2358 246.42 25.0211C245.65 24.6105 244.854 24.2427 244.127 23.7722C242.288 22.5746 240.269 21.7705 238.251 20.9493C236.215 20.1196 234.05 19.632 232.032 18.7423C231.912 18.691 231.758 18.6568 231.638 18.6739C230.629 18.8535 229.722 18.3232 228.764 18.1778C227.789 18.0323 226.856 17.6559 225.821 17.6046C224.427 17.5276 223.041 17.1598 221.647 17.0486C220.261 16.9374 218.875 16.9716 217.481 16.8604C216.283 16.7578 215.051 16.9887 213.837 17.0657L213.854 17.0743ZM121.237 257.277C120.707 257.252 120.253 257.423 119.783 257.671C117.439 258.903 115.087 260.126 112.709 261.289C111.135 262.059 109.74 263.103 108.209 263.932C106.473 264.882 104.907 266.097 103.256 267.166C102.024 267.97 100.801 268.791 99.6291 269.681C98.3973 270.613 97.2681 271.7 96.0278 272.606C94.6334 273.624 93.3075 274.719 92.1014 275.951C91.9303 276.122 91.7678 276.302 91.5881 276.456C90.5188 277.388 89.4239 278.286 88.3888 279.262C87.0715 280.511 85.814 281.819 84.5394 283.094C84.3683 283.265 84.1973 283.428 84.0433 283.607C83.3932 284.377 82.7687 285.173 82.1015 285.934C81.246 286.901 80.3564 287.833 79.4753 288.774C79.4069 288.851 79.3299 288.919 79.2786 289.014C78.7225 290.057 77.7046 290.759 77.2085 291.854C77.1657 291.939 77.063 291.999 76.9946 292.076C76.3017 292.94 75.5917 293.795 74.9416 294.685C74.3342 295.523 73.898 296.516 73.188 297.243C72.3668 298.09 71.8963 299.125 71.2461 300.048C69.9459 301.913 68.8167 303.889 67.6876 305.874C67.0973 306.926 66.4985 307.97 65.8997 309.022C65.4036 309.894 64.8647 310.741 64.4028 311.631C63.975 312.461 63.6158 313.333 63.2223 314.18C62.8117 315.061 62.4011 315.942 61.999 316.823C61.7082 317.473 61.7424 317.704 62.4096 318.115C63.3762 318.722 64.3942 319.236 65.3608 319.834C66.4985 320.544 67.7988 320.964 68.8338 321.845C69.0477 322.024 69.3899 322.05 69.6722 322.136C70.194 322.281 70.6473 322.486 71.0751 322.863C71.8022 323.504 72.6063 324.069 73.436 324.565C74.5566 325.232 75.7713 325.754 76.8834 326.43C78.235 327.251 79.8517 327.713 80.8012 329.124C80.9381 329.33 81.1006 329.244 81.1947 329.09C81.7764 328.149 82.3667 327.217 82.9227 326.267C83.4103 325.429 83.8123 324.539 84.3427 323.727C84.9244 322.828 85.6087 321.999 86.2161 321.109C86.8576 320.168 87.3623 319.133 88.2349 318.346C88.654 317.97 88.9705 317.473 89.2956 317.003C89.9372 316.079 90.5274 315.13 91.3401 314.317C92.2639 313.402 93.0851 312.384 93.9576 311.417C94.0945 311.263 94.257 311.135 94.3768 310.964C95.2493 309.681 96.2416 308.483 97.3622 307.405C98.0637 306.721 98.8934 306.139 99.5008 305.378C100.279 304.394 101.075 303.47 102.059 302.683C102.905 302.007 103.701 301.263 104.462 300.493C106.079 298.842 107.969 297.534 109.732 296.071C110.194 295.686 110.715 295.378 111.194 295.001C111.673 294.634 112.118 294.206 112.606 293.847C113.496 293.188 114.402 292.564 115.3 291.931C116.883 290.81 118.389 289.587 120.117 288.663C120.647 288.381 121.143 288.03 121.614 287.653C121.887 287.44 122.11 287.251 122.486 287.209C122.794 287.174 123.085 286.926 123.359 286.747C123.581 286.593 123.761 286.379 123.974 286.225C125.164 285.412 126.353 284.608 127.559 283.821C127.747 283.693 127.986 283.641 128.209 283.556C128.551 283.428 128.91 283.333 129.227 283.162C129.731 282.897 130.202 282.589 130.784 282.504C130.972 282.478 131.177 282.375 131.323 282.247C132.306 281.366 133.538 281.041 134.744 280.656C135.232 280.502 135.642 280.245 136.01 279.878C136.284 279.604 136.669 279.441 137.02 279.253C137.379 279.065 137.764 278.954 138.106 278.748C138.363 278.594 138.525 278.278 138.876 278.603C139.081 278.8 139.355 278.92 139.577 279.099C139.654 279.168 139.714 279.356 139.672 279.433C139.423 279.912 139.689 280.28 139.877 280.673C140.382 281.734 140.895 282.786 141.374 283.855C142.092 285.472 142.777 287.106 143.495 288.731C143.641 289.065 143.991 289.339 144.06 289.672C144.308 290.844 145.018 291.802 145.497 292.854C146.181 294.343 146.994 295.78 147.772 297.226C148.123 297.876 148.499 298.5 148.893 299.125C149.68 300.374 150.544 301.571 151.254 302.854C151.844 303.915 152.452 304.942 153.196 305.9C153.897 306.798 154.607 307.687 155.172 308.68C155.369 309.03 155.523 309.432 155.805 309.698C157.045 310.904 157.798 312.521 159.115 313.65C159.167 313.693 159.209 313.752 159.244 313.812C160.321 315.771 162.161 317.08 163.478 318.834C164.342 319.287 164.753 320.219 165.48 320.801C166.061 321.272 166.292 322.016 166.985 322.418C167.618 322.786 168.08 323.436 168.61 323.966C169.423 324.77 170.202 325.609 171.048 326.387C171.741 327.02 172.563 327.525 173.213 328.192C174.239 329.236 175.394 330.117 176.506 331.04C177.148 331.579 177.798 332.118 178.465 332.623C179.295 333.247 180.167 333.812 180.997 334.437C181.459 334.779 181.818 335.249 182.297 335.574C183.401 336.327 184.667 336.849 185.599 337.85C185.685 337.944 185.839 337.961 185.958 338.029C186.472 338.337 186.994 338.645 187.507 338.962C188.508 339.569 189.491 340.211 190.501 340.784C191.125 341.135 191.168 341.092 191.51 340.484C191.792 339.988 192.049 339.484 192.366 339.004C193.443 337.388 194.752 335.942 195.71 334.231C196.412 332.982 197.344 331.862 198.174 330.69C198.679 329.98 199.192 329.278 199.688 328.568C199.936 328.209 200.099 327.781 200.398 327.473C201.296 326.567 201.784 325.429 202.374 324.334C202.511 324.077 202.451 323.881 202.34 323.71C202.194 323.496 201.998 323.273 201.775 323.145C200.689 322.52 199.756 321.699 198.807 320.904C198.131 320.339 197.498 319.732 196.831 319.15C195.839 318.286 194.838 317.431 193.846 316.567C193.469 316.242 193.059 315.934 192.725 315.566C192.118 314.89 191.562 314.163 190.963 313.487C190.176 312.598 189.389 311.708 188.542 310.87C187.438 309.766 186.592 308.474 185.702 307.208C185.163 306.439 184.504 305.754 183.948 304.993C182.888 303.53 181.955 301.982 181.031 300.433C180.552 299.629 180.116 298.8 179.594 298.021C178.781 296.824 178.054 295.592 177.524 294.249C177.216 293.47 176.951 292.675 176.592 291.931C175.941 290.579 175.471 289.15 174.761 287.824C174.684 287.688 174.701 287.499 174.658 287.337C174.598 287.114 174.556 286.884 174.462 286.67C173.734 285.019 173.196 283.299 172.751 281.554C172.631 281.101 172.434 280.682 172.297 280.237C172.109 279.63 172.015 278.988 171.758 278.423C171.442 277.73 171.433 276.995 171.245 276.285C170.963 275.258 170.621 274.249 170.544 273.163C170.492 272.47 170.296 271.785 170.193 271.092C170.031 270.032 169.859 268.971 169.757 267.902C169.688 267.234 169.697 266.567 169.586 265.891C169.5 265.387 169.312 265.164 168.893 265.07C167.285 264.702 165.676 264.386 164.008 264.412C163.05 264.429 162.015 264.335 161.143 263.975C159.86 263.453 158.559 263.291 157.216 263.205C157.045 263.197 156.84 263.231 156.72 263.146C156.044 262.666 155.283 262.829 154.547 262.795C154.214 262.778 153.829 262.829 153.555 262.684C152.777 262.264 151.913 262.376 151.1 262.205C150.056 261.982 148.97 261.948 147.918 261.717C147.225 261.563 146.515 261.495 145.856 261.315C145.155 261.127 144.436 261.033 143.76 260.998C142.469 260.939 141.245 260.656 140.014 260.331C139.689 260.246 139.355 260.134 139.038 260.143C138.217 260.169 137.447 259.938 136.652 259.801C135.429 259.578 134.24 259.168 132.965 259.313C132.238 259.399 131.571 259.176 130.912 258.903C130.484 258.723 130.022 258.526 129.577 258.518C128.055 258.483 126.549 258.329 125.052 258.099C124.06 257.945 123.059 257.902 122.152 257.38C121.904 257.243 121.562 257.269 121.263 257.226L121.237 257.277ZM186.703 265.524C187.302 265.506 187.49 265.224 187.242 264.668C186.899 263.907 186.549 263.146 186.198 262.384C185.813 261.529 185.437 260.673 185.035 259.826C184.385 258.475 183.692 257.149 183.067 255.789C182.597 254.762 182.263 253.659 181.741 252.658C180.852 250.93 180.176 249.117 179.577 247.277C179.115 245.849 178.448 244.497 178.063 243.043C177.746 241.854 176.823 240.879 176.848 239.561C176.848 239.527 176.823 239.502 176.805 239.467C176.292 238.372 175.924 237.235 175.616 236.071C175.343 235.011 174.872 233.984 174.693 232.906C174.556 232.128 174.239 231.443 174 230.716C173.743 229.964 173.538 229.177 173.435 228.39C173.367 227.842 173.255 227.337 173.042 226.841C172.939 226.602 172.871 226.337 172.794 226.08C172.486 225.053 172.357 223.976 172.075 222.958C171.716 221.632 171.545 220.272 171.151 218.963C171.023 218.518 171.006 218.039 170.946 217.577C170.912 217.312 170.963 217.021 170.877 216.773C170.424 215.336 169.979 213.916 169.859 212.385C169.817 211.829 169.911 211.178 169.663 210.699C169.115 209.647 169.44 208.501 169.115 207.432C168.747 206.217 169.107 204.865 168.534 203.668C168.508 203.608 168.482 203.514 168.508 203.48C168.936 202.932 168.491 202.453 168.397 201.948C168.285 201.29 167.977 200.58 168.123 199.981C168.268 199.365 168.208 198.843 168.037 198.321C167.866 197.783 167.866 197.261 167.858 196.722C167.849 195.969 167.977 195.182 167.798 194.472C167.558 193.505 167.721 192.547 167.61 191.598C167.55 191.085 167.233 190.503 166.746 190.434C166.147 190.349 165.54 190.306 164.949 190.212C164.658 190.169 164.368 190.084 164.085 189.981C163.871 189.904 163.658 189.656 163.469 189.673C162.451 189.776 161.605 189.168 160.612 189.083C159.637 189.006 158.688 188.63 157.729 188.364C157.054 188.176 156.344 188.048 155.736 187.731C154.214 186.927 152.503 186.696 150.912 186.123C150.544 185.986 150.125 185.986 149.731 185.909C149.475 185.858 149.209 185.79 148.961 185.695C148.713 185.593 148.491 185.37 148.243 185.336C147.114 185.191 146.352 184.37 145.42 183.873C145.232 183.771 145.052 183.591 144.872 183.591C144.659 183.591 144.419 183.702 144.222 183.822C143.239 184.395 142.315 185.054 141.297 185.567C139.449 186.508 137.67 187.594 135.839 188.578C134.419 189.34 132.965 190.032 131.519 190.76C131.314 190.862 131.083 191.042 130.878 191.025C129.706 190.956 128.842 191.897 127.713 191.94C126.96 192.616 125.951 192.77 125.052 193.035C123.264 193.565 121.434 193.942 119.68 194.617C119.526 194.677 119.364 194.712 119.193 194.737C118.551 194.831 117.858 194.78 117.294 195.028C116.284 195.473 115.189 195.293 114.171 195.721C113.367 196.063 112.401 196.037 111.511 196.174C111.117 196.234 110.724 196.345 110.322 196.371C109.672 196.405 109.022 196.363 108.372 196.397C107.73 196.431 107.088 196.559 106.447 196.576C104.616 196.628 102.786 196.559 100.946 196.756C99.4409 196.927 97.9097 196.799 96.4213 196.397C96.139 196.32 95.754 196.277 95.5145 196.405C94.9157 196.713 94.411 196.465 93.8636 196.311C93.6754 196.26 93.4786 196.2 93.2819 196.174C92.5804 196.097 91.8704 196.046 91.1775 195.952C90.4333 195.858 90.4248 195.832 90.1168 196.422C89.9457 196.747 89.8431 197.098 89.7062 197.44C89.1758 198.775 89.3213 200.298 88.5514 201.572C88.4829 201.675 88.4829 201.837 88.4829 201.966C88.5 202.351 88.4487 202.684 88.1579 202.992C88.0039 203.163 87.9782 203.471 87.9526 203.728C87.8072 205.327 87.2169 206.824 86.755 208.33C86.4898 209.185 86.1647 210.024 86.0022 210.913C85.8825 211.555 85.891 211.683 86.3871 211.948C87.944 212.804 89.5351 213.591 91.1946 214.198C93.0081 214.857 94.796 215.601 96.6779 216.072C97.8669 216.371 99.0816 216.619 100.236 217.072C100.69 217.252 101.22 217.235 101.725 217.303C102.358 217.38 103.008 217.397 103.624 217.534C104.813 217.799 106.011 217.962 107.234 217.928C107.499 217.928 107.764 218.013 108.021 218.056C108.62 218.15 109.244 218.398 109.8 218.279C110.416 218.142 111.006 218.167 111.614 218.133C112.999 218.048 114.385 218.15 115.78 217.979C117.08 217.817 118.389 217.628 119.689 217.56C121.425 217.466 123.059 216.961 124.71 216.593C126.618 216.174 128.465 215.447 130.33 214.831C130.775 214.686 131.169 214.378 131.613 214.249C132.529 213.993 132.974 213.377 133.222 212.504C133.299 212.239 133.581 211.829 133.735 211.837C134.231 211.88 134.684 211.375 135.181 211.743C135.258 211.803 135.403 211.829 135.42 211.897C135.574 212.445 135.873 213.009 135.583 213.565C135.044 214.609 134.616 215.687 134.24 216.799C133.829 217.996 133.256 219.143 132.828 220.332C132.05 222.496 131.331 224.677 130.578 226.85C130.125 228.142 129.783 229.467 129.184 230.708C128.936 231.213 128.765 231.76 128.594 232.299C128.397 232.932 128.32 233.625 128.038 234.215C127.499 235.336 126.943 236.431 126.626 237.645C126.455 238.321 126.233 238.997 125.942 239.63C125.232 241.178 124.761 242.812 124.197 244.42C123.897 245.267 123.667 246.14 123.367 246.987C123.153 247.577 122.845 248.133 122.631 248.723C122.306 249.664 122.007 250.622 121.733 251.589C121.605 252.034 121.562 252.513 121.519 252.975C121.477 253.342 121.537 253.685 121.246 254.018C120.938 254.377 121.134 254.771 121.579 254.831C122.281 254.925 122.991 254.959 123.684 255.053C124.779 255.199 125.874 255.361 126.968 255.524C127.003 255.524 127.028 255.558 127.063 255.566C128.397 256.063 129.834 256.02 131.211 256.276C131.964 256.422 132.734 256.499 133.495 256.636C134.248 256.773 135.009 257.098 135.754 257.063C136.926 257.021 137.986 257.637 139.15 257.517C140.091 258.099 141.203 257.773 142.195 258.107C142.631 258.253 143.119 258.261 143.581 258.329C144.539 258.466 145.505 258.603 146.464 258.749C146.823 258.8 147.182 258.894 147.55 258.945C148.08 259.022 148.619 259.057 149.141 259.168C149.492 259.245 149.825 259.527 150.168 259.536C151.151 259.561 152.101 259.775 153.05 259.963C154.556 260.254 156.079 260.511 157.593 260.776C158.157 260.87 158.73 261.024 159.286 260.981C160.501 260.879 161.596 261.366 162.759 261.537C163.914 261.708 165.043 262.068 166.198 262.213C167.456 262.376 168.713 262.393 169.962 262.803C170.963 263.137 172.084 263.111 173.144 263.265C174.102 263.402 175.06 263.573 176.018 263.736C177.105 263.915 178.191 264.104 179.286 264.283C180.373 264.471 181.476 264.583 182.537 264.865C183.905 265.233 185.325 265.258 186.703 265.515V265.524ZM141.519 172.693C141.682 173.343 141.819 174.062 142.05 174.755C142.323 175.584 142.657 176.388 143.016 177.184C143.324 177.868 143.701 178.51 144.026 179.194C144.445 180.092 145.035 180.811 145.942 181.247C146.19 181.367 146.455 181.495 146.618 181.692C147.43 182.684 148.534 183.061 149.748 183.257C150.236 183.334 150.741 183.454 151.16 183.694C151.588 183.933 151.998 184.096 152.494 184.079C152.725 184.079 152.956 184.147 153.179 184.216C153.837 184.421 154.479 184.814 155.146 184.831C155.984 184.857 156.754 185.062 157.55 185.251C157.875 185.328 158.286 185.396 158.551 185.268C159.021 185.045 159.406 185.216 159.791 185.362C160.638 185.678 161.502 185.798 162.374 185.687C162.948 185.61 163.521 185.49 164.094 185.516C164.522 185.533 164.992 185.721 165.368 185.601C165.882 185.439 166.284 185.601 166.746 185.695C166.925 185.738 167.131 185.627 167.327 185.584C168.037 185.422 168.73 185.182 169.466 185.054C170.467 184.883 171.502 184.746 172.468 184.31C173.401 183.882 174.402 183.6 175.394 183.309C175.941 183.146 176.455 182.95 176.951 182.65C177.627 182.231 178.302 181.76 179.047 181.512C179.919 181.222 180.732 180.939 181.356 180.204C181.622 179.887 182.075 179.725 182.443 179.494C182.639 179.365 182.853 179.254 183.033 179.109C183.743 178.544 184.444 177.971 185.163 177.406C185.266 177.329 185.402 177.278 185.522 177.227C186.361 176.91 187.028 176.303 187.627 175.696C188.61 174.703 189.782 173.976 190.869 173.121C191.365 172.727 191.878 172.351 192.383 171.957C192.759 171.675 193.153 171.41 193.495 171.093C194.521 170.152 195.539 169.203 196.557 168.245C196.797 168.022 197.07 167.817 197.233 167.552C197.78 166.662 198.559 166.029 199.389 165.439C199.577 165.302 199.825 165.208 199.953 165.028C200.697 163.933 201.707 163.121 202.742 162.325C202.836 162.248 202.939 162.163 202.999 162.06C203.563 161.111 204.342 160.383 205.231 159.742C205.599 159.477 205.856 159.04 206.138 158.664C206.497 158.185 206.839 157.68 207.19 157.193C207.703 156.491 208.225 155.79 208.738 155.088C209.354 154.25 209.962 153.412 210.569 152.573C210.903 152.111 211.424 151.701 211.544 151.196C211.681 150.606 211.963 150.315 212.442 150.093C212.716 149.964 212.896 149.759 213.093 149.511C213.666 148.801 214.076 148.005 214.461 147.184C214.598 146.893 214.795 146.654 215.026 146.406C215.625 145.756 216.249 145.097 216.352 144.113C216.394 143.677 216.548 143.207 216.959 142.873C217.412 142.497 217.609 141.958 217.772 141.393C217.874 141.051 218.054 140.726 218.217 140.401C218.473 139.896 218.807 139.426 218.986 138.895C219.26 138.074 219.371 137.201 219.637 136.38C219.962 135.396 219.962 134.858 218.85 134.207C217.669 133.515 216.446 132.882 215.257 132.206C213.982 131.487 212.708 130.752 211.442 130.024C209.987 129.195 208.542 128.365 207.096 127.518C206.052 126.911 205.034 126.278 203.999 125.662C202.673 124.883 201.348 124.096 200.005 123.344C199.038 122.805 198.029 122.385 197.113 121.727C195.924 120.871 194.59 120.221 193.315 119.486C192.793 119.186 192.272 118.887 191.741 118.605C191.125 118.279 190.475 118.006 189.868 117.664C188.302 116.765 186.788 115.756 185.189 114.935C184.085 114.362 183.042 113.694 181.981 113.061C181.177 112.582 180.407 112.035 179.568 111.624C178.884 111.282 178.166 111.008 177.567 110.504C177.259 110.247 177.028 110.427 176.763 110.641C176.275 111.051 175.753 111.419 175.257 111.821C174.966 112.061 174.684 112.3 174.427 112.574C173.341 113.78 172.272 115.003 171.185 116.209C170.8 116.637 170.338 116.988 170.142 117.569C170.09 117.715 169.945 117.843 169.817 117.946C168.739 118.776 167.772 119.708 166.977 120.829C166.592 121.376 166.198 121.915 165.779 122.445C164.881 123.575 163.914 124.661 163.059 125.824C162.229 126.953 161.485 128.151 160.706 129.314C159.928 130.478 159.321 131.752 158.431 132.864C158.037 133.361 157.764 133.942 157.43 134.49C156.575 135.893 155.728 137.287 154.872 138.69C153.897 140.29 152.922 141.872 152.024 143.514C151.579 144.319 151.023 145.046 150.801 145.97C150.706 146.38 150.441 146.765 150.236 147.15C149.791 147.98 149.295 148.775 148.893 149.622C147.704 152.137 146.258 154.515 145.403 157.184C144.624 159.596 143.504 161.88 142.751 164.31C142.358 165.576 141.938 166.799 142.041 168.142C142.058 168.313 142.075 168.493 142.024 168.655C141.656 169.947 141.921 171.299 141.528 172.684L141.519 172.693ZM111.357 193.796C112.187 193.933 112.965 193.865 113.769 193.608C114.813 193.274 115.933 193.215 116.994 192.907C117.858 192.659 118.765 192.556 119.646 192.385C120.202 192.282 120.767 192.18 121.314 192.051C121.802 191.94 122.298 191.837 122.751 191.632C123.513 191.29 124.334 191.153 125.078 190.734C125.634 190.426 126.293 190.195 126.994 190.204C127.345 190.204 127.713 190.075 128.046 189.921C129.116 189.442 130.125 188.843 131.263 188.51C132.281 188.21 133.256 187.748 134.24 187.346C135.258 186.927 136.121 186.192 137.208 185.926C137.49 185.858 137.747 185.661 138.003 185.516C138.465 185.251 138.893 184.908 139.381 184.703C140.63 184.173 141.742 183.454 142.683 182.479C143.239 181.906 143.273 181.675 142.879 180.905C142.589 180.34 142.315 179.759 141.964 179.237C140.972 177.731 140.322 176.106 140.159 174.301C140.125 173.908 139.928 173.531 139.843 173.146C139.8 172.924 139.808 172.684 139.825 172.453C139.86 171.949 139.962 171.444 139.937 170.948C139.928 170.725 139.902 170.529 139.954 170.306C140.287 168.903 140.638 167.501 140.587 166.038C140.587 165.841 140.595 165.627 140.672 165.439C141.066 164.412 141.485 163.395 141.887 162.368C141.955 162.188 141.964 161.975 142.024 161.786C142.315 160.905 142.409 159.99 142.965 159.169C143.598 158.228 144.009 157.15 144.274 156.029C144.462 155.251 144.624 154.507 145.198 153.848C145.591 153.395 145.779 152.71 145.89 152.094C145.985 151.607 146.164 151.23 146.421 150.82C146.985 149.879 147.464 148.887 147.969 147.911C148.491 146.911 148.97 145.884 149.509 144.892C150.048 143.891 150.535 142.924 150.048 141.735C149.834 141.222 149.706 140.657 149.629 140.101C149.406 138.639 148.987 137.244 148.499 135.85C148.328 135.354 148.294 134.798 148.183 134.276C148.02 133.557 147.875 132.839 147.653 132.146C147.387 131.325 147.02 130.529 146.746 129.716C146.215 128.143 145.745 126.543 145.189 124.969C144.727 123.652 144.171 122.368 143.666 121.068C143.452 120.512 143.333 119.896 143.025 119.392C142.426 118.416 142.05 117.347 141.588 116.312C141.168 115.362 140.655 114.464 140.193 113.532C140.108 113.361 139.979 113.13 140.031 112.984C140.262 112.283 140.493 111.581 141.254 111.222C142.34 110.709 143.393 110.119 144.479 109.605C145.959 108.904 147.473 108.271 148.944 107.544C150.621 106.714 152.392 106.09 154.026 105.149C154.941 104.61 155.976 104.268 156.96 103.848C157.61 103.575 157.687 103.335 157.345 102.634C157.259 102.463 157.242 102.249 157.216 102.052C157.131 101.453 157.105 100.837 156.951 100.264C156.566 98.8699 156.113 97.5012 156.19 96.0299C156.19 95.9615 156.207 95.8759 156.173 95.8246C155.779 95.1573 155.779 94.4046 155.728 93.6689C155.702 93.3182 155.856 92.9333 155.745 92.6167C155.394 91.5646 155.463 90.4525 155.403 89.3918C155.274 86.8768 155.309 84.3533 155.565 81.847C155.565 81.7785 155.557 81.7015 155.582 81.6417C155.942 80.9231 155.694 80.1618 155.753 79.4261C155.762 79.3063 155.685 79.178 155.642 79.0497C155.505 79.1267 155.274 79.1695 155.232 79.2721C154.966 80.0078 154.376 80.4783 153.863 81.0172C153.726 81.1626 153.615 81.3337 153.504 81.4962C153.204 81.941 152.982 82.4714 152.597 82.805C152.049 83.2841 151.921 83.9342 151.69 84.5415C151.57 84.858 151.639 85.1831 151.998 85.4996C152.683 86.0899 152.657 87.0736 153.076 87.8349C153.136 87.9376 153.102 88.1087 153.076 88.237C153.016 88.6305 152.982 89.0411 152.879 89.4175C152.708 90.0248 152.588 90.6749 152.255 91.1882C151.63 92.1634 150.698 92.7365 149.5 92.7365C149.004 92.7365 148.619 92.8477 148.397 93.3011C148.166 93.7801 147.995 94.2934 147.755 94.7724C147.191 95.9187 146.464 96.8682 145.001 96.8596C144.402 96.8596 144.231 97.0649 144.051 97.6809C143.957 97.9974 143.846 98.331 143.641 98.579C143.299 98.9982 142.939 99.4601 142.477 99.7253C141.485 100.307 141.092 101.222 140.741 102.223C140.63 102.557 140.373 102.873 140.108 103.121C139.5 103.694 139.423 104.071 139.911 104.704C140.056 104.892 140.236 105.055 140.416 105.217C140.989 105.756 141.545 106.286 141.699 107.108C141.733 107.296 141.861 107.501 142.007 107.612C142.435 107.929 142.392 108.365 142.409 108.81C142.443 109.469 141.981 109.674 141.528 109.905C141.057 110.144 140.852 109.742 140.595 109.494C140.484 109.383 140.424 109.212 140.33 109.075C139.757 108.211 139.158 107.356 138.611 106.475C138.405 106.141 138.269 105.773 137.79 105.884C137.353 105.987 137.302 106.372 137.259 106.74C137.199 107.296 136.891 107.629 136.387 107.878C136.036 108.049 135.583 108.322 135.497 108.647C135.258 109.503 134.701 110.11 134.197 110.777C133.281 111.975 132.443 113.232 131.485 114.396C130.587 115.491 129.766 116.628 129.09 117.869C128.979 118.074 128.833 118.254 128.696 118.442C127.995 119.383 127.294 120.324 126.601 121.265C125.865 122.257 125.3 123.361 124.505 124.336C123.11 126.047 121.904 127.903 120.647 129.716C119.868 130.846 119.15 132.018 118.389 133.155C117.961 133.797 117.43 134.37 117.054 135.046C116.755 135.585 116.43 136.081 115.976 136.5C115.771 136.68 115.557 136.868 115.403 137.09C114.556 138.296 113.786 139.554 112.88 140.717C111.939 141.932 111.186 143.275 110.339 144.558C109.766 145.422 109.253 146.346 108.585 147.124C107.927 147.894 107.319 148.673 106.78 149.545C105.865 151.025 104.822 152.428 103.829 153.848C103.29 154.618 102.683 155.336 102.195 156.141C101.614 157.09 101.058 158.048 100.236 158.818C100.023 159.015 99.8943 159.314 99.7403 159.571C99.6034 159.802 99.535 160.075 99.3639 160.281C98.7395 161.034 98.1749 161.821 97.636 162.625C96.4469 164.404 95.2237 166.158 93.9919 167.92C93.145 169.126 92.281 170.323 91.4256 171.521C90.4162 172.941 89.3127 174.301 88.4231 175.798C87.5762 177.218 86.5497 178.493 85.6002 179.827C85.2152 180.375 84.779 180.888 84.3855 181.427C84.2058 181.666 84.0518 181.932 83.9321 182.205C83.7867 182.539 83.6669 182.89 83.5985 183.249C83.5557 183.454 83.5642 183.745 83.6755 183.882C84.4282 184.814 85.2238 185.713 85.9851 186.636C86.755 187.569 87.5078 188.518 88.2434 189.476C89.1502 190.648 90.0227 191.829 90.9294 193.001C91.0492 193.163 91.2032 193.36 91.3828 193.403C92.0928 193.591 92.8028 193.796 93.5299 193.873C94.7104 193.993 95.8909 194.027 97.0714 194.096C97.1398 194.096 97.2083 194.096 97.2767 194.113C98.3631 194.361 99.4666 194.515 100.57 194.498C102.914 194.455 105.258 194.369 107.602 194.301C107.704 194.301 107.807 194.301 107.91 194.284C109.039 194.113 110.168 193.942 111.289 193.771L111.357 193.796ZM219.175 149.562C219.175 148.741 219.183 148.057 219.175 147.372C219.175 147.227 219.098 147.013 218.995 146.962C218.798 146.868 218.661 146.979 218.533 147.201C218.054 148.04 217.293 148.673 216.942 149.622C216.779 150.076 216.232 150.375 215.907 150.786C215.436 151.393 215 152.026 214.564 152.659C214.008 153.472 213.418 154.276 212.93 155.131C212.622 155.67 212.314 156.166 211.861 156.594C211.484 156.945 211.125 157.312 210.774 157.68C210.612 157.851 210.466 158.04 210.364 158.245C209.85 159.28 209.081 160.135 208.285 160.931C207.977 161.239 207.712 161.538 207.464 161.889C207.079 162.428 206.668 163.001 206.121 163.343C205.385 163.797 204.855 164.378 204.359 165.063C204.051 165.49 203.649 165.85 203.264 166.209C202.819 166.619 202.34 166.996 201.886 167.398C201.656 167.603 201.467 167.877 201.211 168.014C200.073 168.621 199.209 169.477 198.61 170.623C198.49 170.854 198.277 171.093 198.054 171.213C197.438 171.538 196.951 172.069 196.241 172.265C195.907 172.359 195.539 172.625 195.377 172.924C195.043 173.523 194.496 173.831 193.991 174.207C193.863 174.301 193.649 174.37 193.597 174.498C193.366 175.08 192.845 175.336 192.383 175.67C191.57 176.26 190.766 176.859 189.962 177.475C189.56 177.783 189.098 178.056 188.816 178.45C188.439 178.972 187.832 178.843 187.396 179.134C187.259 179.228 187.122 179.323 186.985 179.425C186.669 179.673 186.361 179.947 186.027 180.169C185.334 180.631 184.564 180.965 183.948 181.589C183.503 182.034 182.939 182.496 182.186 182.445C182.015 182.436 181.81 182.573 181.664 182.701C181.057 183.249 180.338 183.6 179.568 183.856C179.312 183.942 179.021 183.985 178.824 184.139C178.414 184.464 177.952 184.6 177.447 184.695C176.891 184.797 176.369 185.028 175.822 185.174C175.24 185.319 174.77 185.858 174.239 186.217C174.077 186.328 173.888 186.534 173.734 186.508C173.101 186.431 172.648 186.773 172.152 187.056C171.801 187.261 171.425 187.363 170.997 187.372C170.646 187.372 170.287 187.535 169.945 187.646C169.697 187.731 169.449 187.843 169.244 187.988C169.047 188.133 168.679 188.108 168.687 188.484C168.696 188.869 169.072 188.809 169.269 188.963C169.338 189.014 169.474 188.963 169.569 188.989C170.604 189.237 171.63 189.57 172.674 189.733C173.769 189.904 174.821 190.306 175.959 190.221C176.147 190.204 176.344 190.306 176.54 190.349C176.934 190.443 177.336 190.486 177.704 190.631C178.362 190.888 179.047 190.751 179.714 190.845C180.8 191.008 181.878 191.273 182.965 191.427C184.624 191.666 186.292 191.889 187.96 192.043C189.568 192.188 191.185 192.257 192.793 192.453C193.794 192.573 194.812 192.547 195.83 192.633C197.652 192.787 199.491 192.77 201.322 192.838C203.555 192.924 205.804 193.035 208.046 192.701C209.046 192.556 210.099 192.633 211.117 192.684C212.152 192.744 213.178 192.162 214.205 192.667C214.256 192.693 214.341 192.667 214.41 192.667C215.334 192.539 216.258 192.351 217.19 192.282C218.371 192.197 219.56 192.334 220.74 192.085C221.527 191.923 222.348 191.931 223.152 191.854C223.648 191.803 224.145 191.709 224.649 191.658C225.299 191.589 225.488 191.298 225.257 190.691C225.197 190.537 225.128 190.375 225.111 190.221C225.034 189.442 224.795 188.724 224.435 188.031C224.299 187.766 224.11 187.483 224.093 187.201C224.042 185.867 223.546 184.66 223.135 183.42C222.913 182.753 222.536 182.111 222.468 181.435C222.374 180.46 222.049 179.545 221.955 178.561C221.852 177.449 221.536 176.329 221.296 175.216C221.236 174.951 221.313 174.618 221.185 174.412C220.774 173.805 220.791 173.138 220.791 172.462C220.791 171.82 220.843 171.145 220.68 170.537C220.381 169.391 220.15 168.253 220.175 167.064C220.193 166.457 220.167 165.875 219.85 165.294C219.637 164.909 219.611 164.395 219.577 163.925C219.517 163.138 219.175 162.342 219.56 161.555C219.585 161.504 219.568 161.418 219.56 161.35C219.269 159.99 219.149 158.621 219.149 157.235C219.149 156.731 219.209 156.235 218.986 155.73C218.875 155.482 218.969 155.131 218.995 154.823C219.029 154.49 219.098 154.164 219.149 153.831C219.209 153.472 219.269 153.104 219.311 152.744C219.337 152.539 219.406 152.308 219.337 152.137C218.986 151.239 219.234 150.315 219.149 149.554L219.175 149.562ZM136.532 103.934C136.464 103.806 136.421 103.677 136.335 103.575C135.326 102.317 134.385 101.017 133.581 99.6227C133.495 99.4772 133.358 99.366 133.239 99.2377C132.537 98.5021 132.477 98.4935 131.793 99.195C131.536 99.4601 131.314 99.7595 131.1 100.059C130.313 101.188 129.56 102.334 128.765 103.455C128.2 104.251 127.584 104.995 127.02 105.782C125.856 107.416 124.71 109.075 123.547 110.709C122.537 112.129 121.485 113.523 120.484 114.943C119.518 116.312 118.654 117.749 117.627 119.066C116.472 120.546 115.343 122.043 114.308 123.609C113.778 124.421 113.299 125.277 112.709 126.047C111.545 127.569 110.33 129.041 109.33 130.675C109.159 130.957 108.928 131.213 108.731 131.479C108.141 132.291 107.533 133.095 106.96 133.925C106.165 135.08 105.429 136.278 104.616 137.432C103.632 138.835 102.597 140.187 101.614 141.581C100.981 142.479 100.39 143.42 99.7745 144.336C98.6967 145.952 97.2425 147.295 96.4213 149.092C96.3785 149.177 96.3015 149.254 96.2245 149.323C95.275 150.161 94.7874 151.342 94.0175 152.317C93.0423 153.549 92.3152 154.969 91.2631 156.158C90.7584 156.731 90.3905 157.424 89.9628 158.065C89.7233 158.424 89.5009 158.801 89.2528 159.16C88.654 160.007 88.0381 160.845 87.4393 161.692C87.0715 162.214 86.7379 162.753 86.37 163.266C85.8397 164.002 85.2922 164.72 84.7618 165.448C84.0347 166.457 83.3247 167.466 82.6062 168.476C81.9047 169.459 81.1776 170.418 80.4933 171.41C80.1682 171.88 79.9458 172.411 79.6207 172.873C78.9621 173.839 78.2606 174.78 77.5848 175.738C77.3539 176.063 77.2256 176.491 76.9518 176.756C75.8825 177.757 75.2068 179.057 74.3513 180.221C73.9407 180.777 73.5643 181.376 73.2906 182.017C72.9998 182.71 73.0596 182.736 72.5806 183.215C72.3411 183.454 72.1101 183.711 71.8535 183.942C71.5712 184.19 71.6311 184.404 71.8877 184.609C72.2983 184.934 72.7688 185.08 73.2906 185.08C74.1631 185.08 75.0442 185.011 75.8825 185.43C76.1563 185.567 76.5583 185.516 76.8919 185.473C77.6276 185.387 78.3291 185.422 78.9963 185.772C79.3299 185.943 79.6635 186.012 79.9287 185.704C80.4847 185.045 81.1862 184.472 81.3059 183.531C81.4 182.778 81.8192 182.188 82.4608 181.829C82.9655 181.538 83.2563 181.127 83.53 180.657C83.9321 179.973 84.2743 179.228 84.7961 178.647C85.3435 178.039 85.8311 177.415 86.2588 176.722C87.3025 175.045 88.7225 173.625 89.5608 171.812C89.6121 171.692 89.7404 171.607 89.8345 171.504C90.5787 170.674 91.246 169.802 91.725 168.784C91.9474 168.305 92.2126 167.826 92.5291 167.398C92.9996 166.748 93.5727 166.166 94.0261 165.499C95.0098 164.062 95.9337 162.582 96.9174 161.153C98.2091 159.28 99.5093 157.407 100.861 155.576C101.562 154.635 101.947 153.472 102.88 152.702C103.025 152.582 103.153 152.368 103.171 152.18C103.213 151.684 103.59 151.427 103.872 151.102C104.154 150.768 104.419 150.426 104.668 150.058C105.626 148.647 106.532 147.201 107.533 145.824C108.457 144.55 109.415 143.301 110.074 141.855C110.185 141.615 110.322 141.35 110.519 141.188C111.16 140.657 111.528 139.922 111.99 139.263C112.435 138.639 112.871 138.006 113.29 137.355C113.898 136.432 114.762 135.704 115.223 134.661C115.472 134.088 115.916 133.592 116.327 133.104C116.72 132.642 117.105 132.197 117.448 131.675C117.815 131.111 118.158 130.555 118.423 129.939C118.508 129.734 118.679 129.554 118.825 129.366C119.364 128.673 119.98 128.04 120.424 127.287C120.904 126.474 121.229 125.576 121.99 124.96C122.058 124.9 122.075 124.781 122.135 124.695C122.717 123.874 123.307 123.061 123.889 122.24C124.06 121.992 124.214 121.735 124.368 121.479C124.522 121.231 124.65 120.965 124.813 120.717C124.992 120.435 125.266 120.196 125.377 119.888C125.557 119.383 125.891 119.024 126.25 118.664C126.447 118.476 126.678 118.297 126.806 118.066C127.619 116.517 128.859 115.268 129.774 113.771C130.638 112.351 131.716 111.051 132.648 109.657C133.786 107.963 135.001 106.312 136.164 104.635C136.318 104.422 136.404 104.165 136.532 103.9V103.934ZM168.303 116.534C168.243 116.457 168.183 116.338 168.097 116.244C167.302 115.388 166.848 114.345 166.472 113.267C166.258 112.642 166.164 111.966 165.882 111.368C165.497 110.546 165.18 109.708 164.949 108.836C164.838 108.416 164.573 108.049 164.453 107.638C164.162 106.654 163.581 105.782 163.358 104.764C163.196 104.045 162.503 103.575 161.716 103.943C161.322 104.131 160.937 104.327 160.544 104.524C159.919 104.832 159.303 105.183 158.67 105.457C157.601 105.919 156.438 106.115 155.394 106.688C154.205 107.339 153.093 108.117 151.81 108.63C151.143 108.895 150.527 109.315 149.808 109.503C148.671 109.794 147.636 110.35 146.549 110.777C145.275 111.282 144.145 112.095 142.794 112.428C142.323 112.548 142.255 112.89 142.469 113.344C142.742 113.951 142.999 114.567 143.299 115.166C143.812 116.218 144.359 117.253 144.881 118.297C145.121 118.776 145.429 119.255 145.514 119.768C145.754 121.094 146.275 122.326 146.703 123.583C147.516 125.978 148.388 128.356 149.209 130.752C149.449 131.444 149.663 132.146 149.825 132.864C150.322 135.037 150.792 137.227 151.288 139.408C151.314 139.537 151.459 139.725 151.562 139.734C151.733 139.742 151.981 139.691 152.075 139.562C152.392 139.135 152.657 138.664 152.956 138.228C153.478 137.45 154.026 136.688 154.556 135.91C155.061 135.166 155.608 134.438 156.053 133.66C157.122 131.804 158.003 129.845 159.406 128.185C160.219 127.219 160.826 126.081 161.536 125.029C162.52 123.575 163.521 122.137 164.847 120.965C165.266 120.598 165.591 120.153 165.736 119.64C165.933 118.972 166.404 118.605 166.9 118.185C167.413 117.766 167.806 117.202 168.251 116.697C168.268 116.671 168.277 116.637 168.311 116.552L168.303 116.534ZM198.91 13.5756C198.798 13.4387 198.713 13.2933 198.585 13.1992C197.515 12.3865 196.446 11.5824 195.368 10.7783C194.923 10.4533 194.564 10.4875 194.171 10.958C193.786 11.4199 193.426 11.9075 193.093 12.4036C192.203 13.7039 191.348 15.0212 190.441 16.3044C189.825 17.1855 189.141 18.0152 188.499 18.8706C188.2 19.2727 187.952 19.709 187.652 20.1196C187.019 20.9835 186.361 21.8304 185.736 22.7115C185.214 23.4472 184.812 24.2769 184.231 24.9527C183.093 26.2872 182.058 27.6815 181.237 29.2298C181.031 29.6148 180.792 29.974 180.527 30.3162C179.971 31.0348 179.355 31.7106 178.841 32.4548C178.054 33.5839 177.361 34.7644 176.523 35.8508C175.625 37.0142 174.847 38.2631 174.008 39.4693C173.016 40.8978 172.015 42.3264 171.023 43.7549C170.912 43.9175 170.817 44.0971 170.698 44.2596C169.688 45.6711 168.619 47.0483 167.661 48.5111C166.25 50.6753 164.599 52.6599 163.187 54.8241C161.536 57.3391 159.748 59.7685 158.02 62.2321C157.173 63.4382 156.327 64.6444 155.48 65.842C155.112 66.3638 154.736 66.8685 154.359 67.3817C153.743 68.22 153.042 69.007 152.537 69.9052C151.955 70.9317 151.322 71.8984 150.595 72.8308C149.475 74.285 148.491 75.8504 147.464 77.3731C147.054 77.9804 147.079 78.0318 147.576 78.6819C147.678 78.8102 147.764 78.9642 147.824 79.1096C148.243 80.119 149.004 80.8974 149.646 81.7529C150.116 82.3773 150.476 82.3517 151.032 81.77C151.1 81.693 151.177 81.6245 151.228 81.539C152.041 80.2644 153.016 79.101 153.837 77.8521C154.881 76.2525 156.284 74.9095 157.054 73.1302C157.131 72.9505 157.336 72.8393 157.456 72.6768C157.798 72.2234 158.132 71.7615 158.457 71.2996C158.593 71.1114 158.67 70.8633 158.833 70.7008C159.697 69.8368 160.253 68.7504 160.954 67.7752C162.34 65.842 163.709 63.9002 165.095 61.9669C165.463 61.4537 165.89 60.9661 166.241 60.4443C167.131 59.144 167.986 57.8267 168.867 56.5179C169.013 56.2954 169.175 56.0816 169.338 55.8677C169.936 55.0978 170.587 54.3707 171.143 53.5666C172.477 51.6419 173.717 49.6574 175.077 47.7583C175.882 46.6463 176.583 45.4401 177.618 44.4906C177.806 44.3195 177.96 44.0629 178.063 43.8234C178.628 42.5573 179.466 41.4709 180.296 40.3675C180.92 39.5462 181.596 38.7678 182.109 37.8354C182.554 37.0227 183.059 36.2272 183.692 35.5086C184.479 34.6104 185.009 33.4898 185.762 32.5574C186.48 31.6592 186.797 30.5215 187.661 29.7174C188.123 29.2897 188.439 28.7166 188.833 28.2119C189.885 26.8603 190.612 25.3034 191.673 23.9519C192.417 23.0109 193.041 21.9673 193.726 20.975C193.991 20.5901 194.384 20.265 194.547 19.8458C195.035 18.5456 196.044 17.6046 196.848 16.5525C197.498 15.697 198.003 14.7304 198.739 13.9434C198.824 13.8493 198.85 13.7124 198.927 13.5499L198.91 13.5756ZM200.98 114.978C200.937 114.978 200.886 114.969 200.843 114.96C200.8 114.088 200.834 113.198 200.68 112.343C200.595 111.881 200.603 111.342 200.193 110.94C200.005 110.752 199.979 110.392 199.893 110.102C199.645 109.221 199.346 108.365 198.602 107.749C198.422 107.595 198.191 107.433 198.114 107.227C197.703 106.132 196.78 105.559 195.864 105.003C194.838 104.387 193.76 103.857 192.699 103.292C192.614 103.25 192.511 103.215 192.408 103.207C191.502 103.13 190.595 103.053 189.68 102.993C188.944 102.942 188.191 103.104 187.464 102.805C187.293 102.736 187.045 102.745 186.857 102.805C186.155 103.01 185.445 103.207 184.769 103.489C184.41 103.643 184.051 103.908 183.82 104.216C183.298 104.909 182.622 105.405 181.938 105.927C181.134 106.543 180.432 107.296 179.645 107.937C179.312 108.211 179.526 108.416 179.611 108.622C179.663 108.759 179.842 108.861 179.979 108.947C180.527 109.272 181.108 109.537 181.639 109.896C182.588 110.538 183.675 110.906 184.633 111.496C186.138 112.428 187.669 113.301 189.201 114.182C190.535 114.952 191.844 115.756 193.153 116.56C193.52 116.791 193.828 117.142 194.222 117.313C196.147 118.151 197.875 119.366 199.842 120.153C200.954 120.598 201.972 121.282 202.879 122.095C203.093 122.283 203.409 122.368 203.674 122.505C204.752 123.044 205.967 123.412 206.882 124.148C208.148 125.174 209.628 125.79 210.963 126.68C212.519 127.715 214.179 128.587 215.804 129.528C216.292 129.811 216.788 130.076 217.276 130.358C218.14 130.863 218.995 131.402 219.867 131.889C220.372 132.172 220.766 131.958 220.8 131.359C220.826 130.957 220.766 130.546 220.74 130.144C220.706 129.605 220.501 129.024 220.646 128.545C221.014 127.347 221.065 126.235 220.646 125.02C220.227 123.823 220.004 122.565 219.038 121.633C218.918 121.522 218.858 121.35 218.755 121.222C218.473 120.846 218.208 120.452 217.9 120.102C217.489 119.648 217.01 119.246 216.608 118.784C216.104 118.211 215.496 117.792 214.778 117.552C214.401 117.424 214.008 117.347 213.623 117.253C211.972 116.834 210.33 116.363 208.593 116.748C207.421 117.013 206.215 117.159 205.146 117.741C204.513 118.083 203.948 117.972 203.486 117.544C202.947 117.048 202.46 116.825 201.818 117.313C201.75 117.364 201.621 117.347 201.519 117.356C200.749 117.415 200.432 116.988 200.663 116.226C200.783 115.816 200.869 115.388 200.971 114.96L200.98 114.978ZM64.4455 191.144C64.4455 191.144 64.437 191.204 64.4284 191.239C64.1547 191.239 63.8809 191.221 63.6072 191.239C62.9742 191.298 62.3326 191.418 61.7937 191.769C61.2719 192.111 61.2206 192.616 61.6825 193.044C61.9733 193.309 62.3241 193.548 62.6919 193.677C63.4447 193.933 64.2402 194.079 65.0015 194.318C65.6003 194.506 66.1735 194.617 66.7808 194.387C66.9263 194.335 67.1144 194.327 67.2599 194.369C67.8929 194.558 68.5088 194.848 69.1846 194.515C69.2701 194.472 69.3899 194.498 69.4925 194.515C70.4848 194.677 71.4686 194.831 72.4523 195.02C72.6747 195.062 72.88 195.208 73.0768 195.336C73.4104 195.558 73.6328 196.234 73.4617 196.602C73.2992 196.953 73.0425 197.227 72.5892 197.175C72.0246 197.115 71.46 197.244 70.8783 197.021C70.3565 196.824 69.7577 196.782 69.1931 196.773C67.9699 196.756 66.7723 196.653 65.626 196.217C65.472 196.157 65.2582 196.106 65.1299 196.166C64.2146 196.619 63.3506 196.14 62.4609 196.072C61.999 196.038 61.4686 195.875 61.0752 196.029C60.4336 196.286 59.8348 196.705 59.2959 197.141C58.928 197.44 59.0735 197.825 59.5268 198.091C59.9203 198.321 60.3224 198.407 60.7758 198.416C61.4772 198.416 62.1872 198.347 62.8972 198.578C63.4618 198.766 64.0948 198.809 64.6936 198.801C66.2248 198.775 67.7218 198.989 69.2273 199.194C69.8347 199.28 70.1341 199.605 70.4078 200.024C70.6559 200.4 70.7586 200.845 70.5105 201.273C70.2367 201.735 69.7663 201.76 69.33 201.666C68.2693 201.461 67.2085 201.341 66.1393 201.23C65.5832 201.17 65.0614 201.367 64.5311 201.264C63.017 200.956 61.5114 200.956 60.0059 201.256C59.8776 201.281 59.7321 201.256 59.6124 201.213C58.6971 200.828 57.9186 201.384 57.0974 201.598C56.7125 201.7 56.6526 202.265 56.9948 202.453C57.6021 202.795 58.2266 203.163 58.8938 203.3C60.0401 203.531 61.2206 203.625 62.3925 203.728C63.573 203.83 64.7535 203.873 65.934 203.942C66.105 203.95 66.2932 203.899 66.4472 203.959C67.9014 204.489 69.4498 204.258 70.9382 204.54C72.1272 204.763 73.359 204.78 74.5737 204.917C75.874 205.062 77.1742 205.225 78.4745 205.387C79.0391 205.456 79.6207 205.635 80.1682 205.575C81.5198 205.43 82.7687 205.892 84.0689 206.072C84.9928 206.2 85.3179 206.097 85.6173 205.165C86.0364 203.865 86.4299 202.556 86.832 201.247C87.2084 200.041 87.5249 198.809 87.9782 197.629C88.1835 197.107 88.2776 196.611 88.2862 196.063C88.2862 195.456 88.2776 194.866 88.4487 194.25C88.6198 193.634 88.5 192.984 87.9868 192.462C87.465 191.931 86.9945 191.358 86.5155 190.785C85.7883 189.904 85.3008 188.843 84.4197 188.082C84.3427 188.014 84.2486 187.937 84.2229 187.851C83.9748 186.953 83.0767 186.534 82.6746 185.747C82.5891 185.576 82.4009 185.405 82.2298 185.345C82.0929 185.302 81.8106 185.362 81.7336 185.473C81.2546 186.157 80.8098 186.867 80.3564 187.569C80.2281 187.766 80.1169 187.979 79.9544 188.142C79.8603 188.236 79.6379 188.33 79.5266 188.279C78.5771 187.885 77.5677 187.86 76.5754 187.706C75.087 187.475 73.6157 187.175 72.1358 186.91C71.1777 186.739 70.2453 186.414 69.253 186.491C68.0298 185.901 66.969 186.662 65.8655 186.961C65.5661 187.038 65.2154 187.44 65.1555 187.748C65.0871 188.091 65.4806 188.364 65.8142 188.518C66.0281 188.621 66.2419 188.707 66.4729 188.758C67.5336 189.04 68.5943 189.331 69.6722 189.57C70.7243 189.801 71.8535 189.613 72.8372 190.195C72.8629 190.212 72.9057 190.195 72.9399 190.195C74.0519 190.263 75.1725 190.315 76.276 190.409C76.5241 190.426 76.7893 190.554 76.986 190.708C77.4736 191.093 77.6019 191.666 77.6019 192.248C77.6019 192.847 77.1828 193.095 76.5754 192.949C76.1221 192.838 75.6687 192.701 75.2068 192.659C73.9664 192.539 72.7346 192.351 71.4942 192.282C70.0657 192.197 68.7483 191.649 67.3283 191.589C66.3702 191.547 65.4122 191.29 64.4541 191.119L64.4455 191.144ZM191.852 358.354C192.032 359.167 192.16 359.928 192.374 360.664C192.46 360.963 192.639 361.22 192.999 361.4C194.085 361.938 195.077 361.844 195.984 361.066C197.49 359.783 198.311 358.021 199.175 356.327C199.662 355.377 200.056 354.342 200.372 353.282C200.843 351.69 201.561 350.176 202.246 348.662C202.733 347.567 203.204 346.472 203.58 345.335C203.845 344.513 204.119 343.684 204.401 342.862C204.461 342.683 204.53 342.46 204.667 342.349C205.248 341.862 206.651 341.964 207.199 342.495C207.772 343.059 208.328 343.641 208.901 344.197C209.517 344.787 209.85 344.744 210.304 344.026C210.398 343.889 210.466 343.726 210.526 343.572C210.723 343.111 210.903 342.649 211.117 342.195C211.433 341.528 211.792 340.878 212.092 340.202C212.656 338.919 213.118 337.584 213.743 336.336C214.384 335.052 214.649 333.615 215.462 332.401C215.838 331.845 215.71 331.571 215.18 331.229C215.009 331.117 214.812 331.066 214.632 330.972C212.579 329.911 210.526 328.842 208.465 327.773C208.285 327.679 208.123 327.567 207.951 327.456C207.087 326.875 206.241 326.284 205.368 325.72C204.675 325.266 204.393 325.343 203.974 326.045C203.837 326.276 203.734 326.524 203.58 326.746C202.383 328.431 200.911 329.937 200.056 331.87C200.013 331.964 199.928 332.024 199.868 332.11C199.012 333.307 198.148 334.496 197.301 335.703C196.882 336.293 196.899 336.31 197.515 336.763C198.131 337.217 198.2 337.627 197.763 338.32C197.549 338.671 197.387 339.022 197.396 339.449C197.396 339.706 197.284 339.963 197.199 340.219C196.925 341.075 196.634 341.922 196.378 342.785C196.078 343.803 195.804 344.839 195.514 345.856C195.479 345.985 195.402 346.105 195.36 346.224C195.12 347.02 194.889 347.824 194.641 348.611C194.273 349.783 193.863 350.946 193.512 352.127C193.17 353.307 192.913 354.505 192.502 355.677C192.195 356.549 192.041 357.482 191.835 358.346L191.852 358.354ZM80.6301 329.963C80.5104 329.92 80.3821 329.817 80.2965 329.851C79.4497 330.194 78.791 329.774 78.1409 329.355C77.8586 329.176 77.6105 328.936 77.3111 328.782C75.6516 327.935 73.9749 327.114 72.3069 326.267C71.9818 326.105 71.6739 325.891 71.383 325.677C70.7329 325.207 70.0058 324.916 69.2102 325.061C68.0126 325.284 66.8065 325.343 65.6089 325.446C64.916 325.506 64.2231 325.446 63.5388 325.446C63.0341 325.446 62.5465 325.395 62.0332 325.6C61.7338 325.72 61.3061 325.583 60.9468 325.506C60.3652 325.369 59.8006 325.095 59.2103 325.053C57.8245 324.95 56.4302 325.155 55.053 324.83C54.5654 324.719 54.0179 324.77 53.5731 324.582C52.6663 324.197 51.6655 324.659 50.7844 324.214C50.6989 324.171 50.5791 324.214 50.4764 324.214C50.4422 324.214 50.408 324.214 50.3738 324.214C49.5526 324.351 48.7314 324.514 47.9016 324.608C47.1831 324.685 46.7468 325.164 46.3448 325.651C46.0111 326.053 45.8657 326.532 46.1993 327.054C46.2763 327.174 46.2421 327.388 46.225 327.559C46.1822 327.901 46.3191 328.166 46.5843 328.354C47.2429 328.816 47.876 329.338 48.586 329.689C50.1856 330.459 51.9478 330.767 53.6672 331.143C55.0273 331.443 56.473 331.374 57.8245 331.81C58.9195 332.161 60.0572 332.204 61.1692 332.426C61.5627 332.503 61.9648 332.529 62.3497 332.632C62.9913 332.811 63.6329 333.008 64.2488 333.247C64.5311 333.359 64.6423 333.59 64.5482 333.957C64.437 334.411 64.4199 334.856 64.1034 335.266C63.8724 335.566 63.7013 336.002 63.7013 336.378C63.7013 336.96 63.4105 337.405 63.1966 337.892C63.1196 338.081 62.9999 338.243 62.9143 338.431C62.7774 338.722 62.8544 338.979 63.1282 339.124C63.3591 339.244 63.6329 339.304 63.8724 339.407C64.762 339.783 65.7116 340.065 66.5328 340.561C67.3625 341.066 68.1752 341.562 69.0392 341.998C70.4078 342.7 71.7508 343.461 73.0939 344.205C73.436 344.394 73.5986 344.342 73.7868 343.957C73.8466 343.838 73.8809 343.709 73.9236 343.581C74.3599 342.46 74.7448 341.314 75.2581 340.236C75.9168 338.859 76.8064 337.602 77.4052 336.182C77.8842 335.044 78.5001 333.966 79.0391 332.854C79.2444 332.435 79.3641 331.973 79.6036 331.571C79.8859 331.083 80.2452 330.63 80.5703 330.168C80.6045 330.125 80.6045 330.065 80.6387 329.954L80.6301 329.963ZM57.3455 205.131C57.2086 205.233 56.9777 205.31 56.8836 205.473C56.2078 206.679 55.2326 207.663 54.5312 208.852C53.6757 210.289 52.6321 211.598 51.6826 212.975C51.3062 213.522 51.041 214.172 50.5877 214.652C49.6125 215.687 49.0736 217.064 47.9444 217.962C47.9187 217.979 47.9016 218.022 47.8845 218.048C47.2087 219.117 46.5672 220.22 45.8315 221.255C45.3781 221.888 45.2669 222.453 45.7374 223.095C45.917 223.334 46.071 223.599 46.2763 223.822C47.0719 224.669 48.0984 225.173 49.0564 225.806C49.7066 226.234 49.6809 226.208 50.2284 225.738C51.0924 224.994 51.503 223.933 52.1616 223.043C53.3336 221.452 54.3857 219.784 55.5491 218.193C55.9169 217.697 56.2249 217.192 56.4986 216.653C56.6355 216.388 56.798 216.131 56.9862 215.892C57.337 215.439 57.8074 215.054 58.0555 214.549C58.3549 213.95 58.7655 213.488 59.2189 213.035C59.313 212.941 59.4242 212.847 59.4926 212.735C60.0743 211.837 60.6389 210.939 61.2291 210.041C61.7595 209.228 62.2984 208.424 62.8544 207.628C63.1196 207.244 63.4532 206.901 63.7013 206.508C63.9152 206.174 63.804 205.901 63.4532 205.832C62.5978 205.678 61.7424 205.498 60.8784 205.421C59.7321 205.31 58.5688 205.593 57.3455 205.139V205.131ZM204.829 7.10001C204.752 6.63809 204.692 6.24459 204.607 5.8511C204.444 5.09832 204.265 4.29422 203.597 3.84085C202.922 3.37037 202.169 2.89988 201.39 2.71169C200.655 2.53205 199.842 2.44651 199.029 2.64326C198.593 2.74591 198.191 2.84 197.857 3.15651C197.609 3.37892 197.31 3.55 197.07 3.77242C195.847 4.90158 194.778 6.09917 195.24 7.96399C195.24 7.99821 195.3 8.02387 195.3 8.04953C195.094 8.81942 195.582 9.15303 196.138 9.52942C196.831 9.99135 197.438 10.5901 198.14 11.0521C198.721 11.4456 199.363 11.7364 199.987 12.0615C200.056 12.0957 200.176 12.0615 200.27 12.0529C201.502 11.8562 202.588 11.3857 203.383 10.3848C203.674 10.017 203.854 9.56363 204.162 9.23002C204.744 8.59701 204.573 7.76724 204.838 7.12568L204.829 7.10001ZM150.758 89.0496C150.578 88.5963 150.441 88.1087 150.202 87.6895C149.791 86.9966 149.244 86.3893 148.876 85.6878C148.097 84.1994 147.054 82.8906 146.139 81.4962C145.642 80.7435 145.172 79.9565 144.308 79.5373C143.649 79.2208 142.982 78.8957 142.306 78.622C141.955 78.4766 141.553 78.7076 141.459 78.9813C141.305 79.4347 141.117 79.9308 141.408 80.4441C142.195 81.8555 143.016 83.2327 144.205 84.3533C144.505 84.6356 144.804 84.9179 144.701 85.397C144.556 86.0471 144.967 86.4064 145.411 86.7485C145.54 86.8512 145.728 86.894 145.831 87.0137C146.429 87.7579 146.994 88.5278 147.584 89.2806C147.704 89.426 147.858 89.5714 148.02 89.657C148.346 89.8195 148.696 89.9393 149.03 90.0847C149.962 90.5038 150.638 90.1018 150.758 89.0496ZM146.558 93.4465C146.523 92.7194 146.215 92.2746 145.925 91.8212C145.343 90.9144 144.47 90.2387 143.983 89.2549C143.897 89.0753 143.812 88.8785 143.666 88.7502C142.819 87.9889 142.392 86.9453 141.827 85.9958C141.468 85.397 141.032 84.8409 140.638 84.2593C140.416 83.9256 140.142 83.6091 140.005 83.2499C139.774 82.6254 139.295 82.3003 138.773 81.9753C138.397 81.7358 138.063 82.0523 138.012 82.2062C137.841 82.6682 137.678 83.2071 137.764 83.669C137.952 84.6955 138.371 85.7049 139.124 86.3978C140.373 87.5441 141.168 88.9812 142.015 90.3926C142.272 90.8204 142.631 91.2053 142.819 91.6587C143.162 92.497 143.495 93.3011 144.368 93.7716C144.667 93.9341 144.855 94.5072 145.103 94.5158C145.42 94.5158 145.745 94.1394 146.062 93.9341C146.121 93.8999 146.181 93.8657 146.233 93.8229C146.369 93.6775 146.506 93.5149 146.566 93.4465H146.558ZM131.365 91.3336C131.382 91.3764 131.425 91.6073 131.536 91.8126C131.81 92.3088 132.05 92.8477 132.418 93.2583C132.734 93.6005 132.837 93.9426 132.794 94.3618C132.76 94.7553 132.854 95.1146 133.128 95.3883C133.435 95.6963 133.761 96.0213 134.145 96.201C134.633 96.4234 134.778 96.8083 134.83 97.2275C134.898 97.8263 135.198 98.3053 135.66 98.5534C136.113 98.8015 136.421 99.1778 136.583 99.5713C137.003 100.555 137.884 100.829 138.731 101.171C139.372 101.428 139.774 101.008 139.68 100.35C139.509 99.1607 138.713 98.2968 138.08 97.3815C137.61 96.6886 137.131 96.0042 136.703 95.2857C136.464 94.8836 136.233 94.4559 135.899 94.1479C135.104 93.3952 134.453 92.5398 133.88 91.633C133.512 91.0428 133.025 90.7091 132.435 90.4525C131.682 90.1275 131.348 90.3499 131.357 91.3593L131.365 91.3336ZM134.941 85.7733C134.479 85.7733 134.257 85.9359 134.24 86.3123C134.222 86.7571 134.197 87.1762 134.625 87.5099C135.138 87.9119 135.523 88.4166 135.488 89.1523C135.48 89.3661 135.6 89.6228 135.737 89.7938C136.404 90.6407 136.908 91.6245 137.781 92.2917C138.26 92.6595 138.585 93.1899 138.688 93.7202C138.79 94.2335 139.013 94.5842 139.364 94.9093C139.492 95.0205 139.612 95.1488 139.714 95.2857C140.151 95.8417 140.561 96.4063 141.006 96.9537C141.126 97.0992 141.34 97.1676 141.494 97.2959C141.707 97.4841 141.87 97.39 141.981 97.2104C142.092 97.0136 142.263 96.7656 142.221 96.5859C142.032 95.7818 141.964 94.9435 141.399 94.2506C140.938 93.686 140.595 93.0188 140.159 92.4286C139.577 91.6501 138.876 90.9487 138.371 90.1189C137.713 89.0411 136.874 88.083 136.421 86.8768C136.173 86.2096 135.506 85.9615 134.95 85.7905L134.941 85.7733Z" fill="#212633"/>
<path d="M168.294 162.633C167.978 162.462 167.661 162.385 167.473 162.188C166.429 161.119 165.428 160.007 164.393 158.929C163.752 158.262 163.076 157.629 162.443 156.962C161.998 156.5 161.613 155.986 161.177 155.516C160.903 155.217 160.621 154.994 160.193 154.857C159.321 154.584 159.15 153.685 159.834 153.044C160.664 152.257 161.587 151.564 162.426 150.785C163.059 150.204 163.76 149.81 164.547 149.468C165.069 149.246 165.522 148.698 165.848 148.193C166.155 147.714 166.609 147.466 167.019 147.133C167.541 146.714 168.072 146.303 168.602 145.892C168.944 145.627 169.286 145.345 169.646 145.097C170.492 144.498 171.339 143.908 172.195 143.326C173.025 142.762 173.863 142.214 174.693 141.658C175.078 141.401 175.539 141.205 175.847 140.871C176.686 139.973 177.969 139.656 178.722 138.656C178.833 138.51 179.064 138.442 179.243 138.356C179.449 138.253 179.697 138.194 179.876 138.057C180.672 137.432 181.485 136.825 182.22 136.149C182.905 135.525 183.709 135.114 184.513 134.712C184.829 134.549 185.206 134.507 185.42 134.875C185.608 135.191 185.582 135.525 185.266 135.79C185.163 135.875 185.077 135.995 184.975 136.072C184.171 136.671 183.349 137.253 182.545 137.86C181.425 138.707 180.304 139.562 179.192 140.426C178.106 141.273 177.036 142.146 175.959 143.001C174.479 144.164 172.999 145.319 171.51 146.457C170.664 147.107 169.774 147.714 168.918 148.356C168.354 148.784 167.806 149.22 167.268 149.682C166.532 150.323 165.822 150.974 164.958 151.461C164.171 151.906 163.452 152.462 162.725 153.001C162.161 153.42 162.144 153.797 162.537 154.43C162.759 154.772 162.965 155.08 163.358 155.268C163.589 155.379 163.76 155.636 163.948 155.832C164.658 156.602 165.368 157.381 166.07 158.159C166.523 158.664 166.934 159.203 167.404 159.682C167.909 160.204 168.123 160.187 168.696 159.742C169.201 159.357 169.714 158.98 170.236 158.613C170.903 158.142 171.459 157.586 171.955 156.927C172.332 156.423 172.905 156.072 173.392 155.661C173.803 155.311 174.214 154.968 174.633 154.626C175.522 153.899 176.412 153.189 177.293 152.462C177.524 152.274 177.815 152.111 177.977 151.872C178.79 150.717 179.825 149.87 181.031 149.134C182.101 148.476 183.23 147.783 183.863 146.611C184.179 146.021 184.744 145.704 185.231 145.319C185.668 144.969 186.087 144.626 186.497 144.233C187.344 143.412 188.251 142.65 189.192 141.949C189.611 141.641 189.97 141.342 190.21 140.871C190.467 140.358 190.826 140.229 191.365 140.418C191.647 140.52 191.921 140.657 192.177 140.811C192.999 141.324 193.016 141.564 192.34 142.248C191.125 143.472 189.825 144.584 188.422 145.602C187.336 146.397 186.42 147.424 185.42 148.347C184.701 149.015 183.974 149.673 183.238 150.323C182.229 151.213 181.211 152.111 180.176 152.975C179.166 153.814 178.114 154.592 177.113 155.439C175.95 156.423 174.829 157.449 173.683 158.441C173.409 158.681 173.093 158.886 172.811 159.126C172.366 159.485 171.921 159.853 171.493 160.229C170.783 160.854 170.108 161.521 169.372 162.12C169.081 162.359 168.67 162.462 168.285 162.633H168.294Z" fill="#212633"/>
<path d="M161.271 172.094C160.929 172.12 160.578 172.145 160.236 172.163C159.654 172.188 159.107 172.145 158.576 171.82C158.046 171.487 157.481 171.17 156.883 170.973C155.625 170.554 154.898 169.528 154.025 168.664C153.889 168.527 153.795 168.339 153.692 168.168C153.102 167.158 152.546 166.123 152.212 165.003C151.955 164.139 151.801 163.249 151.682 162.351C151.605 161.752 151.673 161.145 151.485 160.546C151.357 160.135 151.476 159.716 151.818 159.331C152.357 158.732 152.931 158.715 153.29 159.442C153.504 159.887 153.675 160.392 153.7 160.871C153.752 161.897 154.034 162.838 154.436 163.771C154.718 164.412 154.915 165.08 155.155 165.738C155.232 165.961 155.3 166.192 155.437 166.38C156.771 168.176 158.439 169.536 160.629 170.178C160.912 170.263 161.22 170.281 161.519 170.315C161.75 170.34 162.015 170.298 162.22 170.375C162.871 170.623 163.05 171.016 162.597 171.572C162.263 171.983 161.818 172.214 161.254 172.094H161.271Z" fill="#212633"/>
<path d="M212.442 139.015C211.955 138.741 211.442 138.51 210.98 138.194C209.774 137.355 208.593 136.483 207.413 135.61C207.113 135.388 206.865 135.097 206.591 134.84C205.231 133.574 203.7 132.591 201.955 131.906C200.928 131.504 199.962 130.957 198.978 130.452C198.807 130.367 198.627 130.204 198.55 130.033C198.482 129.879 198.525 129.648 198.585 129.477C198.602 129.417 198.85 129.434 198.987 129.434C199.329 129.434 199.662 129.468 200.005 129.468C200.749 129.468 201.442 129.52 202.16 129.845C204.47 130.88 206.728 131.958 208.473 133.865C209.209 134.669 210.15 135.208 211.014 135.841C211.69 136.337 212.383 136.799 213.058 137.287C213.341 137.492 213.537 138.1 213.392 138.373C213.204 138.715 212.947 138.981 212.442 139.015Z" fill="#212633"/>
<path d="M178.114 115.422C178.55 115.568 178.995 115.688 179.423 115.876C182.049 117.022 184.325 118.75 186.677 120.35C187.644 121.008 188.559 121.753 189.585 122.317C190.449 122.796 190.766 123.669 191.348 124.344C191.382 124.387 191.279 124.661 191.185 124.695C190.672 124.9 190.133 124.721 189.731 124.481C187.934 123.386 186.129 122.283 184.427 121.043C183.375 120.273 182.391 119.4 181.262 118.733C180.372 118.202 179.466 117.698 178.576 117.167C178.088 116.877 177.609 116.577 177.148 116.244C177.045 116.167 176.951 115.936 176.985 115.824C177.036 115.696 177.216 115.568 177.37 115.542C177.601 115.499 177.849 115.534 178.088 115.534C178.097 115.499 178.114 115.457 178.123 115.422H178.114Z" fill="#212633"/>
</g>
<defs>
<clipPath id="clip0_14496_659">
<rect width="364" height="364" fill="white"/>
</clipPath>
</defs>
</svg>
