<svg width="364" height="364" viewBox="0 0 364 364" fill="none" xmlns="http://www.w3.org/2000/svg">
<g clip-path="url(#clip0_14117_457)">
<path d="M195.98 212.65C203.607 212.65 209.789 206.465 209.789 198.836C209.789 191.208 203.607 185.023 195.98 185.023C188.353 185.023 182.171 191.208 182.171 198.836C182.171 206.465 188.353 212.65 195.98 212.65Z" fill="#212633"/>
<path opacity="0.12" d="M196.539 119.31C152.198 119.31 116.238 155.261 116.238 199.635C116.238 244.009 152.178 279.959 196.539 279.959C240.899 279.959 276.839 244.009 276.839 199.635C276.839 155.261 240.899 119.31 196.539 119.31ZM196.379 244.488C170.437 244.488 149.404 223.449 149.404 197.499C149.404 171.549 170.437 150.51 196.379 150.51C222.321 150.51 243.354 171.549 243.354 197.499C243.354 223.449 222.321 244.488 196.379 244.488Z" fill="#212633"/>
<path d="M30.2308 198.158C32.1066 198.377 33.9225 198.477 35.6587 199.615C37.3349 200.713 39.3903 201.272 41.326 201.95C41.6852 202.07 42.2838 201.851 42.6231 201.611C44.2195 200.473 45.3171 198.876 46.2151 197.2C47.8115 194.185 50.4256 192.03 52.4411 189.355C53.1595 188.397 54.0974 188.297 54.9954 188.696C56.1129 189.215 56.6118 190.153 56.532 191.391C56.4122 193.088 55.5542 194.425 54.4167 195.563C51.9023 198.058 50.1063 201.092 48.0909 203.927C47.1929 205.184 46.9734 206.541 47.1729 207.999C47.2727 208.797 48.011 209.855 48.5299 209.715C49.0886 209.576 49.7072 209.216 50.0465 208.777C50.6052 208.019 50.8846 207.041 51.4434 206.282C52.1817 205.264 52.96 204.226 53.9178 203.408C54.9555 202.529 56.2726 202.529 57.5297 203.048C58.5674 203.467 59.2459 204.825 58.7869 205.783C58.0885 207.2 57.3502 208.617 56.4322 209.895C54.4965 212.61 52.501 215.285 50.8447 218.199C50.0864 219.536 49.807 220.794 50.5853 222.251C51.0243 223.089 51.2438 224.048 51.623 224.906C51.7227 225.126 52.1019 225.385 52.3014 225.365C52.5808 225.325 52.9799 225.066 53.0398 224.826C54.2371 220.295 58.1683 217.62 60.4233 213.807C61.2814 212.37 63.5563 212.789 64.3944 214.326C64.9531 215.364 65.2325 216.482 64.7137 217.54C63.9155 219.097 63.0973 220.674 62.0197 222.032C58.4477 226.523 55.8335 232.252 54.6163 237.342C54.3768 238.38 54.4766 239.578 54.6562 240.655C54.9954 242.532 55.4145 244.408 55.9932 246.205C56.7315 248.48 57.4898 250.736 57.5297 253.171C57.5297 253.79 57.6694 254.449 57.8889 255.048C60.104 261.036 60.982 267.344 62.4587 273.492C63.8756 279.361 65.3123 285.229 66.5296 291.138C67.9664 298.124 70.2214 304.951 71.0196 312.077C71.1393 313.175 71.4586 314.293 71.9575 315.271C72.8355 317.048 72.1969 318.325 70.9597 319.523C70.7402 319.742 70.5007 319.962 70.2613 320.182C68.8844 321.459 67.5274 321.12 67.0485 319.363C66.7092 318.145 66.3899 316.908 66.0906 315.67C63.4365 304.692 60.7226 293.733 58.1484 282.734C56.991 277.804 55.8335 272.873 54.4766 267.983C53.1795 263.232 52.1019 258.401 51.0043 253.59C50.1263 249.718 49.3281 245.845 48.5698 241.953C48.0509 239.338 46.8536 237.382 44.5588 235.785C40.887 233.21 37.1154 230.894 33.0445 229.058C32.3261 228.739 31.6277 228.339 30.9692 227.94C30.5102 227.661 30.5501 226.523 30.9692 226.243C32.2064 225.465 33.4835 224.826 34.9802 225.465C36.8759 226.283 38.7517 227.142 40.6475 228C41.6652 228.459 42.643 228.998 43.7007 229.357C43.9601 229.437 44.7384 228.938 44.7384 228.679C44.898 225.744 44.0599 223.03 42.7229 220.475C42.4634 219.956 41.8049 219.596 41.2661 219.297C37.9535 217.44 34.9004 215.085 31.0689 214.227C29.8716 213.967 28.7741 213.129 27.6765 212.49C27.1178 212.171 26.6388 211.572 27.0579 210.933C27.3772 210.434 27.916 209.975 28.4747 209.795C29.0335 209.616 29.7519 209.675 30.3505 209.855C32.3261 210.454 34.2618 211.173 36.2174 211.831C36.9558 212.091 37.6941 212.39 38.4524 212.59C39.5899 212.889 40.3083 212.31 40.428 211.212C40.5876 209.616 40.0888 208.338 38.6719 207.599C35.8383 206.142 32.9647 204.765 30.1111 203.368C29.692 203.168 29.1732 203.128 28.7541 202.909C27.7164 202.33 25.8207 202.37 26.1 200.713C26.3595 199.236 27.9359 198.637 29.3528 198.218C29.6521 198.118 29.9913 198.138 30.3106 198.118L30.2308 198.158Z" fill="#212633"/>
<path d="M300.566 311.798C300.606 309.562 300.845 307.386 301.703 305.27C302.601 303.055 303.339 300.779 304.038 298.484C305.555 293.413 308.009 288.782 310.523 284.171C312.04 281.377 313.676 278.622 315.911 276.306C317.029 275.149 318.086 273.931 319.783 273.652C320.042 273.612 320.421 273.652 320.561 273.811C320.741 274.011 320.86 274.39 320.82 274.67C320.761 275.129 320.621 275.608 320.381 276.007C319.224 277.903 318.186 279.919 316.809 281.656C314.075 285.05 312.399 289.022 310.384 292.815C309.945 293.653 309.765 294.611 309.426 295.509C308.648 297.585 307.829 299.641 307.091 301.737C306.552 303.214 306.073 304.731 305.634 306.229C305.574 306.448 305.834 306.787 305.994 307.047C306.013 307.087 306.333 307.047 306.433 306.947C309.486 303.933 312.758 301.098 315.532 297.845C320.741 291.777 326.867 286.686 332.814 281.417C334.849 279.6 337.842 280.678 338.94 283.453C339.119 283.932 338.68 284.99 338.142 285.03C334.61 285.209 332.414 287.625 330.179 289.86C323.774 296.288 317.428 302.775 311.122 309.323C309.825 310.68 308.887 312.397 307.75 313.934C305.934 316.389 305.096 316.668 302.022 315.85C301.164 315.63 300.626 315.071 300.566 314.193C300.506 313.395 300.566 312.596 300.566 311.798Z" fill="#212633"/>
<path d="M253.372 317.287C253.512 316.389 253.532 315.591 253.751 314.832C255.966 307.227 257.822 299.482 260.596 292.076C263.03 285.569 266.243 279.301 270.653 273.791C270.913 273.472 271.332 273.053 271.771 273.552C271.95 273.752 272.03 274.171 271.95 274.41C271.252 276.167 270.713 278.023 269.735 279.62C267.899 282.614 266.582 285.828 265.106 289.002C262.771 294.052 261.574 299.482 259.538 304.632C258.56 307.107 258.341 309.862 257.662 312.477C257.143 314.453 256.465 316.369 255.806 318.305C255.627 318.844 254.589 319.124 254.17 318.764C253.831 318.485 253.631 318.046 253.392 317.647C253.332 317.527 253.392 317.347 253.392 317.307L253.372 317.287Z" fill="#212633"/>
<path d="M123.023 304.991C122.404 307.905 121.846 310.68 121.187 313.454C121.087 313.874 120.668 314.233 120.329 314.532C120.129 314.712 119.75 314.832 119.471 314.772C119.211 314.712 118.832 314.433 118.812 314.233C118.733 312.836 118.413 311.319 118.812 310.021C119.99 306.089 118.872 302.536 117.475 298.982C116.657 296.926 115.779 294.89 114.961 292.814C113.584 289.301 113.345 285.389 111.389 282.055C111.309 281.916 111.588 281.456 111.808 281.277C112.008 281.117 112.387 281.017 112.646 281.077C112.926 281.137 113.265 281.337 113.424 281.596C114.203 282.794 115.161 283.912 115.619 285.229C117.376 290.279 120.269 294.85 121.766 300.001C122.245 301.657 122.604 303.334 123.023 304.971V304.991Z" fill="#212633"/>
<path d="M107.079 312.057C106.979 312.696 106.919 313.315 106.779 313.934C106.6 314.712 105.422 315.471 104.484 315.211C103.986 315.071 103.507 314.532 103.227 314.053C102.289 312.456 102.469 310.66 102.489 308.923C102.549 305.47 101.771 302.156 99.4557 299.601C97.5001 297.446 96.3627 294.791 94.5667 292.555C94.1077 291.996 94.0279 291.098 93.8483 290.339C93.7086 289.8 94.4469 289.142 95.0456 289.142C96.4425 289.142 97.4402 289.78 98.2983 290.838C101.411 294.711 103.846 298.963 105.502 303.673C106.46 306.408 106.66 309.243 107.079 312.057Z" fill="#212633"/>
<path d="M113.325 53.7174C113.884 54.0168 114.522 54.1366 115.141 54.3162C118.813 55.3742 122.505 56.3722 126.136 57.51C127.952 58.0889 129.748 58.7476 130.128 61.123C130.227 61.7818 131.025 62.3806 131.604 62.8796C132.622 63.7579 133.061 64.9357 133.48 66.1533C133.68 66.7322 133.181 67.5306 132.562 67.5306C131.784 67.5306 130.986 67.4907 130.227 67.2911C127.773 66.6523 125.338 65.8938 122.884 65.2351C121.327 64.8159 119.751 64.5764 118.234 65.3349C117.995 65.4547 117.735 65.8339 117.755 66.0735C117.775 66.4927 117.895 67.1913 118.154 67.2911C120.369 68.1295 122.604 68.888 124.859 69.6266C127.873 70.6047 130.926 71.503 133.939 72.4811C134.677 72.7206 135.655 72.9601 136.014 73.539C137.112 75.2757 138.03 77.1321 138.888 78.9885C139.267 79.8069 138.13 81.0245 137.252 80.805C135.555 80.4057 133.879 79.8867 132.183 79.4675C130.606 79.0683 129.01 78.9286 127.593 79.9267C127.274 80.1462 127.054 80.6652 126.975 81.0644C126.935 81.304 127.194 81.7431 127.434 81.8429C128.431 82.322 129.449 82.8011 130.507 83.1205C133.859 84.1585 137.212 85.1366 140.564 86.0947C141.582 86.3742 142.24 86.973 142.679 87.8713C143.158 88.8893 143.557 89.9273 143.996 90.9453C145.812 95.1971 147.628 99.4489 149.464 103.701C152.557 110.867 155.69 118.013 158.783 125.179C159.482 126.816 159.083 127.854 157.486 128.752C155.551 129.85 153.495 130.768 151.619 131.966C143.777 137.016 137.192 143.484 131.405 150.73C125.897 157.636 121.646 165.281 119.092 173.785C118.813 174.703 118.494 175.601 118.134 176.48L115.82 184.744C115.76 186.181 115.64 187.598 115.5 189.035C115.361 190.453 115.021 191.87 114.981 193.287C114.862 198.078 114.862 202.869 114.782 207.639C114.722 211.013 115.221 214.327 116.059 217.56C117.256 222.171 118.513 226.782 120.29 231.234C123.383 238.979 127.034 246.345 132.861 252.473C133.3 252.932 133.64 253.471 134.059 253.97C137.491 257.982 141.163 261.715 145.713 264.489C147.329 265.487 148.726 266.845 150.282 267.963C151.021 268.502 151.041 269.2 151.26 269.979C152.098 272.853 151.959 275.528 150.342 278.123C149.923 278.782 149.764 279.6 149.544 280.379C146.73 290.339 143.957 300.32 141.103 310.261C140.724 311.598 141.083 312.736 141.402 313.974C142.121 316.788 143.079 317.706 145.852 317.886C146.81 317.946 147.768 317.866 148.726 317.886C154.433 318.066 160.2 317.507 165.848 318.884C167.524 319.303 168.741 318.265 169.38 316.429C169.899 314.932 170.397 313.415 171.036 311.978C171.754 310.381 172.513 308.864 172.193 306.967C172.054 306.109 172.593 305.151 172.852 304.233C174.289 299.202 176.544 294.412 177.382 289.182C177.781 286.686 178.619 284.251 179.218 281.776C179.856 279.161 181.014 278.462 183.688 279.061C188.357 280.099 193.047 280.938 197.876 280.738C199.153 280.678 200.43 280.698 201.707 280.778C202.745 280.858 203.523 281.516 203.723 282.534C204.222 285.03 204.92 287.525 205 290.04C205.16 294.212 206.257 298.204 206.896 302.296C207.275 304.652 207.574 307.007 207.814 309.383C207.953 310.8 207.754 312.257 208.512 313.574C209.131 314.652 208.911 315.73 208.313 316.748C207.914 317.427 208.273 317.966 208.672 318.445C209.43 319.343 210.388 319.882 211.585 319.882C213.341 319.882 215.097 319.862 216.854 319.882C223.858 319.942 230.882 319.403 237.827 320.641C239.383 320.92 240.481 320.281 241.02 319.104C241.618 317.806 241.478 316.489 240.421 315.591C238.126 313.634 237.647 310.92 237.447 308.265C236.969 301.737 234.674 295.529 234.314 288.942C234.075 284.551 232.758 280.219 231.92 275.847C231.68 274.61 232.119 273.632 233.057 272.893C233.676 272.414 234.414 272.075 235.093 271.656C238.365 269.699 241.738 267.863 244.891 265.727C248.722 263.152 251.696 259.539 255.288 256.665C256.146 255.966 256.864 255.088 257.622 254.249C259.019 252.732 260.496 251.275 261.773 249.658C266.044 244.269 268.877 237.981 272.469 232.172C272.709 231.773 272.808 231.274 272.968 230.835C276.021 222.571 277.937 214.007 278.436 205.244C278.755 199.575 279.154 193.766 277.837 188.097C277.697 187.498 277.777 186.82 277.797 186.181L276.281 178.715C276.021 178.376 275.802 177.977 275.702 177.458C275.023 173.985 273.726 170.751 272.07 167.637C270.813 165.261 269.476 162.866 268.558 160.351C267.66 157.916 266.343 155.8 264.946 153.664C262.571 150.051 259.678 146.857 256.744 143.703C255.128 141.967 253.372 140.35 251.676 138.693C250.079 137.136 248.403 135.659 246.846 134.062C246.447 133.663 246.108 132.904 246.188 132.385C246.527 130.03 249.002 127.674 251.297 127.315C253.172 127.016 255.128 126.956 256.924 126.397C264.367 124.061 271.811 121.726 278.975 118.612C279.693 118.292 280.511 118.053 281.09 117.574C281.748 117.035 281.848 116.117 281.409 115.398C281.11 114.919 280.371 114.26 279.992 114.34C278.536 114.719 277.139 114.24 275.762 114.32C274.425 114.38 273.128 115.318 271.831 115.917C269.955 116.795 268.119 117.733 266.243 118.632C265.525 118.971 264.786 119.41 264.028 119.47C261.733 119.63 259.718 120.448 257.762 121.566C257.104 121.945 256.265 122.065 255.507 122.225C254.849 122.345 254.17 122.225 253.931 121.526C253.791 121.127 253.851 120.528 254.07 120.169C255.327 118.133 256.625 116.137 257.982 114.18C258.321 113.681 258.84 113.162 259.378 112.943C265.684 110.288 272.01 107.673 278.356 105.078C279.972 104.419 281.669 103.92 283.265 103.202C283.744 102.982 284.143 102.323 284.283 101.784C284.363 101.465 283.963 100.866 283.604 100.627C282.387 99.7882 281.269 99.4089 279.633 100.128C275.562 101.924 271.352 103.421 267.181 104.958C266.363 105.258 265.245 106.136 264.567 105.278C263.589 104.02 265.185 103.421 265.744 102.583C266.103 102.064 266.562 101.585 266.802 101.006C268.079 97.9118 270.653 96.5145 273.627 95.5165C280.112 93.3606 286.637 91.2847 292.864 88.4102C293.722 88.011 294.6 87.6118 295.358 87.0529C295.657 86.8532 295.817 86.1746 295.717 85.7953C295.617 85.456 295.079 85.0168 294.719 84.9968C291.327 84.7174 287.915 85.2563 284.981 86.8133C282.088 88.3304 278.975 88.8494 275.961 89.7476C275.542 89.8674 274.924 89.8674 274.604 89.6478C272.25 87.8713 269.276 86.454 270.214 82.5815C270.394 81.823 270.075 80.9247 270.334 80.2061C271.052 78.1701 270.853 76.114 270.853 74.038C270.853 69.5467 270.833 69.5467 268.099 66.333C267.46 65.5744 266.143 65.8339 265.804 66.832C265.485 67.7303 265.185 68.6684 265.146 69.5867C264.906 75.1559 264.806 80.7251 264.507 86.2744C264.407 87.9511 264.467 89.4083 265.684 90.6858C266.323 91.3645 265.984 92.143 265.505 92.8417C263.669 95.6362 261.853 98.4508 260.017 101.245C259.857 101.505 259.598 101.764 259.339 101.864C259.139 101.944 258.84 101.824 258.62 101.724C258.5 101.665 258.401 101.445 258.421 101.305C258.74 96.8738 257.882 92.4225 258.48 87.991C258.72 86.2943 258.281 84.8372 256.784 83.8191C256.146 83.38 255.088 83.6994 254.908 84.4978C254.809 84.9569 254.689 85.436 254.689 85.8951C254.609 91.4643 254.549 97.0535 254.509 102.623C254.509 103.581 254.33 104.759 254.789 105.437C256.186 107.453 255.387 108.97 254.19 110.607C253.532 111.506 253.112 112.563 252.474 113.482C251.835 114.38 251.057 115.158 250.339 115.997C249.221 115.178 250.079 113.941 249.7 112.963C249.161 111.545 249.86 110.148 249.74 108.751C249.62 107.154 249.421 105.577 249.401 103.98C249.381 102.583 249.401 101.186 249.74 99.7682C250.199 97.7122 249.421 96.0155 247.625 94.8378C246.647 94.199 245.13 94.7779 245.031 95.9157C244.911 97.333 244.951 98.7702 244.911 100.207C244.691 108.152 245.789 116.137 244.272 124.061C244.711 126.277 243.255 127.654 241.977 129.032C241.658 129.371 240.8 129.451 240.261 129.311C239.343 129.072 238.465 128.652 237.627 128.193C232.439 125.339 227.031 123.083 221.284 121.606C215.576 120.149 209.889 118.592 203.962 118.492C201.089 118.452 198.215 118.412 195.342 118.492C191.53 118.612 187.659 118.492 183.907 119.131C179.856 119.809 175.885 121.107 171.934 122.305C169.36 123.083 166.845 124.141 164.311 125.079C163.014 125.558 162.236 125.179 161.757 123.802C160.799 121.107 159.961 118.372 158.923 115.697C157.766 112.743 156.209 109.929 155.271 106.914C153.675 101.705 151.021 96.9936 148.706 92.123C147.309 89.2087 146.671 86.2943 147.848 82.9807C150.043 76.8326 151.939 70.5847 153.894 64.3767C154.234 63.3188 154.373 62.201 154.553 61.1031C154.732 60.0252 154.014 58.6678 153.196 58.3285C152.298 57.9692 150.761 58.3085 150.163 59.1868C149.544 60.0851 148.706 61.1031 148.666 62.1012C148.506 65.3549 146.91 68.2293 146.331 71.3632C145.952 73.3793 145.194 75.3355 144.575 77.3117C144.495 77.5313 144.176 77.8507 143.996 77.8307C143.717 77.7908 143.398 77.5513 143.258 77.3117C140.724 73.2396 140.704 73.0799 142.42 68.5287C142.759 67.6305 143.218 66.7921 143.577 65.8938C145.373 61.2827 147.149 56.6916 148.886 52.0606C149.345 50.8629 149.065 49.8449 148.447 49.4257C147.648 48.8867 146.93 49.3858 146.192 49.5455C144.755 49.8648 144.216 51.0026 143.757 52.2402C142.46 55.8333 141.123 59.4064 139.746 62.9795C139.526 63.5384 139.147 64.3169 138.688 64.4366C137.531 64.7161 137.79 63.4585 137.391 62.8996C135.236 59.8256 135.416 56.6317 136.972 53.398C137.252 52.8191 137.571 52.2602 137.79 51.6614C138.768 48.9666 139.726 46.2718 140.624 43.557C140.943 42.6388 139.985 41.8204 138.888 41.8803C137.671 41.9402 136.673 42.4392 136.134 43.4972C135.535 44.615 135.076 45.8127 134.677 47.0104C134.059 48.8268 133.6 50.6833 132.981 52.4997C132.263 54.5558 131.065 55.1346 128.87 54.5957C128.411 54.4759 127.952 54.3362 127.493 54.1965C123.542 52.9988 119.591 51.7811 115.62 50.6234C115.021 50.4437 114.363 50.5036 113.724 50.5435C112.846 50.6034 111.669 51.8809 111.988 52.4798C112.247 52.9588 112.806 53.3381 113.305 53.5976L113.325 53.7174ZM172.852 280.558C171.495 283.313 170.996 286.287 170.497 289.261C170.338 290.2 170.058 291.118 169.759 292.016C168.123 296.827 166.965 301.777 165.528 306.628C163.393 313.894 164.531 313.694 156.608 313.155C156.449 313.155 156.289 313.155 155.551 313.095C154.214 313.095 152.298 313.135 150.402 313.095C149.105 313.055 148.307 312.017 148.606 310.84C149.544 307.307 150.602 303.813 151.46 300.26C152.817 294.551 155.032 289.082 156.069 283.273C156.349 281.736 157.047 280.259 157.566 278.762C158.085 277.265 158.803 275.847 158.883 274.211C158.943 273.113 159.881 272.694 160.998 273.093C161.597 273.312 162.216 273.512 162.755 273.851C165.089 275.269 167.624 276.147 170.258 276.865C170.856 277.025 171.435 277.305 171.974 277.644C172.972 278.283 173.411 279.5 172.892 280.558H172.852ZM232.06 309.782C232.319 311.339 232.479 312.916 232.578 314.493C232.658 315.511 231.9 316.269 230.802 316.289C228.428 316.329 226.033 316.289 223.658 316.289C223.658 316.229 223.658 316.149 223.658 316.09C221.124 315.97 218.57 315.87 216.055 315.67C215.457 315.63 214.878 315.231 214.339 314.892C213.621 314.433 214.199 313.734 214.16 313.155C214.16 312.996 214.219 312.816 214.16 312.676C213.321 310.221 213.461 307.666 213.202 305.151C212.862 301.997 212.384 298.843 211.665 295.769C211.146 293.573 210.927 291.417 210.767 289.182C210.588 286.826 210.089 284.491 209.849 282.115C209.71 280.718 210.268 279.979 211.565 279.7C213.741 279.221 215.936 278.941 218.091 278.442C220.106 277.983 222.042 277.245 224.037 276.766C225.873 276.327 226.712 276.945 226.991 278.802C227.669 283.333 228.248 287.904 229.006 292.415C229.964 298.204 231.042 303.973 232.02 309.742L232.06 309.782ZM161.797 132.864C162.555 134.261 163.253 135.699 163.932 137.136C164.83 139.012 165.668 140.909 166.606 142.745C166.965 143.444 167.424 144.142 168.023 144.621C168.442 144.961 169.24 145.14 169.719 144.981C170.358 144.761 170.457 143.983 170.198 143.344C168.801 139.97 167.444 136.577 165.987 133.223C164.551 129.99 164.83 129.311 168.422 128.133C173.271 126.556 178 124.64 183.069 123.822C189.375 122.784 195.701 121.885 202.067 122.744C204.601 123.083 207.155 122.983 209.65 123.403C213.242 124.021 216.814 124.959 220.286 126.017C225.015 127.455 229.565 129.411 233.875 131.866C234.973 132.485 236.031 133.204 237.048 133.962C238.046 134.701 238.166 135.299 237.527 136.417C236.51 138.214 235.412 139.95 234.334 141.727C232.938 144.043 231.581 146.378 230.104 148.634C228.348 151.269 226.472 153.864 224.596 156.419C224.097 157.097 223.199 157.257 222.421 156.958C221.383 156.558 220.306 156.159 219.408 155.52C217.552 154.183 215.517 153.444 213.321 152.905C211.166 152.366 209.091 151.508 206.976 150.789C201.887 149.053 196.639 148.953 191.39 149.592C187.938 150.011 184.546 150.989 181.094 151.648C178.24 152.187 175.686 153.225 173.491 155.241C172.213 156.399 170.557 157.157 169.06 158.055C164.092 161.09 159.861 164.822 156.967 169.992C154.812 173.865 152.118 177.418 150.662 181.71C149.584 184.903 148.626 188.057 148.486 191.431C148.447 192.229 148.447 193.068 148.167 193.786C147.389 195.802 147.469 197.898 147.628 199.934C148.387 209.656 151.18 218.658 157.526 226.303C159.262 228.379 161.078 230.395 162.774 232.491C166.267 236.843 171.236 239.218 175.765 242.133C177.322 243.151 179.317 243.49 181.133 244.109C185.105 245.466 189.255 245.207 193.366 245.346C195.282 245.346 197.198 245.346 199.113 245.346C201.189 245.346 203.164 244.987 205.16 244.229C207.654 243.27 210.328 242.751 212.942 242.113C215.916 241.394 218.689 240.316 221.224 238.54C223.579 236.903 226.033 235.426 228.468 233.889C232.06 231.613 234.514 228.26 236.889 224.846C240.082 220.255 242.337 215.165 244.532 210.055C244.711 209.616 244.951 209.176 245.011 208.717C245.549 203.348 246.427 198.058 246.108 192.569C245.849 188.037 244.911 183.885 243.414 179.614C240.88 172.348 236.13 167.038 230.244 162.487C229.625 162.008 228.966 161.529 228.468 160.91C228.208 160.591 228.108 159.952 228.248 159.573C228.527 158.834 229.026 158.195 229.445 157.516C230.303 156.179 231.142 154.822 232.04 153.504C234.714 149.552 237.388 145.6 240.082 141.647C240.521 140.988 241.059 140.37 241.578 139.771C242.716 138.453 243.594 138.354 244.851 139.352C245.09 139.551 245.31 139.791 245.549 139.99C251.356 144.601 255.906 150.31 260.137 156.339C266.582 165.521 270.114 175.841 272.649 186.62C272.729 186.92 272.669 187.259 272.729 187.578C273.427 191.511 272.529 195.563 273.587 199.475C272.589 202.27 273.227 205.184 273.008 208.019C272.629 212.809 271.751 217.48 270.514 222.091C269.935 224.247 269.356 226.403 268.917 228.579C268.478 230.715 266.542 231.873 265.784 233.849C264.208 237.861 262.013 241.594 259.319 244.967C256.265 248.82 253.192 252.612 249.461 255.946C243.933 260.876 238.006 265.148 231.481 268.482C223.938 272.334 216.015 275.009 207.435 275.788C203.324 276.147 199.233 276.865 195.082 276.686C193.346 276.606 191.61 276.346 189.874 276.227C187.499 276.067 185.105 275.768 182.73 275.847C178.819 275.967 175.287 275.229 171.714 273.412C168.362 271.715 164.65 270.677 161.218 269.061C157.626 267.384 154.214 265.388 150.821 263.312C146.83 260.856 143.577 257.643 140.025 254.748C138.369 253.391 137.351 251.275 136.034 249.518C135.476 248.76 135.037 247.842 134.338 247.223C128.571 242.133 126.496 234.967 123.642 228.28C122.525 225.665 122.105 222.77 121.188 220.055C120.309 217.46 119.97 214.806 119.771 212.091C119.531 208.777 118.972 205.464 118.893 202.13C118.733 194.784 119.89 187.558 121.786 180.492C122.764 176.839 123.722 173.166 125.139 169.593C126.935 165.102 129.708 161.209 131.764 156.898C139.307 147.336 147.349 138.314 158.464 132.704C158.744 132.565 159.023 132.385 159.302 132.245C160.32 131.746 161.278 131.966 161.777 132.864H161.797ZM242.596 193.547C242.416 196.84 242.157 199.056 242.217 201.272C242.277 203.408 241.838 205.424 241.02 207.32C239.323 211.272 237.727 215.305 235.572 219.017C231.501 226.024 226.053 231.753 218.669 235.386C215.676 236.863 212.823 238.699 209.33 238.759C206.477 240.416 203.244 240.556 200.111 240.895C196.679 241.274 193.167 241.534 189.754 241.214C186.302 240.895 182.81 240.077 179.517 238.999C177.142 238.22 175.007 236.643 172.792 235.386C171.834 234.847 170.976 233.909 169.958 233.649C167.644 233.07 166.027 231.593 164.491 229.976C157.925 223.07 154.014 214.806 152.537 205.464C151.879 201.392 151.979 197.18 152.458 193.068C152.777 190.273 153.675 187.478 154.732 184.844C156.389 180.712 158.185 176.54 161.058 173.086C163.692 169.912 166.686 167.018 169.699 164.184C171.315 162.667 173.211 161.449 175.107 160.251C179.457 157.497 184.406 156.239 189.335 155.061C193.226 154.123 197.178 153.844 201.129 154.842C201.727 155.001 202.406 154.922 203.024 154.961C208.712 155.241 213.86 157.257 218.909 159.672C219.328 159.872 219.747 160.111 220.146 160.391C221.024 160.99 221.304 161.968 220.645 162.906C218.949 165.401 217.771 168.196 215.776 170.551C213.94 172.727 212.603 175.322 210.987 177.677C209.729 179.514 208.432 181.33 207.036 183.047C205.14 185.363 205.08 185.363 201.847 184.185C197.477 182.568 189.654 183.766 185.963 186.7C185.344 187.179 184.805 187.778 184.346 188.397C183.588 189.415 183.069 190.632 182.231 191.571C181.293 192.609 181.034 193.766 180.974 195.064C180.954 195.862 180.934 196.681 180.774 197.439C179.717 202.01 181.592 205.723 184.007 209.396C186.222 212.77 189.195 214.806 193.027 215.963C194.783 216.502 196.419 216.662 198.175 216.303C199.891 215.963 201.608 215.644 203.324 215.265C203.922 215.125 204.601 214.925 205.08 214.566C207.594 212.57 209.929 210.394 210.867 207.18C211.565 204.765 212.723 202.509 212.523 199.795C212.324 197 210.927 194.645 210.328 192.03C210.228 191.571 209.949 191.131 209.69 190.752C207.814 188.137 208.652 185.882 210.727 183.965C213.102 181.77 214.738 179.075 216.514 176.42C219.069 172.587 221.783 168.855 224.457 165.102C225.315 163.904 226.033 163.764 227.31 164.443C232.419 167.118 236.21 171.11 238.784 176.22C241.02 180.652 242.776 185.243 242.396 190.393C242.297 191.79 242.576 193.207 242.596 193.547ZM196.858 198.597C197.038 198.797 197.497 198.996 197.656 198.916C198.335 198.517 199.013 198.078 199.572 197.539C201.069 196.102 202.506 194.605 204.002 193.167C204.122 193.048 204.661 193.128 204.741 193.287C208.532 199.635 207.275 206.282 202.067 210.394C201.468 210.873 200.67 211.193 199.911 211.412C195.182 212.789 189.595 210.933 186.601 207.041C186.501 206.921 186.382 206.801 186.302 206.661C183.628 202.609 184.286 194.944 187.619 191.431C190.034 188.856 193.506 187.498 197.557 187.518C197.876 187.518 198.195 187.558 198.515 187.578C199.872 187.638 201.149 188.017 201.648 189.375C202.067 190.533 201.189 191.471 200.55 192.389C199.253 194.185 197.936 195.982 196.659 197.799C196.559 197.958 196.719 198.437 196.878 198.617L196.858 198.597Z" fill="#212633"/>
</g>
<defs>
<clipPath id="clip0_14117_457">
<rect width="313" height="279" fill="white" transform="translate(26 42)"/>
</clipPath>
</defs>
</svg>
