<svg width="364" height="364" viewBox="0 0 364 364" fill="none" xmlns="http://www.w3.org/2000/svg">
<g clip-path="url(#clip0_14496_1305)">
<path d="M182.763 130.034L192.822 141.271L208.204 146.59H220.025L230.684 142.444L237.382 137.406L243.986 148.856L248.402 157.893L253.911 165.371L259.195 175.062L263.824 182.34L266.692 188.938L270.228 197.536L269.788 205.454L265.812 213.825L259.862 218.237L250.603 224.622L242.225 218.89L242.505 226.968L167.38 222.236L169.155 213.958L159.109 218.69L149.049 220.463L139.577 215.731L131.306 207.467L121.246 195.643L141.352 174.369L149.049 180.274L182.763 130.034Z" fill="#212633" fill-opacity="0.12"/>
<path d="M167.38 222.236L242.505 226.968L243.692 247.056V278.981L242.211 302.321L238.956 331.286L213.234 332.166L206.137 258L203.468 267.45L190.461 333.353L165.019 329.207L163.245 265.091L165.9 242.337L167.38 222.236Z" fill="#212633"/>
<path d="M221.772 91.631C220.038 91.4977 218.304 91.3644 216.569 91.2177C216.409 91.2177 216.249 91.1777 216.116 91.1111C214.181 90.178 212.193 89.3116 210.606 87.8453C209.712 87.0322 208.912 86.0991 208.191 85.126C207.364 84.0063 206.537 82.9133 206.016 81.5403C205.496 80.1674 205.163 78.7544 204.842 77.3548C204.282 74.9155 204.882 72.4895 205.083 70.0501C205.189 68.7438 205.469 67.5175 206.163 66.4911C207.124 65.0648 208.111 63.6385 209.405 62.4255C210.659 61.2658 211.94 60.2394 213.501 59.533C214.368 59.1464 215.275 59.1597 216.182 59.1864C216.663 59.1997 217.13 59.3063 217.263 59.9062C217.41 60.5593 217.17 61.2525 216.649 61.5991C216.529 61.679 216.369 61.719 216.223 61.7857C213.768 62.7854 211.793 64.3317 210.512 66.7044C210.272 67.1576 209.925 67.5708 209.579 67.9573C208.391 69.2903 208.178 70.9432 207.991 72.6228C207.804 74.3023 208.244 75.8619 208.765 77.4215C208.845 77.6614 208.952 77.928 208.938 78.1813C208.845 80.474 210.272 82.0869 211.553 83.6998C212.914 85.406 214.875 86.3924 216.636 87.632C217.757 88.4052 218.944 88.2719 220.065 88.5518C221.145 88.8184 222.373 88.8717 223.507 88.4185C224.347 88.0986 225.241 88.3385 226.148 88.0986C228.483 87.4854 229.951 86.0191 231.071 84.033C231.298 83.6198 231.552 83.2066 231.872 82.8733C232.272 82.4601 232.939 82.4601 233.313 82.8067C233.686 83.1532 233.579 83.5131 233.379 83.953C232.299 86.2324 230.658 88.0986 228.777 89.7115C228.096 90.298 227.056 90.4313 226.242 90.8978C224.814 91.6976 223.28 91.511 221.746 91.631H221.772Z" fill="#212633"/>
<path d="M217.41 118.144C216.169 117.931 214.328 117.544 212.474 117.291C210.566 117.038 209.299 115.558 207.604 114.958C205.523 114.212 204.309 112.239 202.388 111.279C202.188 111.173 202.028 110.893 201.934 110.666C201.427 109.4 200.667 108.28 199.866 107.2C199.306 106.454 199.399 105.734 199.986 105.321C200.734 104.801 201.734 104.868 202.281 105.507C202.415 105.667 202.495 105.867 202.601 106.041C204.056 108.48 205.977 110.573 208.325 112.066C210.726 113.585 213.274 114.945 216.249 115.278C217.45 115.411 218.664 115.465 219.865 115.571C222.266 115.785 224.361 114.825 226.495 113.972C227.683 113.492 228.697 112.732 229.551 111.786C230.124 111.146 230.791 110.679 231.592 110.333C232.019 110.146 232.366 109.986 232.739 110.36C233.099 110.719 233.139 111.359 232.726 111.799C232.112 112.452 231.418 113.025 230.751 113.639C230.631 113.745 230.458 113.772 230.364 113.892C228.563 115.998 226.002 116.664 223.547 117.558C223.347 117.624 223.16 117.771 222.96 117.784C221.332 117.917 219.705 118.024 217.437 118.184L217.41 118.144Z" fill="#212633"/>
<path d="M246.08 44.5507C246.08 44.8706 246.107 45.1905 246.08 45.4971C245.947 46.8567 244.679 47.8965 243.359 47.7232C242.731 47.6432 241.971 46.7768 241.931 46.0703C241.904 45.3905 241.891 44.6973 241.931 44.0175C241.984 42.9511 243.158 41.9514 244.279 41.9914C245.4 42.0314 246.053 42.7912 246.08 44.0842C246.08 44.2441 246.08 44.4041 246.08 44.564V44.5507Z" fill="#212633"/>
<path d="M209.592 41.2981C209.592 41.618 209.645 41.9513 209.592 42.2445C209.472 42.831 209.125 43.2976 208.538 43.4709C207.924 43.6575 207.284 43.7241 206.79 43.151C206.217 42.4845 205.39 41.9246 206.03 40.8449C206.137 40.6716 206.03 40.3517 205.963 40.0985C205.736 39.0987 205.843 38.6722 206.43 38.3123C206.964 37.979 208.111 38.1257 208.632 38.5922C209.432 39.3253 209.645 40.2717 209.605 41.2981H209.592Z" fill="#212633"/>
<path d="M96.0449 156.04C96.205 156.067 96.3517 156.107 96.5118 156.134C97.3523 156.267 97.4724 156.12 97.2322 155.307C97.0188 154.561 96.6986 153.814 96.6452 153.055C96.5251 151.415 98.0194 150.455 99.607 151.068C100.287 151.335 100.954 151.615 101.648 151.842C102.849 152.215 103.329 151.842 103.196 150.642C103.009 148.936 103.343 146.95 104.036 145.817C104.103 145.697 104.236 145.55 104.356 145.537C105.277 145.403 106.211 145.163 107.118 145.683C108.039 146.203 108.959 146.736 109.813 147.363C112.174 149.109 114.509 150.895 116.977 152.508C119.139 153.908 121.1 155.614 123.141 157.187C123.394 157.387 123.635 157.667 123.915 157.747C124.302 157.853 124.942 157.96 125.075 157.787C125.622 157.04 126.209 156.227 126.396 155.334C126.636 154.241 127.023 153.388 127.93 152.748C128.624 152.268 129.198 151.482 129.958 151.255C131.279 150.882 131.559 150.935 132.573 150.122C132.653 150.055 133.587 150.655 133.667 150.589C133.56 151.882 133.907 151.935 134.868 153.295C135.175 154.867 135.602 156.414 136.122 157.96C136.589 159.333 137.029 160.719 137.603 162.052C138.11 163.225 138.31 164.518 139.244 165.531C139.511 165.811 139.617 166.291 139.657 166.691C139.751 167.584 140.071 168.397 140.511 169.184C141.392 170.77 142.165 172.423 143.126 173.969C143.286 174.222 143.446 174.462 143.606 174.715L139.791 177.555C139.791 177.555 139.857 177.488 139.884 177.448C140.631 176.355 140.631 175.835 139.884 174.662C139.017 173.302 138.256 171.889 137.536 170.437C135.588 166.558 134.761 162.332 133 158.4C132.747 157.84 132.8 157.16 132.667 156.547C132.573 156.094 132.386 155.667 132.266 155.214C132.106 154.614 131.719 154.614 131.292 154.814C129.798 155.507 128.958 157.147 129.211 158.8C129.331 159.573 129.451 160.346 129.585 161.132C129.705 161.812 129.651 162.439 129.385 163.079C128.971 164.078 128.464 164.105 127.41 163.665C126.743 163.385 126.436 162.905 126.063 162.479C124.929 161.172 123.701 160.053 122.074 159.413C121.887 159.333 121.66 159.2 121.567 159.026C120.86 157.813 119.686 157.067 118.565 156.427C115.203 154.481 112.388 151.815 109.226 149.602C108.626 149.176 107.959 148.842 107.305 148.522C106.651 148.203 105.904 148.536 105.944 149.216C105.984 150.055 105.984 150.868 106.785 151.628C107.972 152.748 108.892 154.134 110.307 155.041C110.92 155.441 111.414 156.04 112.214 156.174C112.495 156.214 112.841 156.494 112.975 156.747C113.455 157.653 114.322 158.107 115.069 158.693C117.538 160.613 120.006 162.519 122.501 164.398C123.248 164.958 123.635 165.651 123.688 166.518C123.701 166.851 123.661 167.384 123.474 167.464C123.101 167.637 122.581 167.624 122.154 167.557C121.873 167.504 121.633 167.197 121.38 166.997C120.233 166.118 119.112 165.171 117.911 164.358C115.083 162.425 112.294 160.439 109.56 158.36C108.786 157.773 107.798 157.44 106.865 157.12C106.011 156.827 105.184 156.56 104.463 155.96C104.156 155.694 103.729 155.561 103.356 155.387C102.595 155.027 101.848 154.641 101.075 154.334C100.768 154.201 100.287 154.028 100.181 154.534C100.141 154.734 100.367 155.094 100.568 155.254C101.995 156.387 103.369 157.64 104.93 158.573C106.998 159.813 108.559 161.652 110.56 162.945C111 163.225 111.467 163.465 111.934 163.732C112.121 163.838 112.348 163.905 112.481 164.052C114.202 166.171 116.644 167.397 118.645 169.157C119.072 169.53 119.472 169.97 119.806 170.437C120.406 171.276 120.366 171.61 119.806 172.369C119.285 173.089 118.552 173.382 117.658 173.316C116.924 173.262 116.284 172.956 116.137 172.196C115.87 170.93 114.896 170.45 113.882 169.957C113.695 169.863 113.482 169.81 113.308 169.69C111.467 168.41 109.626 167.131 107.798 165.851C105.704 164.385 103.649 162.839 101.501 161.439C100.234 160.613 98.8065 160.013 97.339 159.613C97.1388 159.559 96.9387 159.493 96.7253 159.48C95.8181 159.413 95.6847 159.626 95.738 160.519C95.7914 161.439 96.205 162.039 96.9787 162.585C98.3796 163.572 99.727 164.665 101.088 165.718C102.195 166.571 103.289 167.451 104.423 168.264C105.637 169.13 106.918 169.89 108.132 170.743C109.319 171.583 110.36 172.676 111.614 173.342C113.002 174.076 114.189 175.049 115.43 175.955C116.243 176.542 116.564 177.301 116.324 178.261C116.19 178.834 115.803 179.048 115.296 178.888C114.509 178.634 113.642 178.394 113.002 177.901C110.92 176.315 108.719 174.982 106.331 173.942C106.051 173.822 105.811 173.569 105.544 173.382C104.61 172.689 103.689 171.996 102.609 171.463C100.968 170.636 99.4869 169.45 97.8326 168.664C96.0849 167.851 94.2571 167.144 92.2826 167.277C91.3488 167.344 90.9085 167.917 91.2687 168.797C91.4555 169.25 91.8424 169.663 92.1892 170.037C93.0564 170.956 93.8569 171.956 94.8442 172.729C96.4318 173.996 97.6325 175.622 99.1667 176.915C100.648 178.168 102.142 179.434 103.783 180.434C105.904 181.714 107.758 183.326 109.8 184.673C111.414 185.739 113.202 186.552 114.949 187.405C117.257 188.525 119.619 189.538 121.94 190.631C122.367 190.831 122.714 191.204 123.114 191.484C123.955 192.071 124.475 192.004 125.155 191.338L119.299 196.483C119.325 195.843 119.912 195.47 120.499 195.217C120.539 195.203 120.566 195.137 120.606 195.11C121.273 194.63 121.34 194.097 120.753 193.537C120.526 193.31 120.259 193.017 119.979 192.964C118.872 192.764 117.964 192.097 116.964 191.657C115.616 191.084 114.256 190.524 112.975 189.831C110.934 188.738 108.879 187.645 106.958 186.352C104.263 184.526 101.875 182.26 99.0066 180.647C98.5263 180.381 98.2595 179.767 97.8192 179.394C96.7519 178.514 95.6179 177.741 94.7241 176.635C93.5767 175.209 91.9891 174.169 90.9619 172.609C90.575 172.009 89.9479 171.556 89.441 171.01C89.2008 170.743 88.9073 170.45 88.8139 170.117C88.4804 168.97 88.1202 167.811 87.9868 166.638C87.88 165.731 88.1602 164.851 89.2008 164.478C90.0813 164.158 90.9485 163.958 91.9224 164.052C93.8702 164.252 93.8702 164.238 93.1765 162.319C92.6829 160.932 92.4427 159.559 92.7763 158.12C93.1898 156.387 94.2438 155.667 96.0048 156.027L96.0449 156.04Z" fill="#212633"/>
<path d="M244.226 237.725C244.279 237.858 244.226 238.045 244.173 238.191L244.133 237.392C244.159 237.512 244.186 237.618 244.239 237.725H244.226Z" fill="#212633"/>
<path d="M271.095 204.294C271.095 206.04 270.481 207.64 269.841 209.226C269.094 211.106 267.893 212.758 266.719 214.425C264.918 217.011 262.61 219.117 259.622 220.423C258.047 221.103 256.82 222.156 255.459 223.036C252.818 224.755 250.416 226.768 247.921 228.674C247.414 229.061 246.907 229.461 246.387 229.834C245.533 230.46 244.666 231.074 243.812 231.7H243.786L243.505 226.941C244.159 226.941 244.813 226.795 245.24 226.475C246.174 225.755 247.014 224.928 248.015 224.315C248.108 224.262 248.215 224.195 248.308 224.142C247.828 223.875 247.361 223.582 246.894 223.262C245.907 222.569 244.933 221.863 244.052 221.05C243.679 220.703 243.372 220.783 243.119 220.956C242.932 221.09 242.825 221.476 242.865 221.729C242.945 222.289 243.185 222.836 243.292 223.396L239.543 218.037C239.543 216.797 239.196 215.558 239.196 214.305C239.196 212.199 238.729 210.172 238.449 208.106C238.356 207.44 238.396 206.747 238.396 206.067C238.396 204.494 237.875 203.001 237.609 201.468C237.408 200.295 237.368 199.082 237.288 197.896C237.208 196.803 237.062 195.723 236.648 194.697C236.568 194.497 236.408 194.297 236.435 194.11C236.648 192.524 236.048 191.018 235.901 189.471C235.727 187.672 235.221 185.912 234.86 184.126C234.794 183.766 234.767 183.406 234.7 183.046C234.527 182.127 234.353 181.22 234.153 180.301C234.073 179.941 233.82 179.594 233.86 179.247C233.98 177.994 233.526 176.875 233.086 175.755C232.832 175.102 232.739 174.462 232.792 173.756C232.859 173.089 232.712 172.396 232.726 171.729C232.739 171.156 232.699 170.463 233.486 170.343C234.127 170.25 234.647 170.476 234.754 171.223C234.754 171.316 234.834 171.423 234.914 171.49C236.541 172.903 236.661 174.969 237.115 176.821C237.462 178.274 237.489 179.807 238.036 181.247C238.129 181.474 238.049 181.767 238.036 182.033C237.995 182.886 238.156 183.66 238.596 184.433C239.089 185.286 239.503 186.206 239.423 187.245C239.423 187.352 239.423 187.472 239.463 187.552C240.29 188.938 240.01 190.511 240.143 191.991C240.21 192.644 240.25 193.23 240.637 193.777C241.131 194.47 241.291 195.163 240.744 195.95C240.37 196.456 240.277 197.056 240.597 197.683C240.744 197.989 240.717 198.389 240.73 198.749C240.744 199.015 240.61 199.335 240.73 199.535C241.451 200.722 241.291 202.175 241.958 203.361C242.011 203.454 242.105 203.574 242.091 203.641C241.651 205.027 242.545 206.307 242.385 207.693C242.318 208.226 242.545 208.813 242.732 209.346C242.945 209.959 243.012 210.546 242.958 211.199C242.838 212.825 242.772 214.465 242.745 216.091C242.732 217.131 243.279 217.944 244.226 218.33C245.333 218.783 246.16 219.543 246.987 220.356C247.574 220.93 248.295 221.396 249.029 221.769C249.589 222.063 250.149 222.343 250.71 222.609C251.483 222.089 252.231 221.543 252.924 220.943C253.832 220.156 254.952 219.57 255.899 218.823C256.9 218.024 257.927 217.331 259.221 216.944C259.822 216.757 260.382 216.384 260.876 216.011C263.584 214.011 265.492 211.385 267.186 208.653C267.893 207.507 268.24 206.16 268.654 204.881C268.92 204.067 269.081 203.228 269.161 202.375C269.214 201.735 269.054 201.082 268.987 200.442C268.88 199.295 268.894 198.136 268.654 197.016C268.347 195.603 267.893 194.217 267.413 192.83C267.146 192.084 266.799 191.324 266.319 190.671C266.012 190.258 265.732 189.845 265.465 189.418C265.292 189.271 265.105 189.058 264.878 188.765C264.598 188.392 264.251 187.978 264.184 187.552C263.917 185.726 262.543 184.539 261.703 183.046C261.316 182.367 260.836 181.727 260.409 181.06C259.075 178.928 257.727 176.795 256.42 174.649C256.1 174.116 255.926 173.502 255.606 172.956C254.765 171.503 253.872 170.09 253.018 168.637C252.644 168.011 252.377 167.317 252.017 166.691C250.763 164.518 249.482 162.359 248.228 160.186C246.761 157.653 245.173 155.187 243.866 152.561C243.079 150.975 242.118 149.469 241.251 147.923C239.917 145.563 238.596 143.177 237.248 140.831C236.861 140.151 236.421 139.472 235.901 138.885C235.581 138.512 235.06 138.485 234.593 138.818L239.009 135.433C239.196 135.673 239.356 135.992 239.383 136.286C239.45 137.285 240.01 137.939 240.837 138.392C241.758 138.885 242.078 139.645 241.918 140.631C241.758 141.631 242.131 142.537 242.878 143.017C244.253 143.897 244.573 145.43 245.293 146.643C246.28 148.309 246.44 150.429 247.921 151.895C247.988 151.961 248.041 152.081 248.068 152.175C248.295 153.628 249.282 154.694 250.003 155.894C250.803 157.24 251.644 158.56 252.431 159.919C253.004 160.919 253.471 161.972 254.045 162.959C254.445 163.638 255.112 164.212 255.379 164.918C255.779 166.011 256.406 166.931 257.033 167.864C257.434 168.477 257.887 169.09 258.114 169.77C258.981 172.489 260.649 174.795 261.863 177.341C263.01 179.781 264.785 181.86 266.532 183.926L267.72 187.045H267.8C267.8 187.045 267.746 187.045 267.72 187.072L268.173 188.258C268.067 188.338 267.96 188.432 267.853 188.512C268.387 189.338 268.867 190.191 269.307 191.058C270.201 192.79 270.708 194.577 271.042 196.496C271.335 198.242 271.095 200.002 271.549 201.721C271.615 202.001 271.482 202.321 271.429 202.615C271.322 203.148 271.082 203.681 271.082 204.227L271.095 204.294Z" fill="#212633"/>
<path d="M243.385 224.662L243.319 223.396C243.399 223.809 243.519 224.315 243.385 224.662Z" fill="#212633"/>
<path d="M272.523 348.202C271.402 348.015 270.388 347.949 269.267 348.202C268.347 348.402 267.306 348.482 266.426 348.255C265.212 347.935 264.011 348.042 262.797 348.002C261.943 347.975 261.089 347.962 260.235 348.002C259.381 348.042 258.874 347.695 258.514 346.909C258.061 345.923 257.527 344.949 256.913 344.043C255.913 342.55 254.725 341.244 253.218 340.191C252.15 339.444 251.243 338.458 250.229 337.605C248.268 335.939 246.28 334.299 244.306 332.646C244.106 332.486 243.852 332.379 243.639 332.246C242.185 331.313 241.544 329.754 241.397 328.247C241.237 326.688 241.784 325.061 242.025 323.462C242.105 322.942 242.371 322.329 242.185 321.929C241.798 321.103 242.185 320.409 242.251 319.663C242.318 318.89 242.531 318.117 242.545 317.33C242.572 315.224 242.865 313.158 243.172 311.065C243.399 309.506 243.345 307.906 243.545 306.347C243.746 304.68 243.759 303.014 244.106 301.361C244.293 300.441 244.106 299.442 244.186 298.495C244.373 296.189 244.506 293.897 244.733 291.59C244.866 290.284 245.48 288.925 244.826 287.578C244.719 287.365 244.733 287.018 244.826 286.792C245.346 285.459 245.053 284.059 245.133 282.7C245.293 279.58 245.533 276.475 245.507 273.342C245.507 272.382 245.733 271.436 245.507 270.436C245.373 269.863 245.653 269.197 245.667 268.57C245.68 267.637 245.627 266.691 245.6 265.757C245.6 265.251 245.6 264.731 245.6 264.225C245.64 263.491 245.867 262.718 245.72 262.025C245.333 260.132 245.453 258.293 245.707 256.4C245.947 254.574 245.867 252.668 245.707 250.815C245.64 249.975 245.933 249.189 245.773 248.375C245.667 247.869 245.627 247.349 245.547 246.829C245.52 246.669 245.44 246.509 245.467 246.376C245.96 243.697 245.226 241.044 245.387 238.365C245.427 237.578 245.333 236.765 245.413 235.952C245.48 235.299 245.226 234.619 245.186 233.939C245.133 233.033 245.186 232.127 245.12 231.233C245.08 230.674 244.96 230.087 244.746 229.567C244.199 228.248 243.999 226.915 244.439 225.528C244.573 225.088 244.573 224.649 244.546 224.169C244.493 223.049 244.293 221.943 244.439 220.796C244.559 219.837 244.279 218.823 244.172 217.837C244.066 216.904 244.386 215.931 243.892 215.024C243.759 214.771 243.839 214.398 243.852 214.078C243.906 212.332 243.639 210.639 243.265 208.933C242.892 207.2 242.825 205.4 242.558 203.641C242.238 201.481 241.851 199.322 241.491 197.163C241.317 196.083 241.211 194.99 240.944 193.924C240.61 192.617 240.61 191.271 240.197 189.938C239.903 189.005 239.61 188.032 239.436 187.032L235.661 182.767C235.541 182.86 235.421 182.94 235.301 183.046C234.633 183.62 234.34 184.166 234.767 185.113C235.1 185.846 235.06 186.739 235.18 187.565C235.247 187.978 235.301 188.392 235.367 188.805C235.554 189.778 235.941 190.711 235.821 191.751C235.794 192.004 235.834 192.297 235.941 192.524C236.368 193.457 236.368 194.443 236.488 195.443C236.701 197.363 237.102 199.255 237.422 201.148C237.635 202.375 237.902 203.601 238.035 204.854C238.209 206.48 238.196 208.12 238.396 209.733C238.636 211.692 239.009 213.652 239.316 215.598C239.343 215.758 239.33 215.918 239.343 216.078C239.45 217.97 239.543 219.863 239.676 221.769C239.716 222.342 239.93 222.889 239.97 223.462C240.063 224.649 239.837 224.875 238.676 224.902C237.982 224.915 237.288 224.902 236.595 224.902C236.595 224.902 236.595 224.915 236.595 224.928C234.487 224.809 232.352 224.862 230.271 224.515C228.883 224.275 227.536 224.355 226.175 224.262C223.534 224.075 220.879 224.062 218.25 223.862C216.449 223.729 214.648 223.849 212.874 223.596C209.912 223.182 206.924 223.529 203.989 223.236C202.081 223.049 200.16 223.236 198.292 222.942C195.317 222.476 192.342 222.942 189.393 222.622C186.472 222.289 183.563 222.462 180.655 222.329C179.574 222.276 178.494 221.969 177.413 221.796C177.106 221.743 176.733 221.623 176.479 221.743C174.745 222.502 173.05 221.463 171.329 221.676C170.542 221.769 170.195 220.983 170.369 220.116C170.796 218.077 171.369 216.078 171.529 213.971C171.623 212.692 172.157 211.439 172.303 210.159C172.53 208.066 173.224 206.107 173.717 204.081C173.878 203.428 173.918 202.734 173.984 202.068C174.158 200.495 174.838 199.082 175.265 197.576C175.585 196.43 175.759 195.23 175.972 194.057C176.172 192.977 176.426 191.911 176.959 190.938C177.066 190.751 177.24 190.564 177.226 190.378C177.186 188.778 177.947 187.352 178.267 185.819C178.627 184.046 179.334 182.353 179.881 180.62C179.988 180.274 180.041 179.914 180.148 179.567C180.415 178.674 180.695 177.781 180.988 176.901C181.108 176.555 181.389 176.235 181.389 175.888C181.402 174.622 181.976 173.569 182.536 172.503C182.87 171.876 183.03 171.263 183.043 170.543C183.043 169.877 183.27 169.21 183.323 168.53C183.363 167.971 183.497 167.277 182.723 167.077C182.109 166.917 181.562 167.077 181.375 167.824C181.349 167.917 181.269 168.011 181.189 168.077C179.427 169.303 179.081 171.343 178.427 173.142C177.92 174.555 177.733 176.075 177.026 177.435C176.919 177.648 176.959 177.954 176.933 178.208C176.879 179.061 176.639 179.821 176.119 180.527C175.532 181.327 175.025 182.18 174.998 183.233C174.998 183.34 174.985 183.46 174.918 183.54C173.958 184.833 174.051 186.419 173.757 187.885C173.624 188.525 173.517 189.111 173.077 189.605C172.503 190.245 172.277 190.911 172.744 191.751C173.05 192.297 173.077 192.897 172.704 193.497C172.517 193.79 172.517 194.19 172.45 194.55C172.41 194.803 172.503 195.15 172.37 195.323C171.529 196.416 171.529 197.882 170.742 198.989C170.676 199.069 170.569 199.175 170.582 199.255C170.876 200.682 169.848 201.855 169.862 203.254C169.862 203.788 169.582 204.361 169.342 204.867C169.061 205.454 168.941 206.027 168.915 206.68C168.861 208.306 168.741 209.946 168.594 211.572C168.501 212.612 167.861 213.345 166.887 213.638C165.739 213.971 164.846 214.638 163.925 215.344C163.285 215.838 162.524 216.237 161.75 216.531C160.35 217.077 158.935 217.61 157.481 217.997C156.32 218.304 155.106 218.37 153.919 218.544C153.252 218.65 152.572 218.85 151.905 218.837C151.024 218.823 150.117 218.717 149.263 218.517C147.902 218.197 146.461 217.957 145.221 217.357C142.245 215.918 139.377 214.278 137.082 211.812C136.656 211.359 136.229 210.852 135.988 210.292C135.495 209.093 134.694 208.146 133.787 207.24C132.933 206.387 132.24 205.36 131.359 204.547C129.905 203.188 128.691 201.641 127.49 200.069C126.783 199.149 125.849 198.389 125.035 197.549C124.235 196.723 124.155 194.83 124.902 193.937C125.756 192.937 126.623 191.924 127.543 190.991C129.505 188.992 131.546 187.072 133.454 185.033C134.788 183.62 135.962 182.06 137.216 180.567C137.589 180.127 137.95 179.674 138.323 179.234C138.83 178.634 139.377 178.061 139.844 177.435C140.631 176.395 141.525 176.315 142.499 177.275C144.1 178.848 145.661 180.447 147.262 182.02C148.289 183.046 148.609 183.046 149.61 182.02C149.93 181.687 150.317 181.314 150.424 180.887C150.891 179.101 152.371 178.074 153.372 176.675C153.826 176.035 154.373 175.462 154.866 174.849C156.427 172.876 157.988 170.903 159.522 168.917C159.896 168.424 160.136 167.824 160.51 167.317C161.497 165.971 162.537 164.651 163.538 163.305C163.965 162.719 164.312 162.065 164.739 161.479C166.22 159.453 167.714 157.44 169.195 155.414C170.916 153.055 172.77 150.775 174.344 148.309C175.292 146.816 176.412 145.43 177.44 143.99C179.014 141.791 180.575 139.565 182.176 137.365C182.643 136.726 183.136 136.099 183.71 135.579C184.07 135.246 184.591 135.273 185.004 135.659C186.138 136.659 187.486 137.445 188.246 138.845C188.459 139.245 188.86 139.632 189.273 139.818C190.714 140.498 191.902 141.511 193.129 142.497C193.209 142.564 193.289 142.644 193.382 142.697C195.997 143.99 198.626 145.283 201.24 146.576C203.068 146.736 204.749 147.523 206.51 147.976C208.031 148.376 209.552 148.256 211.006 148.576C212.46 148.896 213.808 148.656 215.209 148.522C216.569 148.389 217.944 148.376 219.304 148.283C222.626 148.043 225.481 146.443 228.577 145.577C230.991 143.844 233.82 142.737 236.061 140.725C237.435 139.485 238.796 138.219 240.143 136.966L243.305 133.513C243.332 133.287 243.399 133.06 243.492 132.833C243.679 132.407 243.919 131.98 244.226 131.647C245.48 130.247 246.094 128.528 246.801 126.835C247.121 126.075 247.548 125.355 247.988 124.662C248.335 124.116 248.642 123.582 248.588 122.916C248.575 122.663 248.548 122.343 248.682 122.143C249.389 120.957 249.215 119.597 249.482 118.331C249.709 117.264 249.923 116.198 250.176 115.131C250.443 114.012 250.563 112.865 250.843 111.759C251.337 109.746 251.924 107.76 252.431 105.747C252.724 104.588 252.924 103.415 253.191 102.242C253.671 100.162 254.178 98.096 254.672 96.0299C254.779 95.5767 254.832 95.0835 255.059 94.6836C255.953 93.0707 256.059 91.2979 256.286 89.5383C256.446 88.352 256.7 87.179 257.007 86.0193C257.287 84.9396 258.074 84.5264 259.075 85.0596C260.449 85.7927 261.863 85.9393 263.357 85.8727C263.411 85.8727 263.477 85.8593 263.517 85.8727C265.118 86.5925 266.626 85.806 268.053 85.3661C269.601 84.8863 270.935 83.9132 272.096 82.7135C273.136 81.6471 274.11 80.5674 274.67 79.1545C274.777 78.8612 274.937 78.568 275.151 78.3547C276.298 77.2217 276.485 75.9154 276.165 74.3691C275.951 73.3427 276.085 72.2497 276.111 71.1833C276.138 70.3169 275.925 69.5571 275.551 68.7706C274.791 67.1444 273.95 65.5848 272.789 64.2385C271.268 62.4656 269.414 61.106 267.239 60.2263C266.439 59.9063 265.518 59.813 264.651 59.6531C263.637 59.4798 263.21 59.0932 263.317 58.0802C263.437 56.8938 263.584 55.6675 263.984 54.5611C264.745 52.375 265.038 50.109 265.558 47.8829C265.799 46.8832 265.759 45.8035 266.359 44.8704C266.519 44.6305 266.452 44.2572 266.506 43.9506C266.612 43.3908 266.719 42.8309 266.853 42.2711C266.933 41.9245 267.133 41.578 267.133 41.2314C267.119 40.5249 267.226 39.8851 267.573 39.2586C267.72 38.992 267.826 38.6454 267.786 38.3655C267.533 36.8326 268.267 35.4996 268.6 34.0866C268.774 33.3268 268.894 32.5537 269.094 31.8073C269.281 31.1141 269.507 30.4076 269.814 29.7545C270.108 29.1546 270.041 28.7014 269.774 28.1149C269.521 27.5684 269.427 26.9019 269.414 26.2887C269.387 25.0357 269.107 23.916 268.32 22.9163C268 22.5164 267.76 22.0366 267.48 21.5967C266.159 19.6105 262.837 17.851 260.582 18.1176C259.101 18.2909 257.594 18.4775 256.166 19.064C255.099 19.5039 254.965 19.3706 254.245 18.4908C253.471 17.5311 252.644 16.6114 251.79 15.7183C251.55 15.465 251.163 15.305 250.816 15.2384C247.655 14.6519 244.559 14.6919 241.638 16.2781C240.397 16.9446 240.424 16.8646 239.383 15.7716C238.663 15.0118 237.795 14.3986 237.022 13.6788C236.395 13.1056 235.661 12.9323 234.834 12.959C233.66 12.999 232.486 12.8924 231.298 12.919C229.484 12.9723 228.07 13.6921 226.775 14.8118C226.335 15.1984 225.962 15.6516 225.521 16.0515C224.788 16.7047 224.387 16.6647 223.8 15.8249C223.08 14.7985 222.413 13.7321 221.492 12.839C220.052 11.4394 218.317 10.8529 216.396 10.7329C213.314 10.533 210.806 11.8393 208.565 13.8121C208.325 14.0254 208.138 14.3453 207.858 14.4386C207.457 14.5719 207.03 14.7852 206.644 14.172C206.123 13.3322 205.47 12.5458 204.749 11.8526C203.122 10.2797 201.16 9.73321 198.959 10.2797C197.745 10.573 196.558 10.9462 195.357 11.2795C195.277 11.3061 195.197 11.2928 195.103 11.3061L193.382 12.3458C192.702 13.3189 191.968 14.2653 191.328 15.2651C190.314 16.8646 189.674 18.6108 189.407 20.5036C189.193 21.9966 188.633 23.4495 188.766 24.9958C188.78 25.249 188.686 25.5023 188.606 25.7556C188.086 27.4218 187.846 29.1146 187.806 30.8475C187.766 32.0472 187.606 33.2469 187.459 34.4465C187.366 35.2197 187.299 36.0061 187.085 36.7659C186.498 38.8987 186.205 41.0714 186.218 43.2842C186.218 43.6041 186.258 43.9373 186.191 44.2439C185.765 46.1767 185.391 48.1229 185.244 50.109C185.164 51.2287 184.684 51.4819 183.483 51.6552C182.096 51.8552 180.708 52.1218 179.374 52.5483C177.36 53.2015 175.719 54.5478 173.998 55.7208C173.611 55.9874 173.237 56.334 172.984 56.7339C171.409 59.2265 169.982 61.7858 170.235 64.8917C170.302 65.7181 170.529 66.5446 170.529 67.3843C170.556 69.8637 171.636 71.8498 173.384 73.4494C175.198 75.1022 177.2 76.5419 179.641 77.2083C180.908 77.5549 181.135 77.9148 181.082 79.2611C181.055 79.9809 180.868 80.7007 180.775 81.4339C180.642 82.5269 180.521 83.6199 180.388 84.713C180.201 86.1126 180.001 87.4989 179.828 88.8985C179.681 90.0449 179.748 91.2446 179.414 92.3243C178.84 94.2038 178.934 96.1499 178.547 98.056C178.334 99.1358 178.32 100.242 178.133 101.322C177.907 102.708 177.666 104.094 177.32 105.454C176.973 106.867 177.146 108.307 176.999 109.733C176.719 112.465 176.893 115.225 177.253 117.971C177.266 118.077 177.28 118.184 177.32 118.277C177.907 120.37 178.28 122.529 179.147 124.556C179.894 126.315 180.175 128.248 181.202 129.914C181.589 130.527 181.589 131.207 181.028 131.807C180.815 132.034 180.628 132.327 180.575 132.62C180.401 133.606 179.774 134.193 178.907 134.553C177.947 134.953 177.546 135.673 177.586 136.659C177.64 137.672 177.173 138.525 176.386 138.925C174.931 139.645 174.438 141.138 173.597 142.257C172.437 143.804 172.05 145.896 170.422 147.189C170.342 147.256 170.275 147.363 170.249 147.456C169.862 148.869 168.768 149.829 167.927 150.935C166.98 152.188 166.006 153.414 165.086 154.681C164.405 155.614 163.832 156.6 163.151 157.52C162.684 158.16 161.964 158.64 161.617 159.333C161.097 160.373 160.39 161.212 159.656 162.092C159.189 162.652 158.669 163.212 158.388 163.865C157.241 166.478 155.333 168.584 153.852 170.996C152.452 173.289 150.464 175.169 148.516 177.035C147.702 177.821 147.208 177.808 146.648 176.821C146.275 176.182 145.781 175.808 145.207 175.435C144.687 175.102 144.073 174.755 143.766 174.249C143.233 173.342 142.472 172.756 141.632 172.196C141.605 172.183 141.578 172.156 141.565 172.143L138.417 174.929C138.417 174.929 138.417 174.942 138.417 174.955C138.123 175.449 137.763 175.902 137.389 176.342C136.295 177.568 135.321 178.941 134.041 179.927C132.8 180.887 132.053 182.18 131.052 183.3C130.465 183.953 129.665 184.433 129.038 185.073C128.304 185.819 127.57 186.592 126.97 187.445C126.209 188.512 125.422 189.498 124.408 190.338C123.608 191.004 122.981 191.884 122.354 192.724C121.873 193.377 121.433 193.71 120.539 193.404L119.525 196.509C120.246 197.283 120.94 198.069 121.66 198.855C122.087 199.322 122.541 199.775 122.981 200.242C125.142 202.508 127.423 204.667 129.411 207.08C130.439 208.32 131.613 209.426 132.453 210.879C134.027 213.652 136.402 215.718 139.23 217.277C141.058 218.29 142.873 219.317 144.887 219.916C146.595 220.423 148.302 220.916 150.13 220.796C150.69 220.756 151.264 220.943 151.838 221.01C152.145 221.05 152.492 221.156 152.772 221.076C154.533 220.53 156.387 220.65 158.188 220.25C160.163 219.81 162.004 219.197 163.738 218.237C164.779 217.65 165.833 217.051 166.793 216.344C167.207 216.038 167.5 216.158 167.727 216.344C167.901 216.491 167.954 216.891 167.887 217.144C167.741 217.69 167.447 218.21 167.287 218.757C167.154 219.197 166.94 219.757 167.1 220.116C167.367 220.676 167.194 221.116 167.033 221.583C166.34 223.529 166.046 225.528 166.06 227.594C166.06 228.314 166.06 229.181 165.699 229.727C165.032 230.727 165.366 231.9 164.846 232.886C164.779 233.006 164.819 233.206 164.846 233.353C165.246 235.539 165.232 237.818 164.779 239.964C164.405 241.711 164.112 243.47 164.178 245.256C164.218 246.176 164.085 247.056 163.725 247.869C163.311 248.815 163.178 249.775 163.205 250.788C163.231 252.121 163.205 253.454 163.205 254.787C163.205 255.627 163.231 256.453 162.751 257.24C162.524 257.6 162.591 258.16 162.564 258.626C162.524 259.266 162.684 259.959 162.471 260.519C162.191 261.265 161.75 261.865 162.497 262.612C162.684 262.798 162.631 263.358 162.524 263.691C162.111 264.838 162.124 265.944 162.524 267.09C162.631 267.397 162.537 267.864 162.364 268.143C161.937 268.823 161.937 269.53 161.924 270.276C161.924 270.636 161.79 270.996 161.75 271.356C161.71 271.716 161.59 272.116 161.71 272.422C162.231 273.902 162.297 275.422 162.244 276.968C162.217 277.581 162.111 278.221 161.884 278.794C161.497 279.78 161.484 280.727 161.884 281.7C162.017 282.033 162.244 282.393 162.231 282.726C162.204 283.393 161.897 284.086 162.004 284.726C162.111 285.352 162.417 285.912 162.004 286.525C161.924 286.645 161.897 286.858 161.937 286.992C162.431 288.445 161.43 289.978 162.204 291.431C162.297 291.604 162.071 291.924 162.057 292.177C162.004 293.017 161.844 293.883 161.977 294.71C162.297 296.722 162.337 299.495 161.977 301.295C161.87 301.801 161.79 302.414 161.977 302.867C162.337 303.801 162.204 304.747 162.257 305.693C162.284 306.107 162.417 306.506 162.457 306.92C162.497 307.28 162.537 307.653 162.457 307.986C162.151 309.132 162.137 310.265 162.457 311.412C162.524 311.652 162.631 312.012 162.524 312.172C161.977 313.011 162.404 313.811 162.578 314.598C162.804 315.664 163.138 316.704 163.405 317.77C163.485 318.077 163.591 318.45 163.485 318.69C162.778 320.236 163.551 321.676 163.685 323.155C163.818 324.635 163.845 326.115 163.805 327.594C163.805 328.087 163.378 328.461 162.884 328.767C162.284 329.127 161.804 329.714 161.283 330.207C161.057 330.42 160.883 330.7 160.67 330.927C159.749 331.953 158.842 332.966 157.921 333.992C157.881 334.032 157.855 334.072 157.815 334.099C156.654 334.806 155.533 335.605 154.306 336.152C153.812 336.378 153.372 336.605 153.012 336.978C151.544 338.578 149.797 339.831 148.036 341.07C147.048 341.764 146.194 342.643 145.261 343.43C144.74 343.87 144.233 344.336 143.66 344.696C142.245 345.616 141.952 347.149 141.498 348.575C141.165 349.615 141.045 350.708 140.778 351.774C140.631 352.374 140.244 352.867 139.577 352.827C136.922 352.694 134.388 353.84 131.719 353.48C131.613 353.52 131.492 353.534 131.386 353.574L131.599 356.066C131.719 356.066 131.826 356.053 131.946 356.04C132.053 356.04 132.16 356.013 132.266 356C133.347 355.8 134.414 355.507 135.495 355.427C137.763 355.253 140.031 355.187 142.299 355.08C142.459 355.08 142.632 355.107 142.779 355.08C145.888 354.254 149.076 354.467 152.238 354.454C152.558 354.454 152.892 354.507 153.199 354.427C155.427 353.92 157.668 353.76 159.949 353.8C161.23 353.827 162.511 353.8 163.792 353.8C164.165 353.8 164.552 353.84 164.899 353.747C166.487 353.361 168.087 353.134 169.728 353.161C170.582 353.161 171.436 353.201 172.29 353.147C173.077 353.094 173.851 352.921 174.638 352.854C176.106 352.721 177.586 352.507 179.041 352.574C179.908 352.614 180.748 352.627 181.615 352.574C184.15 352.401 186.685 352.547 189.233 352.267C192.382 351.921 195.57 352.174 198.759 351.974C203.628 351.654 208.525 351.974 213.408 351.588C215.569 351.414 217.73 351.521 219.905 351.348C222.52 351.134 225.201 350.921 227.829 351.548C227.976 351.588 228.15 351.548 228.296 351.534C229.017 351.441 229.751 351.281 230.471 351.281C240.29 351.268 250.096 351.281 259.915 351.241C261.196 351.241 262.49 351.921 263.771 351.281C263.851 351.241 264.011 351.254 264.078 351.308C264.758 351.788 265.532 351.601 266.252 351.574C268.093 351.508 269.934 351.281 271.789 351.294C273.39 351.294 274.977 351.374 276.578 351.454V348.215C276.498 348.229 276.405 348.242 276.325 348.255C275.124 348.535 273.763 348.482 272.536 348.282L272.523 348.202ZM265.585 62.4657C266.239 62.6256 266.893 62.8655 267.466 63.2121C270.695 65.1449 272.736 67.9975 273.243 71.7032C273.603 74.3158 272.589 76.7151 271.082 78.8879C270.295 80.0209 269.321 80.9673 268.2 81.7538C266.813 82.7269 265.665 83.3 263.397 83.2334C262.477 83.34 261.556 83.1667 260.729 82.4203C260.315 82.047 259.728 81.7671 259.181 81.6871C258.287 81.5405 258.221 80.994 258.247 80.3142C258.247 80.1542 258.207 79.9676 258.261 79.8343C258.981 78.2481 259.115 76.5152 259.515 74.849C259.942 73.0761 260.235 71.2633 260.836 69.5571C261.543 67.5576 261.316 65.4115 262.076 63.452C262.17 63.2121 262.223 62.9589 262.29 62.7056C262.423 62.2124 262.77 62.0791 263.25 62.1457C264.024 62.2657 264.825 62.2924 265.572 62.479L265.585 62.4657ZM180.762 74.929C178.961 75.1289 177.613 74.5424 176.612 72.9828C175.985 71.9964 174.945 71.3166 174.358 70.2635C174.051 69.7037 173.744 69.1972 173.744 68.5174C173.744 68.0641 173.504 67.6109 173.464 67.1444C173.291 65.025 173.464 62.8655 174.251 60.9461C175.478 57.9602 177.746 55.8941 180.988 55.1076C181.749 54.921 182.536 54.8144 183.31 54.7877C184.297 54.7477 184.297 54.7877 184.324 55.8674C184.324 56.0274 184.324 56.1873 184.324 56.3473C184.364 56.3473 184.39 56.3473 184.43 56.3606C184.204 57.6936 183.977 59.0266 183.763 60.3729C183.617 61.306 183.43 62.2257 183.376 63.1588C183.27 65.1982 182.816 67.1844 182.443 69.1705C182.136 70.7567 181.962 72.3696 181.776 73.9692C181.695 74.6357 181.402 74.849 180.762 74.929ZM181.455 120.53C181.149 119.33 180.735 118.144 180.548 116.918C180.295 115.251 180.215 113.545 180.081 112.159C180.321 110.759 179.881 109.626 180.428 108.56C180.535 108.36 180.348 107.947 180.188 107.693C179.441 106.534 179.854 105.307 179.961 104.094C179.974 103.948 180.148 103.788 180.135 103.655C179.881 101.882 180.561 100.215 180.855 98.5359C181.149 96.843 181.108 95.1235 181.682 93.444C182.189 91.9377 182.109 90.2448 182.416 88.6586C182.99 85.6327 183.016 82.5269 183.91 79.5544C184.19 78.608 184.19 77.5949 184.337 76.6085C184.51 75.4755 184.697 74.3424 184.871 73.2094C185.017 72.2763 185.138 71.3433 185.284 70.4235C185.591 68.5174 186.098 66.6245 186.165 64.7184C186.232 62.9189 186.765 61.2127 186.912 59.4265C187.045 57.7203 187.459 56.0274 187.739 54.3345C187.739 54.2812 187.806 54.2412 187.806 54.1879C187.606 52.3217 188.166 50.5355 188.5 48.736C188.82 46.9898 188.633 45.177 189.313 43.4841C189.42 43.2042 189.46 42.8576 189.433 42.551C189.247 40.6315 189.914 38.8187 190.207 36.9659C190.407 35.7262 190.754 34.5265 190.741 33.2469C190.741 32.4204 190.914 31.5806 191.061 30.7675C191.421 28.8747 191.781 26.9819 192.048 25.0757C192.315 23.2229 192.168 21.2901 192.929 19.5306C192.996 19.3839 192.969 19.1973 193.049 19.0774C193.743 18.0376 194.303 17.0246 194.356 15.6516C194.383 14.6519 195.384 13.9987 196.344 13.5855C196.824 13.3856 197.331 13.2389 197.798 13.0123C199.719 12.0926 201.587 12.4125 203.081 13.7055C204.162 14.6386 204.869 16.0248 205.096 17.5178C205.229 18.4375 205.63 19.2107 206.217 19.8905C206.39 20.0904 206.83 20.2904 207.03 20.1971C207.311 20.0771 207.631 19.6905 207.644 19.4106C207.644 18.4109 208.044 17.9577 209.018 17.5978C209.739 17.3312 210.379 16.558 210.833 15.8649C211.86 14.2787 213.368 13.6122 215.089 13.2123C215.996 12.999 216.93 12.8524 217.81 13.2389C218.651 13.5988 219.598 13.7854 220.038 14.8118C220.358 15.5716 220.972 16.1981 221.386 16.9179C221.853 17.7444 222.159 18.6108 222.093 19.6105C222.026 20.6769 223.013 21.7166 224.027 21.65C224.347 21.6367 224.868 21.1168 224.894 20.7836C224.988 19.8238 225.455 19.4639 226.335 19.184C226.989 18.9707 227.576 18.3975 228.083 17.8777C228.977 16.9579 229.911 16.1048 231.165 15.7449C232.059 15.4917 233.033 15.0651 233.873 15.2117C234.794 15.3717 235.727 15.9715 236.448 16.6114C237.222 17.2912 237.755 18.2243 238.396 19.0507C238.489 19.1707 238.596 19.304 238.663 19.4506C239.436 21.0368 240.624 21.4767 242.198 20.0638C243.225 19.1307 244.359 18.3709 245.653 17.931C247.014 17.4645 248.495 17.3445 249.816 17.9976C251.217 18.7041 252.137 19.9571 252.738 21.3967C252.818 21.5967 252.684 21.8899 252.631 22.1432C252.377 23.3029 253.391 25.169 254.499 25.5556C255.112 25.7689 255.539 25.5823 255.646 24.8891C256.006 22.5564 257.861 21.8233 259.702 21.2101C260.529 20.9302 261.463 20.8369 262.437 21.1035C263.024 21.2634 263.544 21.45 263.957 21.8233C264.691 22.4898 265.345 23.2496 265.985 23.996C266.132 24.1693 266.212 24.4759 266.212 24.7158C266.225 26.3154 266.279 27.915 266.199 29.5145C266.172 30.1144 265.732 30.6742 265.612 31.2741C265.252 32.9003 264.958 34.5398 264.638 36.1661C264.438 37.1925 264.198 38.2055 264.011 39.2186C263.677 40.9515 263.397 42.711 263.037 44.4438C262.77 45.7102 262.37 46.9498 262.103 48.2295C261.796 49.6558 261.596 51.0954 261.276 52.5217C260.916 54.0946 260.462 55.6275 260.089 57.2004C259.875 58.1068 259.608 59.0266 259.568 59.9597C259.528 60.8794 259.235 61.6925 259.008 62.5456C258.488 64.5584 258.101 66.5979 257.607 68.624C257.047 70.9434 256.78 73.3294 256.18 75.6621C255.713 77.5149 255.006 79.3544 255.032 81.3272C255.032 81.9404 254.859 82.5669 254.712 83.1667C254.338 84.7263 253.831 86.2726 253.551 87.8455C253.138 90.2582 252.377 92.5909 251.924 94.9902C251.47 97.4562 250.803 99.8556 250.336 102.308C250.109 103.481 249.909 104.668 249.616 105.827C249.389 106.68 249.149 107.52 248.882 108.36C248.028 110.986 247.601 113.718 247.054 116.411C246.934 117.011 246.641 117.584 246.44 118.171C245.68 120.383 245.053 122.649 244.132 124.782C243.425 126.448 242.385 127.981 241.464 129.554C239.837 132.353 237.488 134.526 235.207 136.766C234.807 137.165 234.3 137.472 233.82 137.792C232.606 138.605 231.418 139.458 230.164 140.191C229.137 140.778 228.016 141.218 226.949 141.724C226.202 142.084 225.481 142.591 224.694 142.764C223.013 143.124 221.599 144.204 219.811 144.324C218.371 144.417 216.956 144.897 215.529 145.163C215.009 145.257 214.462 145.297 213.941 145.217C212.861 145.07 211.793 144.83 210.713 144.657C210.406 144.603 210.072 144.59 209.765 144.604C208.605 144.63 207.471 144.55 206.363 144.11C205.803 143.884 205.056 144.137 204.496 143.91C202.321 143.044 200.053 142.364 198.039 141.138C197.905 141.058 197.812 140.885 197.665 140.845C195.157 140.125 193.422 138.179 191.461 136.699C189.26 135.033 187.325 132.953 186.245 130.261C186.031 129.728 185.498 129.314 185.124 128.848C184.671 128.275 184.097 127.755 183.79 127.115C182.776 125.009 182.069 122.769 181.495 120.503L181.455 120.53ZM187.939 337.258C187.752 339.618 186.792 341.777 186.312 344.056C186.218 344.51 186.298 345.016 186.245 345.483C186.191 346.056 186.058 346.616 186.018 347.189C185.991 347.549 186.005 347.922 186.071 348.269C186.285 349.242 185.938 349.841 185.017 349.908C183.016 350.041 181.015 350.148 179.014 350.241C176.372 350.361 173.717 350.335 171.103 350.601C168.274 350.895 165.459 351.268 162.244 351.174C159.856 351.281 157.108 351.308 154.373 351.548C152.185 351.748 150.01 352.148 147.795 352.174C147.128 352.174 146.461 352.454 145.781 352.454C144.607 352.454 144.247 351.854 144.66 350.748C144.754 350.508 144.847 350.268 144.994 350.068C146.235 348.375 147.582 346.789 149.263 345.509C150.717 344.403 152.145 343.243 153.586 342.124C154.613 341.324 155.613 340.457 156.707 339.737C158.215 338.764 159.509 337.538 160.923 336.472C162.684 335.139 163.938 333.206 165.993 332.246C166.18 332.166 166.353 331.993 166.46 331.82C167.367 330.233 168.875 330.487 170.195 330.793C172.45 331.313 174.745 331.42 177.026 331.753C178.24 331.926 179.441 331.913 180.642 332.046C181.722 332.166 182.776 332.499 183.843 332.713C184.404 332.819 184.977 332.886 185.538 332.993C186.098 333.086 186.685 333.153 187.219 333.339C187.792 333.539 188.233 333.926 188.193 334.619C188.139 335.512 188.033 336.392 187.966 337.285L187.939 337.258ZM212.3 348.349C211.94 348.522 211.5 348.602 211.1 348.615C209.765 348.642 208.418 348.482 207.111 348.655C204.949 348.962 202.748 348.695 200.627 349.015C198.866 349.282 197.145 349.108 195.757 349.268C194.13 349.268 192.849 349.242 191.568 349.268C191.034 349.282 190.567 349.135 190.341 348.682C189.7 347.415 189.14 346.096 189.513 344.616C190.114 342.243 190.714 339.884 191.315 337.511C191.355 337.365 191.381 337.192 191.355 337.045C191.154 335.685 191.488 334.539 192.649 333.699C193.062 333.406 193.049 332.993 192.769 332.566C192.128 331.593 192.262 330.607 192.622 329.554C193.022 328.367 193.289 327.141 193.289 325.861C193.289 325.501 193.396 325.141 193.516 324.808C193.823 323.955 193.903 323.089 193.943 322.182C193.969 321.476 194.276 320.769 194.436 320.063C194.596 319.303 194.85 318.53 194.85 317.77C194.85 316.69 195.077 315.691 195.37 314.691C195.744 313.438 196.117 312.212 196.197 310.879C196.264 309.812 196.718 308.773 196.931 307.693C197.238 306.16 197.451 304.614 197.758 303.081C198.079 301.441 198.212 299.788 198.692 298.175C199.146 296.642 199.359 295.03 199.679 293.443C199.786 292.937 199.893 292.43 200.013 291.924C200.106 291.524 200.307 291.124 200.293 290.724C200.293 289.391 200.68 288.151 200.96 286.872C201.187 285.805 201.387 284.726 201.587 283.659C202.028 281.353 202.094 278.981 202.881 276.754C203.268 275.688 203.335 274.595 203.508 273.502C203.922 270.876 204.362 268.25 204.789 265.637C204.816 265.491 204.829 265.278 204.936 265.198C205.123 265.038 205.376 264.851 205.603 264.864C205.763 264.864 205.963 265.144 206.07 265.331C206.604 266.384 206.564 267.557 206.337 268.597C205.843 270.929 206.003 273.222 206.483 275.488C206.804 276.994 207.084 278.461 207.044 279.994C207.004 281.22 207.084 282.446 207.03 283.673C206.964 285.272 207.284 286.805 207.764 288.311C208.004 289.058 208.058 289.711 207.831 290.457C207.698 290.897 207.564 291.457 207.711 291.844C208.098 292.883 207.924 293.937 208.004 294.976C208.071 295.909 208.178 296.856 208.325 297.789C208.618 299.588 209.098 301.375 209.192 303.174C209.258 304.28 209.632 305.347 209.365 306.56C209.098 307.786 208.965 309.186 209.552 310.465C209.632 310.639 209.632 310.905 209.579 311.092C209.192 312.558 209.552 313.944 209.886 315.357C209.952 315.664 209.886 315.997 209.912 316.317C210.006 317.304 210.032 318.317 210.259 319.276C210.553 320.529 210.659 321.702 210.299 322.995C209.979 324.128 210.419 325.301 210.939 326.328C211.446 327.328 211.566 328.194 211.3 329.327C211.02 330.527 211.1 331.886 211.34 333.113C211.607 334.512 211.913 335.885 211.833 337.311C211.767 338.698 212.207 340.004 212.354 341.35C212.58 343.443 212.674 345.549 212.767 347.655C212.767 347.869 212.514 348.215 212.287 348.309L212.3 348.349ZM214.742 327.687C214.622 326.808 214.315 325.888 214.462 325.048C214.688 323.768 214.422 322.622 214.115 321.422C213.915 320.676 213.888 319.876 213.794 319.103C213.768 318.89 213.728 318.65 213.794 318.463C214.555 316.357 213.794 314.451 213.007 312.558C212.781 312.012 212.781 311.585 213.074 311.065C213.514 310.252 213.541 309.439 213.261 308.493C212.941 307.4 212.954 306.213 212.821 305.067C212.781 304.76 212.687 304.454 212.647 304.147C212.58 303.627 212.354 303.014 212.54 302.601C213.167 301.268 212.567 300.002 212.46 298.735C212.407 298.029 212.007 297.362 211.793 296.669C211.7 296.336 211.633 295.976 211.66 295.643C211.727 294.27 212.3 292.977 211.927 291.497C211.62 290.297 211.86 288.951 211.86 287.672C211.86 287.045 211.833 286.485 211.406 285.885C211.033 285.392 210.993 284.606 210.926 283.939C210.846 283.259 210.926 282.553 210.899 281.86C210.806 279.7 210.939 277.488 210.513 275.382C209.966 272.702 209.966 270.036 209.926 267.357C209.926 266.851 209.699 266.344 209.632 265.824C209.312 263.478 208.978 261.145 208.978 258.773C208.978 258.413 208.858 258.053 208.765 257.706C208.431 256.36 207.978 255.04 208.338 253.627C208.431 253.281 208.458 252.841 208.325 252.521C207.911 251.548 208.071 250.535 208.031 249.549C208.004 248.655 207.671 247.989 207.057 247.949C206.243 247.896 205.309 247.602 204.722 248.509C204.522 248.815 204.309 249.135 204.215 249.482C203.655 251.748 203.055 254.014 202.628 256.32C202.281 258.173 202.174 260.066 201.934 261.932C201.894 262.238 201.747 262.518 201.667 262.825C201.24 264.331 200.787 265.824 200.4 267.33C200.173 268.197 200.226 269.103 200.133 269.983C199.96 271.636 199.413 273.115 198.852 274.622C198.706 274.995 198.799 275.462 198.759 275.875C198.652 277.181 198.585 278.501 198.412 279.794C198.319 280.5 197.852 281.1 197.758 281.873C197.505 284.206 196.945 286.499 196.824 288.858C196.798 289.271 196.678 289.684 196.518 290.058C195.824 291.657 195.65 293.403 195.41 295.056C195.17 296.709 194.57 298.269 194.53 299.988C194.49 301.828 193.849 303.654 193.462 305.493C193.462 305.547 193.382 305.587 193.396 305.64C193.689 307.746 192.515 309.586 192.315 311.625C192.102 313.731 191.435 315.797 191.141 317.903C190.954 319.21 190.781 320.476 190.194 321.676C190.02 322.022 190.181 322.516 190.114 322.942C190.06 323.342 190.034 323.822 189.807 324.115C189.38 324.662 189.38 325.235 189.58 325.755C189.927 326.608 189.82 327.381 189.513 328.194C189.313 328.727 189.273 329.314 189.153 329.874C188.993 330.7 188.326 331.206 187.539 330.993C185.845 330.54 184.097 330.7 182.389 330.393C181.669 330.26 180.922 330.233 180.228 330.06C178.187 329.54 176.039 329.86 174.024 329.154C173.597 329.007 173.077 329.154 172.597 329.114C171.236 329.02 169.848 328.994 168.514 328.74C167.981 328.634 167.514 328.034 167.114 327.581C166.9 327.328 166.82 326.914 166.78 326.554C166.647 325.355 166.446 324.155 166.446 322.942C166.446 320.676 166.313 318.437 165.833 316.197C165.633 315.277 165.806 314.291 165.779 313.331C165.686 309.732 165.753 306.12 165.419 302.534C164.859 296.483 165.326 290.431 165.139 284.379C165.112 283.379 165.312 282.366 164.846 281.407C164.765 281.233 164.765 280.967 164.832 280.78C165.433 278.807 165.032 276.768 165.126 274.768C165.179 273.542 165.006 272.302 165.166 271.089C165.539 268.077 165.379 265.064 165.486 262.038C165.539 260.745 165.873 259.466 166.073 258.186C166.086 258.08 166.126 257.96 166.086 257.866C165.633 256.947 166.046 256.04 166.086 255.134C166.193 253.081 166.26 251.015 166.42 248.975C166.527 247.789 166.953 246.616 166.967 245.43C166.993 243.67 167.474 242.004 167.621 240.298C167.794 238.418 167.914 236.539 168.261 234.673C168.474 233.553 168.288 232.38 168.594 231.22C168.835 230.314 168.835 229.354 168.968 228.421C169.048 227.808 169.208 227.195 169.261 226.568C169.382 225.288 169.782 224.875 171.023 224.862C172.837 224.862 174.678 224.675 176.452 224.915C178.12 225.142 179.801 224.995 181.455 225.448C182.256 225.662 183.15 225.475 184.004 225.515C186.845 225.648 189.687 225.688 192.502 226.141C192.609 226.155 192.715 226.141 192.822 226.141C195.944 226.248 199.066 226.341 202.188 226.475C203.175 226.515 204.162 226.701 205.163 226.781C206.163 226.848 207.137 226.781 208.151 227.048C209.058 227.275 210.059 227.115 211.02 227.101C213.821 227.075 216.609 227.061 219.358 227.714C219.811 227.821 220.318 227.714 220.799 227.741C223.494 227.874 226.215 227.448 228.91 227.954C230.444 227.408 231.872 228.128 233.339 228.354C233.393 228.354 233.446 228.381 233.499 228.354C235.18 227.994 236.808 229.127 238.502 228.474C238.649 228.421 238.876 228.607 239.063 228.661C240.13 228.967 240.53 229.594 240.424 230.7C240.317 231.687 240.143 232.686 240.584 233.673C240.704 233.939 240.717 234.326 240.637 234.619C240.384 235.646 240.464 236.685 240.677 237.672C241.104 239.685 240.73 241.764 241.251 243.777C241.397 244.35 241.171 245.016 241.131 245.643C241.077 246.376 240.837 247.176 241.051 247.829C241.331 248.682 241.291 249.495 241.291 250.335C241.317 252.574 241.264 254.814 241.317 257.053C241.357 258.573 241.731 260.119 241.584 261.612C241.184 265.691 241.357 269.77 241.304 273.849C240.784 274.902 241.344 276.035 241.051 277.168C240.77 278.207 240.944 279.394 240.997 280.513C241.051 281.66 241.237 282.806 241.291 283.966C241.304 284.472 241.077 284.979 241.024 285.499C240.957 286.085 240.477 286.632 240.944 287.285C241.064 287.458 240.864 287.871 240.81 288.178C240.77 288.431 240.597 288.738 240.69 288.938C241.264 290.218 240.464 291.364 240.41 292.577C240.303 294.603 239.543 296.616 240.29 298.682C240.424 299.055 240.17 299.602 239.997 300.028C239.743 300.588 239.636 301.068 239.903 301.681C240.357 302.774 239.89 303.867 239.623 304.92C239.436 305.667 239.29 306.347 239.583 307.066C239.636 307.213 239.757 307.4 239.703 307.506C239.223 308.573 239.49 309.706 239.383 310.799C239.303 311.572 239.169 312.345 239.089 313.131C239.009 313.865 239.236 314.611 238.796 315.304C238.703 315.464 238.703 315.744 238.769 315.931C239.463 318.01 238.516 319.93 238.196 321.902C238.142 322.209 238.062 322.555 238.129 322.849C238.316 323.662 238.209 324.462 238.129 325.261C238.049 326.101 238.129 326.968 238.102 327.821C238.076 329.007 237.675 329.394 236.448 329.407C235.381 329.42 234.313 329.407 233.246 329.407C233.246 329.367 233.246 329.34 233.246 329.3C231.245 329.447 229.244 329.58 227.242 329.727C226.055 329.82 224.881 329.607 223.68 329.7C222.52 329.794 221.332 329.7 220.158 329.727C219.424 329.74 218.717 329.754 217.97 329.98C216.329 330.46 214.995 329.407 214.742 327.647V327.687ZM252.684 348.002C249.376 348.002 246.08 348.002 242.772 348.002C239.73 348.002 236.701 347.989 233.66 348.002C232.939 348.002 232.219 348.175 231.485 348.269C231.378 348.282 231.258 348.335 231.178 348.295C229.244 347.442 227.336 348.522 225.401 348.349C223.44 348.175 221.466 348.295 219.491 348.322C219.091 348.322 218.691 348.522 218.277 348.602C217.477 348.762 216.823 348.295 216.65 347.482C216.516 346.816 216.369 346.162 216.209 345.509C216.183 345.416 216.036 345.309 216.049 345.243C216.303 344.536 216.409 343.883 216.049 343.137C215.782 342.59 215.729 341.897 215.716 341.27C215.702 340.591 215.836 339.924 215.902 339.244C215.942 338.831 216.103 338.338 215.942 338.005C215.435 336.912 215.729 335.805 215.702 334.699C215.676 333.513 216.249 333.046 217.45 332.953C218.704 332.859 219.958 332.699 221.212 332.646C222.44 332.593 223.667 332.646 224.894 332.619C225.255 332.619 225.615 332.499 225.975 332.446C226.175 332.406 226.429 332.26 226.575 332.34C228.03 333.006 229.457 332.14 230.925 332.286C232.405 332.433 233.9 332.313 235.394 332.313C235.554 332.313 235.727 332.34 235.874 332.313C237.929 331.78 239.45 332.779 240.917 334.019C241.958 334.899 243.038 335.712 244.092 336.592C245.066 337.405 245.987 338.271 246.947 339.084C248.228 340.177 249.456 341.337 250.843 342.283C252.191 343.203 253.191 344.363 253.952 345.763C254.205 346.242 254.699 346.829 254.579 347.229C254.338 348.082 253.445 348.002 252.697 348.002H252.684Z" fill="#212633"/>
</g>
<defs>
<clipPath id="clip0_14496_1305">
<rect width="188.578" height="346" fill="white" transform="translate(88 10)"/>
</clipPath>
</defs>
</svg>
