<svg width="32" height="32" viewBox="0 0 32 32" fill="none" xmlns="http://www.w3.org/2000/svg">
<path d="M16.0002 30.6667C24.1003 30.6667 30.6668 24.1002 30.6668 16C30.6668 7.89982 24.1003 1.33333 16.0002 1.33333C7.89999 1.33333 1.3335 7.89982 1.3335 16C1.3335 24.1002 7.89999 30.6667 16.0002 30.6667Z" stroke="#4CA1E8" stroke-width="2" stroke-linecap="round" stroke-linejoin="round"/>
<path d="M12.6668 13.5333C12.0211 13.1373 11.2777 12.9295 10.5202 12.9333C9.76271 12.9295 9.01925 13.1373 8.37354 13.5333" stroke="#4CA1E8" stroke-width="2" stroke-miterlimit="10" stroke-linecap="round"/>
<path d="M12.5601 21.7066C13.5981 22.3336 14.7874 22.6655 16 22.6667C17.2275 22.6688 18.4317 22.3319 19.48 21.6933" stroke="#4CA1E8" stroke-width="2" stroke-miterlimit="10" stroke-linecap="round"/>
<path d="M23.6268 13.5333C22.9811 13.1373 22.2376 12.9295 21.4801 12.9333C20.7227 12.9295 19.9792 13.1373 19.3335 13.5333" stroke="#4CA1E8" stroke-width="2" stroke-miterlimit="10" stroke-linecap="round"/>
</svg>
