<svg width="36" height="36" viewBox="0 0 36 36" fill="none" xmlns="http://www.w3.org/2000/svg">
<path d="M18 1.98C18 0.886477 18.8892 -0.011264 19.9761 0.108781C22.9303 0.435063 25.7688 1.48934 28.2311 3.19038C31.2384 5.26796 33.542 8.21187 34.8354 11.6306C36.1288 15.0493 36.3508 18.7807 35.4718 22.3286C34.5928 25.8766 32.6545 29.0728 29.9147 31.4923C27.1748 33.9117 23.7634 35.4397 20.134 35.8731C16.5045 36.3064 12.8292 35.6245 9.59679 33.9181C6.36437 32.2117 3.72805 29.5616 2.03846 26.3204C0.655091 23.6666 -0.0399365 20.7195 0.00175473 17.7476C0.0170936 16.6542 1.01793 15.8829 2.10306 16.0182C3.18818 16.1535 3.94342 17.1453 3.96202 18.2387C3.99892 20.4085 4.5386 22.5497 5.55 24.4899C6.86788 27.0181 8.92421 29.0851 11.4455 30.4161C13.9668 31.7471 16.8335 32.279 19.6645 31.941C22.4954 31.603 25.1564 30.4111 27.2934 28.524C29.4305 26.6368 30.9424 24.1437 31.628 21.3763C32.3136 18.609 32.1405 15.6984 31.1316 13.0318C30.1227 10.3653 28.326 8.06901 25.9802 6.4485C24.18 5.20485 22.122 4.40442 19.9735 4.09938C18.8908 3.94567 18 3.07352 18 1.98Z" fill="#212633"/>
</svg>
